<?xml version="1.0" encoding="UTF-8"?>
<svg version="1.1" xmlns="http://www.w3.org/2000/svg" width="2133" height="2133">
<path d="M0 0 C85.22770619 -0.13707146 170.45542568 -0.26427339 255.68321228 -0.33874512 C256.94396098 -0.33984957 258.20470968 -0.34095403 259.50366289 -0.34209196 C286.23380398 -0.36545038 312.96394615 -0.3872067 339.69409009 -0.40703743 C353.12131826 -0.41700066 366.54854617 -0.42728045 379.97577387 -0.43785953 C382.00123368 -0.43945352 384.0266935 -0.44103847 386.05215332 -0.44262304 C417.24523673 -0.46710592 448.43829518 -0.49838205 479.63134766 -0.54931641 C480.30214058 -0.5504116 480.97293351 -0.55150679 481.66405349 -0.55263516 C492.47937633 -0.57033437 503.2946982 -0.58860315 514.11001995 -0.60694752 C559.33046985 -0.68363543 604.5508873 -0.73482671 649.77140492 -0.75131992 C656.05859112 -0.75362527 662.34577717 -0.75623037 668.63296318 -0.75901794 C669.8704109 -0.75955733 671.10785862 -0.76009671 672.38280475 -0.76065244 C692.32826938 -0.77011808 712.27359181 -0.80725447 732.21899837 -0.85465627 C752.25517946 -0.90168627 772.29121911 -0.91976096 792.3274535 -0.90801102 C804.2416175 -0.90191142 816.15526512 -0.91828042 828.06933618 -0.96638034 C836.01988793 -0.99629484 843.97010008 -0.99736966 851.92067492 -0.97465451 C856.45622724 -0.96253196 860.99080055 -0.96327036 865.52624942 -0.99906546 C869.65017657 -1.03136655 873.77235819 -1.02703728 877.89625754 -0.99311981 C879.38105469 -0.98739189 880.86597886 -0.99516701 882.3506133 -1.01788196 C893.40672799 -1.17635515 893.40672799 -1.17635515 897.38532697 1.76115042 C899.15025094 3.75796677 900.57963189 5.75106381 902 8 C903.39470003 9.4802353 904.79029366 10.9596302 906.1875 12.4375 C911.63870108 18.57538339 914.37725625 24.77978255 915 33 C906.62790383 67.12194871 882.58933716 103.15062926 866 134 C864.88902968 136.07406171 863.77837883 138.14829455 862.66796875 140.22265625 C860.78838015 143.73282491 858.90822008 147.24267639 857.02514648 150.75097656 C852.45967016 159.25894379 847.92655149 167.783697 843.40457153 176.31484985 C837.86540112 186.76427774 832.2878506 197.18830768 826.59692383 207.55615234 C821.77736762 216.35892761 817.08577929 225.22872224 812.38925171 234.09750366 C807.92044776 242.53454728 803.41398894 250.9467961 798.8125 259.3125 C792.54389208 270.72240005 786.59284272 282.29340411 780.62353516 293.86181641 C778.28818422 298.37589174 775.930284 302.87786747 773.5625 307.375 C772.96598633 308.50929443 772.96598633 308.50929443 772.35742188 309.66650391 C770.53816087 313.11711742 768.70289476 316.55753209 766.83203125 319.98046875 C766.49937256 320.59035645 766.16671387 321.20024414 765.82397461 321.82861328 C764.94691198 323.43110846 764.06357683 325.03016634 763.1796875 326.62890625 C761.85151908 328.85704544 761.85151908 328.85704544 762 331 C769.63733647 331.91975947 777.20298396 332.19034542 784.890625 332.28125 C786.72219147 332.30886414 786.72219147 332.30886414 788.59075928 332.33703613 C792.47712729 332.39536044 796.36353926 332.44825146 800.25 332.5 C829.32970114 332.89366498 829.32970114 332.89366498 842.296875 333.40625 C843.15621643 333.43521362 844.01555786 333.46417725 844.90093994 333.49401855 C855.90083677 333.98492168 864.48055348 336.15304706 872.23828125 344.37109375 C878.96228364 352.44727213 881.68124984 358.43083942 881 369 C880.49090156 371.9846229 879.67230602 374.80614195 878.75 377.6875 C878.48461426 378.53739502 878.21922852 379.38729004 877.94580078 380.26293945 C870.18906494 404.35982374 859.9122631 427.73471349 850.29443359 451.12768555 C847.84858526 457.07932016 845.41891385 463.03737074 843 469 C842.35487457 470.58578857 842.35487457 470.58578857 841.69671631 472.20361328 C840.41685095 475.36104701 839.14992854 478.5233712 837.88671875 481.6875 C837.49531204 482.64994629 837.10390533 483.61239258 836.70063782 484.60400391 C836.34527451 485.5016748 835.98991119 486.3993457 835.6237793 487.32421875 C835.30918259 488.10885498 834.99458588 488.89349121 834.67045593 489.7019043 C833.93179672 492.23377773 833.87938972 494.37620505 834 497 C841.97962773 499.10556622 849.85738362 499.30703874 858.06060219 499.33552551 C860.42606853 499.34397426 862.79117703 499.36463363 865.15653992 499.38806152 C870.20847125 499.43595085 875.26044126 499.46891152 880.3125 499.5 C939.89092589 499.87203945 993.90757071 501.39282875 1038.36938477 546.00073242 C1065.57108379 574.05519275 1079.40020113 609.00264973 1079.31567383 647.77563477 C1079.31251645 650.79675517 1079.33604471 653.81689063 1079.36132812 656.83789062 C1079.48668558 694.75754963 1064.09377838 726.79189657 1038 754 C1037.23429687 754.81726563 1036.46859375 755.63453125 1035.6796875 756.4765625 C1027.40186094 765.07379073 1018.25520825 772.22435924 1007.9921875 778.27734375 C1007.34368332 778.66132324 1006.69517914 779.04530273 1006.02702332 779.44091797 C1004.67950305 780.23756555 1003.33114661 781.03280042 1001.98196411 781.82662964 C1000.10208652 782.93956233 998.23453577 784.07068455 996.36889648 785.20727539 C993.3452076 787.03736394 990.27731584 788.76866714 987.17407227 790.45996094 C985.955282 791.14088507 984.7506489 791.84795078 983.5637207 792.58300781 C973.5262497 798.75862565 963.6404266 799.52415069 952.09375 799.65795898 C950.50726203 799.68774374 948.92079933 799.71890092 947.33436298 799.75131893 C943.95921565 799.81738649 940.58410038 799.8738714 937.20865822 799.92257309 C932.05618523 799.99698475 926.90427971 800.09332688 921.75224304 800.19302368 C911.6583217 800.38466751 901.56403421 800.54831431 891.46955085 800.70718122 C887.43026289 800.77099007 883.39099646 800.83611211 879.35172874 800.90118736 C869.79351685 801.05513385 860.23527188 801.20688144 850.67700195 801.35717773 C840.94649598 801.51022223 831.21605722 801.66710358 821.48564309 801.82587105 C813.00798046 801.96405326 804.53028019 802.09974114 796.05254775 802.23357147 C791.04339248 802.31267045 786.03425459 802.39259136 781.02515221 802.47497749 C755.34784584 802.89604551 729.68077473 803.08777657 704 803 C703.8591951 803.75895065 703.7183902 804.51790131 703.57331848 805.29985046 C702.8542706 808.6863396 701.62965747 811.68703332 700.32421875 814.89453125 C700.04678833 815.57891769 699.76935791 816.26330414 699.48352051 816.96842957 C698.5561408 819.25170029 697.62199825 821.53213442 696.6875 823.8125 C696.03084006 825.42376056 695.3743499 827.03509033 694.71801758 828.64648438 C686.88893827 847.83077264 678.89358824 866.94722209 670.8927002 886.06034851 C670.54034302 886.90281631 670.18798584 887.74528412 669.82495117 888.61328125 C669.51933762 889.34329346 669.21372406 890.07330566 668.89884949 890.82543945 C667.91340879 893.2094876 666.95647922 895.60420593 666 898 C666.74982021 897.99693155 667.49964043 897.99386311 668.27218246 897.99070168 C689.08582354 897.91807055 709.8838183 898.14730893 730.69347477 898.53992414 C733.18594591 898.58678966 735.67843072 898.63285101 738.17092133 898.67866898 C746.94522405 898.84003181 755.71946226 899.00450277 764.49365234 899.171875 C772.54770207 899.32542178 780.60186092 899.47177945 788.65610337 899.61482465 C795.68066589 899.73993201 802.70511663 899.87041196 809.72950912 900.00472414 C813.87669453 900.08393069 818.0238887 900.16125027 822.17121124 900.23295212 C838.37609495 900.51524434 854.57143263 900.90927712 870.75835943 901.74831319 C872.25141445 901.82507632 873.74465741 901.89828799 875.23808146 901.9675014 C896.93396856 902.99467242 896.93396856 902.99467242 903.875 908.125 C912.02082662 919.14582425 915.12462653 926.96407674 914 941 C912.26622897 949.48267842 906.96088444 955.0205747 901 961 C900.58508158 961.57606181 900.17016317 962.15212361 899.74267146 962.74564184 C897.13677321 966.02026733 895.1094928 967.76157077 890.95559304 968.65424094 C887.03916769 968.91046486 883.15288731 968.94208551 879.23145962 968.90044117 C877.70456947 968.9098708 876.1776957 968.92235983 874.65085277 968.93762681 C870.44364739 968.97075702 866.23750149 968.96022097 862.03024373 968.94268241 C857.45744947 968.9312604 852.88488331 968.96022848 848.31216151 968.98404664 C840.29394488 969.02015074 832.27602414 969.0300407 824.2577343 969.02285385 C812.33412777 969.01219267 800.41084944 969.0412818 788.48730666 969.07797623 C765.95338369 969.14573456 743.41957202 969.16536759 720.88555919 969.16937564 C703.48450896 969.17259048 686.08350251 969.18698866 668.68246651 969.20928001 C663.67642314 969.21556269 658.67037971 969.22179138 653.66433626 969.22800416 C652.41986818 969.22955149 651.17540009 969.23109883 649.89322084 969.23269306 C614.87955982 969.27578374 579.865914 969.30339589 544.8522253 969.30029011 C543.51830708 969.30017966 542.18438886 969.30006951 540.85047063 969.29995965 C534.82796698 969.29944597 528.80546335 969.29882878 522.78295971 969.29818246 C520.09738586 969.29789459 517.41181201 969.29761356 514.72623816 969.29733326 C513.38205957 969.2971905 512.03788097 969.29704336 510.69370238 969.29689185 C468.19642482 969.29213093 425.69955567 969.3433362 383.20239258 969.44067383 C336.22789767 969.54820803 289.25360886 969.60843864 242.27897555 969.60193127 C237.27073165 969.60140885 232.26248777 969.60106791 227.25424385 969.60085106 C226.0210599 969.60076948 224.78787594 969.6006879 223.51732278 969.60060385 C203.66373688 969.60038835 183.81049554 969.64510798 163.95701212 969.70537691 C144.00545412 969.76469107 124.05440068 969.77165969 104.10280334 969.72561166 C92.24748029 969.69972555 80.39368904 969.71261537 68.53852802 969.78120805 C60.61847049 969.82316286 52.69952396 969.81419273 44.77951771 969.76391456 C40.26671118 969.73669908 35.7568707 969.73141571 31.24427175 969.78811602 C1.69463723 970.13567228 1.69463723 970.13567228 -6.23907894 963.14863179 C-8.89897345 960.29947122 -11.05058939 957.36995239 -13 954 C-13.62901327 952.96002391 -14.25802653 951.92004781 -14.90610081 950.84855729 C-19.64125705 942.3099947 -20.53267518 932.56860792 -18.31640625 923.0703125 C-15.70663892 916.11815224 -11.95544661 909.17882525 -5.1875 905.625 C4.95940542 901.81151071 16.65700158 901.93363314 27.36499023 901.49633789 C28.388712 901.4543908 29.41243376 901.41244371 30.46717739 901.3692255 C45.01106431 900.80797632 59.56391282 900.56525481 74.11544347 900.29281878 C77.48882421 900.22931845 80.86217004 900.1640566 84.23551744 900.09881264 C92.21873469 899.94441883 100.20199937 899.79269292 108.18530273 899.64282227 C116.32295645 899.49001682 124.46052397 899.3331323 132.59805876 899.17412895 C139.67238794 899.03602322 146.74676029 898.90030605 153.82117075 898.76642853 C158.00753059 898.68719777 162.19387205 898.60722807 166.38017464 898.52502251 C187.25640459 898.11636003 208.11958378 897.90918009 229 898 C228.72352882 897.3751537 228.44705765 896.75030741 228.16220856 896.10652637 C227.79821709 895.28365981 227.43422562 894.46079325 227.0592041 893.61299133 C226.69894386 892.79865285 226.33868362 891.98431437 225.96750641 891.14529896 C221.07220572 880.05822974 216.4684409 868.86433839 211.9375 857.625 C206.54987158 844.26168392 201.09453506 830.92921411 195.5625 817.625 C190.05140995 804.36709337 184.5662531 791.09922949 179.125 777.8125 C173.27570556 763.53098748 167.39657165 749.2620571 161.5 735 C155.3188309 720.0489816 149.1574133 705.090137 143.02471924 690.11917114 C139.21588065 680.82211543 135.39644434 671.52960155 131.5546875 662.24609375 C130.98427734 660.86769066 130.98427734 660.86769066 130.40234375 659.46144104 C130.01788086 658.53242477 129.63341797 657.60340851 129.23730469 656.64624023 C121.35458517 637.59837795 113.52494938 618.52962399 105.75 599.4375 C105.32007751 598.38190887 104.89015503 597.32631775 104.44720459 596.23873901 C101.29383892 588.49423695 98.14607209 580.74746742 95 573 C94.47051592 571.69653074 93.9410256 570.39306401 93.41152954 569.08959961 C83.19107642 543.92665931 73.02191141 518.74304513 62.88280678 493.54722118 C60.55930943 487.77340286 58.2343241 482.00019485 55.90551758 476.22851562 C46.08315292 451.88227989 36.34041003 427.51154785 26.95703125 402.9921875 C26.58436316 402.01895664 26.21169506 401.04572578 25.82773399 400.04300308 C22.51365664 391.37678228 19.21635961 382.70332697 16.04174805 373.98486328 C15.6567363 372.9300174 15.27172455 371.87517151 14.87504578 370.7883606 C12.88693721 364.45319079 13.31886226 359.94433478 16.0625 353.9375 C20.25935034 346.34544489 25.83846501 339.45192791 34 336 C40.21847685 334.27836359 46.27349275 333.62295716 52.703125 333.40625 C53.63964905 333.36922974 54.5761731 333.33220947 55.54107666 333.29406738 C69.91179358 332.76692072 84.2956823 332.6392001 98.67382812 332.44775391 C102.48573711 332.39579066 106.29754566 332.33872014 110.109375 332.28125 C111.25742615 332.26767456 112.40547729 332.25409912 113.58831787 332.2401123 C120.10979177 332.14003977 126.52341703 331.77997068 133 331 C131.37570453 325.35188166 128.74209825 320.41397465 126 315.25 C125.47946045 314.2612085 124.9589209 313.27241699 124.42260742 312.25366211 C122.94432693 309.44874699 121.46168215 306.64619056 119.97698975 303.84466553 C118.61075585 301.26506367 117.2477571 298.68375683 115.88452148 296.10256958 C111.70644735 288.19244178 107.51783007 280.28793086 103.32568359 272.38525391 C101.41618383 268.78545588 99.5087428 265.18457186 97.60191345 261.58335876 C90.67159424 248.49672294 83.72158746 235.42423482 76.59619141 222.44238281 C71.77743633 213.64149612 67.08723051 204.77329073 62.39126587 195.90652466 C57.87781287 187.38627534 53.3287691 178.88907878 48.6875 170.4375 C43.10773306 160.27049347 37.74588967 149.99581388 32.40527344 139.70166016 C30.28549269 135.62634853 28.14322388 131.56301624 26 127.5 C25.17434533 125.93106001 24.34882558 124.362049 23.5234375 122.79296875 C22.25929865 120.39012117 20.99370099 117.98809838 19.72363281 115.58837891 C13.02554777 102.92894823 6.51264583 90.17684203 0.0758667 77.38290405 C-0.79213735 75.65922295 -1.6621378 73.93654539 -2.53436279 72.21499634 C-7.13204076 63.13266154 -11.55310551 54.00674596 -15.546875 44.640625 C-15.88253479 43.86096375 -16.21819458 43.08130249 -16.56402588 42.27801514 C-19.79697896 34.53439844 -20.42493036 29.62737574 -17.2890625 21.734375 C-13.90219801 14.550117 -8.52655049 9.33541036 -2.85546875 3.8828125 C-0.9354414 2.1286164 -0.9354414 2.1286164 0 0 Z M153.64396393 68.41436854 C150.59288302 68.44512052 147.54179389 68.47491993 144.49070263 68.50462508 C120.98287549 68.73728491 97.49470201 69.16611495 74 70 C74.78218634 74.41152394 76.32478483 77.98938754 78.39453125 81.93359375 C78.73781967 82.59919815 79.08110809 83.26480255 79.43479919 83.95057678 C80.55429587 86.11627303 81.68307613 88.27696653 82.8125 90.4375 C83.59304888 91.94126331 84.37332037 93.44517063 85.15332031 94.94921875 C89.88772688 104.05713615 94.7220272 113.10558692 99.6809082 122.09350586 C103.39641618 128.84060417 106.96537018 135.65661029 110.5 142.5 C114.95919879 151.12818114 119.52117563 159.68795432 124.19921875 168.19921875 C128.71066379 176.42528218 133.10917715 184.70918997 137.5 193 C142.78814612 202.98244014 148.11708939 212.93862446 153.54736328 222.84472656 C157.53338924 230.12332103 161.4611809 237.4323673 165.375 244.75 C165.84922897 245.63658295 165.84922897 245.63658295 166.33303833 246.54107666 C166.80735794 247.42784088 166.80735794 247.42784088 167.29125977 248.33251953 C167.92984198 249.52637162 168.56843247 250.72021927 169.20703125 251.9140625 C169.52334 252.50542999 169.83964874 253.09679749 170.1655426 253.70608521 C175.17412756 263.06705336 180.21601331 272.41011843 185.25292969 281.75585938 C187.03794894 285.07046752 188.82010889 288.38659926 190.6015625 291.703125 C191.20218506 292.82058105 191.80280762 293.93803711 192.42163086 295.08935547 C193.53777755 297.16610123 194.65326167 299.24320335 195.76782227 301.32080078 C201.10879581 311.25371391 206.56403578 321.1164287 212 331 C367.43 331 522.86 331 683 331 C687.95 321.76 692.9 312.52 698 303 C702.08687411 295.40492423 706.17440054 287.81023787 710.26611328 280.21777344 C713.17870265 274.81254563 716.0892423 269.40621432 719 264 C720.16665696 261.83332811 721.33332363 259.66666144 722.5 257.5 C723.36625 255.89125 723.36625 255.89125 724.25 254.25 C743.50000001 218.49999997 743.50000001 218.49999997 745.24975586 215.25048828 C746.41727515 213.08221491 747.58475557 210.91392062 748.75219727 208.74560547 C751.65550171 203.35334972 754.5594645 197.96145065 757.46484375 192.5703125 C783.33193836 144.61232296 783.33193836 144.61232296 808.65161133 96.36401367 C810.92663385 91.96704948 813.21299961 87.57975355 815.578125 83.23046875 C816.15228149 82.17291382 816.15228149 82.17291382 816.73803711 81.09399414 C817.72180451 79.29120294 818.7139952 77.49301487 819.70703125 75.6953125 C821.21625933 73.04741987 821.21625933 73.04741987 821 70 C796.50913599 69.1307587 772.0248923 68.71409901 747.52045166 68.47552595 C744.40791508 68.44514989 741.29538982 68.41375523 738.18286419 68.38227868 C688.7164376 67.88818749 639.25054573 67.85152776 589.78207871 67.86469959 C580.77515417 67.86703344 571.76823152 67.86724995 562.76130676 67.86618423 C561.45085448 67.866031 560.1404022 67.86587777 558.79023924 67.86571989 C556.79237674 67.86548024 554.79451423 67.86524057 552.79665173 67.864993 C528.15025165 67.86197598 503.50385527 67.86463913 478.85745577 67.8700899 C457.25767035 67.87483071 435.65789084 67.87440589 414.05810547 67.86962891 C389.43893962 67.86420154 364.81977701 67.86219049 340.20061064 67.86524117 C337.54663817 67.86555953 334.8926657 67.8658739 332.23869324 67.86618423 C330.93483442 67.86633851 329.6309756 67.86649279 328.28760591 67.86665174 C319.35220294 67.86749437 310.41680217 67.86608389 301.48139954 67.86370468 C252.20041827 67.85178287 202.92280443 67.91601827 153.64396393 68.41436854 Z M99 401 C99.93876739 405.69383697 101.40618617 409.71547932 103.25390625 414.0859375 C103.58598587 414.88203934 103.91806549 415.67814117 104.26020813 416.49836731 C104.97948108 418.22137443 105.70082674 419.94351745 106.42401123 421.66488647 C107.97854239 425.36536735 109.52296742 429.07003803 111.06793213 432.77452087 C111.86833962 434.69356117 112.6692486 436.61239237 113.47064209 438.53102112 C117.31273893 447.73328664 121.09887247 456.95801486 124.875 466.1875 C130.28213817 479.39341786 135.71676073 492.58772144 141.1703186 505.77453613 C149.75046521 526.52164579 158.26921471 547.29327458 166.76083374 568.07675171 C172.18070262 581.3397197 177.62405771 594.59306073 183.06488037 607.84744263 C185.34078773 613.39228395 187.61425088 618.93812329 189.88671875 624.484375 C197.4675426 642.98341857 205.07944185 661.4693405 212.71743774 679.94485474 C218.16465581 693.12187861 223.59418183 706.30593982 229 719.5 C234.74886288 733.52993935 240.52216004 747.54962723 246.3125 761.5625 C246.90679306 763.00074631 246.90679306 763.00074631 247.51309204 764.4680481 C250.34138798 771.31231046 253.17059315 778.15619682 256 785 C259.22978567 792.81224426 262.45916258 800.62465714 265.6875 808.4375 C266.08161072 809.39124512 266.47572144 810.34499023 266.8817749 811.32763672 C272.41971121 824.73134878 277.93705702 838.14336187 283.4375 851.5625 C285.95756878 857.70864702 288.47844289 863.85446345 291 870 C291.45560303 871.11063812 291.45560303 871.11063812 291.92041016 872.24371338 C293.65817412 876.47910757 295.39854281 880.7134123 297.14309692 884.9460144 C297.66748722 886.21934951 298.19100392 887.49304477 298.71359253 888.76712036 C299.41999722 890.48894031 300.12981668 892.20935815 300.83984375 893.9296875 C301.23550537 894.89116699 301.63116699 895.85264648 302.03881836 896.84326172 C302.81767384 898.93701665 302.81767384 898.93701665 304 900 C305.5325657 900.09689341 307.06960775 900.12371695 308.60523319 900.12304783 C309.60695877 900.12503888 310.60868435 900.12702993 311.64076525 900.12908131 C312.75455457 900.12616847 313.86834389 900.12325563 315.0158844 900.12025452 C316.18871835 900.12110894 317.3615523 900.12196337 318.56992668 900.12284368 C321.83993359 900.12421185 325.1099014 900.12106443 328.37990367 900.11606562 C331.90070974 900.11176439 335.42151383 900.11320731 338.94232178 900.1139679 C345.0472056 900.11449334 351.15207877 900.11134442 357.25695992 900.10573006 C366.08369332 900.09761781 374.91042156 900.09500012 383.73715829 900.09374207 C398.05646457 900.09155111 412.37576517 900.08488985 426.69506836 900.07543945 C440.60847953 900.06626646 454.52188915 900.05918507 468.43530273 900.05493164 C469.72081025 900.05453756 469.72081025 900.05453756 471.03228761 900.05413551 C475.33144541 900.05283051 479.63060323 900.05156679 483.92976105 900.05032361 C519.61984475 900.03994964 555.30992185 900.02233015 591 900 C591.63421113 898.7456323 592.26677532 897.49043184 592.89866638 896.2348938 C593.25110633 895.53599596 593.60354628 894.83709812 593.96666622 894.11702156 C595.53440225 890.90515426 596.88416314 887.61716475 598.22265625 884.3046875 C598.66874237 883.21233543 598.66874237 883.21233543 599.12384033 882.09791565 C599.76771069 880.5204043 600.41019419 878.94232631 601.05142212 877.36373901 C602.82466281 872.99895824 604.6087151 868.63859069 606.390625 864.27734375 C606.76572708 863.35838821 607.14082916 862.43943268 607.52729797 861.49263 C611.75934293 851.1286525 616.03510026 840.78282099 620.3125 830.4375 C621.11250446 828.50172428 621.91247169 826.56593317 622.71240234 824.63012695 C625.54714227 817.7705976 628.38289002 810.911485 631.21862793 804.05236816 C634.04215303 797.22264668 636.86520329 790.3927292 639.6875 783.5625 C640.28215561 782.12340775 640.28215561 782.12340775 640.88882446 780.65524292 C646.60440584 766.82124119 652.29744819 752.97816527 657.97207642 739.12731934 C663.41418106 725.84511399 668.88958393 712.57687045 674.375 699.3125 C680.61566185 684.22144497 686.82532089 669.11817082 693 654 C699.57292861 637.90674955 706.18919988 621.83189334 712.83251953 605.76757812 C718.24192101 592.6866219 723.63354938 579.59863444 729 566.5 C734.74879513 552.47003275 740.52223477 538.45040351 746.3125 524.4375 C746.70936005 523.47700745 747.10622009 522.51651489 747.5151062 521.5269165 C751.14332651 512.74632388 754.77295915 503.96631556 758.40429688 495.18701172 C760.79106074 489.41662884 763.17712447 483.64595693 765.5625 477.875 C765.95039703 476.93662292 766.33829407 475.99824585 766.73794556 475.03143311 C773.63424172 458.34428992 780.48110989 441.63713323 787.30297852 424.91943359 C787.66408218 424.03504105 788.02518585 423.1506485 788.39723206 422.23945618 C789.06561797 420.6023004 789.73349748 418.96493775 790.40074158 417.32731628 C790.70033279 416.59354263 790.99992401 415.85976898 791.30859375 415.10375977 C791.5907373 414.41154327 791.87288086 413.71932678 792.16357422 413.00613403 C792.98470523 411.0366839 793.85150222 409.092005 794.72265625 407.14428711 C796.18818563 404.1024055 796.18818563 404.1024055 796 401 C565.99 401 335.98 401 99 401 Z M814.9296875 568.3828125 C813.70755051 568.4283577 813.70755051 568.4283577 812.46072388 568.474823 C805.99088458 568.77190291 805.99088458 568.77190291 800 571 C798.22501577 573.53279678 797.15667459 576.2713703 796.03125 579.140625 C795.67825836 579.98860657 795.32526672 580.83658813 794.96157837 581.71026611 C793.78639151 584.54857713 792.64338308 587.39874393 791.5 590.25 C790.66967139 592.27485449 789.83743526 594.29892768 789.00341797 596.32226562 C787.22856423 600.64001492 785.46783866 604.96316072 783.71777344 609.29101562 C781.03746304 615.91794757 778.3217165 622.52997043 775.6015625 629.140625 C763.10066644 659.57244838 750.94425768 690.13911789 738.88970947 720.75001526 C738.24671288 722.37608822 737.57553706 723.99111388 736.887146 725.59849548 C735.82673792 728.04233263 735.82673792 728.04233263 736 731 C744.06362568 735.03181284 756.58705444 733.32018006 765.5625 733.5625 C766.32098236 733.58334656 767.07946472 733.60419312 767.8609314 733.62567139 C817.82550186 734.95222667 867.94206486 734.09981854 917.875 732.0625 C918.83369995 732.0249762 919.7923999 731.98745239 920.78015137 731.9487915 C941.72539498 731.11201807 961.11207192 730.24680043 979 718 C979.80953125 717.44957031 980.6190625 716.89914062 981.453125 716.33203125 C997.79020801 704.28471689 1007.8252181 685.43538809 1011.37890625 665.6796875 C1014.043402 647.83323514 1011.86331876 630.2899125 1004 614 C1003.58105469 613.09894531 1003.16210938 612.19789063 1002.73046875 611.26953125 C994.34044669 594.51366586 978.5931421 579.52481881 961.0078125 572.8671875 C952.97177931 570.57435808 944.75490752 569.88350453 936.44140625 569.47265625 C935.62499161 569.43133072 934.80857697 569.39000519 933.96742249 569.34742737 C923.62925085 568.85171367 913.284956 568.63436462 902.9375 568.4375 C901.87505066 568.41665344 900.81260132 568.39580688 899.71795654 568.37432861 C882.85392376 568.04996615 865.99204705 567.89439718 849.125 567.875 C848.10139374 567.8724118 847.07778748 567.86982361 846.02316284 567.86715698 C835.65156146 567.84632396 825.29283643 567.93685021 814.9296875 568.3828125 Z " fill="#FFFFFF" transform="translate(619,66)"/>
<path d="M0 0 C4.05843649 0.05006601 8.1166301 0.03016841 12.17527676 0.01909506 C19.21289177 0.00940636 26.24918259 0.04367939 33.28649426 0.10812056 C43.53703393 0.20195265 53.78693283 0.2290687 64.03785576 0.24103109 C80.77244627 0.26242258 97.50633864 0.3380294 114.24056911 0.44724143 C130.31639748 0.55204908 146.39198864 0.63059938 162.46810818 0.67282736 C163.94082105 0.67670828 163.94082105 0.67670828 165.44328569 0.6806676 C169.39523892 0.69097229 173.34719258 0.70108532 177.29914694 0.71094514 C234.95667388 0.85532818 292.61508499 1.06220641 350.26799026 1.84685387 C352.49661956 1.87686096 354.72526132 1.90569106 356.95390964 1.93424702 C382.72910131 2.2687765 382.72910131 2.2687765 394.52398586 2.85854208 C395.23717893 2.89314766 395.95037199 2.92775323 396.68517697 2.96340746 C417.46591201 4.15403715 417.46591201 4.15403715 423.63510036 10.4074465 C425.05508966 12.68462446 426.24164067 14.81352063 427.38510036 17.2199465 C427.72452663 17.9216799 428.0639529 18.6234133 428.41366482 19.34641135 C444.87278847 54.14398311 455.28593279 92.2176096 466.90290737 128.80950034 C469.62710268 137.39025153 472.37529359 145.96308758 475.13510036 154.5324465 C475.74497753 156.42725157 476.35481865 158.32206823 476.96462917 160.21689475 C477.43467184 161.67741892 477.43467184 161.67741892 477.91421032 163.16744864 C478.27105089 164.27624758 478.27105089 164.27624758 478.63510036 165.4074465 C507.55771162 166.15904421 536.47909863 166.68715012 565.40863681 167.08169615 C570.97558943 167.15819936 576.5425027 167.23746713 582.10941982 167.31650412 C598.55555976 167.54950657 615.00176156 167.77802955 631.44796658 168.00638449 C644.29332994 168.18481814 657.13867548 168.36440407 669.98398143 168.54692948 C675.47590763 168.62486659 680.9678427 168.70193202 686.45981312 168.77669394 C688.55101334 168.80523798 690.64221322 168.83380722 692.73341274 168.86240256 C693.75217241 168.87631584 694.77093208 168.89022913 695.82056326 168.90456402 C703.63851995 169.01309516 711.45599279 169.1437062 719.27349383 169.28088868 C724.86239857 169.37488828 730.4500765 169.42963057 736.03970903 169.4533397 C739.6103996 169.47267777 743.18061904 169.51450319 746.75105345 169.5606209 C748.3951232 169.57664383 750.03932579 169.58289247 751.68346632 169.57799494 C767.3320527 169.53816242 777.82226404 174.2807765 790.63510036 183.4074465 C792.15651484 184.39064118 793.68359845 185.36513802 795.21713161 186.3293215 C804.90257954 192.52942534 813.15712503 199.92135565 821.27181911 208.0480715 C822.5810652 209.35515354 823.90226297 210.65159989 825.26791286 211.899634 C855.60035449 240.0087553 858.08150677 281.68628397 859.63510036 320.4074465 C859.68924099 321.70537131 859.68924099 321.70537131 859.74447536 323.02951682 C861.99515537 385.45775345 842.77981987 446.84862584 799.89291286 492.962134 C797.95011599 495.06627041 796.09893964 497.21327597 794.26010036 499.4074465 C757.89040168 540.91268134 699.86936415 565.06132889 645.74594021 569.21286643 C639.10946004 569.62797196 632.46435177 569.80924584 625.81869411 570.01291525 C624.7191238 570.05029807 623.61955349 570.08768088 622.48666286 570.1261965 C621.5052029 570.15648947 620.52374294 570.18678244 619.51254177 570.21799338 C616.5015146 570.4162419 613.60167184 570.86417076 610.63510036 571.4074465 C610.91482693 572.23615256 611.19455349 573.06485861 611.48275661 573.91867697 C630.36932127 629.97867695 647.78820166 686.46128945 664.19417858 743.2938906 C664.81320819 745.43742394 665.43325383 747.58066127 666.05346584 749.72385275 C668.62208853 758.60701416 671.14979057 767.50055028 673.63510036 776.4074465 C674.05846676 777.90749228 674.05846676 777.90749228 674.49038601 779.43784201 C677.53904926 790.33346849 679.42875859 800.14973086 679.13510036 811.5324465 C679.10633816 813.46398581 679.10633816 813.46398581 679.0769949 815.43454611 C678.55535718 837.85791862 673.03211128 860.02062067 663.63510036 880.4074465 C663.32765896 881.07695334 663.02021755 881.74646018 662.70345974 882.4362551 C646.72938153 916.44024704 613.72974576 945.84647642 578.66244411 959.13010275 C574.16243643 960.63385438 569.59087281 961.69775799 564.94760036 962.6574465 C564.21960232 962.80866965 563.49160427 962.95989279 562.74154568 963.11569846 C547.03534989 966.06102594 530.81646214 966.84978427 514.87728786 967.51804221 C513.88198936 967.56001435 512.88669086 967.6019865 511.8612318 967.64523053 C474.64147809 969.13794383 437.34671732 968.68119705 400.10541642 968.64628563 C388.35061854 968.6355756 376.59582693 968.63596237 364.84102511 968.63644127 C343.61352251 968.63694004 322.38603499 968.62786405 301.15853786 968.61325705 C281.09603495 968.59946071 261.03354557 968.5921843 240.97103786 968.59274924 C238.51719379 968.59278061 236.06334972 968.59280791 233.60950565 968.59283113 C229.93498472 968.59287313 226.26046379 968.59291514 222.58594286 968.59296154 C189.54060172 968.59328036 156.49534079 968.58814056 123.45004177 968.530707 C122.24140288 968.52863503 121.03276398 968.52656305 119.78749967 968.52442829 C108.81998709 968.5055882 97.85247535 968.48635587 86.88496685 968.46526945 C57.19037688 968.40886574 27.49680783 968.41143722 -2.19771862 968.49914795 C-21.78634342 968.55631881 -41.37480084 968.57716491 -60.96350765 968.57135648 C-73.57535938 968.5692243 -86.18624735 968.59936722 -98.79788291 968.67385136 C-107.31319066 968.72117378 -115.8279427 968.72805048 -124.34334481 968.70379587 C-129.21446662 968.69116594 -134.08382748 968.69560942 -138.95470142 968.74994743 C-162.09548936 968.99467677 -179.54447916 967.1523683 -200.36489964 956.4074465 C-202.68342389 955.31100998 -205.0115696 954.23887227 -207.34401798 953.17249531 C-215.27217361 949.45050907 -222.3841709 944.66117204 -229.36489964 939.4074465 C-230.25177464 938.74486838 -231.13864964 938.08229025 -232.05239964 937.399634 C-251.21155286 922.4030349 -266.30417209 904.01331322 -277.36489964 882.4074465 C-277.68297581 881.79046896 -278.00105198 881.17349143 -278.32876682 880.5378176 C-289.05339102 859.45278058 -294.49094783 837.29953539 -294.67739964 813.6574465 C-294.70640354 812.47795432 -294.73540745 811.29846213 -294.76529026 810.08322775 C-294.90520609 789.91382324 -288.36549666 770.75943422 -282.55239964 751.6574465 C-281.98190322 749.76590783 -281.41141446 747.87436672 -280.84169102 745.98259509 C-273.86289616 722.81506808 -266.67894856 699.71188795 -259.38644505 676.64139426 C-258.3182359 673.25972121 -257.25220106 669.87736884 -256.18667698 666.49484885 C-244.08322253 628.07719055 -231.7752254 589.72696777 -219.36489964 551.4074465 C-219.13765202 550.70573576 -218.9104044 550.00402503 -218.67627048 549.28105032 C-215.31720653 538.9087956 -211.95697427 528.5369195 -208.59641743 518.16514838 C-204.74882916 506.29023934 -200.90157553 494.41522208 -197.05552006 482.5398165 C-196.37530289 480.43956773 -195.69502348 478.33933914 -195.01474094 476.23911154 C-184.84494655 444.84002763 -174.73843813 413.42244546 -164.84072971 381.9362551 C-161.23507799 370.46989857 -157.60428518 359.01287401 -153.90786839 347.57541525 C-153.19794226 345.37352597 -152.48806171 343.17162199 -151.77822971 340.96970236 C-150.4538368 336.86246353 -149.12031316 332.75834324 -147.78164768 328.65573752 C-147.19185478 326.82829706 -146.60239759 325.0007482 -146.01333714 323.1730715 C-145.7424477 322.35199408 -145.47155827 321.53091666 -145.19246006 320.6849581 C-143.33598405 315.156159 -143.33598405 315.156159 -143.36489964 309.4074465 C-144.63784753 307.78787036 -144.63784753 307.78787036 -146.52896214 306.602759 C-147.22561985 306.11098166 -147.92227757 305.61920432 -148.64004612 305.11252463 C-149.80322361 304.33038596 -149.80322361 304.33038596 -150.98989964 303.5324465 C-151.80982395 302.96203635 -152.62974827 302.39162619 -153.47451878 301.80393088 C-156.0936586 299.98853388 -158.72826518 298.19731094 -161.36489964 296.4074465 C-162.89304949 295.35392732 -164.42041311 294.29926663 -165.94693089 293.243384 C-171.06499038 289.71809037 -176.21322775 286.23808368 -181.36343479 282.75998557 C-183.63563175 281.22449262 -185.90657162 279.68715073 -188.17739964 278.149634 C-214.60381569 260.22358574 -214.60381569 260.22358574 -241.27407932 242.66428244 C-263.52872913 228.25437578 -285.46431367 213.34794608 -307.36489964 198.4074465 C-308.17088596 197.85766135 -308.97687229 197.30787619 -309.80728245 196.74143088 C-327.16498513 184.88700707 -344.47705784 172.92476374 -361.36489964 160.4074465 C-361.9628635 159.9649758 -362.56082737 159.5225051 -363.17691135 159.06662619 C-364.75361999 157.88626618 -366.31009553 156.67901394 -367.86489964 155.4699465 C-368.70021214 154.82154807 -369.53552464 154.17314963 -370.39614964 153.50510275 C-375.68509699 147.86985528 -374.85472534 139.84209922 -374.65786839 132.59885275 C-374.02255694 120.92208767 -367.22078377 114.28561684 -359.36489964 106.4074465 C-358.39318805 105.1031077 -358.39318805 105.1031077 -357.40184593 103.77241862 C-352.82209376 100.20601174 -348.67254816 100.7304064 -343.01985264 100.80617392 C-341.8599352 100.8019018 -340.70001775 100.79762967 -339.5049513 100.79322809 C-336.28922683 100.78641731 -333.07451067 100.80203666 -329.85890543 100.8271184 C-326.38997707 100.84871457 -322.92109555 100.84140359 -319.45211887 100.83760703 C-313.44323371 100.83498549 -307.43462005 100.85067033 -301.42580318 100.87879622 C-292.73811524 100.91943482 -284.05055855 100.93245378 -275.36278585 100.93873618 C-261.26746876 100.94967882 -247.17229637 100.98295214 -233.07705784 101.03024924 C-219.38500791 101.07614565 -205.69299729 101.11153714 -192.00088596 101.1327883 C-191.15687983 101.13410192 -190.3128737 101.13541554 -189.44329163 101.13676896 C-185.20915288 101.14329416 -180.97501386 101.14961269 -176.74087465 101.15582848 C-141.6154465 101.20766053 -106.49018641 101.29572494 -71.36489964 101.4074465 C-71.21144864 100.30212891 -71.05799765 99.19681132 -70.89989662 98.05799925 C-70.48111628 95.20045093 -69.97059155 92.58196545 -69.18496799 89.81516135 C-68.95059528 88.98253775 -68.71622257 88.14991416 -68.47474766 87.29205954 C-68.22064625 86.40974661 -67.96654484 85.52743369 -67.70474339 84.618384 C-67.43658314 83.67927176 -67.16842289 82.74015952 -66.89213657 81.77258933 C-66.32213099 79.78330407 -65.74960221 77.7947403 -65.17471409 75.80686057 C-64.31990587 72.84314261 -63.47965658 69.87556867 -62.64029026 66.9074465 C-57.6141401 49.34228476 -52.26297624 30.89391889 -42.52666003 15.27752751 C-41.47449333 13.58385903 -40.45554242 11.86966686 -39.44064236 10.15340769 C-29.74491574 -2.56756513 -14.5247561 -0.22673674 0 0 Z M18.75373745 71.297629 C17.87351549 71.37516026 16.99329353 71.45269152 16.08639818 71.53257221 C14.87510128 71.65662017 14.87510128 71.65662017 13.63933372 71.78317416 C12.5828716 71.89082812 12.5828716 71.89082812 11.50506681 72.0006569 C9.313291 72.3582616 9.313291 72.3582616 6.63510036 74.4074465 C5.65352413 76.33220099 5.65352413 76.33220099 4.95614529 78.63376486 C4.66062771 79.51766898 4.36511013 80.40157309 4.06063747 81.31226218 C3.74876492 82.28082144 3.43689236 83.24938071 3.11556911 84.24729025 C2.78089626 85.25838858 2.44622341 86.26948691 2.10140896 87.31122458 C0.9983034 90.65254704 -0.08962508 93.99860465 -1.17739964 97.3449465 C-1.94762521 99.68922071 -2.71871241 102.03321199 -3.49063206 104.37692893 C-5.43621422 110.29298751 -7.36928407 116.21304518 -9.2980051 122.13461936 C-10.54920986 125.97284025 -11.80642858 129.80906625 -13.06459141 133.64501059 C-20.64252717 156.75425922 -28.07920752 179.90957901 -35.53680515 203.05786765 C-41.18981235 220.60414531 -46.87739653 238.13857435 -52.61489964 255.6574465 C-58.27187057 272.93057283 -63.84264667 290.22970647 -69.36599827 307.54599631 C-74.30317543 323.02055975 -79.30800574 338.47160991 -84.36489964 353.9074465 C-89.63366486 369.99263545 -94.84487143 386.09475031 -99.98989964 402.2199465 C-106.12325406 421.44204938 -112.31271106 440.64544064 -118.52994633 459.8405329 C-127.78509614 488.41493146 -136.99855003 517.0024159 -146.17935276 545.60080588 C-149.52866522 556.03315213 -152.88250232 566.46404404 -156.23587132 576.89508688 C-157.36277596 580.40083983 -158.48937304 583.90669148 -159.6158762 587.41257346 C-162.98698092 597.9034788 -166.35956715 608.39389567 -169.73991489 618.881827 C-178.04259848 644.64236482 -186.28437637 670.42033476 -194.40942478 696.23749411 C-198.74479081 710.00997196 -203.11184444 723.7714966 -207.54458714 737.51291525 C-207.76022627 738.1815239 -207.9758654 738.85013255 -208.19803905 739.53900206 C-210.48843252 746.63923321 -212.78413693 753.73771856 -215.08535862 760.83444846 C-219.84317987 775.5185596 -219.84317987 775.5185596 -224.34536839 790.2824465 C-224.54229786 790.94816672 -224.73922733 791.61388693 -224.94212437 792.29978049 C-230.80867044 812.51675976 -227.09710654 833.05057198 -217.36489964 851.4074465 C-216.86345432 852.40131369 -216.36200901 853.39518088 -215.84536839 854.41916525 C-211.26004485 862.95389154 -205.17059358 869.61863415 -198.36489964 876.4074465 C-197.69716526 877.08678244 -197.02943089 877.76611838 -196.34146214 878.46604025 C-191.38867677 883.14847708 -185.59627372 886.61999919 -179.67987704 889.94223678 C-176.94426692 891.48399672 -174.28089491 893.09282098 -171.63776898 894.7872051 C-158.53504506 902.7233746 -145.8710042 902.70771943 -130.87803232 902.57605721 C-127.30598971 902.55479579 -123.73431233 902.58624451 -120.16234231 902.61057889 C-113.91797588 902.64597667 -107.67429453 902.64833 -101.42986965 902.62833655 C-92.14381269 902.59868508 -82.85836529 902.62075544 -73.5723411 902.65254395 C-56.98212928 902.70756415 -40.39220961 902.71102861 -23.8019351 902.69191681 C-9.28076461 902.67523123 5.24029349 902.67450584 19.76146603 902.68966544 C21.71215975 902.6916426 23.66285347 902.6936189 25.61354719 902.69559436 C28.55336876 902.69859868 31.49319031 902.70162209 34.43301181 902.70469351 C61.75150102 902.73291561 89.06995266 902.743569 116.38844585 902.71656287 C117.9319102 902.71503776 117.9319102 902.71503776 119.50655564 902.71348184 C127.86161585 902.705111 136.21667551 902.69621791 144.57173514 902.68729318 C177.15436883 902.65286064 209.73659081 902.67083003 242.3191824 902.73166525 C278.96057552 902.79994085 315.60172647 902.83191665 352.24318385 902.80845296 C356.15327973 902.80605885 360.06337566 902.80377153 363.97347164 902.80154288 C364.93617351 902.80096603 365.89887539 902.80038918 366.89075004 902.79979485 C381.39633902 902.79179184 395.90171739 902.8116687 410.40726376 902.84556448 C426.91235438 902.88403722 443.41692685 902.88339624 459.92199168 902.83158043 C469.14717025 902.80373344 478.37116329 902.80577519 487.59627466 902.85198833 C493.77302017 902.87984485 499.94885683 902.86708409 506.1255012 902.82251395 C509.63563285 902.79828356 513.14344708 902.79040339 516.65346578 902.83227053 C535.02025478 903.00529275 547.99562265 900.1828425 563.63510036 890.4074465 C564.88172178 889.66117654 566.12917981 888.91630087 567.37778115 888.17334831 C588.86266396 875.01027007 604.13916003 853.78694216 610.38119411 829.50510275 C610.94308098 826.80417071 611.33756729 824.14957563 611.63510036 821.4074465 C611.73049099 820.56955588 611.82588161 819.73166525 611.92416286 818.868384 C615.23556943 758.39164301 574.12768225 679.73034788 555.48266506 622.27385581 C552.52833704 613.16895084 549.58369498 604.06096424 546.64681911 594.95041525 C546.44248194 594.31654583 546.23814476 593.68267642 546.02761555 593.02959883 C544.99654971 589.83097505 543.9656499 586.63229779 542.9348135 583.43360007 C532.57724003 551.29544895 522.18360843 519.1689686 511.78362274 487.04452193 C510.08254918 481.78996276 508.38192868 476.53525709 506.68148708 471.28049338 C495.6025323 437.04451498 484.50211304 402.81595236 473.31820583 368.61408103 C470.16929256 358.98418364 467.02411619 349.35307495 463.88510036 339.7199465 C463.60575649 338.86281058 463.32641262 338.00567465 463.03860378 337.12256491 C459.37883196 325.88844199 455.74239894 314.64695194 452.12338161 303.399634 C450.48158168 298.29803057 448.83969838 293.196454 447.19760036 288.0949465 C446.88565731 287.12571187 446.88565731 287.12571187 446.56741238 286.13689673 C439.18330627 263.19633275 431.68457987 240.29471715 424.14312267 217.40545142 C417.53318105 197.34216043 410.9893195 177.26107967 404.58712673 157.13028586 C395.47478936 128.48935632 386.03050886 99.95641994 376.63510036 71.4074465 C308.85808063 70.31686625 241.08274743 70.21872364 173.29896943 70.22225927 C161.29093631 70.22267649 149.28293369 70.21292907 137.27490944 70.1990054 C124.74369909 70.18459504 112.21250368 70.17773636 99.68128484 70.17859918 C92.72393683 70.17892737 85.76662166 70.17634345 78.80928135 70.16542113 C72.32313707 70.15529435 65.83704442 70.15569771 59.35089588 70.16293776 C56.99402291 70.16397391 54.63714541 70.16167928 52.28028011 70.1555773 C41.06283037 70.12843068 29.93174616 70.28551497 18.75373745 71.297629 Z M-227.36489964 169.4074465 C-225.3338417 171.47986955 -223.40015697 173.15817806 -220.95083714 174.7199465 C-219.94742283 175.36407492 -219.94742283 175.36407492 -218.92373753 176.02121603 C-218.20307102 176.47867209 -217.48240452 176.93612814 -216.73989964 177.4074465 C-215.18386565 178.40477307 -213.62787723 179.40217072 -212.07193089 180.399634 C-211.28125217 180.90462424 -210.49057346 181.40961447 -209.67593479 181.92990744 C-206.25208173 184.11891639 -202.83904126 186.32447024 -199.42739964 188.5324465 C-198.75048069 188.97008322 -198.07356174 189.40771994 -197.3761301 189.85861838 C-190.69096155 194.18564691 -184.0282498 198.54692784 -177.36489964 202.9074465 C-153.94034319 218.24810367 -153.94034319 218.24810367 -130.26919651 233.2043215 C-128.67105753 234.21401751 -127.11383848 235.28808173 -125.56802464 236.3761965 C-123.43747723 237.68033144 -123.43747723 237.68033144 -121.39761448 236.76096213 C-112.53832678 230.861864 -109.27505044 212.1735047 -106.07632542 202.64133322 C-104.98191287 199.38367287 -103.8716356 196.13172629 -102.75943089 192.88010275 C-102.05667134 190.80620115 -101.35481521 188.73199315 -100.65396214 186.6574465 C-100.32280399 185.68766867 -99.99164585 184.71789084 -99.65045261 183.7187258 C-99.34948673 182.81678488 -99.04852085 181.91484396 -98.73843479 180.9855715 C-98.33922321 179.80076193 -98.33922321 179.80076193 -97.93194675 178.59201682 C-97.19740415 176.13832464 -97.19740415 176.13832464 -97.36489964 172.4074465 C-112.52010244 167.7680987 -129.57614502 169.27334515 -145.23599339 169.30979025 C-147.61352095 169.31165904 -149.99104891 169.31308076 -152.368577 169.31407797 C-158.57773017 169.3178669 -164.78685935 169.32766558 -170.99600315 169.33878195 C-177.35138722 169.34907465 -183.70677523 169.35359231 -190.06216526 169.35861838 C-202.4964205 169.36929166 -214.93065806 169.3863237 -227.36489964 169.4074465 Z M501.63510036 236.4074465 C502.70169704 242.11670325 503.88401418 247.65364868 505.71957302 253.17502463 C506.1289259 254.41642706 506.53827877 255.6578295 506.96003628 256.93685019 C507.40634831 258.27082021 507.85272575 259.60476834 508.29916286 260.9386965 C508.76812175 262.35485411 509.23649638 263.7712053 509.70432949 265.1877352 C510.69880264 268.19571342 511.69662054 271.20255115 512.69720364 274.20850241 C515.08846219 281.39353905 517.46157887 288.58457562 519.83559895 295.77532256 C520.36684984 297.38422105 520.89831033 298.99305036 521.42997837 300.60181105 C525.81287345 313.8645344 530.10158398 327.15477239 534.32260036 340.4699465 C542.81652181 367.22678054 551.6517613 393.87148103 560.45175076 420.52878439 C561.64833939 424.15368472 562.84486383 427.77860623 564.04135036 431.40354025 C564.33220957 432.28464783 564.62306877 433.16575541 564.92274189 434.07356322 C570.30038856 450.36646441 575.6331786 466.67349786 580.9051199 483.00095236 C581.27920986 484.15662962 581.27920986 484.15662962 581.6608572 485.3356539 C582.29777384 487.30377458 582.9326173 489.27256587 583.56722927 491.24143088 C584.50132905 494.0108424 585.53760601 496.70019088 586.63510036 499.4074465 C594.52111289 499.45432726 602.40709117 499.4895928 610.29320908 499.51107085 C613.95727266 499.52139275 617.62123913 499.53533215 621.28524685 499.55832541 C665.2638623 499.82671098 702.12500105 490.18212561 736.63510036 461.4074465 C737.14669704 460.98237814 737.65829372 460.55730978 738.18539333 460.11936057 C763.20531411 439.02740071 785.73444743 401.9368175 788.95170498 369.18433249 C789.54801513 360.91294839 789.79537533 352.6913032 789.80306911 344.399634 C789.80639751 343.112918 789.80972591 341.826202 789.81315517 340.5004946 C789.81908177 337.79629294 789.82100191 335.09212292 789.8204031 332.38791525 C789.82032206 329.66161047 789.82724068 326.93547451 789.84091091 324.20920432 C789.95936345 305.10251401 789.95936345 305.10251401 788.81088161 286.040259 C788.70685276 284.90039038 788.70685276 284.90039038 788.60072231 283.73749411 C787.83275887 276.87066096 786.2096793 269.66767422 781.76010036 264.2199465 C780.96732693 263.23961447 780.96732693 263.23961447 780.15853786 262.23947775 C779.65580349 261.63490744 779.15306911 261.03033713 778.63510036 260.4074465 C777.89260036 259.4174465 777.15010036 258.4274465 776.38510036 257.4074465 C764.835983 243.91514432 749.66144645 238.77459247 732.58264756 237.22070765 C730.53627297 237.07234742 728.49050499 236.9491754 726.44164944 236.84032309 C725.67279372 236.79901473 724.903938 236.75770637 724.11178362 236.71514624 C714.36281821 236.23893662 704.6133837 236.27543554 694.85531521 236.29392111 C692.73446053 236.29420393 690.61360575 236.29404342 688.49275112 236.29347861 C682.7935768 236.2931943 677.09442398 236.2990312 671.39525461 236.30605257 C665.41755663 236.31234769 659.43985803 236.31289474 653.46215725 236.31407797 C642.16860003 236.31717326 630.87505262 236.32536211 619.5814997 236.33542746 C606.71313012 236.34664489 593.84476004 236.35211318 580.97638679 236.3571229 C554.5292859 236.36754642 528.08219368 236.3851106 501.63510036 236.4074465 Z " fill="#FFFFFF" transform="translate(874.3648996353149,1097.5925534963608)"/>
<path d="M0 0 C4.691521 2.84977689 8.62617073 6.5239496 12.41796875 10.46875 C13.11148437 11.16097656 13.805 11.85320312 14.51953125 12.56640625 C20.83751479 22.22538109 19.88221084 34.02870985 19.80908203 45.12084961 C19.79298504 48.02830795 19.80899887 50.93438047 19.828125 53.84179688 C19.82614263 55.71875302 19.82229908 57.59570831 19.81640625 59.47265625 C19.82247894 60.32710831 19.82855164 61.18156036 19.83480835 62.06190491 C19.72390257 71.73320739 17.36894743 80.45906406 10.44140625 87.46875 C2.19334011 95.17828262 -5.31718838 98.88179406 -16.640625 98.74609375 C-26.38002811 97.82777022 -34.45080601 92.09243294 -40.89453125 85.03125 C-47.05819764 77.44391066 -47.73821002 69.28121404 -47.75 59.85546875 C-47.7533284 58.92708694 -47.7566568 57.99870514 -47.76008606 57.04219055 C-47.76513909 55.08127333 -47.76749489 53.12034755 -47.76733398 51.15942383 C-47.769516 48.17709996 -47.78767672 45.1951489 -47.80664062 42.21289062 C-47.80957587 40.30208459 -47.81155979 38.39127681 -47.8125 36.48046875 C-47.81968552 35.5968718 -47.82687103 34.71327484 -47.83427429 33.80290222 C-47.79610512 23.3302439 -45.15927308 15.09777648 -37.95703125 7.34375 C-27.79414225 -2.47592699 -13.10767586 -5.98719289 0 0 Z " fill="#FFFFFF" transform="translate(1080.58203125,1568.53125)"/>
<path d="M0 0 C7.95823741 5.61300265 13.86236804 11.56944692 16.34277344 21.06176758 C17.00158754 25.28490767 16.97996113 29.46588274 17 33.734375 C17.00570007 34.6802095 17.01140015 35.62604401 17.01727295 36.60054016 C17.02670253 38.60013722 17.0332488 40.59974967 17.03710938 42.59936523 C17.04678606 45.63228073 17.07781718 48.66450979 17.109375 51.69726562 C17.11590886 53.64713143 17.12115782 55.59700204 17.125 57.546875 C17.1373468 58.44202316 17.1496936 59.33717133 17.16241455 60.25944519 C17.12527073 70.95318747 14.22934747 79.22864302 6.796875 86.97265625 C-0.02473593 93.11076588 -7.19797445 96.50166405 -16.390625 97.22265625 C-27.16691005 96.51601461 -35.78774257 91.92160768 -43.078125 84.03515625 C-49.55465943 76.17935986 -50.36001131 68.06027233 -50.40625 58.2109375 C-50.41195007 57.265103 -50.41765015 56.31926849 -50.42352295 55.34477234 C-50.43295253 53.34517528 -50.4394988 51.34556283 -50.44335938 49.34594727 C-50.45303606 46.31303177 -50.48406718 43.28080271 -50.515625 40.24804688 C-50.52215886 38.29818107 -50.52740782 36.34831046 -50.53125 34.3984375 C-50.5435968 33.50328934 -50.5559436 32.60814117 -50.56866455 31.68586731 C-50.54195597 23.99643934 -49.5115832 15.48890728 -43.953125 9.72265625 C-43.33695313 9.08328125 -42.72078125 8.44390625 -42.0859375 7.78515625 C-41.46460938 7.18703125 -40.84328125 6.58890625 -40.203125 5.97265625 C-39.64367188 5.41578125 -39.08421875 4.85890625 -38.5078125 4.28515625 C-27.62313882 -5.84012159 -13.02409366 -7.44485354 0 0 Z " fill="#FFFFFF" transform="translate(1083.203125,1237.02734375)"/>
<path d="M0 0 C7.18168306 5.91589477 11.6908185 12.44146454 13.10546875 21.734375 C13.25987219 24.92706575 13.26942569 28.11648909 13.2734375 31.3125 C13.2784301 32.7015152 13.2784301 32.7015152 13.28352356 34.11859131 C13.28857705 36.07531235 13.29093237 38.03204197 13.29077148 39.98876953 C13.29295095 42.96010817 13.31110417 45.93107107 13.33007812 48.90234375 C13.3330139 50.80989457 13.33499746 52.71744715 13.3359375 54.625 C13.34312302 55.50343567 13.35030853 56.38187134 13.35771179 57.28692627 C13.32154798 67.20847721 11.74527846 74.25504912 5.10546875 81.734375 C4.55503906 82.36601563 4.00460937 82.99765625 3.4375 83.6484375 C-2.13950014 89.6465841 -8.55036669 93.29264866 -16.77734375 93.97265625 C-27.59238814 94.22022956 -35.14226534 92.09608184 -43.07421875 84.59765625 C-52.0977643 75.36110855 -54.03561624 67.91427303 -54.09765625 55.09375 C-54.10335632 54.17152649 -54.1090564 53.24930298 -54.1149292 52.2991333 C-54.12434669 50.3525913 -54.13090021 48.4060336 -54.13476562 46.45947266 C-54.1444542 43.5078495 -54.17550172 40.55692832 -54.20703125 37.60546875 C-54.21356423 35.70573326 -54.21881354 33.80599284 -54.22265625 31.90625 C-54.23500305 31.03611267 -54.24734985 30.16597534 -54.2600708 29.26947021 C-54.22491276 19.41979129 -51.79207302 10.9461215 -44.89453125 3.734375 C-31.35066817 -8.55131501 -15.33509088 -10.96526852 0 0 Z " fill="#FFFFFF" transform="translate(1086.89453125,1406.265625)"/>
<path d="M0 0 C2.87495368 2.15089127 5.45715401 4.46788332 8 7 C8.56976562 7.5465625 9.13953125 8.093125 9.7265625 8.65625 C16.53558139 15.76714658 17.4638482 24.77705545 17.3984375 34.25 C17.40130768 35.18875977 17.40417786 36.12751953 17.40713501 37.09472656 C17.40916157 39.06445932 17.40373123 41.03421286 17.39111328 43.00390625 C17.37503952 45.99265194 17.39101048 48.9800456 17.41015625 51.96875 C17.40817357 53.89583627 17.40432938 55.82292171 17.3984375 57.75 C17.40451019 58.62946289 17.41058289 59.50892578 17.4168396 60.41503906 C17.29912724 70.96928701 14.45847467 79.42915659 7 87 C-0.55416036 93.62758533 -8.93130541 97.55290881 -19.125 96.9375 C-28.85924371 95.47659455 -37.4983738 90.34808583 -43.828125 82.828125 C-49.39355079 74.99330228 -50.31038805 67.32419881 -50.30078125 57.9453125 C-50.30506638 57.00372284 -50.3093515 56.06213318 -50.31376648 55.0920105 C-50.31948069 53.11033935 -50.32003164 51.12864725 -50.31567383 49.14697266 C-50.31251636 46.14058074 -50.33600129 43.13517669 -50.36132812 40.12890625 C-50.3636019 38.19270956 -50.36430425 36.25651026 -50.36328125 34.3203125 C-50.37709587 32.991707 -50.37709587 32.991707 -50.39118958 31.63626099 C-50.32369824 22.37920005 -48.44984969 14.62521165 -41.953125 7.8828125 C-41.30859375 7.26148438 -40.6640625 6.64015625 -40 6 C-39.35546875 5.35804687 -38.7109375 4.71609375 -38.046875 4.0546875 C-27.87165874 -5.51963017 -12.10547441 -8.10208917 0 0 Z " fill="#FFFFFF" transform="translate(1083,1737)"/>
</svg>
