<?xml version="1.0" encoding="iso-8859-1"?>
<!-- Uploaded to: SVG Repo, www.svgrepo.com, Generator: SVG Repo Mixer Tools -->
<svg fill="#000000" height="800px" width="800px" version="1.1" id="Capa_1" xmlns="http://www.w3.org/2000/svg" xmlns:xlink="http://www.w3.org/1999/xlink" 
	 viewBox="0 0 463.001 463.001" xml:space="preserve">
<g>
	<path d="M359.5,96.001H271V74.497c0-8.971,4.893-17.213,12.769-21.509l71.323-38.903c3.636-1.983,4.976-6.539,2.992-10.176
		c-1.982-3.634-6.536-4.976-10.176-2.992L276.585,39.82C263.888,46.746,256,60.033,256,74.497v21.504h-9.364
		c-3.793-40.331-37.829-72-79.136-72c-43.837,0-79.5,35.663-79.5,79.5c0,42.518,33.551,77.343,75.568,79.4l11.399,250.029
		c0.766,16.862,14.588,30.07,31.467,30.07h114.133c16.879,0,30.701-13.208,31.467-30.069l13.23-291.054
		c5.699-2.293,9.737-7.868,9.737-14.377v-16C375,102.954,368.047,96.001,359.5,96.001z M346.879,216.001H271v-48.498
		c0-4.143-3.357-7.5-7.5-7.5s-7.5,3.357-7.5,7.5v48.498h-75.908l-1.54-33.773c11.826-1.646,23.114-5.921,33.122-12.621
		c3.44-2.303,4.364-6.957,2.064-10.399l-10.828-16.207h147.286L346.879,216.001z M360,111.501v16c0,0.275-0.225,0.5-0.5,0.5H192.889
		l-11.358-17h81.911c0.02,0,0.039,0.003,0.058,0.003s0.038-0.003,0.058-0.003H359.5C359.776,111.001,360,111.225,360,111.501z
		 M103,103.501c0-35.565,28.935-64.5,64.5-64.5c33.027,0,60.32,24.957,64.05,57H175v-32.5c0-4.143-3.357-7.5-7.5-7.5
		s-7.5,3.357-7.5,7.5v32.5h-32.5c-4.143,0-7.5,3.357-7.5,7.5s3.357,7.5,7.5,7.5H160v32.5c0,4.143,3.357,7.5,7.5,7.5
		s7.5-3.357,7.5-7.5v-15.274l21.861,32.721c-9.041,4.632-19.06,7.053-29.361,7.053C131.935,168.001,103,139.066,103,103.501z
		 M337.049,432.251c-0.401,8.832-7.641,15.75-16.482,15.75H206.434c-8.842,0-16.081-6.918-16.482-15.752l-9.175-201.248H256v192.5
		c0,4.143,3.357,7.5,7.5,7.5s7.5-3.357,7.5-7.5v-192.5h75.197L337.049,432.251z"/>
	<path d="M207.5,248.001c-1.97,0-3.91,0.8-5.3,2.2c-1.4,1.39-2.2,3.319-2.2,5.3c0,1.97,0.8,3.899,2.2,5.3c1.39,1.4,3.33,2.2,5.3,2.2
		c1.979,0,3.91-0.8,5.3-2.2c1.4-1.39,2.2-3.33,2.2-5.3c0-1.98-0.8-3.91-2.2-5.3C211.411,248.801,209.48,248.001,207.5,248.001z"/>
	<path d="M231.5,272.001c-1.97,0-3.91,0.8-5.3,2.2c-1.4,1.39-2.2,3.329-2.2,5.3c0,1.97,0.8,3.91,2.2,5.3c1.39,1.4,3.33,2.2,5.3,2.2
		s3.91-0.8,5.3-2.2c1.4-1.4,2.2-3.33,2.2-5.3c0-1.971-0.8-3.91-2.2-5.3C235.411,272.801,233.47,272.001,231.5,272.001z"/>
	<path d="M311,255.501c0-1.98-0.8-3.91-2.2-5.3c-1.39-1.4-3.33-2.2-5.3-2.2c-1.98,0-3.91,0.8-5.311,2.2
		c-1.39,1.39-2.189,3.319-2.189,5.3c0,1.97,0.8,3.899,2.189,5.3c1.4,1.4,3.341,2.2,5.311,2.2s3.91-0.8,5.3-2.2
		C310.201,259.4,311,257.471,311,255.501z"/>
	<path d="M311.5,280.001c-1.98,0-3.91,0.8-5.3,2.2c-1.4,1.39-2.2,3.319-2.2,5.3c0,1.97,0.8,3.91,2.2,5.3c1.39,1.4,3.33,2.2,5.3,2.2
		s3.91-0.8,5.3-2.2c1.4-1.39,2.2-3.33,2.2-5.3c0-1.98-0.8-3.91-2.2-5.3C315.411,280.801,313.47,280.001,311.5,280.001z"/>
</g>
</svg>