<!DOCTYPE svg PUBLIC "-//W3C//DTD SVG 1.1//EN" "http://www.w3.org/Graphics/SVG/1.1/DTD/svg11.dtd">
<!-- Uploaded to: SVG Repo, www.svgrepo.com, Transformed by: SVG Repo Mixer Tools -->
<svg fill="#000000" width="77px" height="77px" viewBox="0 0 32 32" id="template" xmlns="http://www.w3.org/2000/svg" stroke="#000000" stroke-width="0.608">
<g id="SVGRepo_bgCarrier" stroke-width="0"/>
<g id="SVGRepo_tracerCarrier" stroke-linecap="round" stroke-linejoin="round"/>
<g id="SVGRepo_iconCarrier">
<title/>
<path d="M28.594,1.847a.354.354,0,0,0-.473-.166l-6.867,3.3a3.008,3.008,0,0,0-1.631,2.073l-.164.771c-.046,0-.09-.015-.137-.015H11.541a2.987,2.987,0,0,0-2.97,3.3l1.756,16.574A2.98,2.98,0,0,0,13.3,30.355h4.27a2.98,2.98,0,0,0,2.97-2.672L22.292,11.11a2.948,2.948,0,0,0-2.134-3.166l.158-.744a2.3,2.3,0,0,1,1.245-1.583l6.867-3.3A.355.355,0,0,0,28.594,1.847ZM9.276,11.035a2.278,2.278,0,0,1,2.265-2.518h7.77L18.378,12.9h-8.9Zm8.29,18.611H13.3A2.269,2.269,0,0,1,11.049,27.7h8.764A2.267,2.267,0,0,1,17.566,29.646ZM19.9,26.988H10.966L9.549,13.611H21.314ZM21.016,9.272a2.279,2.279,0,0,1,.571,1.763l-.2,1.867H19.1l.908-4.265A2.264,2.264,0,0,1,21.016,9.272Z"/>
<path d="M17.541,19.034a1.9,1.9,0,1,0-1.9-1.9A1.9,1.9,0,0,0,17.541,19.034Zm0-3.095a1.193,1.193,0,1,1-1.194,1.193A1.194,1.194,0,0,1,17.541,15.939Z"/>
<path d="M13.893,22.129a1.513,1.513,0,0,0,.164-.008,1.667,1.667,0,0,0,1.132-.6h0a1.675,1.675,0,1,0-1.3.61Zm-.743-2.29a.958.958,0,0,1,.653-.348c.031,0,.063,0,.094,0a.967.967,0,0,1,.092,1.929.968.968,0,0,1-1.055-.869A.96.96,0,0,1,13.15,19.839Z"/>
<path d="M16.267,22.705a1.357,1.357,0,0,0,1.045,2.219,1.193,1.193,0,0,0,.132-.007,1.342,1.342,0,0,0,.916-.487h0a1.356,1.356,0,0,0-2.093-1.725Zm1.546,1.275a.645.645,0,0,1-.437.232.633.633,0,0,1-.474-.145.648.648,0,0,1,.349-1.144l.064,0a.647.647,0,0,1,.5,1.06Z"/>
</g>
</svg>