<?xml version="1.0" ?><!-- Uploaded to: SVG Repo, www.svgrepo.com, Generator: SVG Repo Mixer Tools -->
<svg fill="#000000" width="800px" height="800px" viewBox="0 0 64 64" data-name="Layer 1" id="Layer_1" xmlns="http://www.w3.org/2000/svg"><title/><path d="M55.762,19.353A1,1,0,0,0,55,19h-.06a1,1,0,0,0-.418.091c-.483.223-.992.444-1.522.666V9a1,1,0,0,0-1-1H49V5a1,1,0,0,0-1-1H45V1a1,1,0,0,0-1-1H40a1,1,0,0,0-1,1V2H37V1a1,1,0,0,0-1-1H28a1,1,0,0,0-1,1V2H25V1a1,1,0,0,0-1-1H20a1,1,0,0,0-1,1V4H16a1,1,0,0,0-1,1V8H12a1,1,0,0,0-1,1V19.757c-.53-.222-1.039-.443-1.522-.666A1.3,1.3,0,0,0,9,19a1,1,0,0,0-.987,1.161l7,43A1,1,0,0,0,16,64H48a1,1,0,0,0,.987-.839l7-43A1,1,0,0,0,55.762,19.353ZM51,10V20.551l-.086.032c-.578.215-1.178.424-1.807.631L49,21.25V10ZM47,6V21.869l-.172.05c-.171.05-.336.1-.5.143s-.349.1-.519.144l-.46.121L45,22.416V6ZM41,2h2V22.874l-.06.012c-.173.035-.355.069-.535.1-.139.026-.275.053-.418.079-.2.037-.415.072-.625.108L41,23.237V2ZM39,4V23.523c-.184.024-.367.048-.551.07-.338.04-.676.078-1.013.112-.146.015-.291.026-.436.04V4ZM35,3V23.9h-.017c-.708.042-1.361.07-1.983.084V2h2ZM29,2h2V23.988c-.622-.014-1.275-.042-1.983-.084H29V2ZM27,4V23.745c-.145-.014-.29-.025-.436-.04-.337-.034-.675-.072-1.013-.112-.184-.022-.367-.046-.551-.07V4ZM21,2h2V23.237l-.359-.061c-.212-.036-.425-.071-.629-.108l-.4-.076c-.185-.035-.372-.07-.551-.106L21,22.874V2ZM17,6h2V22.416l-.347-.089-.457-.121c-.176-.047-.356-.1-.537-.149-.157-.044-.313-.087-.473-.134-.061-.017-.125-.037-.186-.055V6Zm-2,4V21.25l-.116-.038c-.625-.207-1.223-.415-1.8-.629L13,20.551V10ZM11.636,22.172c.423.166.861.327,1.306.487.869.311,1.781.614,2.767.914h0q.561.171,1.091.323c1.066.3,2.048.557,2.979.765,1.209.269,2.542.509,4.073.733,1.351.2,2.721.345,4.073.442a49.654,49.654,0,0,0,8.144,0c1.352-.1,2.722-.246,4.073-.442q.573-.084,1.112-.171c1.078-.175,2.054-.36,2.961-.562h0c.311-.069.626-.143.949-.222.969-.238,2-.524,3.124-.865,1.491-.454,2.824-.912,4.073-1.4.473-.184.924-.366,1.358-.547L52.033,32H37a1,1,0,0,0-.707.293L32,36.586l-4.293-4.293A1,1,0,0,0,27,32H11.967L10.278,21.625C10.712,21.806,11.163,21.988,11.636,22.172ZM12.3,34h14.29l4.707,4.707a1,1,0,0,0,1.414,0L37.414,34H51.7L49.1,50H14.9ZM47.149,62h-30.3L15.223,52H48.777Z"/></svg>