<?xml version="1.0" encoding="UTF-8"?>
<!DOCTYPE svg PUBLIC "-//W3C//DTD SVG 1.1//EN" "http://www.w3.org/Graphics/SVG/1.1/DTD/svg11.dtd">
<svg xmlns="http://www.w3.org/2000/svg" version="1.1" width="3333px" height="3333px" style="shape-rendering:geometricPrecision; text-rendering:geometricPrecision; image-rendering:optimizeQuality; fill-rule:evenodd; clip-rule:evenodd" xmlns:xlink="http://www.w3.org/1999/xlink">
<g><path style="opacity:1" fill="#f9faf9" d="M 1577.5,204.5 C 1849.76,198.786 2110.76,249.953 2360.5,358C 2479.63,409.508 2586.96,478.508 2682.5,565C 2814.99,693.375 2910.49,845.542 2969,1021.5C 2999.33,1114.48 3027.33,1208.15 3053,1302.5C 3062.19,1338.75 3064.52,1375.42 3060,1412.5C 3054.34,1448.46 3040.51,1480.8 3018.5,1509.5C 3049.71,1533.2 3077.87,1560.2 3103,1590.5C 3128.22,1622.28 3144.22,1658.28 3151,1698.5C 3154.88,1733.77 3149.21,1767.43 3134,1799.5C 3126.79,1814.08 3118.96,1828.25 3110.5,1842C 3166.23,1900.24 3185.73,1969.07 3169,2048.5C 3166.2,2061.86 3162.7,2075.02 3158.5,2088C 3159.1,2089.61 3160.1,2090.94 3161.5,2092C 3203.13,2121.96 3238.29,2158.13 3267,2200.5C 3290.27,2241.74 3306.27,2285.74 3315,2332.5C 3322.84,2373.06 3323.5,2413.72 3317,2454.5C 3306.65,2507.51 3276.15,2543.35 3225.5,2562C 3201.81,2570.37 3177.48,2575.87 3152.5,2578.5C 3150.36,2627.5 3147.86,2676.5 3145,2725.5C 3143.67,2772.14 3132.34,2816.14 3111,2857.5C 3082.47,2905.69 3041.97,2939.86 2989.5,2960C 2954.75,2971.19 2919.42,2980.19 2883.5,2987C 2809.02,3002.47 2734.02,3014.8 2658.5,3024C 2443.3,3050.87 2227.64,3073.21 2011.5,3091C 1787.54,3109.68 1563.21,3117.68 1338.5,3115C 1200.48,3112.52 1062.81,3104.19 925.5,3090C 768.23,3075.08 611.23,3057.75 454.5,3038C 400.897,3028.93 348.897,3014.27 298.5,2994C 246.904,2969.72 215.404,2929.56 204,2873.5C 201.708,2856.2 199.708,2838.87 198,2821.5C 194.448,2778.99 190.948,2736.49 187.5,2694C 183.691,2691.05 179.358,2689.05 174.5,2688C 139.243,2686.52 105.909,2677.85 74.5,2662C 42.7237,2643.21 22.8904,2615.71 15,2579.5C 10.2793,2552.12 10.6126,2524.79 16,2497.5C 31.6733,2419.14 57.6733,2344.48 94,2273.5C 103.036,2260.11 113.036,2247.44 124,2235.5C 142.24,2217.93 159.74,2199.76 176.5,2181C 168.609,2153.27 161.109,2125.44 154,2097.5C 145.137,2062.66 145.804,2028 156,1993.5C 164.732,1965.14 173.566,1936.8 182.5,1908.5C 168.208,1893.71 153.708,1879.04 139,1864.5C 127.682,1851.88 118.349,1837.88 111,1822.5C 104.854,1806.04 102.854,1789.04 105,1771.5C 109.631,1744.61 117.297,1718.61 128,1693.5C 135.541,1675.04 143.374,1656.71 151.5,1638.5C 132.537,1618.91 120.704,1595.58 116,1568.5C 111.927,1541.53 111.927,1514.53 116,1487.5C 124.804,1396.68 138.804,1306.68 158,1217.5C 177.204,1133.88 205.538,1053.55 243,976.5C 387.396,675.773 614.563,463.606 924.5,340C 1134.68,258.201 1352.34,213.034 1577.5,204.5 Z M 1621.5,339.5 C 1862.19,338.603 2091.86,388.103 2310.5,488C 2414.79,535.77 2508.79,598.437 2592.5,676C 2710.66,790.723 2792.16,927.89 2837,1087.5C 2846.74,1122.72 2856.07,1158.05 2865,1193.5C 2884.43,1276.72 2903.93,1359.89 2923.5,1443C 2804.51,1469.38 2684.18,1486.71 2562.5,1495C 2448.3,1503.08 2333.97,1508.08 2219.5,1510C 1947.83,1515.3 1676.16,1520.96 1404.5,1527C 1167.84,1533.86 931.172,1540.53 694.5,1547C 635.838,1548.41 577.172,1549.58 518.5,1550.5C 479.63,1550.5 440.963,1547.66 402.5,1542C 366.18,1536.57 329.846,1531.24 293.5,1526C 270.268,1521.03 247.768,1513.87 226,1504.5C 241.072,1408.15 262.405,1313.15 290,1219.5C 353.061,1017.76 459.895,843.595 610.5,697C 731.775,583.637 871.108,498.637 1028.5,442C 1175.94,390.179 1327.6,358.179 1483.5,346C 1529.6,342.457 1575.6,340.291 1621.5,339.5 Z M 2925.5,1590.5 C 2961.34,1587.84 2989.5,1601.17 3010,1630.5C 3026.82,1655.29 3034.49,1682.62 3033,1712.5C 3029.3,1730.21 3019.47,1743.37 3003.5,1752C 2997.29,1755.27 2990.95,1758.27 2984.5,1761C 2863.79,1802.51 2739.79,1828.18 2612.5,1838C 2494.92,1846.7 2377.25,1854.03 2259.5,1860C 2236.83,1860.67 2214.17,1860.67 2191.5,1860C 2246.08,1788.18 2300.41,1716.18 2354.5,1644C 2374.79,1642.13 2395.13,1640.79 2415.5,1640C 2587.18,1639.26 2757.18,1622.76 2925.5,1590.5 Z M 280.5,1641.5 C 367.996,1661.61 456.662,1672.11 546.5,1673C 627.835,1673.31 709.168,1673.31 790.5,1673C 810.262,1673.25 828.262,1678.92 844.5,1690C 854.5,1698.67 863.833,1708 872.5,1718C 882.298,1726.4 892.632,1734.06 903.5,1741C 949.121,1767.3 992.121,1797.3 1032.5,1831C 1010.92,1837.13 988.924,1840.46 966.5,1841C 850.216,1846.07 733.883,1848.07 617.5,1847C 535.323,1845.79 453.657,1838.79 372.5,1826C 330.644,1818.37 289.978,1806.7 250.5,1791C 234.925,1783.68 228.425,1771.52 231,1754.5C 232.385,1746.68 234.385,1739.01 237,1731.5C 249.639,1700.56 264.139,1670.56 280.5,1641.5 Z M 2157.5,1644.5 C 2160.52,1644.34 2163.52,1644.5 2166.5,1645C 2156.46,1659.59 2146.29,1674.09 2136,1688.5C 2044.33,1792.17 1952.67,1895.83 1861,1999.5C 1819.23,2045.27 1776.73,2090.44 1733.5,2135C 1723.6,2144.22 1712.6,2151.89 1700.5,2158C 1692.06,2161.32 1683.72,2160.99 1675.5,2157C 1667.63,2153.12 1660.3,2148.46 1653.5,2143C 1637.83,2130 1622.17,2117 1606.5,2104C 1468.93,1999.1 1331.93,1893.43 1195.5,1787C 1149.12,1750.28 1102.45,1713.95 1055.5,1678C 1054.5,1673.67 1053.5,1669.33 1052.5,1665C 1421,1658.28 1789.33,1651.44 2157.5,1644.5 Z M 3025.5,1904.5 C 3028.65,1903.96 3031.15,1904.96 3033,1907.5C 3047.23,1925.29 3057.23,1945.29 3063,1967.5C 3067.69,1994.43 3059.52,2016.6 3038.5,2034C 3030.28,2040.53 3021.28,2045.86 3011.5,2050C 2923.47,2078.84 2833.47,2099.17 2741.5,2111C 2649.98,2121.44 2558.31,2130.44 2466.5,2138C 2340.22,2148.38 2213.89,2158.05 2087.5,2167C 2033.82,2168.46 1980.16,2167.96 1926.5,2165.5C 1954.48,2133.68 1982.65,2102.02 2011,2070.5C 2026.17,2054.67 2041.33,2038.83 2056.5,2023C 2063.25,2018.64 2070.58,2015.64 2078.5,2014C 2302.16,2014.64 2524.83,1999.98 2746.5,1970C 2795.87,1964.33 2844.54,1954.99 2892.5,1942C 2936.92,1929.36 2981.25,1916.86 3025.5,1904.5 Z M 379.5,1969.5 C 389.506,1969.33 399.506,1969.5 409.5,1970C 502.681,1980.83 596.181,1986 690,1985.5C 735.509,1985.13 781.009,1984.3 826.5,1983C 939.312,1978.51 1052.15,1974.68 1165,1971.5C 1194.47,1969.82 1220.97,1977.65 1244.5,1995C 1305.25,2047.75 1366.58,2099.75 1428.5,2151C 1395.58,2154.23 1362.58,2155.23 1329.5,2154C 1046.45,2147.2 763.453,2138.87 480.5,2129C 423.844,2124.54 368.511,2113.54 314.5,2096C 289.001,2084.69 276.001,2065.02 275.5,2037C 275.872,2023.13 279.039,2009.97 285,1997.5C 291.913,1986.62 301.747,1980.12 314.5,1978C 336.317,1975.19 357.984,1972.36 379.5,1969.5 Z M 3094.5,2167.5 C 3097.42,2167.46 3100.09,2168.29 3102.5,2170C 3160.59,2207.28 3194.09,2260.45 3203,2329.5C 3206.04,2359.61 3200.37,2387.95 3186,2414.5C 3184.91,2416.35 3183.57,2418.02 3182,2419.5C 3157.67,2409.42 3133.51,2398.92 3109.5,2388C 3087.38,2378.29 3064.38,2371.63 3040.5,2368C 3014.71,2364.37 2993.54,2372.54 2977,2392.5C 2971.17,2400.16 2965.84,2408.16 2961,2416.5C 2950.43,2438.65 2938.1,2459.65 2924,2479.5C 2891.94,2456.55 2859.11,2434.72 2825.5,2414C 2801.19,2399.9 2775.19,2390.56 2747.5,2386C 2717.97,2382.42 2689.63,2386.76 2662.5,2399C 2651.52,2404.16 2640.85,2409.82 2630.5,2416C 2607.22,2432.28 2584.22,2448.95 2561.5,2466C 2547.35,2476.41 2532.02,2484.74 2515.5,2491C 2496.78,2495.7 2478.78,2493.7 2461.5,2485C 2432.36,2470.27 2404.02,2454.27 2376.5,2437C 2296.44,2392.48 2216.44,2392.48 2136.5,2437C 2087.82,2467.01 2038.49,2496.01 1988.5,2524C 1931.68,2553.64 1874.68,2553.97 1817.5,2525C 1796.09,2511.93 1774.43,2499.27 1752.5,2487C 1680.47,2434.79 1602.8,2424.79 1519.5,2457C 1467.72,2479.21 1419.06,2506.54 1373.5,2539C 1338.66,2557.89 1303.66,2558.22 1268.5,2540C 1250.84,2530.51 1233.51,2520.51 1216.5,2510C 1198.11,2496.61 1179.44,2483.61 1160.5,2471C 1088.74,2429.97 1014.07,2423.97 936.5,2453C 917.119,2460.13 898.453,2468.79 880.5,2479C 847.497,2497.16 815.497,2516.83 784.5,2538C 738.73,2565.78 694.396,2563.78 651.5,2532C 630.683,2514.76 609.683,2497.76 588.5,2481C 557.016,2457.43 522.016,2441.1 483.5,2432C 432.595,2422.37 383.595,2428.37 336.5,2450C 300.852,2467.15 267.518,2487.81 236.5,2512C 207.958,2528.77 178.624,2544.27 148.5,2558.5C 142.307,2487.63 156.14,2420.96 190,2358.5C 209.453,2326.05 235.286,2299.88 267.5,2280C 296.465,2264.07 327.465,2257.07 360.5,2259C 444.541,2266.56 528.541,2274.56 612.5,2283C 655.092,2286.7 697.759,2289.03 740.5,2290C 803.999,2290.68 867.499,2291.18 931,2291.5C 1142.16,2289.61 1353.33,2288.44 1564.5,2288C 1601.42,2296.65 1637.75,2307.31 1673.5,2320C 1681.3,2322.53 1689.3,2323.69 1697.5,2323.5C 1729.1,2320.44 1760.77,2318.27 1792.5,2317C 1874.5,2316.67 1956.5,2316.33 2038.5,2316C 2186.88,2305.62 2335.21,2294.62 2483.5,2283C 2593.72,2274.18 2703.39,2260.85 2812.5,2243C 2864.28,2235.11 2915.28,2223.78 2965.5,2209C 3008.71,2195.43 3051.71,2181.6 3094.5,2167.5 Z M 2718.5,2493.5 C 2745.8,2521.31 2776.13,2545.15 2809.5,2565C 2860.67,2593.47 2915.33,2604.3 2973.5,2597.5C 2969.67,2640.82 2965.83,2684.16 2962,2727.5C 2957.41,2776.75 2931.24,2807.59 2883.5,2820C 2818.28,2834.48 2752.62,2846.48 2686.5,2856C 2464.95,2884.76 2242.95,2909.43 2020.5,2930C 1798.96,2950.43 1576.96,2959.43 1354.5,2957C 1051.04,2953.11 749.705,2925.78 450.5,2875C 429.435,2871.19 408.769,2865.85 388.5,2859C 366.451,2850.44 352.618,2834.6 347,2811.5C 341.645,2791.39 337.311,2771.06 334,2750.5C 327.314,2709.03 320.814,2667.53 314.5,2626C 314.643,2623.85 315.643,2622.18 317.5,2621C 337.647,2603.85 358.647,2587.85 380.5,2573C 429.707,2541.04 478.373,2541.71 526.5,2575C 554.57,2598.87 584.237,2620.53 615.5,2640C 689.666,2681.62 764,2681.95 838.5,2641C 874.996,2617.25 911.996,2594.25 949.5,2572C 971.496,2558.89 995.162,2550.56 1020.5,2547C 1055.15,2543.66 1087.15,2551.33 1116.5,2570C 1162.88,2605.2 1213.55,2633.2 1268.5,2654C 1319.89,2669.05 1369.56,2664.71 1417.5,2641C 1465.04,2611.05 1514.04,2583.39 1564.5,2558C 1598.3,2543.74 1631.97,2544.07 1665.5,2559C 1713.2,2588.69 1762.87,2615.02 1814.5,2638C 1877.41,2660.27 1940.08,2659.6 2002.5,2636C 2064.66,2607.93 2123.99,2575.26 2180.5,2538C 2233.99,2507.07 2286.65,2508.4 2338.5,2542C 2375.51,2568.68 2415.18,2591.01 2457.5,2609C 2503.94,2625.09 2547.94,2620.09 2589.5,2594C 2631.84,2559.51 2674.84,2526.01 2718.5,2493.5 Z"/></g>
<g><path style="opacity:1" fill="#f9faf9" d="M 1428.5,601.5 C 1448.74,600.869 1464.57,608.869 1476,625.5C 1492.06,655.329 1504.39,686.663 1513,719.5C 1517.98,735.994 1517.64,752.328 1512,768.5C 1504.81,781.694 1493.98,790.527 1479.5,795C 1450.6,800.632 1429.1,790.466 1415,764.5C 1402.06,732.748 1392.23,700.081 1385.5,666.5C 1385.77,652.603 1387.6,638.936 1391,625.5C 1394.9,615.936 1401.73,609.436 1411.5,606C 1417.18,604 1422.84,602.5 1428.5,601.5 Z"/></g>
<g><path style="opacity:1" fill="#f9faf9" d="M 2375.5,782.5 C 2398.04,780.872 2413.54,790.538 2422,811.5C 2426.64,825.719 2425.98,839.719 2420,853.5C 2404.79,886.382 2380.29,909.215 2346.5,922C 2323.36,928.008 2306.19,920.508 2295,899.5C 2291.71,890.486 2291.71,881.486 2295,872.5C 2310.05,840.561 2331.22,813.394 2358.5,791C 2363.73,787.102 2369.4,784.269 2375.5,782.5 Z"/></g>
<g><path style="opacity:1" fill="#f9faf9" d="M 892.5,1031.5 C 893.873,1031.34 895.207,1031.51 896.5,1032C 905.833,1037.33 915.167,1042.67 924.5,1048C 933.706,1055.61 937.706,1065.44 936.5,1077.5C 936.064,1100.87 926.73,1119.71 908.5,1134C 884.78,1151.8 858.113,1162.8 828.5,1167C 812.545,1169.82 796.545,1170.49 780.5,1169C 763.49,1162.68 754.823,1150.35 754.5,1132C 756.075,1114.69 762.909,1099.85 775,1087.5C 795.914,1064.45 821.414,1048.62 851.5,1040C 865.131,1036.31 878.797,1033.47 892.5,1031.5 Z"/></g>
<g><path style="opacity:1" fill="#f9faf9" d="M 1823.5,1071.5 C 1840.24,1069.69 1855.24,1073.86 1868.5,1084C 1894.6,1109.7 1911.77,1140.53 1920,1176.5C 1925.84,1199.64 1920,1219.14 1902.5,1235C 1884.28,1245.87 1866.94,1244.53 1850.5,1231C 1817.89,1204.64 1797.39,1170.8 1789,1129.5C 1786.81,1112.23 1791.15,1096.9 1802,1083.5C 1808.29,1077.78 1815.45,1073.78 1823.5,1071.5 Z"/></g>
<g><path style="opacity:1" fill="#f9faf9" d="M 2582.5,1198.5 C 2602.08,1197.86 2619.25,1203.86 2634,1216.5C 2641.99,1237.84 2639.33,1257.84 2626,1276.5C 2613.94,1287.23 2600.77,1296.39 2586.5,1304C 2564.92,1315.04 2543.42,1326.21 2522,1337.5C 2510.1,1329.27 2497.94,1321.44 2485.5,1314C 2480.7,1310.2 2476.2,1306.03 2472,1301.5C 2469.44,1297.54 2467.94,1293.2 2467.5,1288.5C 2469.56,1271.55 2476.56,1257.05 2488.5,1245C 2516.77,1223.36 2548.11,1207.86 2582.5,1198.5 Z"/></g>
<g><path style="opacity:1" fill="#f9faf9" d="M 1192.5,1284.5 C 1205.1,1282.74 1216.77,1285.24 1227.5,1292C 1256.24,1311.63 1272.57,1338.79 1276.5,1373.5C 1275.75,1412.88 1256.75,1426.05 1219.5,1413C 1190.53,1400.36 1169.03,1379.86 1155,1351.5C 1146.21,1317.07 1158.71,1294.73 1192.5,1284.5 Z"/></g>
</svg>
