<!DOCTYPE svg PUBLIC "-//W3C//DTD SVG 1.1//EN" "http://www.w3.org/Graphics/SVG/1.1/DTD/svg11.dtd">
<!-- Uploaded to: SVG Repo, www.svgrepo.com, Transformed by: SVG Repo Mixer Tools -->
<svg width="800px" height="800px" viewBox="0 0 24 24" id="Layer_1" data-name="Layer 1" xmlns="http://www.w3.org/2000/svg" fill="#000000">
<g id="SVGRepo_bgCarrier" stroke-width="0"/>
<g id="SVGRepo_tracerCarrier" stroke-linecap="round" stroke-linejoin="round"/>
<g id="SVGRepo_iconCarrier">
<defs>
<style>.cls-1{fill:none;stroke:#ffffff;stroke-miterlimit:10;stroke-width:1.008;}</style>
</defs>
<path class="cls-1" d="M22.5,14.5,3.7,22.38a1.58,1.58,0,0,1-.61.12h0A1.59,1.59,0,0,1,1.5,20.91h0a1.58,1.58,0,0,1,.12-.61L9.5,1.5a13,13,0,0,1,13,13Z"/>
<path class="cls-1" d="M8.31,4.63A13,13,0,0,1,19.37,15.69"/>
<circle class="cls-1" cx="8.5" cy="9.55" r="2"/>
<path class="cls-1" d="M6.53,21.17a2,2,0,1,1,3-1.72,1.77,1.77,0,0,1-.1.61"/>
<circle class="cls-1" cx="14.5" cy="15.45" r="2"/>
</g>
</svg>