<?xml version="1.0" encoding="UTF-8"?>
<svg version="1.1" xmlns="http://www.w3.org/2000/svg" width="3333" height="3333">
<path d="M0 0 C0.9102594 0.08721313 1.8205188 0.17442627 2.75836182 0.26428223 C75.67323185 7.31713759 147.43941791 21.89478728 217 45 C218.19151672 45.3951178 218.19151672 45.3951178 219.40710449 45.79821777 C255.16915676 57.69331707 289.90949665 71.95309165 324 88 C325.00960785 88.47466705 325.00960785 88.47466705 326.03961182 88.95892334 C342.37839895 96.65008357 358.5141338 104.61315467 374.26171875 113.46679688 C377.1861819 115.10424593 380.12328567 116.71731664 383.0625 118.328125 C396.69089265 125.82951615 409.96271175 133.78237957 423.08007812 142.14306641 C425.97833616 143.98622281 428.88614961 145.81332764 431.796875 147.63671875 C442.45632216 154.33354275 452.88669812 161.25821347 463.09326172 168.62695312 C464.92134732 169.94336202 466.75747425 171.24744601 468.59765625 172.546875 C477.52726381 178.86071368 486.2857795 185.39286046 495 192 C495.5657373 192.42780762 496.13147461 192.85561523 496.71435547 193.29638672 C509.94168624 203.31323889 522.76497309 213.83476007 535.37597656 224.61425781 C537.06714221 226.05729092 538.76374619 227.49374817 540.4609375 228.9296875 C547.45491047 234.86402619 554.27713789 240.94686349 560.984375 247.203125 C563.61874853 249.65810865 566.3018191 252.05265624 569 254.4375 C573.6198434 258.56827203 577.96953473 262.93591641 582.32202148 267.34350586 C585.145094 270.18996132 587.98352684 272.92672098 591.0625 275.5 C595.14956716 278.97015136 598.6895811 282.91783004 602.28613281 286.87963867 C605.85813538 290.80244287 609.53517304 294.58754499 613.3125 298.3125 C617.08994763 302.04671504 620.72494881 305.84054204 624.16796875 309.88671875 C626.04887009 312.05637253 627.98912863 314.1645306 629.94262695 316.26879883 C634.6826111 321.37718809 639.19192291 326.59924704 643.5625 332.03125 C646.42926448 335.52282212 649.39784156 338.91517982 652.375 342.3125 C658.05359728 348.81611505 663.45282872 355.49413875 668.71777344 362.33544922 C669.94404246 363.92735748 671.1788552 365.51267342 672.4140625 367.09765625 C725.50636842 435.49507316 769.65096882 510.96379145 870.78710938 868.60137939 C871.0028029 871.03157999 871.22784065 873.46080841 871.453125 875.89013672 C876.48003672 931.28147692 876.35949063 988.64368093 871 1044 C870.91278687 1044.9102594 870.82557373 1045.8205188 870.73571777 1046.75836182 C863.79302248 1118.53435868 849.74786523 1189.51048145 827 1258 C826.73143188 1258.80981323 826.46286377 1259.61962646 826.18615723 1260.45397949 C813.95500232 1297.22302292 799.50029276 1332.94631406 783 1368 C782.6835553 1368.6730719 782.3671106 1369.3461438 782.04107666 1370.03961182 C774.34991643 1386.37839895 766.38684533 1402.5141338 757.53320312 1418.26171875 C755.89575407 1421.1861819 754.28268336 1424.12328567 752.671875 1427.0625 C745.17048385 1440.69089265 737.21762043 1453.96271175 728.85693359 1467.08007812 C727.01377719 1469.97833616 725.18667236 1472.88614961 723.36328125 1475.796875 C716.66645725 1486.45632216 709.74178653 1496.88669812 702.37304688 1507.09326172 C701.05663798 1508.92134732 699.75255399 1510.75747425 698.453125 1512.59765625 C692.13928632 1521.52726381 685.60713954 1530.2857795 679 1539 C678.57219238 1539.5657373 678.14438477 1540.13147461 677.70361328 1540.71435547 C667.68676111 1553.94168624 657.16523993 1566.76497309 646.38574219 1579.37597656 C644.94270908 1581.06714221 643.50625183 1582.76374619 642.0703125 1584.4609375 C636.13597381 1591.45491047 630.05313651 1598.27713789 623.796875 1604.984375 C621.34189135 1607.61874853 618.94734376 1610.3018191 616.5625 1613 C612.43172797 1617.6198434 608.06408359 1621.96953473 603.65649414 1626.32202148 C600.81003868 1629.145094 598.07327902 1631.98352684 595.5 1635.0625 C592.02984864 1639.14956716 588.08216996 1642.6895811 584.12036133 1646.28613281 C580.19755713 1649.85813538 576.41245501 1653.53517304 572.6875 1657.3125 C568.95328496 1661.08994763 565.15945796 1664.72494881 561.11328125 1668.16796875 C558.94362747 1670.04887009 556.8354694 1671.98912863 554.73120117 1673.94262695 C549.62281191 1678.6826111 544.40075296 1683.19192291 538.96875 1687.5625 C535.47717788 1690.42926448 532.08482018 1693.39784156 528.6875 1696.375 C522.18388495 1702.05359728 515.50586125 1707.45282872 508.66455078 1712.71777344 C507.07264252 1713.94404246 505.48732658 1715.1788552 503.90234375 1716.4140625 C433.22663152 1771.27485556 354.94024685 1816.62896049 2.39862061 1914.78710938 C-0.03157999 1915.0028029 -2.46080841 1915.22784065 -4.89013672 1915.453125 C-60.28147692 1920.48003672 -117.64368093 1920.35949063 -173 1915 C-173.9102594 1914.91278687 -174.8205188 1914.82557373 -175.75836182 1914.73571777 C-260.90096381 1906.50010743 -344.85165141 1887.9289879 -543 1804 C-543.88977539 1803.51321777 -544.77955078 1803.02643555 -545.69628906 1802.52490234 C-569.67064018 1789.32836342 -593.27442345 1775.25185135 -616 1760 C-616.8859082 1759.40622559 -617.77181641 1758.81245117 -618.68457031 1758.20068359 C-638.634517 1744.79256098 -657.96902162 1730.6798118 -677 1716 C-677.68642578 1715.47100098 -678.37285156 1714.94200195 -679.08007812 1714.39697266 C-686.51784323 1708.65082233 -693.77010988 1702.72420276 -700.9140625 1696.6171875 C-703.75605565 1694.19308244 -706.65290065 1691.84268601 -709.5625 1689.5 C-714.64039439 1685.36958445 -719.44563853 1680.99168232 -724.2421875 1676.54296875 C-726.40340548 1674.55011761 -728.58346969 1672.60292215 -730.8125 1670.6875 C-743.8494364 1659.33599399 -756.06171718 1647.09720021 -768.26416016 1634.86621094 C-771.02001355 1632.10494716 -773.78124028 1629.3491364 -776.54296875 1626.59375 C-778.32063359 1624.81542508 -780.09798859 1623.03679037 -781.875 1621.2578125 C-782.68864014 1620.44619659 -783.50228027 1619.63458069 -784.34057617 1618.79837036 C-788.55128639 1614.57046527 -792.61353736 1610.2717794 -796.49734497 1605.74076843 C-798.87789072 1602.98299715 -801.38306743 1600.34419191 -803.875 1597.6875 C-808.33504356 1592.8935086 -812.56309553 1587.97489004 -816.6640625 1582.8671875 C-819.33875016 1579.58420967 -822.10219348 1576.38746861 -824.875 1573.1875 C-830.28631548 1566.9147113 -835.43991785 1560.4737388 -840.5078125 1553.921875 C-842.11074785 1551.85736141 -843.72632058 1549.80317524 -845.34375 1547.75 C-853.50999532 1537.36001276 -861.34525807 1526.77123066 -869 1516 C-869.51836426 1515.27393555 -870.03672852 1514.54787109 -870.57080078 1513.79980469 C-877.57263499 1503.99153177 -884.42594562 1494.10051848 -891 1484 C-891.50724609 1483.22124512 -892.01449219 1482.44249023 -892.53710938 1481.64013672 C-905.66148039 1461.41653156 -918.13634692 1440.72849843 -929.62744141 1419.53027344 C-930.63117224 1417.67992367 -931.63927234 1415.83194216 -932.64990234 1413.98535156 C-955.53242758 1372.14479388 -974.54477367 1328.74153411 -991 1284 C-991.26685608 1283.27546631 -991.53371216 1282.55093262 -991.80865479 1281.80444336 C-1006.11605444 1242.83268695 -1017.27483771 1202.57495947 -1026 1162 C-1026.17039795 1161.21010681 -1026.3407959 1160.42021362 -1026.51635742 1159.60638428 C-1034.2401771 1123.63521984 -1039.68340397 1087.23325828 -1043.3125 1050.625 C-1043.38795044 1049.87694092 -1043.46340088 1049.12888184 -1043.5411377 1048.3581543 C-1046.43067247 1019.20351008 -1047.38434694 989.99217398 -1047.31785583 960.71016312 C-1047.31239255 958.20064392 -1047.31004116 955.69113421 -1047.3079834 953.18161011 C-1047.27442526 926.8650285 -1046.62064477 900.69086843 -1044.22460938 874.46887207 C-1044.00192554 872.02116523 -1043.78901375 869.57277196 -1043.578125 867.12402344 C-1036.07215809 781.10413537 -1015.99833501 695.826042 -962 560 C-961.38004623 558.65591151 -960.76043298 557.31166593 -960.14111328 555.96728516 C-939.66731348 511.57438031 -916.25997859 468.61793653 -889 428 C-888.40622559 427.1140918 -887.81245117 426.22818359 -887.20068359 425.31542969 C-873.79256098 405.365483 -859.6798118 386.03097838 -845 367 C-844.47100098 366.31357422 -843.94200195 365.62714844 -843.39697266 364.91992188 C-837.65082233 357.48215677 -831.72420276 350.22989012 -825.6171875 343.0859375 C-823.19308244 340.24394435 -820.84268601 337.34709935 -818.5 334.4375 C-814.36958445 329.35960561 -809.99168232 324.55436147 -805.54296875 319.7578125 C-803.55011761 317.59659452 -801.60292215 315.41653031 -799.6875 313.1875 C-788.33599399 300.1505636 -776.09720021 287.93828282 -763.86621094 275.73583984 C-761.10494716 272.97998645 -758.3491364 270.21875972 -755.59375 267.45703125 C-753.81542508 265.67936641 -752.03679037 263.90201141 -750.2578125 262.125 C-749.44619659 261.31135986 -748.63458069 260.49771973 -747.79837036 259.65942383 C-743.57046527 255.44871361 -739.2717794 251.38646264 -734.74076843 247.50265503 C-731.98299715 245.12210928 -729.34419191 242.61693257 -726.6875 240.125 C-721.8935086 235.66495644 -716.97489004 231.43690447 -711.8671875 227.3359375 C-708.58420967 224.66124984 -705.38746861 221.89780652 -702.1875 219.125 C-695.9147113 213.71368452 -689.4737388 208.56008215 -682.921875 203.4921875 C-680.85736141 201.88925215 -678.80317524 200.27367942 -676.75 198.65625 C-666.36001276 190.49000468 -655.77123066 182.65474193 -645 175 C-643.91090332 174.22245361 -643.91090332 174.22245361 -642.79980469 173.42919922 C-632.99153177 166.42736501 -623.10051848 159.57405438 -613 153 C-612.22124512 152.49275391 -611.44249023 151.98550781 -610.64013672 151.46289062 C-590.41653156 138.33851961 -569.72849843 125.86365308 -548.53027344 114.37255859 C-546.67992367 113.36882776 -544.83194216 112.36072766 -542.98535156 111.35009766 C-503.70436597 89.86739776 -463.0007856 71.5019293 -421 56 C-420.34207458 55.75677002 -419.68414917 55.51354004 -419.00628662 55.26293945 C-340.69231268 26.37219693 -258.58733645 7.54708644 -175.39862061 0.21289062 C-172.96842001 -0.0028029 -170.53919159 -0.22784065 -168.10986328 -0.453125 C-112.71852308 -5.48003672 -55.35631907 -5.35949063 0 0 Z M-149 194 C-149.70872253 194.06316406 -150.41744507 194.12632812 -151.14764404 194.19140625 C-240.90880749 202.26404939 -328.41361673 225.19226146 -413 265 C-414.53865723 265.71905518 -414.53865723 265.71905518 -416.10839844 266.45263672 C-431.04708736 273.44261566 -445.65348318 280.8633447 -460 289 C-461.07137207 289.60376465 -462.14274414 290.2075293 -463.24658203 290.82958984 C-477.99672961 299.1783717 -492.34500043 308.01840951 -506.4375 317.4375 C-507.11761139 317.89195496 -507.79772278 318.34640991 -508.4984436 318.81463623 C-520.54591462 326.88578168 -532.41991616 335.20629662 -544 343.9375 C-544.99253784 344.68471313 -544.99253784 344.68471313 -546.00512695 345.44702148 C-556.21427018 353.15840321 -566.20252745 361.07849315 -575.92578125 369.39453125 C-578.69699155 371.75864187 -581.52927189 374.03843958 -584.375 376.3125 C-589.64826087 380.597507 -594.59381939 385.19304013 -599.52294922 389.86450195 C-602.53395733 392.71594051 -605.57053793 395.50973903 -608.71777344 398.21069336 C-613.05048044 401.99220048 -617.13200139 405.98748906 -621.19140625 410.05859375 C-621.94034653 410.8065773 -622.6892868 411.55456085 -623.46092224 412.32521057 C-625.03271225 413.89632464 -626.60325849 415.46868392 -628.17260742 417.04223633 C-630.55601304 419.43099846 -632.94471068 421.81437446 -635.33398438 424.19726562 C-636.87011237 425.7340545 -638.40593009 427.2711536 -639.94140625 428.80859375 C-640.99794151 429.86209267 -640.99794151 429.86209267 -642.07582092 430.93687439 C-646.04160308 434.92119336 -649.83569415 439.00293531 -653.50257874 443.26446533 C-655.57280698 445.66389225 -657.72471924 447.98483918 -659.875 450.3125 C-663.96437787 454.79662928 -667.84619021 459.40267238 -671.65625 464.125 C-673.75016189 466.69353192 -675.88170686 469.22031607 -678.03662109 471.73730469 C-683.94022647 478.63890539 -689.5583932 485.72877341 -695 493 C-695.51933105 493.69335449 -696.03866211 494.38670898 -696.57373047 495.10107422 C-721.01709715 527.8230702 -743.42272843 561.87595324 -762.44384766 598.04785156 C-764.01422173 601.02697979 -765.60552177 603.99423161 -767.19921875 606.9609375 C-805.64557793 679.0572969 -830.41001686 758.58658679 -850 895 C-850.09087891 896.00667725 -850.09087891 896.00667725 -850.18359375 897.03369141 C-853.80675045 937.64323947 -853.66528236 979.39919937 -850 1020 C-849.90525391 1021.06661865 -849.90525391 1021.06661865 -849.80859375 1022.15478516 C-842.32806186 1105.66905658 -821.8187308 1186.86406421 -755 1331 C-754.09870361 1332.59835693 -754.09870361 1332.59835693 -753.17919922 1334.22900391 C-744.82752899 1348.98523863 -735.98534342 1363.33938542 -726.5625 1377.4375 C-725.88081757 1378.45766708 -725.88081757 1378.45766708 -725.18536377 1379.4984436 C-717.11421832 1391.54591462 -708.79370338 1403.41991616 -700.0625 1415 C-699.31528687 1415.99253784 -699.31528687 1415.99253784 -698.55297852 1417.00512695 C-690.84159679 1427.21427018 -682.92150685 1437.20252745 -674.60546875 1446.92578125 C-672.24135813 1449.69699155 -669.96156042 1452.52927189 -667.6875 1455.375 C-663.402493 1460.64826087 -658.80695987 1465.59381939 -654.13549805 1470.52294922 C-651.28405949 1473.53395733 -648.49026097 1476.57053793 -645.78930664 1479.71777344 C-642.00779952 1484.05048044 -638.01251094 1488.13200139 -633.94140625 1492.19140625 C-633.1934227 1492.94034653 -632.44543915 1493.6892868 -631.67478943 1494.46092224 C-630.10367536 1496.03271225 -628.53131608 1497.60325849 -626.95776367 1499.17260742 C-624.56900154 1501.55601304 -622.18562554 1503.94471068 -619.80273438 1506.33398438 C-618.2659455 1507.87011237 -616.7288464 1509.40593009 -615.19140625 1510.94140625 C-614.48907364 1511.64576309 -613.78674103 1512.35011993 -613.06312561 1513.07582092 C-609.07880664 1517.04160308 -604.99706469 1520.83569415 -600.73553467 1524.50257874 C-598.33610775 1526.57280698 -596.01516082 1528.72471924 -593.6875 1530.875 C-589.20337072 1534.96437787 -584.59732762 1538.84619021 -579.875 1542.65625 C-577.30646808 1544.75016189 -574.77968393 1546.88170686 -572.26269531 1549.03662109 C-565.36109461 1554.94022647 -558.27122659 1560.5583932 -551 1566 C-550.30664551 1566.51933105 -549.61329102 1567.03866211 -548.89892578 1567.57373047 C-516.1769298 1592.01709715 -482.12404676 1614.42272843 -445.95214844 1633.44384766 C-442.97302021 1635.01422173 -440.00576839 1636.60552177 -437.0390625 1638.19921875 C-362.92982348 1677.71897322 -280.74378226 1703.02949968 -135 1722 C-134.33683777 1722.04236786 -133.67367554 1722.08473572 -132.99041748 1722.12838745 C-117.78823567 1723.07844445 -102.60333403 1723.20106488 -87.375 1723.1875 C-86.11788208 1723.18689575 -84.86076416 1723.1862915 -83.56555176 1723.18566895 C-63.6347686 1723.15973141 -43.85673243 1722.79544447 -24 1721 C-23.29127747 1720.93683594 -22.58255493 1720.87367187 -21.85235596 1720.80859375 C65.63954409 1712.94003613 150.14885475 1690.65721037 301.16455078 1617.70458984 C304.00762643 1615.99541521 306.86063328 1614.30378084 309.71484375 1612.61328125 C345.43342043 1591.3161751 378.681662 1566.37677348 410.30859375 1539.43701172 C411.99292607 1538.00600998 413.6834628 1536.58262965 415.375 1535.16015625 C430.05586562 1522.76331987 443.7872717 1509.38225562 457.34887695 1495.78149414 C459.58885186 1493.5360842 461.83422696 1491.29617161 464.08007812 1489.05664062 C465.53417542 1487.60188354 466.98796303 1486.14681682 468.44140625 1484.69140625 C469.09879288 1484.03604385 469.7561795 1483.38068146 470.43348694 1482.70545959 C474.28025172 1478.8394029 477.94537315 1474.86286993 481.50636292 1470.73175049 C483.42100409 1468.51188006 485.39712345 1466.35103929 487.375 1464.1875 C491.26924618 1459.87225424 494.96654724 1455.42908245 498.62109375 1450.91015625 C500.72954837 1448.33084805 502.8733109 1445.79040324 505.03930664 1443.25976562 C510.47170007 1436.9082192 515.65651026 1430.41017876 520.68896484 1423.73632812 C522.05361208 1421.92899644 523.42694872 1420.12848186 524.80078125 1418.328125 C549.08619473 1386.37427524 570.8107851 1352.35888738 589.5 1316.83984375 C590.95147037 1314.09187771 592.42596414 1311.35752769 593.90625 1308.625 C632.24357757 1237.29703633 656.53160845 1158.62403926 676.6875 1022.75 C676.74852905 1022.04540649 676.80955811 1021.34081299 676.87243652 1020.61486816 C677.28788055 1015.74590987 677.66105252 1010.87487046 678 1006 C678.04912537 1005.2978537 678.09825073 1004.5957074 678.14886475 1003.87228394 C679.15397096 988.94719419 679.24184081 974.01673821 679.25 959.0625 C679.25100708 957.77264191 679.25201416 956.48278381 679.25305176 955.15383911 C679.24056624 931.32687872 678.25125231 907.71767715 676 884 C675.92974609 883.24746948 675.85949219 882.49493896 675.78710938 881.71960449 C668.51125462 804.4093978 648.60958446 727.54956543 608 635 C607.71833984 634.3975647 607.43667969 633.79512939 607.14648438 633.17443848 C594.85604963 606.90640857 581.11581887 581.69897319 565.87548828 557.03564453 C564.29343051 554.47494337 562.72043062 551.90910708 561.15234375 549.33984375 C541.89204827 517.9400026 519.29548779 488.70094847 495.43701172 460.69140625 C494.00600998 459.00707393 492.58262965 457.3165372 491.16015625 455.625 C478.76331987 440.94413438 465.38225562 427.2127283 451.78149414 413.65112305 C449.5360842 411.41114814 447.29617161 409.16577304 445.05664062 406.91992188 C443.60188354 405.46582458 442.14681682 404.01203697 440.69140625 402.55859375 C439.70836266 401.57251381 439.70836266 401.57251381 438.70545959 400.56651306 C434.8394029 396.71974828 430.86286993 393.05462685 426.73175049 389.49363708 C424.51188006 387.57899591 422.35103929 385.60287655 420.1875 383.625 C415.87225424 379.73075382 411.42908245 376.03345276 406.91015625 372.37890625 C404.33084805 370.27045163 401.79040324 368.1266891 399.25976562 365.96069336 C392.9082192 360.52829993 386.41017876 355.34348974 379.73632812 350.31103516 C377.92899644 348.94638792 376.12848186 347.57305128 374.328125 346.19921875 C342.37427524 321.91380527 308.35888738 300.1892149 272.83984375 281.5 C270.09187771 280.04852963 267.35752769 278.57403586 264.625 277.09375 C193.64037869 238.94096196 114.86360039 214.21937672 -38 193 C-38.6556897 192.95869965 -39.31137939 192.91739929 -39.98693848 192.87484741 C-55.1974644 191.92881238 -70.38839616 191.79892776 -85.625 191.8125 C-86.88211792 191.81310425 -88.13923584 191.8137085 -89.43444824 191.81433105 C-109.3652314 191.84026859 -129.14326757 192.20455553 -149 194 Z " fill="#FFFFFF" transform="translate(1712,709)"/>
<path d="M0 0 C10.76039955 9.91145284 13.62202798 22.84406066 15 37 C15.08564876 39.64405274 15.13311366 42.26014649 15.12304783 44.90287781 C15.12420167 45.6600581 15.12535552 46.4172384 15.12654433 47.19736356 C15.12918321 49.7249413 15.12471143 52.25245486 15.12025452 54.7800293 C15.12069078 56.61422045 15.12156669 58.44841155 15.12284368 60.28260231 C15.12507787 65.31543269 15.12108205 70.34824176 15.11606562 75.38106942 C15.11174589 80.81110905 15.11320863 86.24114749 15.1139679 91.67118835 C15.11449216 101.07667322 15.11135549 110.48215115 15.10573006 119.88763428 C15.09760192 133.4863735 15.09499849 147.08510937 15.09374207 160.68385077 C15.09155362 182.7470808 15.08489913 204.81030713 15.07543945 226.87353516 C15.06625271 248.30550111 15.05917023 269.73746607 15.05493164 291.16943359 C15.05480011 291.83024815 15.05466859 292.49106271 15.05453308 293.17190196 C15.0530837 300.46667306 15.05169187 307.76144417 15.05032361 315.05621529 C15.03995743 370.03748014 15.02152258 425.01873816 15 480 C55.59 480 96.18 480 138 480 C137.98952637 467.25938965 137.97905273 454.5187793 137.96826172 441.39208984 C137.93615166 400.61200113 137.91391074 359.83191236 137.89786934 319.05181428 C137.89536797 312.71585793 137.89277932 306.37990161 137.89013672 300.04394531 C137.8896121 298.78258761 137.88908748 297.52122991 137.88854696 296.22164924 C137.8798479 275.80657736 137.86408067 255.39151676 137.84569441 234.97645156 C137.82698148 214.02369473 137.81588033 193.07094381 137.81182301 172.11817896 C137.80908085 159.19259176 137.80042451 146.26703644 137.78416707 133.34145905 C137.77358301 124.47403503 137.7704026 115.60662747 137.77299725 106.7391976 C137.77427631 101.6256685 137.7723361 96.51219508 137.76158905 91.39867592 C137.75180757 86.71017581 137.7513967 82.02176846 137.75820221 77.33326395 C137.75904249 75.64392592 137.75654712 73.95458194 137.75023364 72.2652555 C137.66864638 49.07160184 141.18852495 29.32033707 157.6875 11.75 C171.77830511 -1.63196888 189.38431929 -7.64049318 208.640625 -7.2734375 C228.19718048 -6.39243299 244.14736872 3.13310411 257.08984375 17.28515625 C267.8949181 30.31271854 272.12796025 45.95884168 272.12304783 62.62176514 C272.12420167 63.34855471 272.12535552 64.07534428 272.12654433 64.82415777 C272.12918154 67.24835524 272.12471285 69.67248568 272.12025452 72.09667969 C272.12069081 73.85662444 272.12156679 75.61656913 272.12284368 77.37651348 C272.1250772 82.20411588 272.12108298 87.03169604 272.11606562 91.85929561 C272.11174491 97.06847428 272.1132087 102.27765171 272.1139679 107.48683167 C272.1144921 116.50926002 272.11135608 125.53168113 272.10573006 134.55410767 C272.09760109 147.59900329 272.0949984 160.64389542 272.09374207 173.6887933 C272.09155375 194.85356601 272.08489961 216.01833486 272.07543945 237.18310547 C272.06625965 257.74202454 272.05918159 278.30094257 272.05493164 298.85986328 C272.05453756 300.76092028 272.05453756 300.76092028 272.05413551 302.70038247 C272.05283047 309.05844767 272.05156676 315.41651288 272.05032361 321.77457809 C272.03995784 374.51638882 272.02152321 427.25819242 272 480 C306.32 480 340.64 480 376 480 C375.98952637 467.05894043 375.97905273 454.11788086 375.96826172 440.78466797 C375.93612574 399.32407466 375.91389964 357.86348129 375.89786934 316.40287875 C375.89536809 309.95706237 375.89277943 303.51124602 375.89013672 297.06542969 C375.88934979 295.14065348 375.88934979 295.14065348 375.88854696 293.17699291 C375.87985695 272.43106625 375.86409474 251.68515073 375.84569441 230.93923067 C375.82695623 209.63387133 375.815875 188.3285178 375.81182301 167.02315056 C375.80908607 153.88876239 375.80045827 140.75440573 375.78416707 127.62002726 C375.77355178 118.59929814 375.77040961 109.57858519 375.77299725 100.55785029 C375.77427149 95.36231962 375.77239194 90.1668438 375.76158905 84.97132301 C375.62718071 16.90155627 375.62718071 16.90155627 389.3125 2.1875 C398.44351466 -6.33215082 409.62189586 -7.55540378 421.68359375 -7.24609375 C443.72089611 -6.24098874 463.55199818 2.36593579 480 17 C480.77214844 17.67675781 481.54429687 18.35351562 482.33984375 19.05078125 C498.14796089 33.80317176 508.60644813 55.99186466 509.45483619 77.62909196 C509.535973 81.69626804 509.52522234 85.76032563 509.50120544 89.82803345 C509.50510702 91.6791741 509.51075429 93.53031175 509.51797634 95.38144243 C509.53262885 100.42554945 509.52261045 105.46934102 509.50823963 110.51343751 C509.49707352 115.97134517 509.50909179 121.4292106 509.51808167 126.88711548 C509.53198403 137.56852668 509.52447714 148.24981927 509.50940608 158.93122478 C509.49248207 171.40546086 509.49576494 183.8796679 509.49950016 196.35391192 C509.50555199 219.32048863 509.48979903 242.28701356 509.46431253 265.25357199 C509.44126238 286.13472535 509.43578677 307.01580945 509.44604492 327.89697266 C509.45751841 351.42214838 509.45931404 374.94729125 509.44494683 398.47246683 C509.44342121 400.99211589 509.44190086 403.51176496 509.44038582 406.03141403 C509.439628 407.27072501 509.43887019 408.51003598 509.43808941 409.78690184 C509.43338249 418.44552155 509.43517272 427.10412546 509.43945122 435.7627449 C509.4444277 446.35782709 509.43817737 456.95283832 509.41855692 467.54790445 C509.40881911 472.93591609 509.40342899 478.32382076 509.41144943 483.71183777 C509.52486213 569.04650677 500.18000926 656.40225151 433.9921875 728.03125 C432.86611193 729.14217657 431.73860458 730.25165455 430.609375 731.359375 C428.82602529 733.17735286 427.16329346 735.07175714 425.5 737 C421.18590343 741.98667287 416.65475615 746.62809063 411.6171875 750.88671875 C405.95179111 755.82462896 400.66654517 761.14742501 395.35522461 766.45947266 C393.57489748 768.23761772 391.78671623 770.00759561 389.99804688 771.77734375 C383.20041691 778.5417714 376.9190882 785.44269951 371 793 C370.1468179 794.03574201 369.29183752 795.07001083 368.43359375 796.1015625 C348.10010975 821.80690627 347.68850989 852.28560886 347.74533385 883.57591006 C347.75068982 887.76624786 347.74430618 891.95657131 347.73944318 896.14690745 C347.73250518 903.4783639 347.73284822 910.80979123 347.73804665 918.1412487 C347.74571712 929.04373634 347.74181569 939.94619863 347.73542418 950.84868602 C347.72491218 969.19650356 347.7230639 987.5443119 347.72560501 1005.89213181 C347.72902664 1032.11096013 347.71564681 1058.32976546 347.69883054 1084.54858759 C347.69215071 1095.077932 347.68601147 1105.60727674 347.67987633 1116.13662148 C347.67919233 1117.30632309 347.67850834 1118.4760247 347.67780361 1119.68117181 C347.66163564 1147.50521981 347.65079354 1175.32926922 347.64160156 1203.15332031 C347.64119553 1204.37030299 347.64078949 1205.58728567 347.64037116 1206.84114661 C347.63094257 1235.23709474 347.6240767 1263.63304207 347.62164307 1292.0289917 C347.62148322 1293.86128388 347.62148322 1293.86128388 347.62132015 1295.73059207 C347.62078697 1301.89034389 347.62027222 1308.05009571 347.61975877 1314.20984752 C347.61965656 1315.42727879 347.61955435 1316.64471006 347.61944905 1317.89903319 C347.61924349 1320.35630194 347.61904093 1322.8135707 347.61884138 1325.27083945 C347.61545942 1365.88425319 347.59853928 1406.49764384 347.56673984 1447.11104556 C347.56226671 1452.84810481 347.55797683 1458.58516418 347.55381393 1464.32222366 C347.55299348 1465.45125236 347.55217302 1466.58028106 347.5513277 1467.74352275 C347.53858982 1485.89755676 347.54056933 1504.05156076 347.54844838 1522.20559633 C347.55613753 1540.45316989 347.54971171 1558.70069356 347.52880932 1576.94825719 C347.51685895 1587.7822616 347.51605218 1598.61613323 347.53130184 1609.4501342 C347.54040652 1616.69543496 347.53493613 1623.9406321 347.51785937 1631.18591816 C347.50855927 1635.30828854 347.50539219 1639.43039669 347.52012999 1643.55275719 C347.62560224 1675.35203449 343.36126176 1703.97156884 322 1729 C321.03707031 1730.17949219 321.03707031 1730.17949219 320.0546875 1731.3828125 C301.78964447 1752.8829923 274.9325476 1765.60328765 247 1768 C243.63827292 1768.13902689 240.2808301 1768.15691458 236.91650391 1768.16113281 C235.95084503 1768.16609772 234.98518616 1768.17106262 233.99026489 1768.17617798 C230.81902328 1768.19069117 227.64783177 1768.19758542 224.4765625 1768.203125 C223.38320965 1768.20595238 222.2898568 1768.20877975 221.16337204 1768.21169281 C215.37079379 1768.22664573 209.57824016 1768.2358983 203.78564453 1768.24023438 C197.85420564 1768.24569592 191.92299896 1768.26968624 185.99163246 1768.29820633 C181.38601055 1768.31699726 176.78044259 1768.3220471 172.17478561 1768.32357025 C169.9911002 1768.32656317 167.80741494 1768.33447518 165.62376785 1768.34775543 C130.56221312 1768.5456747 101.06290718 1760.34470868 75.3125 1735.75 C51.72342031 1711.30375898 43.82061759 1681.09319315 43.86971474 1647.80872726 C43.86817401 1646.40624806 43.86619624 1645.00376928 43.86382556 1643.60129124 C43.85858364 1639.76308573 43.8594778 1635.92490292 43.86139868 1632.08669524 C43.86237668 1627.90492262 43.85753212 1623.72315604 43.85341966 1619.54138589 C43.84699836 1612.21730784 43.84420373 1604.89323549 43.84379387 1597.56915474 C43.84314805 1586.67771124 43.83674834 1575.78627647 43.82904707 1564.89483594 C43.81697861 1547.69173972 43.80831276 1530.4886439 43.80200893 1513.28554467 C43.79196843 1485.97600646 43.77271124 1458.6664807 43.75046654 1431.35694997 C43.74193676 1420.84564424 43.73367024 1410.33433829 43.72536278 1399.82303238 C43.72443777 1398.65526029 43.72351276 1397.4874882 43.72255972 1396.28432908 C43.70057472 1368.49407872 43.68078073 1340.70382699 43.66210938 1312.91357422 C43.6612897 1311.69777452 43.66047002 1310.48197482 43.6596255 1309.2293327 C43.64054022 1280.86266754 43.62357782 1252.49600246 43.61126709 1224.1293335 C43.61073742 1222.9092399 43.61020775 1221.6891463 43.60966204 1220.43208017 C43.60541031 1210.59721913 43.60123407 1200.76235805 43.59707724 1190.92749697 C43.57987777 1150.37370131 43.55266553 1109.81992271 43.51391686 1069.26614171 C43.50845517 1063.53858565 43.50312218 1057.81102947 43.49787521 1052.08347321 C43.49684083 1050.95627604 43.49580645 1049.82907887 43.49474073 1048.66772421 C43.4784214 1030.53235713 43.47288738 1012.397002 43.47157755 994.26162828 C43.47007275 976.03478467 43.4579113 957.80797353 43.43482114 939.58114424 C43.42144659 928.75544568 43.41641939 917.92981804 43.4233675 907.10411305 C43.42719331 899.86799777 43.42014049 892.63194524 43.40435172 885.39584633 C43.39567412 881.276209 43.39163667 877.15671685 43.40092559 873.03707752 C43.40930486 869.28036025 43.40363213 865.52392196 43.387318 861.76723316 C43.38223515 859.79829995 43.39164207 857.82934502 43.40185404 855.86043173 C43.20298227 825.62476732 30.30029751 801.09546404 9.1875 780.125 C8.64480469 779.60292969 8.10210938 779.08085938 7.54296875 778.54296875 C5.9170203 776.9170203 4.47074922 775.20462186 3 773.4375 C-0.14682731 769.80025805 -3.58105157 766.5540486 -7.125 763.3125 C-15.30457656 755.80695702 -23.14839778 747.96988351 -31 740.125 C-31.63778381 739.48962311 -32.27556763 738.85424622 -32.93267822 738.19961548 C-39.50792996 731.64559331 -46.02163472 725.11179437 -52 718 C-52.8874905 716.98927347 -53.7767332 715.98008202 -54.66796875 714.97265625 C-66.13815409 701.7241476 -75.92184493 687.55302352 -84 672 C-84.36158203 671.31873047 -84.72316406 670.63746094 -85.09570312 669.93554688 C-104.96683258 632.12082257 -111.99494413 588.54642891 -115.75 546.4375 C-115.86561279 545.14521484 -115.98122559 543.85292969 -116.1003418 542.52148438 C-118.16796886 517.4399279 -118.15613863 492.34080824 -118.16004276 467.19468629 C-118.16191779 461.98205134 -118.16947616 456.76942377 -118.17617798 451.55679321 C-118.18965545 440.20413033 -118.19576744 428.85147102 -118.20018864 417.49880147 C-118.20296537 410.39880694 -118.20720485 403.29881374 -118.21169281 396.19882011 C-118.22386454 376.50111127 -118.23417254 356.80340348 -118.2375679 337.10569096 C-118.23778747 335.84970518 -118.23800703 334.59371941 -118.23823325 333.29967346 C-118.23845153 332.04091799 -118.23866981 330.78216251 -118.2388947 329.48526293 C-118.23933815 326.93508089 -118.23978471 324.38489884 -118.24023438 321.8347168 C-118.2404558 320.56977437 -118.24067723 319.30483195 -118.24090537 318.00155794 C-118.24485937 297.47363071 -118.26234112 276.94573884 -118.2855939 256.41782529 C-118.30933005 235.29140017 -118.32177054 214.1649928 -118.32293582 193.03855413 C-118.32385054 181.19664825 -118.32955302 169.35478866 -118.34775543 157.51289558 C-118.36318602 147.44003545 -118.36825888 137.36723597 -118.36001733 127.29436625 C-118.35612327 122.16204733 -118.35697995 117.02985049 -118.37107468 111.89754677 C-118.38388598 107.18945111 -118.38255331 102.48156838 -118.37048396 97.77347272 C-118.36853961 96.08076084 -118.37154622 94.38803348 -118.38032833 92.69534326 C-118.5186127 64.21378214 -111.05501419 40.70898204 -91 20 C-90.4121875 19.32710937 -89.824375 18.65421875 -89.21875 17.9609375 C-70.10658343 -3.07921079 -25.11373189 -18.1351446 0 0 Z " fill="#FFFFFF" transform="translate(2824,827)"/>
<path d="M0 0 C19.68073446 -0.61418846 38.6115566 5.41914855 53.50390625 18.47265625 C55.14596565 20.01721838 56.77168744 21.57937196 58.37890625 23.16015625 C59.08015625 23.84851563 59.78140625 24.536875 60.50390625 25.24609375 C84.63197226 50.59941311 86.69295458 86.16914583 86.63338184 119.11608028 C86.6346633 121.86338787 86.63895828 124.610689 86.64309844 127.35799357 C86.65051262 133.33378432 86.65055829 139.30953939 86.64570896 145.28533226 C86.63848526 154.23133049 86.64284336 163.17729813 86.64939031 172.12329557 C86.66021006 187.3726799 86.66155067 202.62205188 86.65769196 217.87143898 C86.65381381 233.32109774 86.65427372 248.77074729 86.66000175 264.22040558 C86.66036058 265.19689165 86.66071941 266.17337773 86.66108911 267.17945429 C86.66256404 271.15665204 86.66406844 275.13384978 86.66561057 279.11104751 C86.68124102 319.47026439 86.68392505 359.82947494 86.68145451 400.18869431 C86.68111606 405.76411546 86.68079396 411.33953661 86.68048882 416.91495776 C86.68042778 418.022381 86.68036674 419.12980423 86.68030384 420.27078575 C86.67903176 444.8166452 86.68163366 469.36250379 86.68501489 493.90836299 C86.68578563 499.51360162 86.68653036 505.11884025 86.68727991 510.72407888 C86.6875816 512.97369388 86.68788348 515.22330889 86.68818555 517.47292389 C86.68833523 518.58801912 86.68848491 519.70311435 86.68863912 520.85200034 C86.68894265 523.10753168 86.68924734 525.36306302 86.68955317 527.61859435 C86.69822587 591.61545997 86.70287028 655.61232481 86.69860554 719.60919094 C86.69852748 720.79414324 86.69844942 721.97909555 86.698369 723.19995549 C86.6974962 736.41337977 86.69656694 749.62680404 86.69561837 762.84022831 C86.6954901 764.62968956 86.6954901 764.62968956 86.69535925 766.45530154 C86.69464846 776.36788603 86.69464846 776.36788603 86.69431702 780.92874552 C86.68878045 857.24620294 86.6963258 933.56364827 86.71508789 1009.88110352 C86.71981009 1029.11312832 86.72449059 1048.34515313 86.72892475 1067.577178 C86.72919807 1068.76136253 86.7294714 1069.94554706 86.729753 1071.16561598 C86.73812357 1107.65971976 86.74280389 1144.15382254 86.74363232 1180.64792728 C86.74365868 1181.79358492 86.74368505 1182.93924256 86.74371221 1184.11961709 C86.74425298 1209.26868994 86.74388058 1234.4177627 86.7426725 1259.56683551 C86.74224687 1268.56537043 86.74188175 1277.56390534 86.74154306 1286.56244026 C86.74145776 1288.80104477 86.74136882 1291.03964928 86.74127624 1293.27825378 C86.73982732 1328.95228756 86.74695464 1364.62631312 86.7582802 1400.30034492 C86.76992679 1437.22457459 86.77049766 1474.14878958 86.75843678 1511.07301932 C86.75718494 1515.03818149 86.75598146 1519.00334367 86.75481606 1522.96850586 C86.75452576 1523.94162421 86.75423547 1524.91474256 86.75393638 1525.91734934 C86.74961124 1541.32487266 86.75534136 1556.73237512 86.76525625 1572.13989516 C86.77479416 1587.29058859 86.77361743 1602.44124983 86.76105002 1617.59194139 C86.75400184 1626.47336122 86.75512381 1635.3546885 86.76839841 1644.23610173 C86.77639832 1650.13890659 86.77346519 1656.04164158 86.76174877 1661.94444005 C86.75541501 1665.28778708 86.75529251 1668.63080339 86.76531598 1671.9741631 C86.81248294 1688.86010193 86.34202687 1705.0906867 80.75390625 1721.22265625 C80.50302246 1721.95742187 80.25213867 1722.6921875 79.99365234 1723.44921875 C75.61330593 1735.64619527 68.88533038 1746.42091702 60.37890625 1756.16015625 C59.82847656 1756.84207031 59.27804687 1757.52398438 58.7109375 1758.2265625 C46.23507057 1773.36947936 27.53852649 1784.35648894 8.87890625 1789.97265625 C8.24001465 1790.16746582 7.60112305 1790.36227539 6.94287109 1790.56298828 C-7.46894629 1794.61687 -22.05411832 1794.47174054 -36.88671875 1794.4609375 C-39.13287432 1794.46483455 -41.37902918 1794.46917126 -43.62518311 1794.47392273 C-48.31508786 1794.48134732 -53.00491728 1794.48112141 -57.69482422 1794.47583008 C-63.65650454 1794.47004509 -69.61787321 1794.48696176 -75.57950211 1794.51017475 C-80.21425123 1794.52502437 -84.84892727 1794.52576856 -89.48369598 1794.52266502 C-91.6793657 1794.52317276 -93.87504012 1794.52830549 -96.07068634 1794.53847694 C-130.80863654 1794.67966822 -160.32826072 1786.24627452 -185.74609375 1761.53515625 C-200.32931893 1746.83869802 -210.81843412 1727.57518618 -214.62109375 1707.16015625 C-214.78810724 1706.28692872 -214.95512073 1705.41370119 -215.12719524 1704.51401222 C-217.04207959 1693.04471061 -216.89389605 1681.66145081 -216.86160278 1670.06497192 C-216.86247591 1667.72650127 -216.86422886 1665.38803081 -216.86678112 1663.04956138 C-216.87123757 1656.65067938 -216.86327438 1650.25186476 -216.85322499 1643.85299134 C-216.84446937 1637.6530079 -216.84714786 1631.45302366 -216.84858868 1625.25303592 C-216.85121006 1612.57849326 -216.84455813 1599.90397154 -216.83255386 1587.22943497 C-216.82070497 1574.68669659 -216.81301898 1562.14396693 -216.81084824 1549.60122299 C-216.81071076 1548.82028576 -216.81057328 1548.03934853 -216.81043163 1547.23474654 C-216.80975493 1543.26848664 -216.80915218 1539.30222673 -216.80857788 1535.33596681 C-216.80438115 1507.26970762 -216.79091786 1479.20345981 -216.77197266 1451.13720703 C-216.75359313 1423.87744202 -216.73943113 1396.61768013 -216.73095703 1369.35791016 C-216.73069398 1368.51710399 -216.73043093 1367.67629782 -216.7301599 1366.81001268 C-216.72752278 1358.36600982 -216.72497116 1349.92200694 -216.72248218 1341.47800404 C-216.71741026 1324.27780615 -216.71176775 1307.07760848 -216.70578003 1289.87741089 C-216.70536816 1288.69125035 -216.70536816 1288.69125035 -216.70494797 1287.48112697 C-216.68655801 1234.70746528 -216.65482725 1181.93381009 -216.62109375 1129.16015625 C-217.31039506 1129.16292163 -217.99969637 1129.16568701 -218.7098856 1129.16853619 C-235.49452122 1129.23483548 -252.27911527 1129.284456 -269.06385136 1129.31559277 C-277.18088043 1129.33105111 -285.29782201 1129.35212084 -293.41479492 1129.38647461 C-300.49087233 1129.41640864 -307.56688637 1129.43573876 -314.64302534 1129.44242173 C-318.38860798 1129.44632723 -322.13400932 1129.45548401 -325.87953377 1129.47734642 C-330.06438307 1129.50157423 -334.24891866 1129.50212367 -338.43383789 1129.50073242 C-340.28961205 1129.51691116 -340.28961205 1129.51691116 -342.18287659 1129.53341675 C-349.17929719 1129.50822919 -354.98379597 1129.39938067 -360.44140625 1124.5390625 C-379.46001652 1098.06105719 -377.12399237 1059.49391546 -376.94366455 1028.38696289 C-376.93022922 1025.24944789 -376.93551447 1022.11207445 -376.94050789 1018.97454357 C-376.97244043 992.7505293 -375.13088771 967.09763106 -371.62109375 941.09765625 C-371.47281128 939.98776337 -371.32452881 938.87787048 -371.17175293 937.73434448 C-359.74635364 852.48334583 -344.17395559 767.73806744 -317.62109375 644.16015625 C-317.46066841 643.43685371 -317.30024307 642.71355118 -317.13495636 641.96833038 C-298.52840852 558.13940156 -277.72563966 474.79581032 -222.62109375 282.16015625 C-222.39649475 281.46893677 -222.17189575 280.77771729 -221.94049072 280.06555176 C-195.6045292 199.06363491 -159.03383992 116.44857164 -99.62109375 54.16015625 C-99.06760254 53.5779834 -98.51411133 52.99581055 -97.94384766 52.39599609 C-90.25607237 44.3612718 -82.29546165 37.07105007 -73.35791016 30.44824219 C-71.63611116 29.17129371 -69.93154893 27.87349021 -68.2265625 26.57421875 C-48.31784478 11.6383984 -25.00732846 1.52801858 0 0 Z " fill="#FFFFFF" transform="translate(376.62109375,800.83984375)"/>
</svg>
