<?xml version="1.0" standalone="no"?>
<!DOCTYPE svg PUBLIC "-//W3C//DTD SVG 20010904//EN"
 "http://www.w3.org/TR/2001/REC-SVG-20010904/DTD/svg10.dtd">
<svg version="1.0" xmlns="http://www.w3.org/2000/svg"
 width="512.000000pt" height="512.000000pt" viewBox="0 0 512.000000 512.000000"
 preserveAspectRatio="xMidYMid meet">

<g transform="translate(0.000000,512.000000) scale(0.100000,-0.100000)"
fill="#000000" stroke="none">
<path d="M1465 4935 c-14 -13 -25 -36 -25 -50 0 -15 80 -175 185 -369 102
-189 185 -346 185 -350 0 -3 -54 -6 -120 -6 -115 0 -122 -1 -145 -25 -14 -13
-25 -35 -25 -48 0 -13 117 -307 259 -653 l259 -629 -280 -5 c-279 -5 -280 -5
-299 -29 -26 -32 -24 -77 6 -106 l24 -25 1071 0 1071 0 24 25 c30 29 32 74 6
106 -19 24 -20 24 -299 29 l-281 5 48 115 47 115 315 5 315 5 65 32 c79 39
140 102 177 181 23 48 27 71 27 142 0 72 -4 94 -28 145 -30 65 -81 124 -138
160 -66 42 -131 55 -286 55 -143 0 -144 0 -138 22 4 11 32 79 61 151 30 71 54
140 54 154 0 13 -11 35 -25 48 -23 24 -30 25 -145 25 -66 0 -120 3 -120 6 0 4
83 161 185 350 105 194 185 354 185 369 0 14 -11 37 -25 50 l-24 25 -1071 0
-1071 0 -24 -25z m1995 -142 c-1 -5 -76 -147 -168 -318 l-167 -310 -565 0
-565 0 -167 310 c-92 171 -167 313 -168 318 0 4 405 7 900 7 495 0 900 -3 900
-7z m-73 -825 c-7 -18 -119 -288 -247 -600 l-234 -568 -346 0 -346 0 -234 568
c-128 312 -239 582 -247 600 l-13 32 840 0 840 0 -13 -32z m440 -400 c138 -91
111 -309 -43 -356 -44 -13 -534 -18 -534 -5 0 7 148 371 157 386 3 5 89 7 192
5 184 -3 188 -3 228 -30z"/>
<path d="M2007 2458 c-14 -14 -35 -63 -52 -120 l-28 -98 -339 0 -339 0 -24
-25 c-24 -24 -31 -57 -19 -90 4 -9 130 -97 280 -197 151 -99 274 -183 274
-187 0 -4 -79 -252 -176 -551 -97 -298 -181 -569 -186 -600 -30 -158 74 -339
230 -402 l57 -23 845 -3 c884 -3 910 -2 993 40 53 27 121 91 152 143 37 63 59
158 51 223 -5 40 -127 445 -162 537 -5 12 4 15 47 15 263 1 495 196 540 454
18 105 8 270 -20 326 -31 61 -86 116 -146 148 l-50 27 -345 5 -344 5 -58 180
c-39 122 -65 186 -79 198 -20 16 -61 17 -551 17 l-529 0 -22 -22z m1250 -923
c321 -991 317 -976 309 -1030 -10 -65 -58 -129 -118 -159 l-52 -26 -836 0
-836 0 -52 26 c-84 42 -135 141 -117 226 6 26 540 1684 560 1736 3 10 98 12
446 10 l442 -3 254 -780z m-1390 533 c-2 -7 -15 -46 -28 -86 -13 -40 -28 -71
-34 -69 -5 3 -66 41 -134 86 l-125 81 163 0 c126 0 162 -3 158 -12z m2049
-164 c19 -9 44 -31 57 -48 20 -28 22 -43 22 -156 0 -119 -1 -128 -31 -191 -44
-92 -93 -142 -181 -186 -71 -35 -80 -37 -176 -37 l-101 -1 -103 315 c-56 173
-103 316 -103 318 0 1 131 2 291 2 248 0 296 -2 325 -16z"/>
<path d="M2505 2135 c-22 -21 -25 -33 -25 -95 0 -62 3 -74 25 -95 15 -16 36
-25 55 -25 19 0 40 9 55 25 22 21 25 33 25 95 0 62 -3 74 -25 95 -15 16 -36
25 -55 25 -19 0 -40 -9 -55 -25z"/>
<path d="M2505 1735 c-22 -21 -25 -33 -25 -95 0 -62 3 -74 25 -95 15 -16 36
-25 55 -25 19 0 40 9 55 25 22 21 25 33 25 95 0 62 -3 74 -25 95 -15 16 -36
25 -55 25 -19 0 -40 -9 -55 -25z"/>
<path d="M2505 1335 c-22 -21 -25 -33 -25 -95 0 -62 3 -74 25 -95 15 -16 36
-25 55 -25 19 0 40 9 55 25 22 21 25 33 25 95 0 62 -3 74 -25 95 -15 16 -36
25 -55 25 -19 0 -40 -9 -55 -25z"/>
<path d="M2505 935 c-22 -21 -25 -33 -25 -95 0 -62 3 -74 25 -95 15 -16 36
-25 55 -25 19 0 40 9 55 25 22 21 25 33 25 95 0 62 -3 74 -25 95 -15 16 -36
25 -55 25 -19 0 -40 -9 -55 -25z"/>
</g>
</svg>
