<?xml version="1.0" encoding="UTF-8"?>
<svg version="1.1" xmlns="http://www.w3.org/2000/svg" width="3333" height="3333">
<path d="M0 0 C0.96268799 0.00829834 1.92537598 0.01659668 2.91723633 0.02514648 C17.65999396 0.37353728 29.16773428 5.58292115 39.9375 15.625 C49.89560251 26.18878316 55.13097319 39.36939807 55.6875 53.875 C55.12147699 68.7376688 50.27155454 82.19169263 40.0625 93.1875 C31.08216241 101.48241464 19.55411227 106.97736387 8.8125 112.625 C6.32872871 113.94026415 3.84739573 115.26006167 1.3671875 116.58203125 C0.75258667 116.90957397 0.13798584 117.2371167 -0.49523926 117.57458496 C-6.07358655 120.55781558 -11.57376975 123.66837879 -17.0625 126.8125 C-26.89881071 132.43787542 -36.88256333 137.75496875 -46.90368652 143.04046631 C-55.44733335 147.54954373 -63.92967865 152.13345187 -72.3125 156.9375 C-82.06386351 162.52583568 -91.96511132 167.79862055 -101.90478516 173.04101562 C-110.4480622 177.54991178 -118.93003625 182.13365681 -127.3125 186.9375 C-137.06386351 192.52583568 -146.96511132 197.79862055 -156.90478516 203.04101562 C-165.4480622 207.54991178 -173.93003625 212.13365681 -182.3125 216.9375 C-192.06386351 222.52583568 -201.96511132 227.79862055 -211.90478516 233.04101562 C-220.4480622 237.54991178 -228.93003625 242.13365681 -237.3125 246.9375 C-247.06386351 252.52583568 -256.96511132 257.79862055 -266.90478516 263.04101562 C-275.4480622 267.54991178 -283.93003625 272.13365681 -292.3125 276.9375 C-302.06386351 282.52583568 -311.96511132 287.79862055 -321.90478516 293.04101562 C-330.4480622 297.54991178 -338.93003625 302.13365681 -347.3125 306.9375 C-357.06386351 312.52583568 -366.96511132 317.79862055 -376.90478516 323.04101562 C-385.4480622 327.54991178 -393.93003625 332.13365681 -402.3125 336.9375 C-411.37953527 342.13365914 -420.57037395 347.06280668 -429.8125 351.9375 C-440.10549096 357.3670595 -450.31774124 362.89796455 -460.41381836 368.6887207 C-466.53176856 372.18664574 -472.71863892 375.52624349 -478.95141602 378.81494141 C-489.48835835 384.3858528 -499.4576075 390.04268022 -508.8125 397.4375 C-509.70839844 398.11425781 -510.60429688 398.79101562 -511.52734375 399.48828125 C-548.66138405 428.44301752 -570.86209486 471.1119087 -576.8125 517.4375 C-577.84034685 526.84156979 -577.98140696 536.22225996 -578.01782227 545.67089844 C-578.02742354 547.26870972 -578.03743486 548.86651858 -578.04782104 550.46432495 C-578.0746328 554.76511444 -578.09576934 559.06591463 -578.11582303 563.36674023 C-578.13783067 567.87506705 -578.16514641 572.38336177 -578.19187927 576.8916626 C-578.24160786 585.41232705 -578.28661948 593.93300951 -578.32990164 602.45370889 C-578.37944455 612.16119975 -578.43429892 621.86865838 -578.48958123 631.57611799 C-578.60309642 651.52988191 -578.71000067 671.48367666 -578.8125 691.4375 C-578.24929037 691.43687608 -577.68608074 691.43625216 -577.10580415 691.43560933 C-515.76910412 691.36780298 -454.43239994 691.3049842 -393.09567261 691.26812744 C-391.72067683 691.2672991 -391.72067683 691.2672991 -390.31790336 691.26645402 C-370.39488128 691.25448155 -350.47185879 691.24340094 -330.5488357 691.23323868 C-320.77816251 691.22824947 -311.00748944 691.22306323 -301.23681641 691.21777344 C-300.26453263 691.2172504 -299.29224886 691.21672737 -298.29050194 691.21618848 C-266.79312284 691.19915229 -235.2957725 691.16911392 -203.79841081 691.13231112 C-171.42261991 691.09455076 -139.04684492 691.06995127 -106.67103237 691.06184004 C-102.09500781 691.06068747 -97.51898332 691.05938493 -92.94295883 691.05799103 C-92.04235833 691.05772134 -91.14175783 691.05745164 -90.21386641 691.05717378 C-75.73431733 691.05245247 -61.25481753 691.03391524 -46.77528852 691.01017186 C-32.20778922 690.98658051 -17.64033864 690.97763868 -3.07282092 690.98349449 C5.57509524 690.9865298 14.2228327 690.97848882 22.87071649 690.95430983 C28.65813838 690.93923865 34.44544412 690.93889531 40.23287422 690.95017275 C43.52374328 690.95617422 46.81421123 690.9538566 50.10505687 690.93796727 C85.43793632 690.77735273 113.59228501 700.16341488 139.1875 725 C163.49207723 749.31112303 170.58229061 780.57850655 170.6043396 813.96777344 C170.60138402 816.13438108 170.59630887 818.30097336 170.59047651 820.46757507 C170.58277025 824.23652758 170.58995542 828.00546046 170.59463501 831.77441406 C170.60006118 838.09834794 170.59298424 844.42217601 170.57861328 850.74609375 C170.56229283 858.01082467 170.56758358 865.27530281 170.5840925 872.54002762 C170.59779772 878.82765458 170.59958332 885.11520637 170.59177649 891.40284348 C170.58714915 895.13615803 170.58633612 898.86935461 170.59638596 902.60266113 C170.68493654 940.74800901 163.41028503 971.35655362 136.1875 999.4375 C126.86146267 1008.79866365 115.74350221 1015.87326138 103.41796875 1020.5625 C100.4935601 1023.02084703 100.69944439 1024.95357635 100.3764984 1028.6209032 C99.99281448 1034.33885068 99.7161365 1040.05999205 99.46287209 1045.78495365 C99.39614713 1047.24385152 99.32916322 1048.70273756 99.26194544 1050.1616128 C99.07768434 1054.17709711 98.89710125 1058.19273969 98.71710997 1062.20841734 C98.52001673 1066.59100671 98.31948542 1070.97343899 98.11939451 1075.35589233 C97.76772918 1083.06859452 97.41826549 1090.78139405 97.07022084 1098.49426044 C96.54915626 1110.0410676 96.02467816 1121.58771799 95.49952295 1133.13433974 C94.60462878 1152.81259061 93.71252518 1172.4909671 92.8219223 1192.16941261 C91.91908539 1212.1178941 91.01495792 1232.06631647 90.10924339 1252.01466751 C90.05208122 1253.27367796 89.99491905 1254.53268842 89.9360247 1255.8298507 C89.64455388 1262.24942067 89.35306085 1268.66898962 89.06155904 1275.08855818 C88.463855 1288.25166897 87.86633996 1301.41478835 87.26890266 1314.57791126 C87.23883639 1315.24034675 87.20877011 1315.90278224 87.17779274 1316.58529153 C85.72764789 1348.53595415 84.27958276 1380.48671098 82.83163982 1412.43747345 C80.71116873 1459.22836705 78.58926287 1506.01919525 76.46539116 1552.80993462 C76.39979121 1554.25516689 76.33419126 1555.70039916 76.26859132 1557.14563144 C75.57607161 1572.40248614 74.88350978 1587.65933892 74.19092789 1602.9161908 C72.84926469 1632.47162868 71.50778264 1662.02707479 70.16636803 1691.58252395 C70.06462964 1693.82412943 69.96289088 1696.06573489 69.86115211 1698.30734035 C66.6636878 1768.75705305 63.46804018 1839.20684814 60.27278729 1909.65666118 C60.06073796 1914.33198299 59.84868755 1919.00730475 59.63663705 1923.6826265 C58.07632909 1958.08455357 56.51606293 1992.48648254 54.95581818 2026.88841248 C52.1894519 2087.8841875 49.42300528 2148.87995889 46.65639585 2209.87572289 C46.47991496 2213.76661885 46.30343483 2217.65751485 46.1269549 2221.54841086 C42.93509443 2291.92010945 39.74278176 2362.29178749 36.54888452 2432.66339368 C36.44716361 2434.90462588 36.34544306 2437.14585809 36.24372257 2439.38709031 C34.90251546 2468.93819916 33.56123638 2498.48930475 32.21980632 2528.04040349 C31.49431301 2544.02270177 30.76885184 2560.0050015 30.04342461 2575.98730278 C30.01096549 2576.70242453 29.97850637 2577.41754628 29.94506364 2578.15433839 C27.79024684 2625.62815605 25.63752242 2673.10206831 23.48598242 2720.57603458 C22.07254695 2751.76360935 20.65884483 2782.95117192 19.24342048 2814.1386565 C19.2133473 2814.80129344 19.18327411 2815.46393038 19.15228962 2816.14664723 C18.52528197 2829.9621312 17.89815868 2843.77760992 17.27088909 2857.593082 C16.97962702 2864.00808986 16.68838581 2870.42309866 16.39715767 2876.83810806 C16.34007018 2878.09558618 16.2829827 2879.3530643 16.22416529 2880.64864781 C15.32161586 2900.53044731 14.42091048 2920.41232991 13.52098568 2940.29424837 C12.63524116 2959.86207225 11.74754577 2979.42980682 10.85780172 2998.99744926 C10.33678454 3010.45719573 9.81725172 3021.9170071 9.29996502 3033.37692257 C8.95542867 3041.00640224 8.60887707 3048.63578871 8.26074888 3056.26510532 C8.06400343 3060.57803868 7.86805396 3064.89100344 7.67461465 3069.20408646 C6.97670118 3084.75152538 6.24821209 3100.29676804 5.31734853 3115.83227758 C5.19897568 3117.81447737 5.0847989 3119.7969264 4.97081329 3121.77938331 C1.58375253 3176.22107582 -21.14896092 3226.24801979 -58.8125 3265.4375 C-59.33070312 3265.98293457 -59.84890625 3266.52836914 -60.3828125 3267.09033203 C-96.83383574 3305.32574957 -150.58881862 3330.96735972 -203.51778696 3333.62343852 C-207.38269824 3333.69385803 -211.24495641 3333.7070952 -215.11023426 3333.69476891 C-216.59675094 3333.69746942 -218.08326624 3333.70104125 -219.56977901 3333.70539337 C-223.62741846 3333.71477305 -227.68496721 3333.71187641 -231.74261088 3333.70683783 C-236.16759824 3333.70355225 -240.59256698 3333.71186943 -245.01754826 3333.71865618 C-252.76429657 3333.72893591 -260.5110199 3333.7318035 -268.25777435 3333.72974396 C-279.77820735 3333.72668866 -291.29861279 3333.73502971 -302.81904042 3333.74549321 C-324.59548296 3333.76481959 -346.37191608 3333.77046095 -368.14836619 3333.77160732 C-384.96987075 3333.77252706 -401.79137162 3333.77664714 -418.61287498 3333.78300858 C-423.45822928 3333.78480372 -428.30358358 3333.78658335 -433.14893788 3333.78835833 C-434.35358037 3333.78880043 -435.55822287 3333.78924252 -436.79936968 3333.78969802 C-470.67774315 3333.80200408 -504.55611535 3333.80989939 -538.43449116 3333.80901146 C-539.71140222 3333.8089803 -540.98831329 3333.80894914 -542.30391863 3333.80891704 C-548.77554088 3333.80875083 -555.24716313 3333.80855275 -561.71878538 3333.80834763 C-563.00402491 3333.80830774 -564.28926443 3333.80826785 -565.6134506 3333.80822675 C-568.21251882 3333.80814587 -570.81158703 3333.80806228 -573.41065524 3333.80797596 C-613.83376177 3333.80675088 -654.25683472 3333.8217567 -694.67993164 3333.84912109 C-740.11786309 3333.87986775 -785.55577248 3333.897052 -830.99371499 3333.89519465 C-835.84252719 3333.89504539 -840.69133939 3333.89494798 -845.5401516 3333.89488602 C-846.73400941 3333.89486271 -847.92786722 3333.8948394 -849.15790254 3333.89481538 C-868.33906261 3333.89475393 -887.52019345 3333.9075054 -906.70134484 3333.92475055 C-925.99331008 3333.94173606 -945.28523274 3333.94365808 -964.57720134 3333.9305319 C-976.0251605 3333.92316194 -987.47298995 3333.92674207 -998.92093525 3333.94641658 C-1006.584478 3333.95846962 -1014.24792742 3333.95576674 -1021.911466 3333.94147559 C-1026.26701355 3333.93375721 -1030.62231125 3333.93203003 -1034.97784058 3333.94839029 C-1101.45688375 3334.1815493 -1160.0363735 3312.19855299 -1207.8125 3265.4375 C-1210.26929548 3262.86121058 -1212.55198501 3260.18608072 -1214.8125 3257.4375 C-1215.91078125 3256.17099609 -1215.91078125 3256.17099609 -1217.03125 3254.87890625 C-1248.96324544 3217.64175334 -1267.65690398 3171.04726411 -1270.82352483 3122.15465218 C-1270.90726435 3120.89777181 -1270.99100387 3119.64089144 -1271.07728094 3118.34592379 C-1271.96435766 3104.67715495 -1272.61209744 3090.99747419 -1273.22607165 3077.31418542 C-1273.39655707 3073.53215085 -1273.57107065 3069.75030144 -1273.74501467 3065.96842465 C-1274.0490823 3059.34581866 -1274.35068877 3052.72310432 -1274.65060718 3046.10030919 C-1275.09959774 3036.18599145 -1275.55255005 3026.27185729 -1276.00622266 3016.35775284 C-1276.779633 2999.45393608 -1277.54986132 2982.54997571 -1278.31831932 2965.64593315 C-1279.09637349 2948.53106057 -1279.87591023 2931.41625646 -1280.65723228 2914.30153275 C-1280.70669488 2913.21804156 -1280.75615747 2912.13455038 -1280.80711893 2911.01822614 C-1281.00859633 2906.60491923 -1281.21008434 2902.19161282 -1281.41158576 2897.77830701 C-1283.28557392 2856.73398916 -1285.15625832 2815.68952136 -1287.02482986 2774.64495659 C-1288.82489652 2735.10520939 -1290.62612793 2695.56551559 -1292.42899704 2656.02589607 C-1292.5422867 2653.5412463 -1292.65557621 2651.05659652 -1292.76886555 2648.57194674 C-1293.22413764 2638.58700405 -1293.67941694 2628.6020617 -1294.13470585 2618.61711979 C-1295.4072947 2590.70788369 -1296.6796527 2562.79863706 -1297.95183372 2534.88938236 C-1298.00975994 2533.61859178 -1298.06768615 2532.3478012 -1298.1273677 2531.03850181 C-1299.97249854 2490.55949198 -1301.81661772 2450.08043612 -1303.66002846 2409.60134792 C-1303.74968568 2407.63258652 -1303.74968568 2407.63258652 -1303.84115415 2405.62405216 C-1304.81176988 2384.31045768 -1305.78233035 2362.9968607 -1306.75288674 2341.68326352 C-1309.78012797 2275.20452536 -1312.8083927 2208.7258341 -1318.22391797 2089.97257539 C-1318.49828259 2083.95678156 -1318.7726457 2077.94098766 -1319.04700907 2071.92519378 C-1319.07715929 2071.2641088 -1319.10730952 2070.60302382 -1319.13837339 2069.92190597 C-1319.83654764 2054.61347508 -1320.53471057 2039.30504368 -1321.23285866 2023.9966116 C-1321.29273571 2022.68367958 -1321.35261277 2021.37074757 -1321.41430428 2020.01802974 C-1323.25916238 1979.56543022 -1325.10333846 1939.11279966 -1326.94675255 1898.66013432 C-1327.00460894 1897.3905091 -1327.06246532 1896.12088388 -1327.12207493 1894.81278518 C-1328.39199785 1866.94487007 -1329.66173888 1839.07694668 -1330.93131742 1811.20901588 C-1331.38554748 1801.23842772 -1331.8397847 1791.26783988 -1332.29402276 1781.29725208 C-1332.46343248 1777.57867018 -1332.63283984 1773.86008817 -1332.80224718 1770.14150617 C-1334.0416259 1742.93671425 -1335.28137874 1715.73193946 -1336.52210665 1688.52720904 C-1336.57803309 1687.30094134 -1336.63395954 1686.07467364 -1336.69158072 1684.81124631 C-1336.97316829 1678.63708806 -1337.25476275 1672.46293012 -1337.53636019 1666.28877231 C-1339.57019702 1621.69591971 -1341.60230432 1577.1029889 -1343.63127948 1532.50991481 C-1343.83103518 1528.11982592 -1344.03079925 1523.72973741 -1344.23056984 1519.3396492 C-1344.27959655 1518.26223683 -1344.32862326 1517.18482445 -1344.37913563 1516.07476322 C-1345.15629635 1498.99692423 -1345.93528432 1481.91916909 -1346.71502553 1464.84144774 C-1347.4811864 1448.06030218 -1348.24540256 1431.279069 -1349.00753192 1414.49773986 C-1349.45468605 1404.65312553 -1349.90333473 1394.80858204 -1350.35417542 1384.96413583 C-1350.65326056 1378.43012866 -1350.95037433 1371.8960338 -1351.24587093 1365.36186336 C-1351.41354283 1361.65544368 -1351.58206156 1357.94906805 -1351.75300518 1354.2427977 C-1351.93676582 1350.2582248 -1352.1162965 1346.27347233 -1352.29542696 1342.2886886 C-1352.34859021 1341.15072797 -1352.40175346 1340.01276733 -1352.45652771 1338.84032304 C-1352.77289123 1331.7011916 -1352.87227342 1324.58334256 -1352.8125 1317.4375 C-1353.86053802 1317.45594467 -1353.86053802 1317.45594467 -1354.92974854 1317.47476196 C-1432.1922469 1318.61693933 -1513.63161735 1291.43717586 -1581.8125 1257.4375 C-1582.85293457 1256.91929688 -1583.89336914 1256.40109375 -1584.96533203 1255.8671875 C-1624.190211 1236.20328769 -1660.84601614 1211.44305017 -1694.13427734 1182.87304688 C-1695.90214519 1181.36081776 -1697.67885317 1179.85946278 -1699.45703125 1178.359375 C-1705.20228473 1173.49777228 -1710.79941532 1168.62007683 -1716.04296875 1163.2109375 C-1717.79366113 1161.45638046 -1719.61089696 1159.85358643 -1721.5 1158.25 C-1729.5307421 1151.33023013 -1737.09248084 1143.6637943 -1743.94921875 1135.58203125 C-1745.95308616 1133.27569329 -1748.02503719 1131.0452611 -1750.11083984 1128.81323242 C-1755.07688964 1123.4957604 -1759.86326643 1118.10089123 -1764.41796875 1112.421875 C-1766.19490685 1110.20722458 -1767.98745802 1108.01257619 -1769.80078125 1105.828125 C-1792.85872564 1077.96031163 -1812.40530059 1047.30911151 -1829.65527344 1015.55957031 C-1830.75054071 1013.55111817 -1831.86211975 1011.5525424 -1832.9765625 1009.5546875 C-1868.34395923 945.37568372 -1887.47311239 871.9781723 -1894.8125 799.4375 C-1894.93109375 798.29619629 -1895.0496875 797.15489258 -1895.171875 795.97900391 C-1903.66338331 710.49529304 -1890.36102594 622.38866828 -1834.8125 485.4375 C-1834.2983252 484.40802246 -1833.78415039 483.37854492 -1833.25439453 482.31787109 C-1816.08935601 448.07158043 -1794.72833951 415.6689976 -1770.265625 386.19482422 C-1768.17634079 383.66816633 -1766.12278732 381.11282093 -1764.0625 378.5625 C-1760.47845119 374.18418396 -1756.74849748 369.96276113 -1752.9375 365.78125 C-1750.98755276 363.63057289 -1749.08223871 361.44925029 -1747.1875 359.25 C-1744.44205321 356.09336878 -1741.54598645 353.14895991 -1738.5625 350.21875 C-1736.73007513 348.35360326 -1735.01896865 346.41822254 -1733.3125 344.4375 C-1728.20189205 338.53013803 -1722.68609208 333.27041862 -1716.76953125 328.1796875 C-1714.9271332 326.53954871 -1713.21261364 324.83642439 -1711.5 323.0625 C-1707.79754124 319.2927238 -1703.72773457 316.04933942 -1699.61328125 312.7421875 C-1697.05060398 310.63342936 -1694.61676132 308.44708549 -1692.1875 306.1875 C-1685.12614844 299.77112228 -1677.44770867 294.14440049 -1669.8125 288.4375 C-1668.63228271 287.55191406 -1668.63228271 287.55191406 -1667.42822266 286.6484375 C-1657.10192131 278.91156141 -1646.6880643 271.38491405 -1635.8125 264.4375 C-1634.68134766 263.71361084 -1634.68134766 263.71361084 -1633.52734375 262.97509766 C-1593.02534306 237.19001576 -1550.3008432 216.69242346 -1504.8125 201.4375 C-1503.68263672 201.0564209 -1502.55277344 200.6753418 -1501.38867188 200.28271484 C-1425.40228524 174.93591987 -1343.94878912 167.40921978 -1082.8125 225.4375 C-1081.83684082 225.88206543 -1080.86118164 226.32663086 -1079.85595703 226.78466797 C-1065.0535054 233.5721215 -1050.85669012 241.20273409 -1036.8125 249.4375 C-1035.91837402 249.96021484 -1035.02424805 250.48292969 -1034.10302734 251.02148438 C-1023.09770255 257.47686164 -1012.30709668 264.18010976 -1001.8125 271.4375 C-1001.12559082 271.911875 -1000.43868164 272.38625 -999.73095703 272.875 C-968.98748524 294.17974743 -940.78366853 318.42611673 -914.3125 344.8125 C-913.38042725 345.7398999 -912.44835449 346.6672998 -911.48803711 347.62280273 C-906.38765586 352.73514483 -901.50872442 357.95386588 -896.8125 363.4375 C-895.35804483 365.04518373 -893.90029105 366.64989715 -892.4375 368.25 C-861.58839739 402.52101987 -836.26389212 441.74044444 -814.8125 482.4375 C-814.29574707 483.41364258 -813.77899414 484.38978516 -813.24658203 485.39550781 C-781.62687413 545.55956884 -753.8125 622.53172768 -753.8125 691.4375 C-732.0325 691.4375 -710.2525 691.4375 -687.8125 691.4375 C-687.82297363 686.60561035 -687.83344727 681.7737207 -687.84423828 676.79541016 C-687.87753639 660.74220988 -687.89963494 644.68900815 -687.91612434 628.63578224 C-687.92637962 618.9129318 -687.94032807 609.19011438 -687.96337891 599.46728516 C-687.98349088 590.97992502 -687.99625803 582.49258882 -688.00067699 574.00520551 C-688.00325467 569.52297773 -688.00918879 565.04081838 -688.02396011 560.55861282 C-688.30478548 471.72120972 -663.78262032 394.85130606 -600.3125 330.75 C-594.44861464 324.89273136 -588.37944331 319.50423644 -581.8125 314.4375 C-580.8328125 313.65246094 -579.853125 312.86742187 -578.84375 312.05859375 C-558.74293854 296.06056794 -535.9117711 284.09181491 -513.31030273 272.07080078 C-505.99755651 268.17622455 -498.75349882 264.17835827 -491.5625 260.0625 C-481.72596282 254.43749817 -471.74245267 249.12003968 -461.72131348 243.83453369 C-453.17766665 239.32545627 -444.69532135 234.74154813 -436.3125 229.9375 C-426.56113649 224.34916432 -416.65988868 219.07637945 -406.72021484 213.83398438 C-398.1769378 209.32508822 -389.69496375 204.74134319 -381.3125 199.9375 C-371.56113649 194.34916432 -361.65988868 189.07637945 -351.72021484 183.83398438 C-343.1769378 179.32508822 -334.69496375 174.74134319 -326.3125 169.9375 C-316.56113649 164.34916432 -306.65988868 159.07637945 -296.72021484 153.83398438 C-288.1769378 149.32508822 -279.69496375 144.74134319 -271.3125 139.9375 C-261.56113649 134.34916432 -251.65988868 129.07637945 -241.72021484 123.83398438 C-233.1769378 119.32508822 -224.69496375 114.74134319 -216.3125 109.9375 C-206.56113649 104.34916432 -196.65988868 99.07637945 -186.72021484 93.83398438 C-178.1769378 89.32508822 -169.69496375 84.74134319 -161.3125 79.9375 C-151.56113649 74.34916432 -141.65988868 69.07637945 -131.72021484 63.83398438 C-123.1769378 59.32508822 -114.69496375 54.74134319 -106.3125 49.9375 C-96.56545576 44.35163963 -86.66887286 39.08057174 -76.73330688 33.84103394 C-67.91371486 29.18701208 -59.160972 24.44552117 -50.5 19.5 C-43.53755473 15.53284712 -36.56250406 11.59941622 -29.5 7.8125 C-28.76547607 7.41039307 -28.03095215 7.00828613 -27.27416992 6.59399414 C-18.38091376 1.87970495 -10.05767389 -0.11254953 0 0 Z M-1604.8125 376.4375 C-1605.35052246 376.84935547 -1605.88854492 377.26121094 -1606.44287109 377.68554688 C-1628.65659246 394.71884143 -1650.88921662 413.80752098 -1668.96875 435.25390625 C-1670.50819092 437.07710006 -1672.07267482 438.86775273 -1673.65625 440.65234375 C-1681.84241229 449.91314219 -1689.44235761 459.51836906 -1696.8125 469.4375 C-1697.34875 470.15276855 -1697.885 470.86803711 -1698.4375 471.60498047 C-1747.35493036 536.99970633 -1777.28255421 616.36741425 -1785.8125 697.4375 C-1785.9669458 698.81929443 -1785.9669458 698.81929443 -1786.12451172 700.22900391 C-1789.4400971 730.8340045 -1789.37492861 762.86160117 -1785.8125 793.4375 C-1785.68359375 794.55979004 -1785.5546875 795.68208008 -1785.421875 796.83837891 C-1775.78082569 878.10662213 -1745.94554859 955.81837885 -1696.8125 1021.4375 C-1696.14009277 1022.33952148 -1696.14009277 1022.33952148 -1695.45410156 1023.25976562 C-1687.21012167 1034.28086213 -1678.35023261 1044.75931681 -1669.078125 1054.92578125 C-1667.82885154 1056.31075166 -1666.58629803 1057.70226655 -1665.37475586 1059.12036133 C-1660.60778218 1064.68289231 -1655.51334493 1069.88984987 -1650.32446289 1075.0559082 C-1648.87725615 1076.49775221 -1647.43547974 1077.94487116 -1645.99414062 1079.39257812 C-1640.77012975 1084.62067437 -1635.44124901 1089.64797135 -1629.8125 1094.4375 C-1628.7174241 1095.39823038 -1627.62362423 1096.36041762 -1626.53125 1097.32421875 C-1618.60685526 1104.24646807 -1610.41055048 1110.68583173 -1601.91748047 1116.89453125 C-1599.78154641 1118.46018925 -1597.65811629 1120.04180821 -1595.53515625 1121.625 C-1579.45447565 1133.52857764 -1562.41068779 1143.93704313 -1544.8125 1153.4375 C-1543.98089355 1153.88947754 -1543.14928711 1154.34145508 -1542.29248047 1154.80712891 C-1475.85811371 1190.75490279 -1400.60686433 1209.74148555 -1325.0625 1209.625 C-1324.26402649 1209.62406342 -1323.46555298 1209.62312683 -1322.6428833 1209.62216187 C-1285.84365425 1209.52966486 -1249.58010247 1205.09523567 -1213.8125 1196.4375 C-1212.73774414 1196.17743164 -1211.66298828 1195.91736328 -1210.55566406 1195.64941406 C-1176.88671144 1187.34650604 -1144.92823541 1174.62047933 -1113.8125 1159.4375 C-1115.35937052 1154.95173514 -1117.79078767 1151.24849393 -1120.45703125 1147.3671875 C-1121.16592751 1146.3227523 -1121.16592751 1146.3227523 -1121.8891449 1145.25721741 C-1122.91957234 1143.74027807 -1123.95217909 1142.22481734 -1124.98669434 1140.71066284 C-1126.65994622 1138.26134548 -1128.32728777 1135.80809866 -1129.99316406 1133.35375977 C-1132.37520817 1129.84505283 -1134.75930727 1126.33775677 -1137.14501953 1122.83154297 C-1143.13530667 1114.02472949 -1149.10252406 1105.20234706 -1155.0625 1096.375 C-1155.66526764 1095.48254578 -1156.26803528 1094.59009155 -1156.8890686 1093.67059326 C-1166.74089481 1079.07639738 -1176.45847541 1064.39730208 -1186.12390137 1049.6791687 C-1195.08879414 1036.03123788 -1204.15840153 1022.45918468 -1213.3125 1008.9375 C-1225.22716964 991.33758608 -1236.9700367 973.62962488 -1248.63717651 955.86477661 C-1250.81646377 952.54738851 -1252.99771167 949.2312967 -1255.18048096 945.91619873 C-1256.30166191 944.2133572 -1257.42219141 942.51008662 -1258.54217529 940.80645752 C-1260.2210725 938.25525283 -1261.9047635 935.70727998 -1263.58984375 933.16015625 C-1264.10213028 932.38022812 -1264.61441681 931.60029999 -1265.14222717 930.79673767 C-1266.33928548 928.99255137 -1267.57197589 927.21208071 -1268.8125 925.4375 C-1269.1425 925.4375 -1269.4725 925.4375 -1269.8125 925.4375 C-1269.81396656 926.0336571 -1269.81543312 926.62981421 -1269.81694412 927.24403667 C-1269.85412321 941.80275958 -1269.91328382 956.36128105 -1269.99640274 970.9198103 C-1270.03607912 977.96045969 -1270.06852909 985.00099917 -1270.08349609 992.04174805 C-1270.09797601 998.84354025 -1270.13321699 1005.64497904 -1270.18080902 1012.44661903 C-1270.19558259 1015.0343459 -1270.20353869 1017.62212146 -1270.20438385 1020.20989037 C-1270.21728036 1039.90710409 -1271.16963351 1056.48000451 -1285.0703125 1071.78515625 C-1295.45896922 1081.63807507 -1308.57465029 1086.85361342 -1322.8125 1087.4375 C-1339.64997198 1086.94095257 -1353.37495717 1081.49600494 -1365.125 1069.1875 C-1378.3993288 1053.27462633 -1378.26018805 1034.60799816 -1378.24487305 1015.00048828 C-1378.25390294 1012.65362028 -1378.26423314 1010.30675698 -1378.27575684 1007.9598999 C-1378.30320869 1001.62620755 -1378.31259528 995.29260498 -1378.31861091 988.95886087 C-1378.32706993 982.99899088 -1378.34920763 977.03918426 -1378.37122939 971.07935129 C-1378.41436878 959.28517743 -1378.44440861 947.4910088 -1378.46606445 935.69677734 C-1378.48711285 924.24883453 -1378.5144214 912.80093447 -1378.55004883 901.35302734 C-1378.55224765 900.64580053 -1378.55444648 899.93857371 -1378.55671193 899.20991577 C-1378.56778255 895.66149537 -1378.57897518 892.11307537 -1378.59022844 888.56465554 C-1378.68323135 859.18897768 -1378.75469273 829.81326817 -1378.8125 800.4375 C-1380.01403214 800.43511165 -1381.21556427 800.43272329 -1382.45350647 800.43026257 C-1411.03254619 800.37279236 -1439.61151995 800.29998393 -1468.19047052 800.20851372 C-1471.71487062 800.19724676 -1475.23927112 800.18610811 -1478.76367188 800.17504883 C-1479.46525999 800.17284514 -1480.16684811 800.17064146 -1480.88969648 800.168371 C-1492.22116338 800.13308431 -1503.55263022 800.10817162 -1514.88413155 800.08715298 C-1526.52790119 800.06532193 -1538.17159654 800.03198366 -1549.81530666 799.98879844 C-1556.34840999 799.9649273 -1562.8814354 799.9461585 -1569.4145813 799.93988609 C-1575.57382407 799.93380761 -1581.73286763 799.91370826 -1587.89203644 799.88322449 C-1590.14288191 799.87448842 -1592.39375346 799.8707124 -1594.64461517 799.87249184 C-1616.08126756 799.88407973 -1635.05599026 798.83021256 -1651.3359375 783.13671875 C-1661.49546763 772.06379238 -1666.26885482 758.25628917 -1666.01953125 743.296875 C-1664.97184473 728.82694047 -1659.49933407 716.24460942 -1649.4609375 705.7265625 C-1638.79040665 696.50395029 -1626.37576304 691.96487348 -1612.34677124 692.03877258 C-1610.8393747 692.02880234 -1610.8393747 692.02880234 -1609.30152571 692.01863068 C-1605.96051474 692.00009454 -1602.61986486 692.00259968 -1599.27880859 692.00512695 C-1596.87341815 691.99610409 -1594.46803231 691.98577558 -1592.06265259 691.97424316 C-1586.22594469 691.94956272 -1580.38932592 691.93843002 -1574.55257063 691.93336574 C-1567.75643596 691.92673093 -1560.96039042 691.90324696 -1554.1643004 691.87877061 C-1542.04623686 691.83557039 -1529.92817843 691.80556509 -1517.81005859 691.78393555 C-1506.043757 691.76290553 -1494.2774972 691.73561283 -1482.51123047 691.69995117 C-1481.78503078 691.69775235 -1481.0588311 691.69555352 -1480.31062536 691.69328807 C-1476.667218 691.68221791 -1473.02381103 691.67102519 -1469.38040423 691.65977156 C-1439.19113832 691.56668232 -1409.0018554 691.49526117 -1378.8125 691.4375 C-1378.80891747 689.60924462 -1378.80891747 689.60924462 -1378.80526257 687.74405479 C-1378.74781686 658.76626861 -1378.67502559 629.78854935 -1378.58351372 600.81085201 C-1378.57224649 597.23881054 -1378.56110789 593.66676868 -1378.55004883 590.09472656 C-1378.5467433 589.02809969 -1378.5467433 589.02809969 -1378.543371 587.93992479 C-1378.50806534 576.44867672 -1378.4831633 564.95742872 -1378.46215298 553.46614663 C-1378.44033714 541.66192632 -1378.40723222 529.85777596 -1378.36379844 518.05361521 C-1378.33974253 511.42892104 -1378.32115137 504.80428483 -1378.31488609 498.17954636 C-1378.30881697 491.93659159 -1378.28875087 485.69383411 -1378.25822449 479.45095253 C-1378.24947357 477.16701569 -1378.24571553 474.88305303 -1378.24749184 472.59910011 C-1378.25851856 451.86802051 -1376.85682402 433.74114244 -1361.71484375 417.984375 C-1348.42034377 406.31813814 -1333.44563094 403.29802917 -1316.16552734 404.23046875 C-1305.92627387 405.13137007 -1295.3852981 409.74806194 -1288.1328125 417.15234375 C-1286.88072448 418.67000071 -1286.88072448 418.67000071 -1284.8125 418.4375 C-1284.55082031 419.00855469 -1284.28914063 419.57960938 -1284.01953125 420.16796875 C-1282.72698213 422.59829574 -1281.19062568 424.5795515 -1279.5 426.75 C-1269.86417595 440.71604639 -1270.08685021 455.18924056 -1270.15307617 471.53881836 C-1270.14457162 473.98365626 -1270.13388599 476.42848738 -1270.12121296 478.87330723 C-1270.09342809 485.382323 -1270.0952411 491.89100582 -1270.10346222 498.40006256 C-1270.10663057 504.52236722 -1270.08273659 510.6444541 -1270.06115723 516.76672363 C-1270.01376961 534.63609788 -1270.00948211 552.50556543 -1270 570.375 C-1269.9071875 630.3009375 -1269.9071875 630.3009375 -1269.8125 691.4375 C-1135.8325 691.4375 -1001.8525 691.4375 -863.8125 691.4375 C-864.48789667 681.58340111 -864.48789667 681.58340111 -865.79296875 671.921875 C-865.98415283 670.82931396 -866.17533691 669.73675293 -866.37231445 668.61108398 C-866.57945068 667.48130127 -866.78658691 666.35151855 -867 665.1875 C-867.33100708 663.37004272 -867.33100708 663.37004272 -867.66870117 661.51586914 C-881.86313256 585.38390491 -914.59677408 514.46045758 -963.3125 454.3125 C-963.7854248 453.72855469 -964.25834961 453.14460937 -964.74560547 452.54296875 C-966.42039415 450.49569641 -968.11503029 448.46601768 -969.8125 446.4375 C-970.64193115 445.435979 -971.4713623 444.43445801 -972.32592773 443.40258789 C-979.71780396 434.56456753 -987.61584759 426.32355495 -995.78540039 418.20385742 C-997.88339508 416.11664808 -999.97039115 414.0188641 -1002.05664062 411.91992188 C-1009.3421183 404.62728559 -1016.71302797 397.82284363 -1024.8125 391.4375 C-1025.98895829 390.43172119 -1027.1580796 389.41723326 -1028.31640625 388.390625 C-1056.42413125 363.50010354 -1089.43785677 344.30738271 -1122.8125 327.4375 C-1123.91295654 326.8791748 -1123.91295654 326.8791748 -1125.03564453 326.30957031 C-1176.38314429 300.5061862 -1233.80249746 287.09099939 -1290.8125 282.4375 C-1291.6384668 282.36692383 -1292.46443359 282.29634766 -1293.31542969 282.22363281 C-1395.50044501 273.80105632 -1501.19267446 304.41431421 -1604.8125 376.4375 Z M-1220.8125 800.4375 C-1219.56780754 803.62700757 -1218.31536234 806.42411681 -1216.38354492 809.25415039 C-1215.89557938 809.97434357 -1215.40761383 810.69453674 -1214.90486145 811.43655396 C-1214.37293686 812.21159271 -1213.84101227 812.98663147 -1213.29296875 813.78515625 C-1212.73095261 814.61288544 -1212.16893646 815.44061462 -1211.58988953 816.29342651 C-1210.37033412 818.08916266 -1209.14878413 819.88354546 -1207.92547607 821.67672729 C-1204.62289722 826.519208 -1201.33647438 831.3726146 -1198.05078125 836.2265625 C-1197.37007568 837.23180466 -1196.68937012 838.23704681 -1195.98803711 839.27275085 C-1188.79499695 849.91252674 -1181.73535176 860.63873843 -1174.6875 871.375 C-1166.38803483 884.01016403 -1158.05827824 896.62074432 -1149.5625 909.125 C-1149.16109802 909.71634735 -1148.75969604 910.3076947 -1148.34613037 910.91696167 C-1144.8909391 916.42664884 -1144.8909391 916.42664884 -1140.8125 921.4375 C-1138.19845313 921.53759546 -1135.61076918 921.57153696 -1132.99616772 921.56399983 C-1131.7446541 921.56628965 -1131.7446541 921.56628965 -1130.46785738 921.56862573 C-1127.62995242 921.57256908 -1124.79209941 921.56929239 -1121.95419407 921.56613445 C-1119.90711993 921.56747916 -1117.86004605 921.56926194 -1115.81297264 921.57144669 C-1110.13383939 921.57621094 -1104.45472203 921.57466406 -1098.77558797 921.57216892 C-1092.61754669 921.57054532 -1086.45950896 921.5746687 -1080.30146879 921.57807809 C-1069.49088304 921.5832489 -1058.68030319 921.58468104 -1047.86971664 921.58362198 C-1036.26455883 921.58249938 -1024.65940423 921.58352514 -1013.0542469 921.58719444 C-1012.32249016 921.5874241 -1011.59073342 921.58765375 -1010.83680224 921.58789036 C-1007.85669227 921.58883195 -1004.8765823 921.58978763 -1001.89647234 921.59076155 C-970.77105784 921.60091871 -939.64564514 921.603968 -908.52022917 921.60455366 C-905.16750555 921.60461841 -901.81478193 921.60468635 -898.46205831 921.60475707 C-897.63012552 921.60477408 -896.79819273 921.60479108 -895.94104985 921.6048086 C-877.52489673 921.60521664 -859.10874395 921.60740522 -840.69259101 921.60991292 C-833.11512933 921.61094123 -825.53766765 921.61193125 -817.96020597 921.61292917 C-817.12302249 921.61303975 -816.285839 921.61315034 -815.42328632 921.61326428 C-767.43295065 921.6195905 -719.4426152 921.62371317 -671.45227909 921.62325573 C-669.65539439 921.62323995 -667.85850968 921.62322422 -666.06162497 921.62320852 C-657.94839176 921.62313513 -649.83515855 921.62304696 -641.72192534 921.62295464 C-638.10384414 921.62291351 -634.48576294 921.62287337 -630.86768174 921.62283332 C-629.05676466 921.62281293 -627.24584757 921.62279191 -625.43493049 921.62277026 C-568.15787094 921.62208985 -510.88081758 921.62940933 -453.60375977 921.64331055 C-439.17139468 921.64681137 -424.7390296 921.65028075 -410.30666447 921.65357494 C-408.97379891 921.65387925 -408.97379891 921.65387925 -407.61400678 921.65418971 C-380.24203006 921.66040142 -352.87005384 921.66416964 -325.49807644 921.66543293 C-324.63913025 921.66547288 -323.78018405 921.66551283 -322.89520919 921.66555399 C-304.04233823 921.66640713 -285.1894673 921.66666851 -266.33659632 921.66638362 C-259.59126187 921.66628713 -252.84592741 921.66623509 -246.10059296 921.66620489 C-244.42243021 921.66619697 -242.74426746 921.66618677 -241.06610472 921.66617426 C-214.28930449 921.6659977 -187.51250955 921.67170568 -160.73571084 921.68032808 C-133.77779519 921.6889647 -106.81988687 921.69118074 -79.86197043 921.68456676 C-76.14203168 921.68365438 -72.42209293 921.68281112 -68.70215416 921.68200874 C-67.97290045 921.68184866 -67.24364674 921.68168857 -66.49229444 921.68152363 C-54.91560685 921.67916478 -43.33893186 921.68354163 -31.76224664 921.69067993 C-20.39628332 921.69754878 -9.03034361 921.69718364 2.33562103 921.68948779 C8.42297089 921.68557338 14.51027568 921.68492392 20.59762251 921.69294515 C26.1235046 921.70016334 31.64930363 921.69836011 37.17518187 921.68902128 C39.17327899 921.68728439 41.17138242 921.68897817 43.16947315 921.69432249 C45.86169208 921.70104726 48.55361183 921.69568211 51.24581856 921.68704766 C52.42477063 921.69439709 52.42477063 921.69439709 53.62753991 921.70189499 C57.8679637 921.82321298 57.8679637 921.82321298 61.1875 919.4375 C61.48848418 917.26669505 61.48848418 917.26669505 61.43473816 914.72398376 C61.44102989 913.23272224 61.44102989 913.23272224 61.44744873 911.71133423 C61.44182922 910.61670868 61.43620972 909.52208313 61.43041992 908.39428711 C61.43231827 907.24468002 61.43421661 906.09507294 61.43617249 904.91062927 C61.43988946 901.09529895 61.42916351 897.28015727 61.41796875 893.46484375 C61.41677744 890.8245089 61.41632368 888.18417361 61.4165802 885.5438385 C61.41564315 880.00470615 61.40695306 874.46562853 61.39331055 868.92651367 C61.37757684 862.51447356 61.37231268 856.10249337 61.3730461 849.69043535 C61.37365558 843.53093981 61.36845028 837.37146705 61.36025429 831.21197701 C61.35706089 828.58639202 61.35509866 825.96080525 61.35436058 823.33521843 C61.35220457 819.67388732 61.34347664 816.01263309 61.33276367 812.35131836 C61.33344345 810.70634369 61.33344345 810.70634369 61.33413696 809.02813721 C61.32987198 808.03678268 61.32560699 807.04542816 61.32121277 806.02403259 C61.31953692 805.15737945 61.31786108 804.2907263 61.31613445 803.39781094 C61.40358826 801.43382527 61.40358826 801.43382527 60.1875 800.4375 C57.40008403 800.33805713 54.63741241 800.30499438 51.84949201 800.3133015 C50.95865253 800.31202342 50.06781304 800.31074533 49.14997842 800.30942852 C46.11950167 800.30632899 43.08907556 800.31045103 40.05860043 800.31445217 C37.87278152 800.3137135 35.68696272 800.31253596 33.50114426 800.31095567 C27.4367934 800.30786487 21.3724591 800.31107968 15.30810947 800.31523381 C9.40943239 800.31829798 3.5107579 800.31666614 -2.3879195 800.31515024 C-14.60848419 800.31217792 -26.82904413 800.31396489 -39.04960823 800.31829453 C-51.44169164 800.32266564 -63.83377258 800.32486792 -76.22585678 800.32439232 C-77.00721969 800.32436363 -77.7885826 800.32433493 -78.59362317 800.32430537 C-82.57747319 800.32414901 -86.56132321 800.32395706 -90.54517323 800.32375254 C-119.41485219 800.32234332 -148.28452895 800.32578181 -177.15420723 800.33176994 C-205.7536476 800.33768788 -234.35308702 800.34154412 -262.952528 800.34262276 C-264.28370482 800.34267437 -264.28370482 800.34267437 -265.64177411 800.34272704 C-273.7470062 800.34304022 -281.85223829 800.34332792 -289.95747039 800.34358501 C-310.10819498 800.34422449 -330.25891956 800.34518387 -350.40964413 800.34636021 C-351.32736953 800.34641352 -352.24509493 800.34646684 -353.19063019 800.34652177 C-397.857149 800.34914472 -442.52366718 800.35545286 -487.19018555 800.36206055 C-502.69482421 800.36435216 -518.19946288 800.3666275 -533.70410156 800.36883545 C-534.66567137 800.3689724 -535.62724117 800.36910935 -536.61794946 800.36925045 C-581.30011491 800.37559189 -625.98228047 800.37931927 -670.66444625 800.38237024 C-673.5644443 800.38256831 -676.46444234 800.3827675 -679.36444039 800.38296692 C-698.58251607 800.38428668 -717.80059175 800.38556133 -737.01866743 800.38680578 C-775.25945227 800.38928243 -813.50023709 800.39202412 -851.74102189 800.39494783 C-853.5622403 800.39508707 -855.38345871 800.39522612 -857.20467712 800.39536499 C-939.21530914 800.40161987 -1021.22594071 800.41095838 -1103.23657227 800.42163086 C-1104.00465743 800.42173079 -1104.77274259 800.42183073 -1105.56410306 800.42193369 C-1143.9802354 800.42693439 -1182.39636771 800.43211093 -1220.8125 800.4375 Z M-1067.8125 1030.4375 C-1063.51266128 1037.19438941 -1059.20646023 1043.93585217 -1054.8046875 1050.625 C-1054.24956482 1051.46944168 -1053.69444214 1052.31388336 -1053.12249756 1053.18391418 C-1051.31216841 1055.93599207 -1049.50006097 1058.68689158 -1047.6875 1061.4375 C-1046.74641388 1062.8664711 -1046.74641388 1062.8664711 -1045.78631592 1064.3243103 C-1036.70561445 1078.10615378 -1027.54085649 1091.82863259 -1018.2961731 1105.50097656 C-1013.62753071 1112.40601402 -1008.9665486 1119.31623024 -1004.30511475 1126.22613525 C-1002.92426617 1128.27191422 -1001.54163373 1130.31647601 -1000.15869141 1132.36083984 C-998.00788075 1135.54341438 -995.87671425 1138.73876363 -993.75 1141.9375 C-993.17910645 1142.77772705 -992.60821289 1143.6179541 -992.02001953 1144.48364258 C-983.15786376 1157.93269437 -981.00377464 1172.8683916 -983.2734375 1188.640625 C-988.48617246 1209.61421744 -1002.3714314 1220.14378678 -1019.86547852 1230.8046875 C-1023.30250884 1232.86978131 -1026.75800951 1234.90196799 -1030.22119141 1236.92285156 C-1032.70013107 1238.37181912 -1035.16867832 1239.83725844 -1037.63671875 1241.3046875 C-1101.28672046 1278.7875372 -1171.25870406 1300.45929504 -1243.8125 1312.4375 C-1243.97589885 1324.31268736 -1243.46048557 1336.12851715 -1242.91040039 1347.98754883 C-1242.81323792 1350.13260728 -1242.7163471 1352.27767804 -1242.6197052 1354.42276001 C-1242.35814622 1360.20967853 -1242.09259924 1365.99640753 -1241.82614064 1371.78310227 C-1241.54705778 1377.85528729 -1241.27114661 1383.92761659 -1240.99473572 1389.99992371 C-1240.53042244 1400.1887749 -1240.06346506 1410.37750237 -1239.5949707 1420.56616211 C-1239.05391972 1432.33356726 -1238.51727922 1444.10116742 -1237.98294073 1455.86887914 C-1237.46771654 1467.21300458 -1236.94917589 1478.5569762 -1236.42919731 1489.90088463 C-1236.20840748 1494.71918476 -1235.98881064 1499.53753706 -1235.77018929 1504.35593605 C-1235.51266962 1510.02865624 -1235.25225256 1515.70123627 -1234.98962212 1521.37372208 C-1234.89387934 1523.45171823 -1234.7991294 1525.5297604 -1234.70545959 1527.60785103 C-1234.57716281 1530.45047733 -1234.44522463 1533.29291269 -1234.31239319 1536.1353302 C-1234.27639655 1536.95168263 -1234.24039991 1537.76803506 -1234.20331246 1538.60912544 C-1233.94900478 1543.94146676 -1233.40461931 1549.10842623 -1232.8125 1554.4375 C-1052.9625 1554.4375 -873.1125 1554.4375 -687.8125 1554.4375 C-687.60238919 1438.89528901 -687.60238919 1438.89528901 -687.42456055 1323.35302734 C-687.37463379 1301.0090332 -687.37463379 1301.0090332 -687.3474884 1290.54971313 C-687.32954759 1283.24282015 -687.31969881 1275.93597139 -687.31538391 1268.62905884 C-687.31037629 1260.19657063 -687.29501329 1251.76417608 -687.26701616 1243.33173171 C-687.25302487 1239.02072676 -687.24357874 1234.70985256 -687.24746072 1230.3988235 C-687.2508888 1226.49283136 -687.24039734 1222.58712276 -687.21925735 1218.68118858 C-687.2140328 1217.27654705 -687.2137211 1215.87187577 -687.21910632 1214.46723485 C-687.28043709 1196.62094881 -683.86796869 1180.87928307 -671.23046875 1167.69140625 C-659.92367577 1157.1517947 -646.04621 1151.75343073 -630.53125 1152.1953125 C-615.60689805 1153.52478063 -601.95017065 1159.12933509 -591.8125 1170.4375 C-584.52053824 1180.09246328 -579.70368546 1190.45189538 -579.6738348 1202.64375782 C-579.66835943 1203.90116213 -579.66288406 1205.15856644 -579.65724277 1206.45407391 C-579.65616679 1207.84599488 -579.65518299 1209.23791593 -579.65428162 1210.62983704 C-579.64972336 1212.10725539 -579.64473169 1213.58467246 -579.63934326 1215.06208801 C-579.6257642 1219.13086281 -579.61836137 1223.19962932 -579.61192851 1227.26842083 C-579.60379425 1231.72010849 -579.58992393 1236.17177893 -579.57677555 1240.62345409 C-579.55210433 1249.2679419 -579.53251417 1257.91243381 -579.51469031 1266.55693815 C-579.49385829 1276.55436963 -579.46672159 1286.55177742 -579.4395752 1296.54919434 C-579.37101048 1322.94944948 -579.31103279 1349.34972637 -579.25 1375.75 C-579.105625 1434.716875 -578.96125 1493.68375 -578.8125 1554.4375 C-398.6325 1554.4375 -218.4525 1554.4375 -32.8125 1554.4375 C-27.12 1430.31625 -27.12 1430.31625 -21.3125 1303.6875 C-20.11173828 1277.55723633 -18.91097656 1251.42697266 -17.67382812 1224.50488281 C-16.60211516 1201.08727751 -16.60211516 1201.08727751 -15.53161621 1177.6696167 C-15.02330865 1166.550914 -14.51198358 1155.43235339 -13.99917946 1144.31385751 C-13.47562518 1132.96065168 -12.95559195 1121.60728932 -12.43867013 1110.25377922 C-12.1583299 1104.09865386 -11.87659166 1097.94360185 -11.5907526 1091.78872919 C-11.33180207 1086.21224577 -11.07713464 1080.6355831 -10.82574272 1075.05875397 C-10.73460287 1073.0531883 -10.64195134 1071.04769057 -10.54754734 1069.04227591 C-10.41798154 1066.28489757 -10.29422559 1063.52731035 -10.17169952 1060.76961136 C-10.11634723 1059.6354849 -10.11634723 1059.6354849 -10.05987671 1058.4784468 C-9.65786285 1049.12100783 -9.8125 1039.82880329 -9.8125 1030.4375 C-358.9525 1030.4375 -708.0925 1030.4375 -1067.8125 1030.4375 Z M-1227.8125 1663.4375 C-1227.8125 1671.76520765 -1227.7901084 1679.99201432 -1227.39801943 1688.29336733 C-1227.35313012 1689.29865659 -1227.3082408 1690.30394585 -1227.26199121 1691.33969842 C-1227.11197717 1694.68203986 -1226.95747042 1698.02415765 -1226.80295753 1701.36629391 C-1226.69244022 1703.80757866 -1226.58220142 1706.24887603 -1226.47221482 1708.69018474 C-1226.23230149 1714.00115565 -1225.99042193 1719.31203154 -1225.74679394 1724.62283295 C-1225.38207875 1732.57344179 -1225.0210509 1740.52421522 -1224.6607205 1748.47502385 C-1224.04638282 1762.02819127 -1223.42902631 1775.58121966 -1222.81001472 1789.13417435 C-1222.18286072 1802.86562186 -1221.55708799 1816.59713129 -1220.93299294 1830.32871819 C-1220.87382514 1831.6305176 -1220.87382514 1831.6305176 -1220.81346205 1832.958616 C-1220.65280676 1836.49342004 -1220.49216087 1840.0282245 -1220.331527 1843.56302951 C-1218.70132015 1879.43617674 -1217.06699113 1915.30913535 -1215.43102309 1951.18202026 C-1215.20500079 1956.13817156 -1214.97898374 1961.0943231 -1214.75297213 1966.05047488 C-1214.70807953 1967.03491034 -1214.66318694 1968.01934581 -1214.61693396 1969.03361264 C-1213.62184598 1990.85514972 -1212.62799339 2012.67674302 -1211.63438962 2034.49834772 C-1211.40747619 2039.48182891 -1211.1805545 2044.46530972 -1210.95363437 2049.4487906 C-1210.86256111 2051.44889204 -1210.77148791 2053.44899349 -1210.68041477 2055.44909494 C-1210.63527116 2056.44051534 -1210.59012755 2057.43193574 -1210.54361595 2058.45339919 C-1210.45230263 2060.4587802 -1210.36098968 2062.46416123 -1210.2696771 2064.46954227 C-1207.67867758 2121.37230889 -1205.08639707 2178.27501703 -1202.49128151 2235.17759609 C-1202.44322867 2236.23124747 -1202.39517582 2237.28489886 -1202.34566683 2238.37047907 C-1201.80983284 2250.1196569 -1201.2739808 2261.86883391 -1200.73812254 2273.61801063 C-1200.66555329 2275.20915839 -1200.66555329 2275.20915839 -1200.59151799 2276.83245054 C-1200.29804233 2283.26717457 -1200.29804233 2283.26717457 -1200.00456519 2289.70189853 C-1196.91054936 2357.54058802 -1193.82067996 2425.37946514 -1190.734375 2493.21850586 C-1189.95681996 2510.30964278 -1189.17925174 2527.40077911 -1188.40160561 2544.49191189 C-1188.3537215 2545.5443125 -1188.30583739 2546.59671311 -1188.25650225 2547.68100465 C-1186.78035925 2580.12342242 -1185.30304653 2612.56578676 -1183.82451439 2645.00809574 C-1183.77808577 2646.02684615 -1183.73165715 2647.04559656 -1183.68382161 2648.09521819 C-1182.66452486 2670.46066295 -1181.6449388 2692.82609451 -1180.62508817 2715.19151402 C-1180.26015605 2723.19455529 -1179.89524303 2731.19759742 -1179.53033834 2739.20063994 C-1179.43956066 2741.19155693 -1179.34878182 2743.18247386 -1179.25800184 2745.17339074 C-1177.81231604 2776.87924239 -1176.36934076 2808.58521666 -1174.92769705 2840.29125233 C-1173.43496104 2873.12042804 -1171.938708 2905.94944178 -1170.43846633 2938.77827536 C-1170.27723308 2942.30674035 -1170.11601511 2945.83520603 -1169.95480919 2949.36367226 C-1169.91524599 2950.22959964 -1169.87568279 2951.09552701 -1169.8349207 2951.98769462 C-1169.20961116 2965.67584229 -1168.58747656 2979.36413233 -1167.96667611 2993.05248518 C-1167.35555115 3006.52601138 -1166.74101303 3019.99937837 -1166.12289285 3033.4725855 C-1165.76105021 3041.36188625 -1165.40176472 3049.2512931 -1165.0463633 3057.1408867 C-1164.78148541 3063.01439987 -1164.51159829 3068.88767621 -1164.23984092 3074.76087532 C-1164.13189598 3077.11012925 -1164.02551348 3079.45945568 -1163.92095719 3081.80886287 C-1163.41424069 3093.17593208 -1162.80702849 3104.52583376 -1161.8782047 3115.86711651 C-1161.80711225 3116.78253629 -1161.7360198 3117.69795607 -1161.66277303 3118.64111585 C-1159.11688619 3147.82603699 -1144.25485666 3176.92485007 -1121.98632812 3196.00195312 C-1105.85401453 3209.11250406 -1088.47538243 3218.34616335 -1068.125 3222.75 C-1067.38999268 3222.90952148 -1066.65498535 3223.06904297 -1065.89770508 3223.23339844 C-1054.52322356 3225.49804633 -1042.94057561 3225.58463666 -1031.38441372 3225.56613445 C-1029.96833615 3225.56748418 -1028.55225894 3225.5692698 -1027.1361824 3225.57144669 C-1023.26485434 3225.57614355 -1019.39355 3225.57468586 -1015.52222083 3225.57216892 C-1011.30274668 3225.57052799 -1007.08327744 3225.57468318 -1002.86380488 3225.57807809 C-995.47496126 3225.58322088 -988.0861242 3225.58465124 -980.69727898 3225.58362198 C-969.70933422 3225.58209512 -958.72139669 3225.5862631 -947.73345334 3225.5914966 C-926.96510529 3225.60116225 -906.19675972 3225.60398055 -885.42840969 3225.60455366 C-869.38817625 3225.6050134 -853.34794377 3225.60707277 -837.30771065 3225.61025429 C-832.68866319 3225.61115185 -828.06961572 3225.61204166 -823.45056826 3225.61292917 C-822.30222102 3225.61315021 -821.15387378 3225.61337126 -819.97072813 3225.61359901 C-787.67418789 3225.61975234 -755.37764799 3225.62369966 -723.08110714 3225.62325573 C-721.86371 3225.62324015 -720.64631286 3225.62322457 -719.3920249 3225.62320852 C-713.22191175 3225.62312542 -707.05179859 3225.62302637 -700.88168543 3225.62292381 C-699.65630457 3225.62290387 -698.43092371 3225.62288392 -697.1684101 3225.62286337 C-694.69039161 3225.62282294 -692.21237313 3225.62278114 -689.73435464 3225.62273798 C-651.18463435 3225.62212529 -612.63492285 3225.62963095 -574.08520508 3225.64331055 C-530.76271694 3225.6586775 -487.44023459 3225.6672764 -444.11774355 3225.66634732 C-439.4964956 3225.6662727 -434.87524766 3225.66622399 -430.25399971 3225.66619301 C-429.11615353 3225.66618135 -427.97830735 3225.6661697 -426.80598098 3225.66615769 C-408.51059617 3225.66612694 -390.215219 3225.67250749 -371.91983646 3225.68112527 C-353.52614695 3225.68961004 -335.13246861 3225.69058524 -316.73877823 3225.68401595 C-305.81838784 3225.68032582 -294.89803142 3225.68213662 -283.97764465 3225.69195829 C-276.67335223 3225.69797133 -269.36908433 3225.69664813 -262.06479302 3225.68948779 C-257.9095286 3225.68561747 -253.75432978 3225.68479815 -249.59907006 3225.69294515 C-214.19877745 3225.75761442 -178.24277923 3224.63651694 -149.8125 3200.4375 C-148.97976563 3199.72980469 -148.14703125 3199.02210937 -147.2890625 3198.29296875 C-144.74502029 3196.05812552 -142.2741293 3193.76258885 -139.8125 3191.4375 C-138.98878906 3190.68984375 -138.16507813 3189.9421875 -137.31640625 3189.171875 C-123.40199167 3176.06063255 -114.00340101 3158.46044866 -108.4375 3140.3125 C-108.07930176 3139.1510144 -108.07930176 3139.1510144 -107.71386719 3137.96606445 C-104.34507827 3126.23990013 -103.50529384 3114.12021942 -102.98817444 3101.98590088 C-102.92285738 3100.57036302 -102.85694238 3099.15485265 -102.79049444 3097.73936743 C-102.60972464 3093.85182243 -102.43740201 3089.96394267 -102.26647253 3086.0759543 C-102.07675884 3081.79581456 -101.87902743 3077.51604349 -101.68236446 3073.23621845 C-101.33387624 3065.62832989 -100.99050475 3058.02022329 -100.65032959 3050.41195869 C-100.12807557 3038.73261596 -99.59757024 3027.05365693 -99.06565394 3015.37475077 C-98.13344189 2994.9019623 -97.20770235 2974.42888544 -96.28518677 2953.95565796 C-95.34328562 2933.05335218 -94.39847081 2912.15118116 -93.44992065 2891.24917603 C-93.41999092 2890.58964292 -93.39006118 2889.93010982 -93.35922447 2889.25059086 C-93.02069626 2881.79088549 -92.68207881 2874.33118417 -92.34342182 2866.87148464 C-91.69119736 2852.50468263 -91.03934209 2838.13786386 -90.38755798 2823.77104187 C-90.33725374 2822.66225231 -90.33725374 2822.66225231 -90.28593324 2821.53106295 C-89.21370994 2797.89732568 -88.14303427 2774.26351861 -87.0733082 2750.62966818 C-83.22898581 2665.69652522 -79.37493571 2580.76382873 -75.51171875 2495.83154297 C-75.45366829 2494.55531053 -75.39561782 2493.2790781 -75.33580826 2491.96417196 C-73.89309543 2460.24654422 -72.45009987 2428.52892934 -71.00700987 2396.81131876 C-69.62819129 2366.50631391 -68.24959361 2336.20129902 -66.87104633 2305.89628184 C-66.7788751 2303.87005503 -66.6867037 2301.84382823 -66.59453225 2299.81760144 C-65.85499649 2283.56021104 -65.11546796 2267.30282031 -64.37594671 2251.04542925 C-64.06705487 2244.25485334 -63.75816236 2237.46427746 -63.44926767 2230.67370167 C-60.37617516 2163.1164732 -57.30325736 2095.55923678 -48.43115437 1900.41611677 C-48.2046842 1895.43280217 -47.97821245 1890.44948765 -47.7517395 1885.46617317 C-47.6960658 1884.24112198 -47.6403921 1883.01607078 -47.58303132 1881.75389682 C-46.69264996 1862.1620915 -45.80179275 1842.57030785 -44.91074659 1822.97853275 C-44.02642697 1803.53443334 -43.1425971 1784.09031171 -42.259292 1764.64616618 C-41.73713017 1753.15215715 -41.21459334 1741.6581653 -40.69152396 1730.16419752 C-40.34380286 1722.52252135 -39.9965703 1714.88082307 -39.64974747 1707.23910608 C-39.45216099 1702.88589379 -39.25435436 1698.53269181 -39.05595511 1694.17951649 C-38.87603797 1690.23177418 -38.69673656 1686.28400442 -38.51794587 1682.33621094 C-38.45331823 1680.91165583 -38.38845844 1679.48711122 -38.32334855 1678.06257807 C-38.23552554 1676.14039335 -38.14861211 1674.21816714 -38.0617519 1672.29593867 C-38.01324058 1671.22871006 -37.96472926 1670.16148145 -37.9147479 1669.06191258 C-37.84174828 1667.18822012 -37.8125 1665.31261397 -37.8125 1663.4375 C-216.3425 1663.4375 -394.8725 1663.4375 -578.8125 1663.4375 C-578.81866333 1726.75314819 -578.81866333 1726.75314819 -578.82495117 1791.34790039 C-578.83168366 1845.92717789 -578.83168366 1845.92717789 -578.83584855 1870.72588511 C-578.83628791 1873.34467152 -578.83672708 1875.96345792 -578.83716273 1878.58224433 C-578.84734082 1939.74594833 -578.86435413 2000.9096483 -578.88679504 2062.073349 C-578.88752177 2064.05912956 -578.88824849 2066.04491012 -578.8889752 2068.03069067 C-578.90425137 2109.71269508 -578.92055515 2151.39469903 -578.93804602 2193.07670257 C-578.94683116 2214.01493579 -578.95541884 2234.9531691 -578.9638198 2255.89140248 C-578.96508821 2259.04985707 -578.96636225 2262.20831166 -578.96763652 2265.36676625 C-578.98720898 2314.00283166 -579.00254634 2362.63889387 -579.00561523 2411.27496338 C-579.0056813 2412.32069169 -579.00574737 2413.36641999 -579.00581543 2414.44383703 C-579.00685488 2431.30408611 -579.00753892 2448.1643352 -579.00817579 2465.02458429 C-579.01001556 2513.58699019 -579.01448318 2562.14938942 -579.03634357 2610.71179104 C-579.03679183 2611.71043139 -579.03724009 2612.70907174 -579.03770193 2613.73797392 C-579.04758948 2635.66051776 -579.05882865 2657.58306069 -579.07134761 2679.50560317 C-579.07636099 2688.32648864 -579.08117981 2697.1473742 -579.08593178 2705.96825981 C-579.08671894 2707.41637128 -579.08671894 2707.41637128 -579.08752201 2708.89373752 C-579.10433374 2739.99961261 -579.10530652 2771.10546345 -579.09797153 2802.21134148 C-579.09065523 2833.54543542 -579.09887292 2864.8794837 -579.12867836 2896.21356555 C-579.13279351 2900.54386679 -579.13673056 2904.87416818 -579.14056015 2909.20446968 C-579.1413173 2910.05333023 -579.14207445 2910.90219077 -579.14285454 2911.77677437 C-579.15438095 2925.21666868 -579.14911981 2938.65650193 -579.13684828 2952.09639338 C-579.12512581 2965.31300889 -579.13119371 2978.52951696 -579.15616048 2991.74611517 C-579.17026059 2999.4939241 -579.17073137 3007.24144236 -579.15093146 3014.98924048 C-579.13775309 3020.74387121 -579.15066529 3026.49820953 -579.17366072 3032.25279854 C-579.17887791 3034.56451731 -579.17574253 3036.87627405 -579.16318552 3039.1879646 C-579.07666449 3056.34889086 -580.29809403 3070.76110641 -591.8125 3084.4375 C-592.36164062 3085.13230469 -592.91078125 3085.82710937 -593.4765625 3086.54296875 C-601.19065759 3095.32752197 -614.28801501 3101.45658036 -625.90332031 3102.65283203 C-641.33725418 3103.52438705 -654.17479566 3100.72494044 -666.8125 3091.4375 C-667.885 3090.674375 -668.9575 3089.91125 -670.0625 3089.125 C-681.12471196 3078.31420195 -686.65029512 3063.7458211 -687.06447301 3048.40947087 C-687.075452 3046.65921338 -687.07589235 3044.90886674 -687.06730902 3043.15859586 C-687.07055962 3042.17928293 -687.07381022 3041.19997001 -687.07715932 3040.19098093 C-687.08559967 3036.9192039 -687.07988657 3033.64760945 -687.07421303 3030.37582874 C-687.07740179 3027.9924621 -687.08146501 3025.60909649 -687.08632231 3023.22573265 C-687.09489486 3018.03267108 -687.09728097 3012.83964451 -687.09422119 3007.64657835 C-687.0896806 2999.87252567 -687.09670085 2992.09851233 -687.10595289 2984.32446536 C-687.12138864 2971.07444847 -687.12740021 2957.82444229 -687.12828636 2944.57441711 C-687.12922291 2931.14804236 -687.13451186 2917.72167978 -687.14511681 2904.29530907 C-687.14578413 2903.44717569 -687.14645146 2902.5990423 -687.147139 2901.72520791 C-687.15056179 2897.40054584 -687.15405543 2893.07588383 -687.1575741 2888.75122184 C-687.18289552 2857.45152911 -687.1985797 2826.15183748 -687.20915604 2794.85213661 C-687.21965838 2763.85504097 -687.23428341 2732.85795175 -687.25443649 2701.86086082 C-687.25537247 2700.41692625 -687.25537247 2700.41692625 -687.25632735 2698.94382128 C-687.26202866 2690.15175237 -687.26778079 2681.35968349 -687.27359388 2672.56761465 C-687.28804401 2650.71144178 -687.30185682 2628.85526852 -687.31523705 2606.99909496 C-687.31584687 2606.00380915 -687.31645669 2605.00852334 -687.31708498 2603.98307735 C-687.34669412 2555.56725251 -687.36896041 2507.15142465 -687.390625 2458.7355957 C-687.39814725 2441.93406166 -687.40570197 2425.13252762 -687.41339111 2408.33099365 C-687.41386796 2407.28896193 -687.41434481 2406.24693021 -687.41483611 2405.17332176 C-687.43704781 2356.73251906 -687.4644755 2308.29171972 -687.49324883 2259.85092052 C-687.49511671 2256.7061343 -687.49698233 2253.56134809 -687.4988475 2250.41656187 C-687.51121166 2229.57591175 -687.52366572 2208.73526168 -687.53617998 2187.89461164 C-687.5610795 2146.4268366 -687.58545076 2104.95906125 -687.60945912 2063.49128568 C-687.61060246 2061.51647892 -687.61174618 2059.54167216 -687.61289027 2057.5668654 C-687.64812832 1996.73885811 -687.68098228 1935.91084989 -687.71133423 1875.08283997 C-687.71255989 1872.62923431 -687.71378556 1870.17562865 -687.71501143 1867.72202299 C-687.74895889 1799.62718269 -687.78040472 1731.53234118 -687.8125 1663.4375 C-866.0125 1663.4375 -1044.2125 1663.4375 -1227.8125 1663.4375 Z " fill="#FFFFFF" transform="translate(2529.8125,-0.4375)"/>
<path d="M0 0 C10.80842662 8.80918008 18.18442195 22.49652565 19.65234375 36.33984375 C20.84452518 53.0090948 16.53023393 67.21911541 5.81640625 80.01953125 C-3.59342212 90.10876962 -16.57753225 96.86262203 -30.4375 97.625 C-45.88574993 98.11013168 -59.69664614 94.34946 -71.66015625 84.08984375 C-82.38352729 73.77891006 -89.24399218 60.6112206 -89.64013672 45.56665039 C-89.79223177 29.12369181 -84.95028903 15.62665463 -73.66796875 3.5078125 C-52.68645853 -16.09612382 -22.92372122 -16.21061817 0 0 Z " fill="#FFFFFF" transform="translate(2277.34765625,2026.66015625)"/>
<path d="M0 0 C7.51117251 6.29450333 13.15243997 12.96874977 17 22 C17.41121094 22.96164062 17.82242188 23.92328125 18.24609375 24.9140625 C23.16383278 38.35701694 22.75940652 53.90228425 17 67 C9.8665039 81.78736882 -1.63361028 91.5384982 -17 96.9375 C-18.32667193 97.31585616 -19.65949964 97.6740083 -21 98 C-21.928125 98.226875 -22.85625 98.45375 -23.8125 98.6875 C-39.44682866 100.22027732 -54.2167025 97.47382361 -67 88 C-78.43451398 78.50688552 -84.84966599 66.94715498 -87.6875 52.5 C-87.790625 51.345 -87.89375 50.19 -88 49 C-88.06445312 48.31035156 -88.12890625 47.62070313 -88.1953125 46.91015625 C-88.93074254 32.17704105 -83.21043901 18.00456375 -73.9375 6.8125 C-66.69813696 -0.85414416 -57.29891098 -6.56607768 -47 -9 C-45.90171875 -9.27070312 -45.90171875 -9.27070312 -44.78125 -9.546875 C-28.95455769 -12.12538105 -13.24605694 -9.23965187 0 0 Z " fill="#FFFFFF" transform="translate(2218,1795)"/>
<path d="M0 0 C11.93066745 9.49361038 20.22528205 20.72334535 23 36 C23.28031339 38.94429406 23.33477622 41.85612725 23.3125 44.8125 C23.30686035 45.60221191 23.3012207 46.39192383 23.29541016 47.20556641 C22.99919369 61.52660618 17.39665133 74.37144743 7.48828125 84.74609375 C-4.04480448 95.19286057 -18.37898558 100.68606392 -33.921875 100.30859375 C-50.55909447 98.64064916 -64.19990666 92.00877794 -75 79 C-84.29985748 66.45143991 -87.6855874 51.22050863 -85.5625 35.828125 C-82.90188254 21.9263988 -75.60485337 9.63875928 -64.3671875 0.96875 C-45.22622469 -11.90095719 -19.3388313 -13.60624917 0 0 Z " fill="#FFFFFF" transform="translate(1525,1794)"/>
<path d="M0 0 C0.88171875 -0.01611328 1.7634375 -0.03222656 2.671875 -0.04882812 C16.49129951 -0.05895967 28.37490985 5.49795512 38.3046875 14.9296875 C49.84818289 26.7841188 55.01918369 39.77867682 54.92553711 56.22607422 C54.51189685 72.07795591 47.86028685 84.35809532 36.625 95.3125 C26.20572849 104.99562733 13.50072494 109.20805126 -0.62890625 109.34375 C-16.82831354 108.56399514 -30.22774546 102.45574095 -41.375 90.69140625 C-52.19316867 77.82370172 -55.47996237 62.72323744 -54.375 46.3125 C-52.1716017 31.63562659 -43.93854424 19.13113209 -32.4375 10 C-22.23844852 2.84241516 -12.34570081 -0.0447308 0 0 Z " fill="#FFFFFF" transform="translate(1666.375,1957.6875)"/>
</svg>
