<?xml version="1.0" encoding="iso-8859-1"?>
<!-- Uploaded to: SVG Repo, www.svgrepo.com, Generator: SVG Repo Mixer Tools -->
<svg fill="#000000" height="800px" width="800px" version="1.1" id="Layer_1" xmlns="http://www.w3.org/2000/svg" xmlns:xlink="http://www.w3.org/1999/xlink" 
	 viewBox="0 0 512.07 512.07" xml:space="preserve">
<g transform="translate(-1)">
	<g>
		<path d="M502.771,295.029c-14.166-27.01-32.719-52.593-54.661-75.365c-2.044-17.248-9.274-34.018-21.742-47.797
			c-20.47-22.609-48.245-37-78.283-40.963c-10.587-15.091-27.845-25.257-48.249-25.257H214.31
			c-20.402,0-37.661,10.166-48.251,25.256c-30.039,3.962-57.816,18.353-78.283,40.959c-12.469,13.779-19.699,30.549-21.744,47.797
			c-21.947,22.778-40.538,48.43-55.173,76.282c-13.567,22.956-13.192,52.685,1.509,76.158c18.504,29.664,58.125,41.733,90.06,29.722
			l81.364-32.545c12.349,3.96,25.242,5.651,38.173,4.986c18.34,21.196,52.161,21.297,70.405,0.017c13,0.658,25.926-1.04,38.18-4.923
			l80.75,32.304c32.706,11.959,72.011,0.036,90.494-29.594C516.471,348.628,516.847,318.898,502.771,295.029z M394.735,200.5
			c7.169,7.922,10.918,17.799,11.286,27.767c-0.01,0.331-0.028,0.657-0.024,0.994c0.111,7.851-1.827,15.48-5.618,22.201
			c-0.038,0.067-0.072,0.136-0.111,0.202c-0.227,0.397-0.47,0.786-0.71,1.177c-0.142,0.23-0.276,0.463-0.422,0.691
			c-0.103,0.16-0.214,0.316-0.319,0.475c-1.437,2.174-3.079,4.252-4.943,6.195l-37.501,39.118l-16.221,16.914
			c-5.109,4.348-10.977,7.889-17.427,10.549c-0.849,0.35-1.644,0.753-2.411,1.181c-3.25,1.152-6.624,2.053-10.079,2.689
			l46.09-145.007c0.93-2.927,1.629-5.86,2.121-8.783C372.282,181.463,384.807,189.534,394.735,200.5z M155.682,176.867
			c0.489,2.916,1.185,5.842,2.11,8.762l46.161,144.958c-3.912-0.748-7.745-1.859-11.454-3.304c-0.359-0.17-0.714-0.344-1.089-0.498
			c-5.586-2.304-10.734-5.271-15.333-8.849c-0.116-0.091-0.232-0.183-0.348-0.275c-0.485-0.383-0.962-0.774-1.434-1.171
			c-0.12-0.101-0.239-0.201-0.358-0.303l-47.023-49.032l-6.645-6.947c-2.343-2.442-4.339-5.094-6.008-7.889
			c-0.115-0.194-0.238-0.385-0.35-0.581c-0.138-0.239-0.263-0.483-0.396-0.724c-0.219-0.398-0.44-0.795-0.645-1.2
			c-0.044-0.086-0.083-0.174-0.127-0.26c-3.119-6.241-4.705-13.175-4.604-20.293c0.005-0.323-0.014-0.635-0.023-0.953
			c0.359-9.983,4.11-19.878,11.291-27.813C129.332,189.536,141.852,181.466,155.682,176.867z M86.992,362.048
			c-12.989,4.88-30.985-0.601-38.445-12.561c-6.258-9.992-6.417-22.63-0.429-32.785c8.311-15.786,17.819-30.52,28.498-44.23
			c0.04,0.071,0.084,0.141,0.124,0.212c0.228,0.4,0.464,0.796,0.698,1.193c0.439,0.745,0.891,1.483,1.353,2.216
			c0.159,0.251,0.312,0.505,0.474,0.755c0.653,1.011,1.333,2.007,2.031,2.993c0.121,0.171,0.244,0.34,0.367,0.51
			c1.543,2.147,3.191,4.232,4.943,6.249c0.01,0.011,0.02,0.023,0.029,0.034c0.915,1.052,1.848,2.09,2.819,3.103l43.074,44.915
			l6.361,6.635L86.992,362.048z M253.398,344.88c-0.147-0.452-0.306-0.903-0.485-1.352c-0.124-0.3-54.45-171.311-54.45-171.311
			c-0.686-2.165-0.993-4.36-0.958-6.525c0.393-9.517,7.622-17.377,16.806-17.377h85.525c9.229,0,16.481,7.932,16.797,17.522
			c0.019,2.12-0.286,4.269-0.959,6.392l-54.192,170.686c-0.304,0.758-0.56,1.519-0.779,2.281
			C258.943,348.386,255.157,348.312,253.398,344.88z M465.61,349.455c-7.46,11.96-25.332,17.381-39.069,12.363l-51.3-20.529
			l49.435-51.547c0.952-0.994,1.869-2.012,2.767-3.043c0.05-0.058,0.1-0.115,0.151-0.173c1.697-1.958,3.296-3.98,4.796-6.06
			c0.174-0.241,0.349-0.482,0.521-0.725c0.655-0.929,1.296-1.867,1.912-2.818c0.23-0.354,0.448-0.714,0.672-1.07
			c0.377-0.602,0.748-1.207,1.11-1.817c0.29-0.487,0.579-0.975,0.858-1.466c0.021-0.036,0.043-0.072,0.063-0.108l0.272,0.349
			c10.496,13.499,19.773,27.873,27.711,42.979C472.007,326.857,471.847,339.496,465.61,349.455z"/>
	</g>
</g>
</svg>