<?xml version="1.0" standalone="no"?>
<!DOCTYPE svg PUBLIC "-//W3C//DTD SVG 20010904//EN"
 "http://www.w3.org/TR/2001/REC-SVG-20010904/DTD/svg10.dtd">
<svg version="1.0" xmlns="http://www.w3.org/2000/svg"
 width="512.000000pt" height="512.000000pt" viewBox="0 0 512.000000 512.000000"
 preserveAspectRatio="xMidYMid meet">

<g transform="translate(0.000000,512.000000) scale(0.100000,-0.100000)"
fill="#000000" stroke="none">
<path d="M2195 5071 c-78 -34 -93 -124 -35 -205 32 -44 35 -54 34 -115 0 -58
-8 -87 -66 -231 -73 -181 -94 -271 -84 -364 7 -75 60 -187 111 -236 31 -30 43
-35 85 -35 43 0 54 5 82 33 28 27 33 40 33 80 0 38 -7 56 -35 96 -32 44 -35
54 -34 115 0 58 8 87 66 231 102 252 111 358 44 495 -44 89 -91 135 -142 141
-22 2 -48 0 -59 -5z"/>
<path d="M2855 4751 c-73 -32 -94 -125 -42 -192 15 -20 27 -46 27 -57 0 -12
-20 -67 -46 -123 -57 -128 -78 -208 -71 -275 7 -63 44 -138 92 -184 31 -30 43
-35 85 -35 43 0 54 5 82 33 45 44 47 109 6 163 -16 20 -28 46 -28 57 0 12 20
66 44 120 85 189 95 276 43 378 -49 95 -128 143 -192 115z"/>
<path d="M1720 3473 c-40 -15 -76 -73 -209 -342 l-145 -289 -68 -4 c-61 -3
-72 -7 -101 -36 l-32 -32 0 -370 0 -370 32 -31 c26 -27 41 -33 87 -37 31 -2
56 -7 56 -11 0 -3 69 -419 154 -924 l153 -919 32 -31 31 -32 850 0 850 0 31
32 32 31 153 919 c85 505 154 921 154 924 0 4 25 9 56 11 46 4 61 10 87 37
l32 31 0 370 0 370 -32 32 c-29 29 -40 33 -101 36 l-68 4 -145 289 c-81 164
-156 302 -172 317 l-28 27 -837 2 c-460 1 -844 -1 -852 -4z m1663 -428 c53
-107 97 -197 97 -200 0 -3 -414 -5 -920 -5 -506 0 -920 2 -920 5 0 3 44 93 97
200 l98 195 725 0 725 0 98 -195z m337 -645 l0 -200 -1160 0 -1160 0 0 200 0
200 1160 0 1160 0 0 -200z m-185 -462 c-5 -24 -275 -1644 -275 -1653 0 -3
-315 -5 -700 -5 -385 0 -700 2 -700 5 0 9 -270 1629 -275 1653 l-5 22 980 0
980 0 -5 -22z"/>
</g>
</svg>
