<?xml version="1.0" encoding="UTF-8"?>
<svg version="1.1" xmlns="http://www.w3.org/2000/svg" width="2133" height="2133">
<path d="M0 0 C6.04039701 0.0023301 12.08079158 -0.00126269 18.12118804 -0.00397992 C29.21228283 -0.00811273 40.30337246 -0.00783428 51.39446742 -0.00506845 C61.69807969 -0.00251329 72.00168997 -0.00191401 82.3053025 -0.0030911 C82.99925941 -0.00316748 83.69321632 -0.00324387 84.40820223 -0.00332257 C87.22874795 -0.00363415 90.04929366 -0.00395257 92.86983937 -0.00428233 C119.20253522 -0.00732352 145.53522762 -0.00460096 171.86792293 0.00081457 C194.91826854 0.00551941 217.9686086 0.00516631 241.01895416 0.00035357 C267.20526262 -0.00509626 293.39156803 -0.00706976 319.57787699 -0.00403416 C322.41477354 -0.00371373 325.2516701 -0.00340087 328.08856666 -0.0030911 C328.78653995 -0.00301202 329.48451323 -0.00293294 330.20363723 -0.00285147 C340.41316931 -0.00174834 350.62269862 -0.00303175 360.83223045 -0.00557065 C366.051449 -0.00664686 371.27066755 -0.00750997 376.48988616 -0.00822186 C377.77322816 -0.00841729 379.05657016 -0.00861271 380.37880131 -0.00881405 C394.34252721 -0.01016524 408.30612801 -0.0008905 422.2698077 0.03665233 C423.50859806 0.03993379 424.74738843 0.04321525 426.0237179 0.04659615 C431.05001067 0.06007899 436.07630247 0.07368719 441.10259084 0.08873434 C456.96353308 0.13496265 472.82262374 0.12535803 488.68335932 0.04659647 C501.57479173 -0.01732606 514.46586698 -0.04386048 527.35745858 -0.03725644 C535.35022033 -0.03475481 543.34146483 -0.06487681 551.33389155 -0.1386714 C557.40364444 -0.19135645 563.47196632 -0.18615199 569.54194801 -0.15993205 C572.02914432 -0.15838177 574.51643635 -0.17568478 577.00334652 -0.21344337 C598.79268953 -0.5267462 598.79268953 -0.5267462 605.85902584 6.30499339 C608.37420017 9.13500082 608.37420017 9.13500082 610.58121002 12.13072467 C611.22924112 12.99297271 611.22924112 12.99297271 611.89036376 13.87263991 C620.82104586 25.78395516 627.54103497 39.31399049 634.62741363 52.37419391 C635.54332458 54.06095407 636.46234725 55.74602344 637.38150299 57.43101764 C644.88257073 71.1979037 652.15387374 85.08119711 659.30386627 99.03306842 C659.73408773 99.87238469 660.16430919 100.71170096 660.60756767 101.57645106 C675.36237876 130.39066355 689.79428969 159.36945641 704.27052462 188.32424283 C707.53049789 194.84383501 710.7950104 201.36114705 714.06038779 207.87803382 C717.24409236 214.23240892 720.42474488 220.58830532 723.6029802 226.9454177 C725.48658543 230.71288243 727.37141435 234.47972225 729.25936592 238.24501109 C731.01552143 241.74770059 732.76789004 245.25225767 734.51726997 248.75833583 C735.15929686 250.0434397 735.80270124 251.3278564 736.44755447 252.61154437 C737.32373191 254.35624319 738.19454999 256.10363043 739.06505096 257.85116839 C739.55397984 258.82848139 740.04290872 259.80579438 740.54665363 260.81272292 C741.58121002 263.13072467 741.58121002 263.13072467 741.58121002 265.13072467 C742.48355377 265.10752154 743.38589752 265.08431842 744.31558502 265.06041217 C753.86955686 264.8985642 763.360463 265.31348013 772.89371002 265.94322467 C774.06063385 266.01331744 775.22755767 266.08341022 776.42984283 266.15562701 C795.36909208 267.49771525 808.84157625 274.3855641 821.73439872 288.47963405 C829.24197398 298.1402629 828.13229384 310.49130301 827.9489131 322.14971077 C827.90977518 325.90295752 827.97538095 329.6547245 828.02662933 333.40762591 C828.110014 340.73588594 828.0971643 348.06084659 828.04822681 355.3892979 C828.01012122 361.35151706 828.00725218 367.31281103 828.02883232 373.27510524 C828.03187923 374.12754267 828.03492615 374.9799801 828.0380654 375.85824897 C828.04439354 377.59062273 828.0507951 379.32299622 828.05726924 381.05536944 C828.11361259 397.25582122 828.05936885 413.45444736 827.96707853 429.65463985 C827.89076631 443.51739167 827.91174127 457.37723306 828.00332916 471.23985553 C828.10996666 487.38534455 828.15392737 503.52908074 828.10095745 519.6748932 C828.09547593 521.40077131 828.09008011 523.12664969 828.08477104 524.85252833 C828.08213479 525.70141921 828.07949854 526.55031008 828.07678241 527.42492492 C828.06260484 533.37084498 828.09253697 539.31557809 828.14025581 545.26129222 C828.19739486 552.52162274 828.18567136 559.7781009 828.08897374 567.03807133 C828.04142138 570.73481485 828.02266844 574.42507673 828.08836257 578.12169147 C828.30251873 591.22858759 828.37658572 602.53270585 819.10219008 612.68082458 C801.36806005 629.87067195 783.87078169 632.21782976 760.22159088 634.78941607 C757.64148599 635.1229331 755.12876233 635.60847853 752.58121002 636.13072467 C752.53349297 636.84170304 752.48577592 637.55268142 752.4366129 638.28520459 C751.8548818 646.11455914 750.77983931 653.77641242 749.47197235 661.51440692 C749.25670015 662.81187222 749.04142795 664.10933753 748.81963235 665.44611996 C748.22655298 669.0198373 747.62746697 672.5925245 747.02732921 676.16506231 C746.37776527 680.03842754 745.733878 683.91273695 745.08926666 687.78692889 C743.96738411 694.52478198 742.84191656 701.26202834 741.71400917 707.99887538 C740.05502622 717.90777513 738.40146922 727.81757473 736.74906247 737.72757297 C734.03023205 754.03228172 731.30694903 770.33624358 728.58096588 786.63975787 C725.99839061 802.08563076 723.41797495 817.53186159 720.8407315 832.97862506 C720.68517713 833.91094203 720.52962277 834.84325901 720.36935463 835.80382802 C719.74211015 839.56327455 719.11487597 843.32272281 718.48765729 847.08217365 C715.82536393 863.03924955 713.16135431 878.99603901 710.49724877 894.95281243 C709.86661116 898.7300625 709.23602944 902.5073219 708.60549414 906.28458905 C706.3950898 919.52598568 704.1836807 932.76721408 701.97061431 946.00816607 C701.81543102 946.93665761 701.66024772 947.86514914 701.5003619 948.82177678 C697.19259602 974.59364174 692.85962835 1000.36113357 688.50054181 1026.12436616 C686.14613648 1040.04036748 683.79638738 1053.95715602 681.44855225 1067.87426719 C681.04251961 1070.28086299 680.63633474 1072.68743307 680.23014152 1075.09400177 C673.04142936 1117.69412258 666.13412687 1160.32684208 659.57881635 1203.02902406 C658.05171999 1212.97191008 656.50558366 1222.9116908 654.94554412 1232.84945941 C654.83722814 1233.53973655 654.72891217 1234.23001368 654.61731388 1234.94120831 C653.53180944 1241.85808747 652.44413703 1248.77462171 651.35331846 1255.6906648 C650.81168979 1259.12609809 650.27116436 1262.56170405 649.7313565 1265.99742389 C649.62446879 1266.67771204 649.51758108 1267.3580002 649.40745435 1268.05890315 C647.62699276 1279.40627132 645.92286999 1290.76412752 644.23917974 1302.12620372 C642.45264735 1314.16919304 640.580888 1326.19681723 638.63258773 1338.21470189 C637.56443538 1344.818688 636.53548352 1351.42269128 635.60464942 1358.0478847 C634.74416765 1364.16810238 633.77851159 1370.2627673 632.73475158 1376.35431743 C632.37678663 1378.54957361 632.05494536 1380.75116038 631.776986 1382.9579742 C629.65216227 1399.56752506 621.86194377 1415.32001791 608.51008785 1425.74450564 C589.95077291 1438.71348579 560.13104431 1434.9220478 538.39480709 1434.68577387 C529.82541009 1434.59816283 521.25900825 1434.67035321 512.6897554 1434.74526959 C495.90525887 1434.88683606 479.12355085 1434.87537389 462.33879437 1434.79713895 C447.65017269 1434.72901663 432.96256911 1434.71158037 418.27382171 1434.74375033 C416.80810342 1434.74684393 416.80810342 1434.74684393 415.31277465 1434.75000002 C411.34547748 1434.75840719 407.37818079 1434.76700411 403.41088471 1434.77591365 C366.25064774 1434.85836958 329.09217919 1434.78384504 291.93221544 1434.63829743 C258.97133022 1434.51017791 226.01326206 1434.52164357 193.05240142 1434.6507442 C155.95711713 1434.79555545 118.8633933 1434.85252022 81.76786554 1434.76921308 C77.80811015 1434.76055469 73.84835436 1434.75210793 69.88859832 1434.74375033 C68.91372056 1434.74161525 67.9388428 1434.73948016 66.93442329 1434.73728037 C52.26070811 1434.7066644 37.58812666 1434.74230377 22.91456878 1434.81069827 C6.21668156 1434.88814383 -10.47799991 1434.86809538 -27.17549109 1434.72211818 C-35.68690786 1434.6501469 -44.19308537 1434.62016711 -52.70444787 1434.71264529 C-111.28685688 1435.30510319 -111.28685688 1435.30510319 -125.96559124 1421.43820325 C-139.40483111 1407.31351443 -143.12305529 1388.63505432 -145.70728672 1369.96940112 C-146.35819525 1365.45413968 -147.13974721 1360.96106078 -147.90386689 1356.46383929 C-149.21107612 1348.66642297 -150.43823111 1340.85988627 -151.61003983 1333.04102206 C-153.33275578 1321.54888699 -155.18336019 1310.07993554 -157.06122805 1298.61226122 C-160.14695535 1279.74812331 -163.1352904 1260.86992097 -166.06087983 1241.98033404 C-168.83281446 1224.08438509 -171.6431772 1206.19534867 -174.51595795 1188.31529498 C-174.68988489 1187.23273525 -174.86381183 1186.15017552 -175.04300929 1185.03481095 C-175.91967672 1179.58032635 -176.79734353 1174.12600317 -177.67561364 1168.67177641 C-179.42947963 1157.77951444 -181.1783592 1146.8864523 -182.9258548 1135.99316669 C-183.09854586 1134.91687285 -183.27123692 1133.84057901 -183.44916105 1132.73167021 C-186.064469 1116.42696919 -188.65441312 1100.11836411 -191.22923005 1083.80722308 C-200.24631285 1026.70183501 -209.54610752 969.65092311 -219.15707123 912.64244342 C-219.3047695 911.76625576 -219.45246776 910.8900681 -219.60464174 909.9873293 C-222.11503947 895.09624479 -224.62953424 880.20585166 -227.150325 865.31652284 C-231.31803949 840.69932722 -235.44516309 816.07551587 -239.54916108 791.4476192 C-239.68650104 790.62347234 -239.823841 789.79932548 -239.96534277 788.95020448 C-241.51478482 779.65167926 -243.06291209 770.35293549 -244.61027704 761.05406441 C-245.50223424 755.69401116 -246.39467996 750.33403942 -247.28740609 744.97411418 C-247.41484553 744.20895956 -247.54228497 743.44380494 -247.67358621 742.65546382 C-248.16300817 739.71698768 -248.65244038 736.77851324 -249.14190118 733.84004356 C-250.55814225 725.33751935 -251.97287688 716.83474677 -253.38574016 708.33166075 C-254.99815597 698.62995065 -256.61833342 688.92966784 -258.26021397 679.23289657 C-259.02616289 674.70876425 -259.78891272 670.18409494 -260.55156243 665.65940547 C-261.07051448 662.59008198 -261.59469544 659.52168253 -262.11906159 656.45328021 C-262.4278293 654.62225759 -262.73633311 652.79119044 -263.0445224 650.96007037 C-263.18552809 650.14520223 -263.32653378 649.33033408 -263.47181237 648.49077296 C-264.16792077 644.31772494 -264.56788593 640.38039616 -264.41878998 636.13072467 C-273.75710512 634.59313162 -283.06786603 633.12385958 -292.48128998 632.13072467 C-309.40713602 630.237384 -322.06942995 622.3560772 -333.57197869 609.78181529 C-341.07955394 600.12118644 -339.9698738 587.77014633 -339.78649306 576.11173856 C-339.74735514 572.35849182 -339.81296091 568.60672484 -339.86420929 564.85382342 C-339.94759396 557.5255634 -339.93474426 550.20060275 -339.88580678 542.87215144 C-339.84770119 536.90993228 -339.84483214 530.94863831 -339.86641228 524.9863441 C-339.8694592 524.13390667 -339.87250612 523.28146924 -339.87564537 522.40320037 C-339.8819735 520.67082661 -339.88837506 518.93845311 -339.8948492 517.20607989 C-339.95119255 501.00562812 -339.89694881 484.80700197 -339.80465849 468.60680949 C-339.72834628 454.74405767 -339.74932123 440.88421628 -339.84090912 427.02159381 C-339.94754662 410.87610478 -339.99150734 394.73236859 -339.93853742 378.58655614 C-339.9330559 376.86067803 -339.92766008 375.13479965 -339.922351 373.408921 C-339.91839663 372.13558469 -339.91839663 372.13558469 -339.91436237 370.83652442 C-339.90018481 364.89060436 -339.93011694 358.94587124 -339.97783577 353.00015712 C-340.03497483 345.73982659 -340.02325133 338.48334844 -339.9265537 331.22337801 C-339.87900135 327.52663449 -339.86024841 323.83637261 -339.92594254 320.13975787 C-340.141536 306.95669189 -340.20120168 295.71090728 -330.84211379 285.53179663 C-316.71292421 271.90663619 -304.22472686 267.11412291 -284.73128998 265.94322467 C-283.51409272 265.8628194 -282.29689545 265.78241412 -281.04281342 265.69957232 C-271.82485369 265.12635261 -262.65046247 264.8933388 -253.41878998 265.13072467 C-253.16177245 264.29192767 -252.90475491 263.45313067 -252.63994896 262.58891559 C-251.31621584 258.84024573 -249.66388834 255.34300581 -247.88024628 251.79966998 C-247.52356806 251.08319356 -247.16688984 250.36671714 -246.79940319 249.62852931 C-245.6074769 247.23672295 -244.4098744 244.84780583 -243.21224701 242.45884967 C-242.35425452 240.74015325 -241.49660226 239.02128695 -240.63926423 237.30226398 C-238.30975338 232.63412254 -235.97518515 227.96852749 -233.63949168 223.30347705 C-231.18566582 218.40090111 -228.73575602 213.49636863 -226.28521454 208.59215045 C-222.16041855 200.33891765 -218.03225018 192.08737819 -213.90218842 183.83677936 C-209.15445551 174.3521377 -204.41242738 164.86466092 -199.67344689 155.37564349 C-195.5887527 147.19711269 -191.50087571 139.02017843 -187.41044426 130.84451556 C-184.9749352 125.97658708 -182.5404553 121.10815206 -180.10885727 116.23826861 C-161.19351121 78.36253763 -161.19351121 78.36253763 -151.4856168 61.04696631 C-149.9666474 58.31858307 -148.50286561 55.56343617 -147.04378998 52.80259967 C-122.62345831 6.86561411 -122.62345831 6.86561411 -105.41878998 1.13072467 C-103.83816432 1.01641226 -102.25337753 0.95572142 -100.66887575 0.92745578 C-99.69321432 0.90792801 -98.71755289 0.88840024 -97.71232595 0.86828072 C-96.64582948 0.85197434 -95.57933301 0.83566796 -94.48051846 0.81886744 C-92.80220256 0.78815874 -92.80220256 0.78815874 -91.0899813 0.75682966 C-87.38438323 0.69113716 -83.67871651 0.63323347 -79.97297394 0.57631183 C-78.69380455 0.55534029 -77.41463515 0.53436876 -76.09670305 0.51276173 C-50.73095275 0.09869104 -25.3688415 -0.0145945 0 0 Z M-57.41878998 100.13072467 C-66.21489127 116.82559492 -66.21489127 116.82559492 -74.91878998 133.56822467 C-75.25807526 134.22594867 -75.59736054 134.88367267 -75.94692719 135.5613277 C-83.33633822 149.9054292 -90.57157585 164.32689931 -97.79378998 178.75572467 C-98.61230439 180.38887118 -98.61230439 180.38887118 -99.44735444 182.05501056 C-106.03843852 195.21249812 -112.51173387 208.41807466 -118.83382905 221.70689654 C-122.70885336 229.85113804 -126.65936107 237.95866361 -130.60628998 246.06822467 C-131.37523782 247.64957199 -132.14411804 249.2309522 -132.91293061 250.81236529 C-134.74744725 254.58552667 -136.58284538 258.35825791 -138.41878998 262.13072467 C-135.82843062 264.72108403 -134.75826763 264.399644 -131.15000635 264.44751894 C-130.03297283 264.46697118 -128.9159393 264.48642342 -127.76505627 264.50646512 C-126.53536381 264.51761022 -125.30567135 264.52875532 -124.03871548 264.54023814 C-122.75232563 264.55929566 -121.46593578 264.57835318 -120.14056442 264.5979882 C-116.60289189 264.64961604 -113.06518397 264.68824968 -109.52732022 264.72406576 C-106.53337 264.75573168 -103.53952326 264.79432709 -100.54565197 264.83264209 C-71.28621872 265.2040649 -42.02597422 265.27626905 -12.7644611 265.2623942 C-5.31633269 265.25906968 2.13179135 265.2618553 9.57991956 265.2645967 C24.15960203 265.2697761 38.73928004 265.26944139 53.3189629 265.26651779 C66.08081819 265.26397222 78.84267186 265.26335922 91.60452735 265.26454043 C92.46089296 265.26461682 93.31725856 265.2646932 94.19957464 265.2647719 C97.67843766 265.26508339 101.15730069 265.26540181 104.63616371 265.26573167 C137.07475905 265.26877045 169.5133516 265.26604971 201.95194651 265.26063477 C230.58186852 265.25589187 259.21178609 265.2563158 287.84170806 265.26109576 C320.23074845 265.26648565 352.61978638 265.26855426 385.00882715 265.2654835 C388.48057707 265.26516293 391.95232699 265.26485008 395.42407691 265.26454043 C396.70572512 265.26442182 396.70572512 265.26442182 398.01326521 265.26430081 C410.74603214 265.2631777 423.47879726 265.26446623 436.21156394 265.26701999 C450.73408373 265.26991873 465.25659846 265.26908253 479.77911764 265.26373924 C487.14972422 265.26111461 494.52032265 265.25989184 501.8909291 265.2633884 C531.39970688 265.27633382 560.9062563 265.17545759 590.41283787 264.80361925 C593.4337917 264.76561867 596.45474535 264.73182569 599.47578805 264.70173122 C603.64638042 264.65961781 607.81657176 264.60098732 611.98693454 264.54023814 C613.86367474 264.5235205 613.86367474 264.5235205 615.77832887 264.50646512 C616.9149657 264.48701288 618.05160253 264.46756065 619.22268289 264.44751894 C620.71089932 264.42811886 620.71089932 264.42811886 622.22918073 264.40832686 C624.77025175 264.35458319 624.77025175 264.35458319 626.58121002 262.13072467 C621.37145877 251.44517413 616.15955196 240.76067814 610.9455899 230.07718158 C608.13676858 224.32112825 605.33073588 218.56372806 602.52722442 212.80508685 C592.39202125 191.99013127 582.17503992 171.21788536 571.83121002 150.50572467 C571.33705596 149.51482837 570.84290191 148.52393207 570.33377349 147.5030086 C562.37373657 131.54979291 554.24068588 115.71778123 545.58121002 100.13072467 C346.59121002 100.13072467 147.60121002 100.13072467 -57.41878998 100.13072467 Z M-238.41878998 366.13072467 C-238.41878998 420.91072467 -238.41878998 475.69072467 -238.41878998 532.13072467 C80.03121002 532.13072467 398.48121002 532.13072467 726.58121002 532.13072467 C726.58121002 477.35072467 726.58121002 422.57072467 726.58121002 366.13072467 C408.13121002 366.13072467 89.68121002 366.13072467 -238.41878998 366.13072467 Z M-163.41878998 633.13072467 C-160.54874519 650.35099345 -157.67856928 667.57106897 -154.78474534 684.78733134 C-153.36338167 693.24498526 -151.94298791 701.70280188 -150.52276337 710.16064715 C-150.39418973 710.92631859 -150.2656161 711.69199003 -150.13314629 712.48086363 C-133.7769747 809.8847886 -117.52482652 907.3060179 -101.28806153 1004.72990815 C-98.22707796 1023.09622417 -95.16445602 1041.46226659 -92.10113834 1059.82819343 C-88.87617957 1079.16335539 -85.65250552 1098.49873121 -82.43005109 1117.83431071 C-80.65222958 1128.50156236 -78.8739714 1139.16874064 -77.09429276 1149.83568263 C-67.0714584 1209.91282431 -57.19667659 1270.01323119 -47.41878998 1330.13072467 C-34.32754907 1330.96909296 -34.32754907 1330.96909296 -21.21700776 1331.33406329 C-20.02846955 1331.34861098 -20.02846955 1331.34861098 -18.81592047 1331.36345255 C-16.20635705 1331.39409608 -13.59678094 1331.41864651 -10.98714936 1331.44273639 C-9.05258224 1331.46325569 -7.11801707 1331.48395967 -5.18345368 1331.50482821 C0.15332993 1331.5605339 5.49015521 1331.60929504 10.8270272 1331.65569043 C14.28874184 1331.68585909 17.7504433 1331.71731408 21.21214569 1331.7488544 C89.07854956 1332.35654906 156.94816876 1332.28264525 224.81665146 1332.26018652 C238.57557625 1332.25571984 252.33449242 1332.25654272 266.09341705 1332.26109576 C368.28132763 1332.31024024 368.28132763 1332.31024024 470.46704185 1331.71681237 C473.87275148 1331.68588626 477.27847027 1331.65618528 480.68419158 1331.62657809 C485.89066251 1331.58048456 491.09705378 1331.52908671 496.30342567 1331.47292447 C498.15156639 1331.45332187 499.99972003 1331.43488853 501.84788597 1331.41782784 C513.12137045 1331.31099353 524.33298554 1330.90064185 535.58121002 1330.13072467 C535.69509535 1329.43710519 535.80898069 1328.74348571 535.9263171 1328.02884746 C552.01690567 1230.03491769 568.22410076 1132.06095764 590.78416717 996.86618304 C594.73141532 973.22075167 598.67451012 949.57463526 602.61098516 925.92740798 C616.58892443 841.96034536 630.64395322 758.00630348 645.14118516 671.6022132 C645.66335857 668.49009673 646.18549086 665.37797336 646.70762289 662.26584995 C647.05795866 660.17783835 647.40836682 658.0898389 647.75878036 656.00184035 C647.97079463 654.73816917 648.18280891 653.474498 648.40124786 652.17253375 C648.5820886 651.09486365 648.76292934 650.01719356 648.9492501 648.90686679 C649.82925227 643.64860093 650.70473422 638.38957947 651.58121002 633.13072467 C382.63121002 633.13072467 113.68121002 633.13072467 -163.41878998 633.13072467 Z " fill="#FFFFFF" transform="translate(822.4187899827957,683.8692753314972)"/>
<path d="M0 0 C0.74121094 0.39960938 1.48242188 0.79921875 2.24609375 1.2109375 C31.49638839 18.41699317 48.65410796 59.15899442 56.8515625 90.31640625 C71.78338301 149.86564592 44.47781827 212.27158887 22.5715332 266.62133789 C15.35320852 284.5350684 8.16548589 302.45797677 2.5 320.9375 C2.26829102 321.68845947 2.03658203 322.43941895 1.79785156 323.21313477 C-1.51861522 334.5292526 -2.34923451 345.59067757 -2.31567383 357.30957031 C-2.31249489 359.6287259 -2.33613223 361.94662421 -2.36132812 364.265625 C-2.4352714 381.30345381 2.88419757 392.60719673 12.9765625 406.1796875 C24.30492164 421.96940815 27.52742422 437.34993352 25.4375 456.5 C23.21269443 469.61546219 13.37242367 479.2261237 2.9453125 486.75 C-5.07314546 491.90242278 -13.05661515 492.18164555 -22.3125 492.1875 C-23.31990234 492.19974609 -24.32730469 492.21199219 -25.36523438 492.22460938 C-40.58160652 492.25434821 -50.213805 486.18879558 -61 476 C-90.65389922 445.85778807 -106.45646963 399.22562887 -106.30029297 357.62329102 C-105.48634429 308.72404063 -84.68834833 261.381385 -66.6875 216.6875 C-42.62020162 160.42066564 -42.62020162 160.42066564 -46.15234375 100.84375 C-48.72314717 95.43153227 -51.90732334 90.62511019 -55.375 85.75 C-67.76779659 68.27029535 -73.96956364 49.79870535 -70.37890625 28.27734375 C-67.15371351 16.25095836 -59.20943151 5.76196632 -48.4140625 -0.5 C-34.42094793 -7.72225268 -13.60785498 -8.49639025 0 0 Z " fill="#FFFFFF" transform="translate(956,23)"/>
<path d="M0 0 C24.97647026 18.17579521 41.99695837 47.8102004 46.80224609 78.19140625 C48.93750711 95.06338258 47.12433302 111.88134339 43.19921875 128.328125 C43.00618164 129.15103027 42.81314453 129.97393555 42.61425781 130.82177734 C36.46432468 156.21423524 25.30174323 180.34325414 14.87304688 204.20361328 C1.9440455 229.04427798 1.9440455 229.04427798 -0.13964844 255.33203125 C0.76407563 257.38677206 1.75959696 259.35213332 2.82421875 261.328125 C3.37118408 262.38338379 3.37118408 262.38338379 3.92919922 263.45996094 C6.19737204 267.7417462 8.69797553 271.57420234 11.75390625 275.33984375 C20.24007639 287.0140616 23.45033361 301.02829984 21.69921875 315.265625 C18.67850145 330.49004019 9.42009267 341.48393812 -2.69921875 350.6015625 C-10.64058147 355.02232109 -18.405904 355.78902423 -27.36328125 355.640625 C-28.82797852 355.64545898 -28.82797852 355.64545898 -30.32226562 355.65039062 C-46.46750674 355.53159621 -55.94811933 349.37322681 -67.20507812 338.01513672 C-88.532844 315.46696319 -102.3893448 284.37497683 -103.11328125 253.203125 C-101.7673641 212.60129106 -84.63618881 174.7982427 -68.32739258 138.28173828 C-64.48931433 129.68032481 -60.80963318 121.08953836 -57.67578125 112.203125 C-57.39234863 111.40366455 -57.10891602 110.6042041 -56.81689453 109.78051758 C-53.89144085 101.18965061 -53.43730681 95.82883554 -57.2109375 87.4453125 C-59.73032905 82.50557181 -62.72501999 77.93496211 -65.80078125 73.328125 C-74.9395129 59.46771532 -79.14478328 44.11270169 -75.77734375 27.5 C-71.37220337 13.19210406 -63.61275344 1.88841639 -50.31640625 -5.453125 C-33.22864642 -13.73166703 -15.44281295 -10.0592509 0 0 Z " fill="#FFFFFF" transform="translate(1235.80078125,159.671875)"/>
</svg>
