<?xml version="1.0" standalone="no"?>
<!DOCTYPE svg PUBLIC "-//W3C//DTD SVG 20010904//EN"
 "http://www.w3.org/TR/2001/REC-SVG-20010904/DTD/svg10.dtd">
<svg version="1.0" xmlns="http://www.w3.org/2000/svg"
 width="512.000000pt" height="512.000000pt" viewBox="0 0 512.000000 512.000000"
 preserveAspectRatio="xMidYMid meet">

<g transform="translate(0.000000,512.000000) scale(0.100000,-0.100000)"
fill="#000000" stroke="none">
<path d="M825 5095 c-25 -24 -25 -26 -25 -215 0 -189 0 -191 25 -215 l24 -25
408 0 409 0 10 -39 11 -39 -50 -6 c-55 -8 -128 -41 -174 -80 -16 -14 -45 -53
-64 -88 -30 -56 -33 -71 -34 -143 0 -60 5 -91 21 -125 l21 -45 -21 -16 c-20
-16 -21 -29 -26 -195 l-5 -179 -59 -5 c-45 -4 -62 -11 -77 -29 -27 -33 -24
-77 6 -107 23 -23 33 -25 80 -22 l55 3 0 -68 c0 -68 0 -68 -65 -159 -153 -212
-251 -448 -312 -745 -13 -65 -16 -190 -20 -753 -3 -445 -1 -712 6 -785 22
-214 79 -420 172 -615 53 -111 174 -299 232 -362 l35 -38 992 0 992 0 35 38
c106 114 253 380 317 572 l35 105 208 6 c225 6 273 16 385 82 101 59 197 182
240 305 l23 67 0 665 c0 624 -1 668 -19 720 -31 92 -76 166 -136 229 -66 67
-122 103 -219 140 -63 24 -78 25 -318 29 l-252 4 -16 41 c-26 67 -112 215
-176 304 l-60 82 3 143 3 143 59 5 c45 4 62 11 77 29 27 33 24 77 -6 107 -23
23 -33 25 -80 22 l-55 -3 0 98 c0 89 -2 100 -23 121 l-23 23 21 44 c15 33 20
65 20 124 -1 72 -4 87 -34 143 -19 35 -48 74 -64 88 -44 37 -117 71 -169 79
-45 7 -46 8 -52 51 -13 100 -86 197 -181 244 -41 20 -65 25 -135 25 -73 0 -92
-4 -137 -28 -63 -33 -116 -83 -144 -138 -15 -31 -24 -39 -37 -33 -106 46 -187
55 -257 28 -22 -8 -47 -18 -55 -20 -13 -4 -26 27 -65 153 -47 151 -52 160
-100 208 -31 32 -65 55 -91 63 -30 9 -181 12 -553 12 l-512 0 -24 -25z m1064
-152 c16 -13 55 -128 151 -434 72 -230 130 -420 130 -423 0 -3 -37 -6 -82 -6
l-83 0 -105 338 c-74 237 -111 344 -127 360 l-22 22 -396 0 -395 0 0 80 0 80
454 0 c417 0 455 -1 475 -17z m999 -250 c50 -38 67 -70 67 -132 0 -48 -5 -64
-28 -95 l-29 -37 -36 37 c-41 42 -118 81 -179 90 -46 7 -50 14 -32 61 14 37
47 72 84 89 40 19 119 12 153 -13z m-473 -167 l36 -28 -37 -36 c-42 -41 -81
-118 -90 -179 -4 -26 -12 -43 -19 -43 -15 0 -99 254 -92 274 3 7 20 20 39 30
48 24 117 16 163 -18z m-693 -135 c19 -7 29 -29 56 -114 17 -59 32 -113 32
-121 0 -23 -65 -67 -108 -73 -143 -19 -237 148 -145 258 43 51 109 71 165 50z
m981 -5 c104 -43 128 -175 47 -256 -66 -66 -156 -67 -221 -1 -124 123 13 325
174 257z m502 -16 c91 -57 94 -197 4 -261 -45 -32 -134 -34 -175 -3 -44 33
-66 68 -71 118 -6 46 -5 47 60 113 66 65 67 66 109 59 23 -4 56 -15 73 -26z
m75 -500 c0 -50 0 -50 -32 -50 -18 -1 -206 -13 -417 -29 l-384 -28 -24 -27
c-28 -34 -29 -65 -2 -100 26 -33 32 -33 469 -1 184 14 347 25 363 25 l27 0 0
-110 0 -110 -880 0 -880 0 0 49 0 48 93 7 c262 18 260 18 284 42 31 32 30 78
-3 111 -25 25 -29 25 -107 19 -45 -3 -124 -9 -174 -12 l-93 -7 0 112 0 111
880 0 880 0 0 -50z m85 -647 c169 -241 262 -477 300 -763 21 -152 21 -1328 0
-1480 -38 -286 -131 -522 -300 -763 l-40 -57 -925 0 -925 0 -40 57 c-169 242
-263 480 -300 760 -22 166 -22 1320 0 1486 38 292 138 537 324 794 l16 22 925
1 925 0 40 -57z m887 -465 c91 -45 147 -103 191 -196 l32 -67 0 -655 0 -655
-32 -67 c-44 -93 -100 -151 -191 -196 l-76 -37 -181 -3 -181 -4 10 81 10 81
141 0 c176 0 217 12 278 80 24 26 49 66 55 88 17 56 17 1208 0 1264 -15 49
-81 126 -128 147 -26 12 -80 17 -209 21 l-174 5 -18 65 c-10 36 -18 71 -19 78
0 11 39 13 208 10 l208 -3 76 -37z m-117 -303 l25 -24 0 -591 0 -591 -25 -24
c-23 -24 -29 -25 -160 -25 l-135 0 -1 573 c0 314 -3 602 -8 640 l-7 67 143 0
c139 0 145 -1 168 -25z"/>
<path d="M2860 2704 c-142 -52 -229 -183 -218 -327 26 -318 443 -407 597 -127
33 60 36 71 36 150 -1 72 -5 93 -27 136 -39 75 -70 107 -138 143 -76 41 -179
51 -250 25z m163 -158 c103 -43 128 -177 48 -257 -65 -65 -157 -65 -222 0
-124 123 13 325 174 257z"/>
<path d="M1545 2055 c-50 -49 -15 -135 55 -135 19 0 40 9 55 25 16 15 25 36
25 55 0 19 -9 40 -25 55 -15 16 -36 25 -55 25 -19 0 -40 -9 -55 -25z"/>
<path d="M3145 1415 c-50 -49 -15 -135 55 -135 41 0 80 39 80 80 0 41 -39 80
-80 80 -19 0 -40 -9 -55 -25z"/>
<path d="M2105 1095 c-50 -49 -15 -135 55 -135 19 0 40 9 55 25 16 15 25 36
25 55 0 19 -9 40 -25 55 -15 16 -36 25 -55 25 -19 0 -40 -9 -55 -25z"/>
</g>
</svg>
