<?xml version="1.0" encoding="UTF-8"?>
<svg version="1.1" xmlns="http://www.w3.org/2000/svg" width="2133" height="2133">
<path d="M0 0 C1.54924699 -0.00420701 3.09848773 -0.01192779 4.64770192 -0.02285141 C8.89943424 -0.04266504 13.14957409 -0.01263507 17.40112698 0.02558124 C21.98998391 0.05809261 26.57873109 0.04434852 31.16766357 0.0362854 C40.16273266 0.02768387 49.15717386 0.06141414 58.15210281 0.10876166 C68.65365931 0.16214681 79.15511213 0.17095608 89.65678515 0.1773181 C108.42954668 0.18995722 127.20203175 0.23904452 145.97465515 0.31031799 C164.12536837 0.37916449 182.27597506 0.42892591 200.42680359 0.45387268 C202.09779691 0.45617726 202.09779691 0.45617726 203.80254767 0.45852839 C208.28254557 0.4646419 212.76254359 0.4706546 217.24254181 0.47652521 C237.74888599 0.50368775 258.25520995 0.544066 278.76152039 0.58985901 C280.31057093 0.59331802 280.31057093 0.59331802 281.89091542 0.59684691 C294.86416951 0.62625345 307.83737909 0.66273441 320.81058311 0.70931053 C324.40682078 0.72210769 328.00305486 0.73297868 331.5993042 0.74189377 C348.88473226 0.78605236 366.15890544 0.92232383 383.43771362 1.42910767 C384.1227189 1.44887586 384.80772418 1.46864405 385.5134872 1.48901128 C424.15073426 2.63161086 447.61130942 8.92419579 475.09745789 37.16407776 C496.06295304 60.43813305 503.01548474 92.77460043 512.05967712 121.96430969 C516.38420851 135.9199705 520.75715006 149.83464872 525.86698914 163.52735901 C526.23441223 164.51486649 526.60183533 165.50237396 526.98039246 166.51980591 C528.66671951 170.9465122 530.42482552 174.94842653 532.96073914 178.96876526 C532.96073914 179.62876526 532.96073914 180.28876526 532.96073914 180.96876526 C537.50513032 181.1940406 540.74150855 180.55606129 544.96073914 178.88673401 C546.0964032 178.44909729 547.23206726 178.01146057 548.40214539 177.56056213 C550.74350064 176.63661349 553.08465223 175.71214853 555.42558289 174.78712463 C568.5389875 169.73499744 580.77708235 167.39729268 594.83573914 167.46876526 C595.50371521 167.47085999 596.17169128 167.47295471 596.85990906 167.47511292 C619.04284366 167.61709211 640.3451804 173.24868389 660.6335907 182.14015198 C664.36365806 183.76152691 667.24453357 184.94475374 671.33964539 185.08204651 C674.99480343 183.52955762 675.96828304 181.59591217 677.89823914 178.15626526 C678.23468445 177.57385071 678.57112976 176.99143616 678.91777039 176.39137268 C679.9520291 174.59429955 680.95874082 172.78398681 681.96073914 170.96876526 C686.40937061 163.04494464 691.03304886 155.87147749 696.96073914 148.96876526 C698.01068054 147.7177301 698.01068054 147.7177301 699.08183289 146.44142151 C704.49411823 140.18015023 710.38227459 134.97561229 716.96073914 129.96876526 C717.47733093 129.57189514 717.99392273 129.17502502 718.52616882 128.76612854 C738.72878924 113.36056107 759.9232113 102.64458852 785.76152039 102.66798401 C787.38068611 102.66155632 787.38068611 102.66155632 789.03256226 102.65499878 C791.29889734 102.64929889 793.5652507 102.64872282 795.83158875 102.65309143 C799.25452137 102.656248 802.67658494 102.63274771 806.09941101 102.60743713 C841.72126485 102.50367347 869.91529166 116.06888107 894.96073914 140.96876526 C915.88062104 161.85495975 928.2373574 188.66673447 932.63163757 217.68580627 C933.68055125 224.73751518 933.68055125 224.73751518 936.96073914 230.96876526 C942.15749615 234.012778 948.36363579 234.71351259 954.21073914 235.71876526 C980.30359182 240.67638306 1008.30385177 252.58142879 1026.96073914 271.96876526 C1028.00294617 273.03224182 1028.00294617 273.03224182 1029.06620789 274.11720276 C1050.09104309 296.60154809 1063.77522629 325.17058558 1064.64823914 355.96876526 C1064.68658875 357.24388977 1064.72493835 358.51901428 1064.76445007 359.83277893 C1065.33329062 382.13160982 1064.01118681 402.6298028 1054.01152039 422.96876526 C1053.68248718 423.64479797 1053.35345398 424.32083069 1053.01445007 425.01734924 C1052.36598662 426.33488003 1051.7017933 427.64481366 1051.02030945 428.9455719 C1049.26616575 432.37942081 1049.26616575 432.37942081 1049.46464539 436.10939026 C1051.40569917 438.52177042 1053.55845379 440.55805428 1055.83573914 442.65626526 C1067.03590124 453.61399961 1066.7814754 467.36902624 1067.010849 482.21125793 C1067.08261434 490.98460901 1067.05214773 499.75778104 1067.02323914 508.53126526 C1067.01763484 511.1998842 1067.01365197 513.86850257 1067.00956726 516.53712463 C1066.9986537 523.01435854 1066.98200529 529.49155749 1066.96073914 535.96876526 C1067.70678406 535.81029114 1068.45282898 535.65181702 1069.22148132 535.48854065 C1083.31777958 532.81376177 1104.80596849 530.48587535 1117.21855164 538.41017151 C1125.35529607 544.19719601 1131.0444572 552.07061475 1132.96073914 561.96876526 C1134.02071776 571.50857292 1132.59095751 579.82111561 1127.00761414 587.73829651 C1116.24018643 600.59520756 1101.26315888 601.1689787 1085.46073914 602.65626526 C1081.72573689 602.95766576 1078.01626875 602.98083819 1074.27128601 602.97584534 C1072.7809082 602.97431206 1072.7809082 602.97431206 1071.26042175 602.9727478 C1070.50152649 602.97143356 1069.74263123 602.97011932 1068.96073914 602.96876526 C1068.69837711 616.41724448 1068.43748751 629.86575139 1068.17843628 643.31429482 C1068.05808101 649.560135 1067.93723378 655.80596483 1067.81523132 662.05177307 C1067.69733579 668.08828393 1067.58077296 674.12481923 1067.46510315 680.16137314 C1067.42092059 682.45524881 1067.37627174 684.74911555 1067.33113098 687.04297256 C1067.21083083 693.16405591 1067.10078074 699.28511348 1067.00606346 705.40664673 C1066.96471739 707.74388041 1066.90622787 710.07993888 1066.84228516 712.41664124 C1066.81861374 713.65990173 1066.79494232 714.90316223 1066.77055359 716.18409729 C1066.74427383 717.20713959 1066.71799408 718.23018188 1066.69091797 719.28422546 C1067.19152639 724.26494373 1069.97903397 727.52549226 1073.14823914 731.21876526 C1074.45014647 732.8584968 1075.750903 734.49914263 1077.05058289 736.14064026 C1077.71042175 736.95081604 1078.37026062 737.76099182 1079.0500946 738.59571838 C1081.89629892 742.13074342 1084.56243557 745.78429761 1087.21073914 749.46876526 C1087.72918396 750.18604797 1088.24762878 750.90333069 1088.78178406 751.64234924 C1111.87570347 783.84256209 1132.45814716 817.94870272 1150.96073914 852.96876526 C1151.4364032 853.86804749 1151.91206726 854.76732971 1152.40214539 855.69386292 C1170.96073914 891.06012042 1170.96073914 891.06012042 1170.96073914 899.96876526 C1171.50209503 899.96432404 1172.04345093 899.95988281 1172.60121155 899.95530701 C1209.79058231 899.66831723 1246.95824817 900.09779934 1284.14134979 900.78020477 C1287.60925191 900.84305864 1291.0771904 900.90329896 1294.54515076 900.96284485 C1315.90720289 901.33332289 1337.26776595 901.71809977 1358.60527039 902.85157776 C1359.28382269 902.88468929 1359.96237499 902.91780083 1360.66148949 902.95191574 C1374.33842582 903.63841784 1388.11762681 905.47886097 1401.08573914 910.03126526 C1402.38414734 910.47744202 1402.38414734 910.47744202 1403.70878601 910.93263245 C1434.10538732 921.64868552 1461.88937716 936.4735272 1485.96073914 957.96876526 C1486.49650574 958.44281799 1487.03227234 958.91687073 1487.58427429 959.4052887 C1506.54522702 976.24571956 1522.75399243 995.66866354 1534.96073914 1017.96876526 C1535.42045105 1018.79682678 1535.88016296 1019.62488831 1536.35380554 1020.4780426 C1565.04125217 1072.46995807 1564.06853803 1124.47111459 1564.25271332 1182.23833704 C1564.26909486 1187.15604198 1564.28881146 1192.07373172 1564.30839888 1196.99142477 C1564.49020491 1242.8872497 1564.5861335 1288.7834589 1564.66092015 1334.67956993 C1564.67205589 1341.49113822 1564.68362587 1348.30270578 1564.69535828 1355.11427307 C1564.6966445 1355.86670013 1564.69793072 1356.6191272 1564.69925592 1357.39435508 C1564.74124899 1381.78932655 1564.8248287 1406.18393176 1564.93083886 1430.57870243 C1565.04002848 1455.75155537 1565.10943508 1480.92420912 1565.12881103 1506.09729927 C1565.13156754 1509.6628356 1565.13475754 1513.22837143 1565.13820457 1516.79390717 C1565.13886715 1517.49539282 1565.13952973 1518.19687847 1565.14021238 1518.91962126 C1565.15191422 1530.12716403 1565.2043889 1541.33414719 1565.27268475 1552.54147223 C1565.34056146 1563.83249817 1565.36237532 1575.12276995 1565.34226886 1586.41404745 C1565.33268183 1592.51112202 1565.34160833 1598.606523 1565.40466309 1604.70331573 C1565.6812887 1632.90234393 1563.67592784 1656.14027524 1551.96073914 1681.96876526 C1550.94537342 1684.33042244 1549.93399328 1686.6937981 1548.92706013 1689.05906296 C1537.32676469 1716.15803077 1520.52983828 1740.87949125 1500.39042664 1762.35157776 C1498.44291558 1764.44937905 1496.58985878 1766.57186299 1494.77323914 1768.78126526 C1491.52618319 1772.6061871 1487.78753167 1775.73990905 1483.96073914 1778.96876526 C1483.01198914 1779.80536682 1482.06323914 1780.64196838 1481.08573914 1781.50392151 C1419.71131859 1835.32663658 1342.2314178 1833.3059608 1265.38064194 1835.43234444 C1262.94986466 1835.49966731 1260.51909804 1835.56736407 1258.08833313 1835.63513184 C1250.94274501 1835.83389372 1243.79715096 1836.03047931 1236.65112114 1836.21277046 C1233.69613594 1836.28882047 1230.74124914 1836.36830171 1227.78637314 1836.44847107 C1226.40523273 1836.48509247 1225.02404923 1836.520127 1223.64282608 1836.55348206 C1221.74576544 1836.59941515 1219.84885053 1836.65125398 1217.95195007 1836.7033844 C1216.35332123 1836.74429955 1216.35332123 1836.74429955 1214.72239685 1836.78604126 C1211.24608512 1836.97796443 1211.24608512 1836.97796443 1207.96073914 1837.96876526 C1206.85957623 1839.70912634 1206.85957623 1839.70912634 1206.2441864 1841.94898987 C1205.82631866 1843.22766937 1205.82631866 1843.22766937 1205.40000916 1844.53218079 C1205.11196411 1845.4690271 1204.82391907 1846.40587341 1204.52714539 1847.37110901 C1204.21307739 1848.34300171 1203.8990094 1849.31489441 1203.57542419 1850.3162384 C1202.89853885 1852.41362317 1202.22862825 1854.51326882 1201.56489563 1856.61485291 C1199.81420605 1862.14665859 1198.0034094 1867.65869866 1196.19511414 1873.17189026 C1195.83472549 1874.27377182 1195.47433685 1875.37565338 1195.10302734 1876.51092529 C1184.04653264 1910.15843842 1169.51155964 1942.18316385 1153.96073914 1973.96876526 C1153.50489441 1974.90768616 1153.04904968 1975.84660706 1152.57939148 1976.8139801 C1146.03393974 1990.27938046 1138.91978968 2003.33607785 1131.46708679 2016.31886292 C1129.6907755 2019.44367374 1127.97165204 2022.59690433 1126.25712585 2025.75587463 C1106.96151991 2061.17807079 1083.6051945 2095.19344968 1055.96806335 2124.62062073 C1053.85550952 2126.87474121 1051.90535325 2129.04994917 1050.16129657 2131.60636471 C1047.96073914 2133.96876526 1047.96073914 2133.96876526 1045.28520677 2134.59921111 C1044.25325171 2134.6017873 1043.22129664 2134.6043635 1042.15807021 2134.60701776 C1040.96293191 2134.6220976 1039.76779361 2134.63717744 1038.536439 2134.65271425 C1037.2193422 2134.6438669 1035.90224541 2134.63501954 1034.54523659 2134.62590408 C1033.12929216 2134.63415105 1031.71335906 2134.64458189 1030.29744512 2134.65700459 C1026.3844546 2134.68490475 1022.4720098 2134.68146422 1018.5589515 2134.67311664 C1014.31014125 2134.66946917 1010.06148686 2134.6945569 1005.81274259 2134.71599174 C997.37586062 2134.75394592 988.93913678 2134.76485975 980.50217836 2134.76763701 C970.4003077 2134.77219999 960.29858393 2134.80552227 950.19677634 2134.83937113 C925.77695069 2134.91974147 901.35714039 2134.94919641 876.93720625 2134.97311488 C865.38716491 2134.98478858 853.83713603 2135.00280126 842.28710441 2135.02159176 C802.75871714 2135.08577838 763.23033684 2135.13937129 723.70189857 2135.15660477 C721.21962081 2135.15771293 718.73734305 2135.15882186 716.25506528 2135.15993153 C713.76674407 2135.16103473 711.27842286 2135.16213714 708.79010165 2135.16323876 C703.79798992 2135.16545154 698.80587819 2135.16768712 693.81376648 2135.16993713 C691.95713058 2135.17075757 691.95713058 2135.17075757 690.06298689 2135.17159457 C649.93086597 2135.18974673 609.7991967 2135.26933921 569.66724874 2135.38588895 C527.24902409 2135.50885337 484.8310576 2135.57746778 442.41264951 2135.58344436 C437.75654365 2135.58430164 433.1004379 2135.58537879 428.44433212 2135.58661652 C426.72460466 2135.58703478 426.72460466 2135.58703478 424.97013523 2135.5874615 C406.51386617 2135.59321651 388.05806018 2135.64834727 369.60194752 2135.72105179 C351.05139361 2135.79286474 332.50143367 2135.80906941 313.95077892 2135.76885191 C302.92848252 2135.7465625 291.90810254 2135.76589655 280.88605777 2135.84504444 C273.52120717 2135.89378857 266.15769928 2135.88791325 258.79286102 2135.8378633 C254.59687741 2135.81088936 250.40457219 2135.80735591 246.20889325 2135.8704069 C218.74947901 2136.25758519 218.74947901 2136.25758519 210.99088039 2128.78268455 C208.8183939 2126.2651196 206.94419806 2123.67511871 205.18739335 2120.85380003 C203.22492476 2117.83801817 200.82108679 2115.31194775 198.39823914 2112.65626526 C192.39216516 2105.54282702 187.01516419 2097.96609115 181.65214539 2090.36329651 C179.97255862 2087.98549815 178.28004153 2085.61734308 176.58573914 2083.25001526 C167.23888972 2070.12118823 158.5405214 2056.60796552 149.96073914 2042.96876526 C149.38968445 2042.06513245 148.81862976 2041.16149963 148.23027039 2040.23048401 C106.31556517 1973.8240508 75.16093516 1902.1326247 55.96073914 1825.96876526 C55.76735962 1825.20278015 55.5739801 1824.43679504 55.3747406 1823.64759827 C48.9259362 1797.97599993 43.97522287 1772.12667548 39.96073914 1745.96876526 C39.79541687 1744.90202576 39.79541687 1744.90202576 39.62675476 1743.81373596 C35.04322562 1714.12976084 33.96328217 1684.40362124 33.41777039 1654.41798401 C33.39636616 1653.24259378 33.37496193 1652.06720356 33.35290909 1650.85619545 C32.64284658 1610.08172197 32.80739665 1569.29574953 32.8319664 1528.51671219 C32.83604254 1521.58555878 32.83783576 1514.6544057 32.83943176 1507.72325134 C32.85885097 1433.2337669 33.13982613 1358.75278038 33.92627716 1284.26728821 C33.98265676 1278.87092319 34.03623977 1273.47453056 34.09013367 1268.07814026 C34.33179095 1244.04098183 34.61056223 1220.00459745 34.96073914 1195.96876526 C34.98814178 1194.06855621 34.98814178 1194.06855621 35.01609802 1192.12995911 C36.41852062 1096.27109627 49.87843329 1008.72688816 109.96073914 861.96876526 C110.67012634 860.49004944 110.67012634 860.49004944 111.3938446 858.98146057 C129.31251559 821.8719375 151.55442963 787.2503926 175.5164032 753.79689026 C191.73598859 732.52162167 191.73598859 732.52162167 198.1660614 707.17848206 C198.18600662 706.25790512 198.20595184 705.33732819 198.22650146 704.38885498 C198.24321396 703.40846756 198.25992645 702.42808014 198.27714539 701.41798401 C198.30831703 699.89706902 198.30831703 699.89706902 198.34011841 698.34542847 C198.40535027 695.11577441 198.46437615 691.88604105 198.52323914 688.65626526 C198.56644943 686.46289778 198.61006452 684.26953823 198.65409851 682.07618713 C198.76100458 676.70712964 198.86281935 671.33799376 198.96073914 665.96876526 C197.7338739 666.12723938 196.50700867 666.2857135 195.2429657 666.44898987 C192.31043167 666.81505263 189.39721116 667.12549436 186.44511414 667.28517151 C185.28955017 667.3484967 185.28955017 667.3484967 184.11064148 667.4131012 C180.06118571 667.61248437 176.01152 667.79845429 171.96073914 667.96876526 C170.18570007 668.05190979 170.18570007 668.05190979 168.37480164 668.13673401 C158.17743907 668.41198416 150.48286391 666.01596973 142.96073914 658.96876526 C134.58609346 649.90602244 132.17151506 642.10338089 132.61698914 629.88282776 C133.40682884 620.88942573 137.13970947 613.89089955 143.96073914 607.96876526 C158.14308882 597.73188128 180.34758907 599.04761865 196.96073914 597.96876526 C196.95394135 596.92829544 196.94714355 595.88782562 196.94013977 594.81582642 C196.88522146 582.41837955 197.17234909 570.04341883 197.54667664 557.65235901 C197.60920018 555.54079343 197.67166846 553.42922621 197.73408508 551.31765747 C197.86494957 546.91638599 197.99810115 542.51519033 198.13261414 538.11402893 C198.26857275 533.65483003 198.40033562 529.19553974 198.52812195 524.73609924 C199.75222587 482.07904374 199.75222587 482.07904374 200.87480164 467.00392151 C200.93872101 466.08461349 201.00264038 465.16530548 201.0684967 464.21813965 C201.66968653 457.23656817 202.53950947 449.04323833 207.58964539 443.80470276 C208.55773132 442.99259338 209.52581726 442.18048401 210.52323914 441.34376526 C211.4939032 440.50587463 212.46456726 439.66798401 213.46464539 438.80470276 C215.96073914 436.96876526 215.96073914 436.96876526 217.96073914 436.96876526 C217.61817078 436.23988098 217.27560242 435.5109967 216.9226532 434.76002502 C201.30466973 401.28576168 194.06759015 363.11160189 204.89823914 326.65626526 C210.78084091 310.54380174 219.72574685 295.66616722 229.96073914 281.96876526 C230.72128601 280.94138245 231.48183289 279.91399963 232.26542664 278.85548401 C253.86061015 251.07377995 292.65285001 237.74879869 326.28495789 233.48439026 C329.25176704 233.11513457 331.9482457 232.96876526 334.96073914 232.96876526 C334.63460632 231.95298401 334.30847351 230.93720276 333.97245789 229.89064026 C326.96073914 207.87604377 326.96073914 207.87604377 326.96073914 200.96876526 C326.2423936 200.97446106 325.52404806 200.98015687 324.78393447 200.98602527 C282.17936711 201.32192452 239.57494419 201.57917742 196.96931731 201.7347452 C191.85008199 201.7535051 186.73084936 201.77292 181.61161804 201.79273987 C180.59250014 201.79667452 179.57338223 201.80060918 178.52338196 201.80466307 C162.03631308 201.86987801 145.55003122 201.98811464 129.06342874 202.1260572 C112.13808453 202.26648629 95.21315159 202.34967933 78.28724873 202.38009268 C67.84817221 202.40064369 57.4113203 202.46546784 46.9729289 202.58751226 C39.80827053 202.66699742 32.64475675 202.69072453 25.47968982 202.67128592 C21.34893805 202.66170521 17.22206298 202.67604638 13.09200668 202.75684738 C-14.24188477 203.26547654 -14.24188477 203.26547654 -22.12436759 195.77648693 C-36.5932666 179.28338604 -34.34772399 158.72346042 -34.30791187 138.09490585 C-34.30277922 134.59460405 -34.30756318 131.09431172 -34.3106842 127.5940094 C-34.314303 121.72053618 -34.30958001 115.84711357 -34.30000305 109.97364807 C-34.28912254 103.22360584 -34.29264961 96.47368452 -34.30365586 89.72364521 C-34.3127887 83.88450507 -34.31398496 78.04540091 -34.30877852 72.20625591 C-34.30569151 68.73792228 -34.30515779 65.26964511 -34.3118515 61.80131531 C-34.37733444 22.17890036 -34.37733444 22.17890036 -27.46113586 14.13282776 C-26.30441235 13.0679935 -25.1453493 12.00569712 -23.98442 10.94544977 C-22.00410474 9.05951307 -22.00410474 9.05951307 -20.67052394 6.89881951 C-15.38776149 -0.86800123 -8.6814088 -0.1409944 0 0 Z M32.96073914 67.96876526 C32.96073914 89.74876526 32.96073914 111.52876526 32.96073914 133.96876526 C47.93835632 133.95136292 47.93835632 133.95136292 63.21855164 133.93360901 C95.16392415 133.90211954 127.109179 133.90990696 159.05454797 133.94242489 C164.01627939 133.94743955 168.97801108 133.95210638 173.93974304 133.95655823 C174.92753805 133.95745036 175.91533305 133.95834249 176.93306124 133.95926166 C192.92913057 133.97287904 208.9250565 133.95831711 224.92110682 133.9333483 C241.33352057 133.90835656 257.74572317 133.91363088 274.15812302 133.94702435 C284.28628503 133.96667696 294.41387253 133.96269824 304.54199833 133.92852896 C311.48646285 133.90736149 318.43050449 133.91558259 325.37492901 133.94692403 C329.38227922 133.96414169 333.38853972 133.96839165 337.39583397 133.93774605 C341.06696106 133.90995755 344.73609111 133.91918466 348.40710616 133.9575063 C350.35970087 133.9683597 352.3123928 133.93991117 354.26478767 133.90994167 C360.42626128 134.0122617 364.13965831 134.3995233 368.66149902 138.79966736 C371.74789321 142.39004656 374.10655168 146.15304135 376.07792664 150.44532776 C376.40678864 151.13277069 376.73565063 151.82021362 377.07447815 152.52848816 C380.55479297 159.95781048 383.3744945 167.60780393 386.08573914 175.34376526 C386.64399391 176.91644787 387.20251443 178.48903617 387.76127625 180.0615387 C389.51677562 185.02293093 391.24316879 189.99413173 392.96073914 194.96876526 C393.23230835 195.75424744 393.50387756 196.53972961 393.78367615 197.34901428 C404.07150425 227.15974369 413.3896524 257.28257335 422.74072266 287.39656067 C426.22506296 298.61537146 429.72825307 309.8282176 433.23808289 321.03907776 C433.77604377 322.75770693 434.31399236 324.47633996 434.85192871 326.19497681 C435.11894813 327.04806144 435.38596754 327.90114607 435.66107845 328.78008175 C435.92843083 329.63423451 436.19578321 330.48838728 436.47123718 331.36842346 C436.87271516 332.65106882 436.87271516 332.65106882 437.28230381 333.9596262 C451.05135125 377.95039503 451.05135125 377.95039503 457.07011414 397.57423401 C457.45318726 398.82280182 457.83626038 400.07136963 458.23094177 401.35777283 C459.97827579 407.05743724 461.72063442 412.75856599 463.45585632 418.46192932 C464.05122353 420.41082573 464.64660044 422.35971917 465.24198914 424.30860901 C465.50735474 425.18663681 465.77272034 426.06466461 466.04612732 426.96929932 C466.9499948 430.7676406 466.9499948 430.7676406 468.96073914 433.96876526 C470.38525432 434.06699059 471.81458045 434.09674902 473.24247742 434.09815979 C474.1549826 434.10131195 475.06748779 434.10446411 476.00764465 434.10771179 C477.00536896 434.10568756 478.00309326 434.10366333 479.03105164 434.10157776 C480.05947174 434.10253448 481.08789185 434.10349121 482.1474762 434.10447693 C484.33832357 434.10515975 486.52917295 434.10329841 488.72001648 434.09913635 C492.02296212 434.09386544 495.32576695 434.09903779 498.62870789 434.10548401 C517.44541847 434.60201798 517.44541847 434.60201798 535.96073914 431.96876526 C534.66305299 424.74125828 532.83794543 417.79581072 530.67948914 410.78126526 C530.35433823 409.71138367 530.02918732 408.64150208 529.69418335 407.53919983 C528.62127304 404.01420489 527.54121786 400.49144705 526.46073914 396.96876526 C525.69528456 394.46167599 524.93007109 391.95451309 524.16508484 389.44728088 C516.24976139 363.52797226 508.214465 337.64559497 500.14689636 311.77333069 C498.93936052 307.90019394 497.73267821 304.02679214 496.52616882 300.15333557 C467.00820781 204.47890676 467.00820781 204.47890676 435.27323914 109.53126526 C435.04629364 108.87841553 434.81934814 108.2255658 434.58552551 107.55293274 C432.09116479 100.40182428 429.38258133 93.3491949 426.44120789 86.37110901 C426.16980484 85.70591751 425.89840179 85.04072601 425.61877441 84.3553772 C423.06980627 78.45516514 420.304946 74.99251637 414.37201214 72.4015131 C409.82446786 70.77100215 405.39233741 70.21745825 400.59790039 69.81994629 C399.72351139 69.74086027 398.8491224 69.66177425 397.94823676 69.58029169 C389.22655833 68.83182616 380.51579141 68.51172951 371.76615906 68.34986877 C370.44685066 68.32210033 370.44685066 68.32210033 369.10088956 68.29377091 C339.98586869 67.69076702 310.85575472 67.83998328 281.73598563 67.86522558 C273.08860007 67.87252807 264.44121611 67.8738905 255.79382791 67.87502319 C240.38307224 67.8771911 224.97232197 67.88378854 209.56156921 67.89332581 C194.62569709 67.90255935 179.68982645 67.90961078 164.75395203 67.91383362 C163.36402277 67.9142277 163.36402277 67.9142277 161.94601414 67.91462975 C157.29565306 67.91593515 152.64529196 67.91719877 147.99493086 67.91844165 C109.65019548 67.92874356 71.30547014 67.94714273 32.96073914 67.96876526 Z M749.31230164 191.21485901 C741.31183931 200.5841712 734.22002924 213.05080828 733.33573914 225.59376526 C733.64337177 229.06104826 733.64337177 229.06104826 736.10795593 231.07276917 C739.21571463 233.13822523 741.59514034 233.89668535 745.23027039 234.67970276 C746.44110291 234.95161438 747.65193542 235.223526 748.89945984 235.50367737 C750.17780701 235.78090637 751.45615417 236.05813538 752.77323914 236.34376526 C788.51063661 244.47548639 813.48664289 261.16431329 838.96073914 286.96876526 C842.15248949 285.59711819 843.90543248 284.14862254 846.01933289 281.40626526 C846.84243958 280.3415802 846.84243958 280.3415802 847.68217468 279.25538635 C848.24847595 278.50080139 848.81477722 277.74621643 849.39823914 276.96876526 C849.97936462 276.20000061 850.56049011 275.43123596 851.15922546 274.63917542 C863.11291289 258.55529339 865.63748883 241.16881977 863.33573914 221.46876526 C861.57890635 210.00863088 857.82033593 200.53312122 849.96073914 191.96876526 C848.82958679 190.7177301 848.82958679 190.7177301 847.67558289 189.44142151 C833.75253947 174.76816656 817.28826735 169.58473612 797.43339539 168.87892151 C777.68110628 169.59661922 762.98535029 176.99922906 749.31230164 191.21485901 Z M555.96073914 251.96876526 C554.1800682 256.77657678 555.58056552 261.27741168 556.71073914 266.09376526 C556.92971863 267.03679504 557.14869812 267.97982483 557.37431335 268.95143127 C564.47984242 298.22186541 574.35223411 328.05719046 586.39823914 355.65626526 C586.70398865 356.36275208 587.00973816 357.06923889 587.32475281 357.7971344 C589.03140297 361.53778279 590.85010418 364.26832393 593.96073914 366.96876526 C597.24248209 363.31415468 598.64077915 360.48513832 599.67167664 355.69923401 C599.94358826 354.48840149 600.21549988 353.27756897 600.49565125 352.03004456 C600.77288025 350.75169739 601.05010925 349.47335022 601.33573914 348.15626526 C609.3986835 312.72112884 625.95766938 285.05471507 652.96073914 260.96876526 C638.74581794 246.28263121 621.20001716 236.14422138 600.38676453 235.54664612 C583.74172806 235.44868841 567.86804499 239.52021823 555.96073914 251.96876526 Z M281.21073914 326.15626526 C270.08523025 340.45194603 265.10754636 356.97880897 266.96073914 374.96876526 C269.78696909 391.58968902 277.10714383 404.38174256 288.96073914 415.96876526 C289.52148132 416.56173401 290.08222351 417.15470276 290.65995789 417.76564026 C302.15657984 428.99068847 319.70146448 433.51583889 335.25053406 433.38673401 C352.05332945 432.82080468 369.24974732 423.73493317 381.02323914 411.89454651 C385.13313348 407.52544028 385.13313348 407.52544028 386.96073914 401.96876526 C386.50835445 399.04766916 386.50835445 399.04766916 385.62480164 395.85157776 C385.14829163 394.00414978 385.14829163 394.00414978 384.66215515 392.11940002 C384.30415751 390.77730606 383.94532984 389.43543327 383.58573914 388.09376526 C383.21840871 386.70177304 382.85114079 385.30976432 382.4839325 383.91773987 C377.44560124 364.95428655 372.03004921 346.08746156 365.27323914 327.65626526 C364.75709045 326.22552673 364.75709045 326.22552673 364.23051453 324.7658844 C361.34569534 317.15064455 357.90134261 309.62188756 350.96073914 304.96876526 C326.15846293 294.26369755 297.74982369 307.16281403 281.21073914 326.15626526 Z M686.96073914 320.96876526 C686.17570007 321.7306012 685.39066101 322.49243713 684.58183289 323.27735901 C672.92617303 335.28801358 666.96582427 351.5408817 666.52323914 368.15626526 C667.2495609 388.19820653 676.4525291 404.10950076 690.77323914 417.71876526 C703.67607717 428.84945424 719.8180621 435.17665036 736.96073914 433.96876526 C756.37737354 431.59509357 772.86529313 421.29538705 784.89823914 406.09376526 C789.14056472 400.07666861 792.2894499 393.81822484 794.96073914 386.96876526 C795.30105164 386.12314026 795.64136414 385.27751526 795.99198914 384.40626526 C801.02209335 369.50225277 798.76837132 351.82511247 792.27323914 337.84376526 C783.13075014 320.59463577 768.27373313 309.1860017 749.77323914 303.46876526 C726.11425091 297.91361498 704.20239403 303.78299903 686.96073914 320.96876526 Z M896.96073914 322.96876526 C896.19535828 323.70836487 895.42997742 324.44796448 894.6414032 325.2099762 C876.67157599 340.90857684 876.67157599 340.90857684 866.65995789 361.51954651 C866.58466919 379.26258216 871.02715593 394.85539275 881.96073914 408.96876526 C882.89079773 410.20626526 882.89079773 410.20626526 883.83964539 411.46876526 C887.63960801 415.94754257 892.34810178 419.36535399 896.96073914 422.96876526 C898.41480164 424.11345276 898.41480164 424.11345276 899.89823914 425.28126526 C915.24363334 433.73689063 935.06329101 434.1895258 951.79277039 429.93360901 C967.97351612 425.00556438 980.68136165 415.47587135 988.96855164 400.46095276 C997.55052677 383.81758814 999.68315832 364.96043913 993.96073914 346.96876526 C990.12609286 336.83639466 984.81294378 328.48564443 976.96073914 320.96876526 C976.36003601 320.33712463 975.75933289 319.70548401 975.14042664 319.05470276 C963.64592301 307.75923815 943.89296446 302.39957639 928.21073914 301.53126526 C915.2895356 301.83800006 905.56150859 314.54978222 896.96073914 322.96876526 Z M266.96073914 500.96876526 C266.96073914 531.32876526 266.96073914 561.68876526 266.96073914 592.96876526 C274.65910366 593.00855608 274.65910366 593.00855608 282.28738403 592.66505432 C283.21605789 592.59774109 284.14473175 592.53042786 285.10154724 592.46107483 C286.08302734 592.38626892 287.06450745 592.31146301 288.07572937 592.23439026 C289.13906998 592.15636169 290.20241058 592.07833313 291.29797363 591.99794006 C293.59184501 591.8292478 295.88559881 591.6589503 298.17924309 591.48719788 C301.82692173 591.21445931 305.4749457 590.94686701 309.12310791 590.68067932 C319.49099966 589.92339561 329.85828261 589.15799825 340.22514343 588.38673401 C346.58403058 587.91401213 352.94339067 587.44812967 359.30307198 586.98622131 C361.70743437 586.81022149 364.11161095 586.63166148 366.51557732 586.45033264 C377.52897197 585.61996252 388.53866632 584.81694803 399.58598328 584.67189026 C400.32553222 584.65333984 401.06508116 584.63478943 401.82704067 584.61567688 C409.86706425 584.61032876 416.18818708 587.40991768 422.07011414 592.87501526 C429.68827128 601.31165209 432.47763129 610.22212977 432.26542664 621.43360901 C431.45500621 630.83656395 426.97537235 637.78981037 419.96073914 643.96876526 C407.55326202 652.9733478 384.84868246 651.74227877 370.08573914 652.84376526 C367.97534844 653.00707866 365.86499805 653.17091363 363.75468445 653.33522034 C350.36061422 654.36951076 336.96143478 655.33481594 323.56230164 656.30079651 C322.78076344 656.35719299 321.99922523 656.41358948 321.19400406 656.47169495 C313.38078922 657.03537892 305.56745824 657.59710228 297.75323296 658.14662266 C294.82258054 658.3530865 291.89208197 658.56168165 288.96160507 658.77062035 C287.59160502 658.8677291 286.22153198 658.96381436 284.85138321 659.05880165 C282.96154799 659.189869 281.07197627 659.32471915 279.18241882 659.45973206 C278.12077515 659.53427109 277.05913147 659.60881012 275.96531677 659.68560791 C272.94684368 659.97007479 269.95133541 660.47033255 266.96073914 660.96876526 C266.96073914 673.83876526 266.96073914 686.70876526 266.96073914 699.96876526 C508.52073914 699.96876526 750.08073914 699.96876526 998.96073914 699.96876526 C998.96073914 670.26876526 998.96073914 640.56876526 998.96073914 609.96876526 C977.82582502 609.93707057 977.82582502 609.93707057 956.78697205 610.95864868 C955.32070751 611.06642482 955.32070751 611.06642482 953.82482147 611.17637825 C952.81264305 611.2509519 951.80046463 611.32552555 950.75761414 611.40235901 C948.5566371 611.55788276 946.35560562 611.71263763 944.15452576 611.86669922 C938.23795836 612.28301833 932.32221697 612.71014142 926.40657043 613.13932037 C920.1327761 613.59246803 913.85823469 614.03504139 907.58378601 614.47901917 C892.77563592 615.52912125 877.96866551 616.59523559 863.16194153 617.66521454 C858.93074794 617.97096967 854.69952997 618.27638633 850.4683075 618.58174133 C844.05291616 619.04474074 837.63754048 619.50795651 831.22217393 619.97129923 C826.96495182 620.27875902 822.70771891 620.58606872 818.45047688 620.89325267 C814.94380088 621.14629187 811.43713229 621.39943361 807.9304657 621.65260315 C807.24190853 621.70230755 806.55335135 621.75201195 805.84392881 621.80322254 C797.07396561 622.43641986 788.30430143 623.07354835 779.53489399 623.71440125 C702.41353446 629.34803658 702.41353446 629.34803658 680.31694031 629.28443909 C677.93412042 629.28114194 675.55240427 629.30550013 673.16972351 629.33009338 C652.31465055 629.4156118 652.31465055 629.4156118 644.96073914 623.59376526 C644.30073914 622.72751526 643.64073914 621.86126526 642.96073914 620.96876526 C642.28011414 620.20564026 641.59948914 619.44251526 640.89823914 618.65626526 C635.02125411 610.50431829 633.11511943 602.9813928 633.96073914 592.96876526 C635.82656392 584.87560169 640.64790594 579.14227744 645.96073914 572.96876526 C646.85670711 571.78136684 647.75256427 570.59388479 648.64823914 569.40626526 C652.89686114 564.92798802 659.4860418 565.62281911 665.37142944 565.20553589 C666.80166772 565.10034843 666.80166772 565.10034843 668.26079971 564.99303597 C671.46224333 564.75837481 674.66399698 564.52825276 677.86576843 564.29811096 C680.16381729 564.13062518 682.4618464 563.96286826 684.75985718 563.79486084 C691.03378668 563.33702821 697.30800147 562.88321973 703.58228278 562.43023705 C709.55973997 561.99819977 715.53700585 561.56353353 721.51428411 561.12902953 C733.45970141 560.26081819 745.40535018 559.39583208 757.35112 558.53248596 C768.73055474 557.71006999 780.10979256 556.88499704 791.48881531 556.05690002 C805.979278 555.00240564 820.46993161 553.95057341 834.96078726 552.90149245 C839.050193 552.60541032 843.13956825 552.30891127 847.22892194 552.01211119 C874.36203031 550.04307871 901.49550102 548.09364568 928.64525592 546.36621106 C931.92609439 546.15742684 935.20683924 545.94722455 938.48756504 545.73667812 C947.46740132 545.16159638 956.44730332 544.59173974 965.42968512 544.05770445 C968.94930802 543.846076 972.46820846 543.62389743 975.9870069 543.39901567 C977.59250315 543.29895826 979.19831029 543.20375028 980.80440545 543.11381698 C982.96957581 542.99231064 985.13309114 542.85437257 987.29699707 542.71234131 C989.09688442 542.60458264 989.09688442 542.60458264 990.93313313 542.49464703 C994.17257184 541.93197086 995.64870465 541.27379119 997.96073914 538.96876526 C1001.96767756 526.94794998 998.96073914 513.63981713 998.96073914 500.96876526 C757.40073914 500.96876526 515.84073914 500.96876526 266.96073914 500.96876526 Z M235.27224324 784.49996602 C233.12045503 788.55053139 230.43757374 792.2169903 227.80058289 795.96095276 C225.81810953 798.9119755 223.85884289 801.87817815 221.89823914 804.84376526 C221.12327591 806.01182205 221.12327591 806.01182205 220.33265686 807.20347595 C202.60672764 833.92624112 186.41344686 861.32857834 171.96073914 889.96876526 C171.41304871 891.05335022 170.86535828 892.13793518 170.30107117 893.25538635 C135.44589101 962.75691391 113.47133754 1038.67833078 103.96073914 1129.09376526 C103.8802533 1130.40393616 103.79976746 1131.71410706 103.71684265 1133.0639801 C102.85368266 1147.89575225 102.38628059 1162.74591739 101.89823914 1177.59376526 C101.8580365 1178.79084106 101.81783386 1179.98791687 101.77641296 1181.2212677 C100.23568534 1227.75362446 99.78396255 1274.31276754 99.44332951 1320.86658096 C99.40876821 1325.56203827 99.37164731 1330.25747032 99.33305359 1334.95289612 C98.87110103 1391.22942251 98.87723417 1447.49464679 99.31995916 1503.77132893 C99.33592134 1505.80447347 99.35169059 1507.83761945 99.36743546 1509.87076569 C99.64870803 1546.03162973 100.03381902 1582.18841668 100.83727264 1618.34211349 C100.8966791 1621.02335476 100.95442765 1623.70462772 101.01194763 1626.38591003 C102.83300491 1710.13568137 111.91709451 1790.01181819 192.96073914 1983.96876526 C193.8064447 1985.42669495 193.8064447 1985.42669495 194.66923523 1986.91407776 C209.10205823 2011.72314911 225.08281696 2035.75350067 241.96073914 2058.96876526 C242.46860113 2059.9266963 242.46860113 2059.9266963 242.98672297 2060.90397948 C245.04974646 2064.352518 246.62147303 2066.58564381 250.58450432 2067.71934105 C253.97480878 2068.01170204 257.28798617 2068.04584194 260.69088173 2068.00063419 C262.6459452 2068.02212004 262.6459452 2068.02212004 264.6405049 2068.04403993 C268.26853976 2068.0827383 271.89498192 2068.07152986 275.52310945 2068.05231794 C279.4661849 2068.04016506 283.4089047 2068.07415522 287.35186136 2068.10225719 C294.26586091 2068.14506144 301.17941872 2068.15789307 308.09354019 2068.15119934 C318.37513008 2068.14126868 328.6562136 2068.17674366 338.93769538 2068.22086267 C358.36823789 2068.30240281 377.79862189 2068.32876432 397.22931607 2068.33695627 C412.2338692 2068.34338023 427.23835672 2068.36219393 442.24288559 2068.38973808 C446.55945748 2068.39750631 450.87602949 2068.40520179 455.19260156 2068.41286892 C456.26567118 2068.41477645 457.33874079 2068.41668399 458.44432767 2068.41864933 C488.63566999 2068.47177502 518.82699009 2068.50689016 549.01838112 2068.50662327 C550.1570848 2068.50662386 551.29578848 2068.50662445 552.46899834 2068.50662505 C558.24062078 2068.50659976 564.01224321 2068.50645512 569.78386565 2068.50629128 C570.93016078 2068.50626291 572.07645592 2068.50623455 573.25748727 2068.50620533 C575.57557697 2068.50614761 577.89366667 2068.50607816 580.21175638 2068.505997 C616.27664631 2068.50522611 652.34087482 2068.57235516 688.40556335 2068.69068909 C728.91055277 2068.82355285 769.41510297 2068.89890914 809.92032373 2068.89363235 C814.23878186 2068.89328138 818.55723994 2068.89315587 822.87569809 2068.89318657 C823.93903588 2068.89316076 825.00237367 2068.89313495 826.09793382 2068.89310835 C843.21744159 2068.89404397 860.33635118 2068.94979094 877.45567661 2069.02459948 C894.65955658 2069.09827249 911.86258094 2069.10848885 929.06654103 2069.05439425 C939.2896745 2069.02404698 949.51018288 2069.04081136 959.73302676 2069.12522914 C966.56259251 2069.17692878 973.39026573 2069.16679628 980.21975619 2069.10649942 C984.1119836 2069.07387736 987.99913756 2069.06790176 991.89099844 2069.1372096 C1006.80325965 2070.02696547 1006.80325965 2070.02696547 1020.34701177 2065.28666763 C1024.22321278 2061.3543347 1026.76754352 2056.96647473 1029.02388529 2051.95989942 C1030.28564677 2049.27822565 1031.95045261 2046.99125327 1033.73808289 2044.63673401 C1052.74618398 2017.74281993 1070.17722007 1989.80568417 1085.53349304 1960.66749573 C1086.87258719 1958.13544873 1088.23105325 1955.61505895 1089.59745789 1953.09767151 C1123.42264929 1890.45210343 1144.0856003 1820.92222626 1155.96073914 1750.96876526 C1156.17456238 1749.71225159 1156.38838562 1748.45573792 1156.60868835 1747.16114807 C1158.56680927 1735.40602874 1160.11346025 1723.66312577 1160.99980164 1711.77735901 C1161.08406906 1710.65984253 1161.16833649 1709.54232605 1161.25515747 1708.39094543 C1162.12898481 1696.34362016 1162.61282621 1684.28941058 1163.02323914 1672.21876526 C1163.06431793 1671.05270752 1163.10539673 1669.88664978 1163.14772034 1668.68525696 C1165.98570579 1588.08211342 1166.13386846 1507.40637769 1166.08930796 1426.7627691 C1166.08553726 1419.14620864 1166.08690275 1411.52966119 1166.09111023 1403.9131012 C1166.12816287 1334.93785165 1165.99905844 1265.95022232 1164.08152771 1196.99629211 C1164.00086077 1194.01735919 1163.92833912 1191.03824296 1163.85523891 1188.05911636 C1163.44743369 1171.59348317 1162.84029844 1155.14475947 1161.99980164 1138.69532776 C1161.96096926 1137.91248287 1161.92213688 1137.12963799 1161.88212776 1136.32307053 C1157.85425174 1056.10977892 1134.06951872 975.24628317 1020.96073914 771.96876526 C1020.54695609 771.28041302 1020.13317304 770.59206079 1019.70685111 769.88284939 C1018.10837371 767.75716754 1018.10837371 767.75716754 1015.56771879 767.4610999 C1014.61047844 767.45747276 1013.65323809 767.45384563 1012.66699046 767.45010859 C1011.0066615 767.42932241 1011.0066615 767.42932241 1009.31279054 767.40811631 C1008.08932746 767.41319326 1006.86586438 767.41827022 1005.60532665 767.42350101 C1003.65635427 767.40803945 1003.65635427 767.40803945 1001.66800871 767.39226553 C998.03778172 767.36408544 994.40789068 767.36101758 990.77757012 767.36187462 C986.83693424 767.35850365 982.89644144 767.33223791 978.95588237 767.30891365 C971.12943667 767.26630835 963.3030675 767.24548117 955.47652463 767.23126805 C946.10603706 767.21329708 936.7356844 767.17242141 927.36527442 767.13140857 C904.71211535 767.03360551 882.05891037 766.97808314 859.40559803 766.93074756 C851.90281783 766.91504292 844.40004178 766.89797891 836.89726663 766.88003039 C797.01591406 766.78477341 757.13455916 766.70113973 717.25311565 766.65580845 C708.01006743 766.64513878 698.76701939 766.63431309 689.52397156 766.62330627 C688.37562197 766.6219534 687.22727238 766.62060052 686.04412432 766.61920665 C648.81530052 766.57485122 611.58716711 766.4586001 574.35866272 766.30098576 C536.09426306 766.13928107 497.83022702 766.03891928 459.56547567 766.02001241 C454.16110014 766.01733874 448.75672517 766.01402164 443.35235023 766.01034355 C441.75688656 766.009301 441.75688656 766.009301 440.12919131 766.00823738 C423.00885702 765.99536257 405.88937319 765.91879999 388.76934935 765.81911179 C371.55947586 765.720428 354.35059321 765.69175485 337.14047959 765.7341863 C326.91524907 765.7573377 316.6933654 765.7277105 306.46863622 765.62215912 C299.63512993 765.55686047 292.80390818 765.56083657 285.97035821 765.62066413 C282.07701006 765.65279304 278.19004126 765.65532309 274.29728254 765.57326967 C255.64842239 765.20395611 244.3439193 766.70390853 235.27224324 784.49996602 Z M1200.96073914 970.96876526 C1199.37720248 974.98043414 1200.57688901 978.50175089 1201.62089539 982.49610901 C1201.8078447 983.23970169 1201.99479401 983.98329437 1202.18740845 984.74942017 C1202.5875076 986.33333899 1202.99213852 987.91611889 1203.40092468 989.49781799 C1204.00527456 991.83673975 1204.59669516 994.17858464 1205.18534851 996.52149963 C1207.35363968 1005.08345471 1209.68150448 1013.59222572 1212.12260437 1022.08033752 C1212.3970916 1023.03779121 1212.67157883 1023.9952449 1212.95438385 1024.98171234 C1213.62228591 1027.31098498 1214.29108327 1029.63999635 1214.96073914 1031.96876526 C1216.09015427 1032.00190826 1217.2195694 1032.03505127 1218.38320923 1032.06919861 C1229.18946109 1032.38698954 1239.99553665 1032.71029863 1250.80147457 1033.0385952 C1256.3527793 1033.20708381 1261.9041233 1033.37383112 1267.45561218 1033.53614807 C1310.19081256 1034.78806089 1310.19081256 1034.78806089 1329.81620789 1035.98439026 C1331.73275429 1036.1006929 1331.73275429 1036.1006929 1333.6880188 1036.21934509 C1364.56774782 1038.23008411 1384.34706251 1045.05383068 1405.71073914 1067.90626526 C1412.69405682 1075.93644227 1418.48583607 1084.61347067 1423.39823914 1094.03126526 C1423.89335999 1094.94899719 1423.89335999 1094.94899719 1424.39848328 1095.88526917 C1429.94534847 1106.9906069 1429.44426408 1120.12824157 1429.91117859 1132.26295471 C1430.01806978 1135.02279687 1430.13762006 1137.78181898 1430.25956726 1140.54103088 C1432.05193495 1183.05286577 1432.17967795 1225.63228437 1432.47814876 1268.17488652 C1432.51260436 1273.05606841 1432.54972458 1277.93722465 1432.58842468 1282.81837463 C1433.04241752 1340.15219728 1433.03902353 1397.47696131 1432.57189924 1454.81078351 C1432.53342436 1459.56305394 1432.49771054 1464.31533983 1432.46342468 1469.06764221 C1431.80846327 1559.63151884 1431.80846327 1559.63151884 1430.14067078 1597.10719299 C1430.01694218 1599.92465512 1429.90775423 1602.74249954 1429.79862976 1605.56056213 C1428.69364487 1632.48383583 1428.69364487 1632.48383583 1422.89823914 1642.53126526 C1422.49975769 1643.24887024 1422.10127625 1643.96647522 1421.6907196 1644.70582581 C1409.00639599 1667.0243496 1389.53387841 1687.86880722 1364.30839539 1694.90626526 C1344.74516657 1699.92362644 1324.65606142 1700.1207017 1304.59355164 1700.28517151 C1302.46121358 1700.30578693 1300.32887919 1700.32678444 1298.19654846 1700.34814453 C1292.63022358 1700.40289213 1287.06386478 1700.45250661 1281.4974823 1700.50099182 C1275.79900657 1700.55155613 1270.10057907 1700.60705839 1264.40214539 1700.66212463 C1253.25505133 1700.76912596 1242.1079151 1700.87069556 1230.96073914 1700.96876526 C1229.36558498 1708.6863243 1229.36558498 1708.6863243 1228.1829071 1716.47511292 C1228.06293365 1717.42955292 1227.94296021 1718.38399292 1227.8193512 1719.36735535 C1227.69843109 1720.36246124 1227.57751099 1721.35756714 1227.45292664 1722.38282776 C1227.32258026 1723.4373111 1227.19223389 1724.49179443 1227.05793762 1725.57823181 C1226.78551128 1727.7915089 1226.51501951 1730.0050249 1226.24638367 1732.21876526 C1225.83595606 1735.5919824 1225.41629013 1738.96396501 1224.99589539 1742.33595276 C1224.73101435 1744.49734277 1224.46667298 1746.65879899 1224.20292664 1748.82032776 C1224.01547379 1750.3190593 1224.01547379 1750.3190593 1223.82423401 1751.84806824 C1223.71056488 1752.79620392 1223.59689575 1753.7443396 1223.4797821 1754.72120667 C1223.37922516 1755.54375946 1223.27866821 1756.36631226 1223.17506409 1757.21379089 C1222.89529498 1760.80999712 1222.92887383 1764.36181007 1222.96073914 1767.96876526 C1236.16918852 1767.726502 1249.37761574 1767.4830641 1262.58601856 1767.23827457 C1268.72450617 1767.12454459 1274.86299975 1767.01116469 1281.00151062 1766.8986969 C1282.18256787 1766.87702233 1283.36362513 1766.85534777 1284.58047199 1766.8330164 C1286.95748377 1766.78940468 1289.33449729 1766.7458885 1291.71151257 1766.70246792 C1297.61960189 1766.59389487 1303.52756885 1766.48127005 1309.4354248 1766.36062622 C1311.76718417 1766.31330656 1314.09894584 1766.26610003 1316.43070984 1766.2190094 C1317.56809758 1766.19601304 1318.70548532 1766.17301668 1319.87733936 1766.14932346 C1326.43498137 1766.02176247 1332.99156323 1765.93202449 1339.55025005 1765.88214016 C1343.50487552 1765.85001884 1347.45917496 1765.80018291 1351.41357994 1765.74795341 C1353.22367987 1765.72885175 1355.03389481 1765.7182766 1356.84409523 1765.71724129 C1370.72057085 1765.70644464 1381.08198382 1763.28587205 1392.79814148 1755.37599182 C1396.18954076 1753.16917025 1399.80887266 1751.50713236 1403.46073914 1749.78126526 C1426.09112674 1738.51277582 1446.57098307 1724.3062049 1461.96073914 1703.96876526 C1462.73804382 1702.96845276 1463.51534851 1701.96814026 1464.31620789 1700.93751526 C1470.66125649 1692.5745707 1475.85753105 1683.62954203 1480.62905884 1674.28910351 C1482.71129635 1670.24918889 1484.92741884 1666.38218391 1487.34625244 1662.53616047 C1500.46625276 1640.21399059 1498.8679302 1616.27904746 1498.74811411 1591.13015831 C1498.73265819 1585.2100149 1498.77861815 1579.29040143 1498.821823 1573.37046387 C1498.91817753 1559.79141044 1498.92803197 1546.21316405 1498.91010475 1532.63384535 C1498.89674698 1522.13561166 1498.90719593 1511.6376351 1498.93397522 1501.13942909 C1498.93774433 1499.62398131 1498.9415063 1498.1085335 1498.94526118 1496.59308568 C1498.9509435 1494.30860529 1498.95663678 1492.02412493 1498.96238218 1489.7396447 C1499.01514006 1468.5334426 1499.04171173 1447.32733704 1499.01287842 1426.12108135 C1499.01179936 1425.32377162 1499.01072031 1424.52646188 1499.00960856 1423.70499125 C1499.00070701 1417.23285951 1498.9911521 1410.76072871 1498.98153774 1404.288598 C1498.94468822 1379.07490141 1498.99259206 1353.86263026 1499.10820007 1328.64918518 C1499.23834814 1300.22974915 1499.30423565 1271.81119008 1499.2771349 1243.39144069 C1499.27444273 1240.35098554 1499.2719605 1237.31053028 1499.26960754 1234.27007484 C1499.26898408 1233.52160619 1499.26836061 1232.77313753 1499.26771825 1232.00198801 C1499.25964217 1220.78542151 1499.30041101 1209.56973547 1499.36695862 1198.35338402 C1499.44273104 1185.56836299 1499.45007317 1172.78528331 1499.37093687 1160.00024345 C1499.33242294 1153.49508483 1499.32434486 1146.99290791 1499.40060043 1140.48792267 C1499.76126879 1107.43128135 1495.60873848 1083.18170121 1477.96073914 1054.96876526 C1477.06559897 1053.50980095 1476.17144673 1052.05023007 1475.27825356 1050.59007299 C1455.92345964 1019.15301976 1431.06002306 998.40366162 1397.99198914 982.03517151 C1394.38857951 980.24965301 1390.97122365 978.39979967 1387.61698914 976.18360901 C1373.55038496 967.34450491 1356.98431481 968.88022056 1340.98899841 968.95565796 C1332.14864463 968.99365632 1323.31481945 968.87337527 1314.47636414 968.71485901 C1313.02105784 968.68914328 1311.56575083 968.66346805 1310.11044312 968.63783264 C1309.02054061 968.61863077 1309.02054061 968.61863077 1307.90861988 968.59904099 C1307.17840468 968.58618183 1306.44818949 968.57332268 1305.69584656 968.56007385 C1304.59528569 968.54058874 1304.59528569 968.54058874 1303.47249126 968.52070999 C1282.38776491 968.15136421 1261.29876717 967.87638381 1240.21073914 967.84376526 C1239.46297211 967.84117706 1238.71520508 967.83858887 1237.94477844 967.83592224 C1219.21314203 967.51454864 1219.21314203 967.51454864 1200.96073914 970.96876526 Z M1226.96073914 1100.96876526 C1227.11593357 1103.84447676 1227.27236057 1106.72011245 1227.42948914 1109.59571838 C1227.472995 1110.40422241 1227.51650085 1111.21272644 1227.56132507 1112.04573059 C1227.84415381 1117.20015345 1228.22049975 1122.33540403 1228.69510746 1127.47603512 C1229.78894346 1139.79970075 1230.22648269 1152.0894316 1230.49028015 1164.45289612 C1230.53210358 1166.31976623 1230.5739646 1168.18663551 1230.61586094 1170.05350399 C1231.02383799 1188.60859943 1231.29410903 1207.16422273 1231.48808289 1225.72267151 C1231.49815329 1226.66194591 1231.5082237 1227.60122031 1231.51859927 1228.56895757 C1232.29147357 1300.90409059 1232.30239323 1373.24742487 1232.47814882 1445.58583891 C1232.51320915 1459.98944595 1232.55018934 1474.39304717 1232.58842468 1488.79664612 C1232.59114895 1489.82310983 1232.59387323 1490.84957354 1232.59668005 1491.90714221 C1232.61036781 1497.06082509 1232.62408643 1502.21450789 1232.63782036 1507.36819065 C1232.75023928 1549.56837046 1232.85735953 1591.76856239 1232.96073914 1633.96876526 C1242.84655753 1633.99220825 1252.73236903 1634.00983974 1262.61820984 1634.02057743 C1267.21140035 1634.02573779 1271.80457149 1634.03270648 1276.39775085 1634.04420471 C1301.18359071 1634.14603984 1301.18359071 1634.14603984 1325.96073914 1633.58985901 C1326.87258972 1633.55924881 1327.78444031 1633.52863861 1328.72392273 1633.49710083 C1337.87804352 1633.07887753 1345.65936264 1631.73094473 1352.96073914 1625.96876526 C1353.46497686 1625.58900734 1353.96921459 1625.20924941 1354.48873225 1624.81798367 C1360.10939196 1620.45695792 1365.70979023 1615.81035382 1367.176229 1608.56331372 C1367.80174327 1603.33803704 1367.70615268 1598.11898209 1367.62498474 1592.86613464 C1367.64141722 1590.8402765 1367.66350225 1588.81445774 1367.69071507 1586.78871572 C1367.74866044 1581.24794228 1367.72599498 1575.7100372 1367.68947792 1570.16918993 C1367.66412197 1564.18384379 1367.71367565 1558.19904009 1367.75337219 1552.21383667 C1367.81504229 1541.17512804 1367.81744734 1530.13725351 1367.78838193 1519.09845428 C1367.76161738 1508.89822104 1367.75828986 1498.69832355 1367.77822113 1488.49807358 C1367.77950439 1487.8204478 1367.78078764 1487.14282201 1367.78210978 1486.44466212 C1367.78732107 1483.6936665 1367.79260268 1480.94267104 1367.79801414 1478.19167582 C1367.84816552 1452.40328668 1367.82099039 1426.61547594 1367.76022622 1400.82713781 C1367.70681288 1377.93904495 1367.72648072 1355.05208398 1367.80644226 1332.16407776 C1367.89615568 1306.42473781 1367.93659424 1280.68605299 1367.90078092 1254.94655931 C1367.89710401 1252.20006917 1367.89356533 1249.45357888 1367.89009857 1246.70708847 C1367.88875883 1245.69277192 1367.88875883 1245.69277192 1367.88739203 1244.65796412 C1367.87484742 1234.46795011 1367.90002205 1224.27847883 1367.94403839 1214.08856583 C1367.99396691 1202.49464232 1367.98899288 1190.9020827 1367.91693136 1179.30824687 C1367.88155741 1173.39569064 1367.86991916 1167.48569202 1367.92377853 1161.57321739 C1367.97248116 1156.15318914 1367.95115011 1150.73798091 1367.8754572 1145.31830387 C1367.86017058 1143.36490192 1367.86981967 1141.41110018 1367.90781102 1139.45800789 C1368.08100894 1129.84124856 1367.59675183 1122.76932963 1360.90225954 1115.42535951 C1350.84720044 1105.46265757 1341.47539928 1102.11818621 1327.43217468 1101.41236877 C1326.60448169 1101.37018754 1325.77678869 1101.32800631 1324.92401409 1101.28454685 C1315.08977894 1100.82604485 1305.26039426 1100.84338585 1295.41777039 1100.87110901 C1293.42710404 1100.87298043 1291.43643724 1100.8744009 1289.44577026 1100.87539673 C1284.27567715 1100.87916498 1279.10561336 1100.88894464 1273.93553162 1100.90010071 C1268.6320892 1100.9104392 1263.32864191 1100.91492064 1258.02519226 1100.91993713 C1247.67036186 1100.93057368 1237.31555296 1100.94757916 1226.96073914 1100.96876526 Z " fill="#FFFFFF" transform="translate(367.0392608642578,-0.9687652587890625)"/>
<path d="M0 0 C21.89543039 19.75356121 36.99688083 50.24450039 38.82421875 79.5234375 C39.12500524 86.33290942 39.18633851 93.14205803 39.21484375 99.95703125 C39.22020142 100.67379028 39.22555908 101.39054932 39.2310791 102.12902832 C39.40963467 133.65400669 28.15990963 159.55759425 7.96484375 183.70703125 C7.48047852 184.28775391 6.99611328 184.86847656 6.49707031 185.46679688 C-14.68787664 210.45852454 -46.2965675 226.96258492 -79.03515625 229.70703125 C-94.20178956 230.52016077 -109.22861538 230.28559866 -124.03515625 226.70703125 C-124.74816895 226.5354248 -125.46118164 226.36381836 -126.19580078 226.18701172 C-136.74655449 223.55108999 -146.36290715 219.63690052 -156.03515625 214.70703125 C-157.01097656 214.22363281 -157.98679687 213.74023438 -158.9921875 213.2421875 C-188.18619877 198.16487982 -208.7170121 171.08567465 -219.72265625 140.64453125 C-230.41907312 106.39474612 -228.94061149 69.2085976 -212.83911133 36.89746094 C-195.57034342 3.98371042 -166.409237 -20.68677904 -130.97265625 -32.10546875 C-86.00633192 -45.65070756 -34.53508933 -30.4121985 0 0 Z M-143.421875 54.44140625 C-154.56399499 69.12778155 -160.07481865 85.37673659 -158.8203125 103.875 C-156.43585728 121.06578671 -147.3790468 136.65820863 -134.03515625 147.70703125 C-118.8282435 159.19478404 -103.07231974 164.15894956 -84.03515625 162.70703125 C-68.17219766 160.02551279 -56.07718523 151.89895203 -45.03515625 140.70703125 C-44.41769531 140.08828125 -43.80023437 139.46953125 -43.1640625 138.83203125 C-32.50835246 127.31832898 -27.15774604 110.72083086 -27 95.26171875 C-27.79362371 77.95685061 -33.97944793 62.24983889 -46.03515625 49.70703125 C-60.14676741 37.35437446 -77.73760893 29.61227948 -96.72265625 30.32421875 C-115.31290738 32.47262041 -131.07740632 40.29880711 -143.421875 54.44140625 Z " fill="#FFFFFF" transform="translate(1326.03515625,1036.29296875)"/>
<path d="M0 0 C7.88262634 5.59301955 13.92012225 12.76036676 17 22 C17.63638576 30.70074958 17.7945107 38.43598934 13 46 C12.56429687 46.69609375 12.12859375 47.3921875 11.6796875 48.109375 C6.30397123 55.92325767 -1.09033463 61.26676744 -10.3203125 63.58203125 C-21.264212 65.28902432 -29.7163784 61.99866829 -38.75 56.25 C-45.98622437 49.01377563 -49.8789004 40.19022499 -50.375 29.9375 C-49.34939733 19.16867198 -45.10532883 10.69288842 -37.3125 3.1875 C-26.41919742 -5.71767131 -12.2612043 -6.57356473 0 0 Z " fill="#FFFFFF" transform="translate(683,1270)"/>
<path d="M0 0 C8.3869176 5.7721727 14.70615825 13.60491672 16.65625 23.828125 C17.48391118 33.93514132 15.82196888 41.96709091 9.37890625 49.9140625 C2.83672864 57.18314874 -3.80843315 62.17384982 -13.77734375 63.171875 C-24.38234389 63.44584702 -32.02970278 61.7284429 -40.265625 54.91796875 C-47.35122533 47.79241203 -50.36953448 39.3505449 -50.65625 29.453125 C-50.44423816 19.15877211 -47.41196556 12.33456992 -40.34375 4.828125 C-28.89662754 -5.68033342 -13.78254854 -7.9286704 0 0 Z " fill="#FFFFFF" transform="translate(1350.34375,1537.171875)"/>
<path d="M0 0 C8.43635582 6.08622813 14.90678264 13.38830053 17.6875 23.5 C18.93006877 33.44055019 16.53746759 41.79752056 10.7265625 49.8984375 C4.29917093 57.72182362 -3.21280898 62.55895022 -13.3125 63.9375 C-22.17001771 64.43371948 -30.42498265 62.44005618 -37.2578125 56.65625 C-37.83273437 56.1096875 -38.40765625 55.563125 -39 55 C-39.55429687 54.4740625 -40.10859375 53.948125 -40.6796875 53.40625 C-47.64954669 46.05495573 -49.61857013 37.84386992 -49.46826172 27.90039062 C-49.03557746 18.34056041 -45.74650786 11.8609608 -39.21484375 4.9765625 C-35.79251768 1.92242319 -32.16884395 -0.13147861 -28 -2 C-27.071875 -2.433125 -26.14375 -2.86625 -25.1875 -3.3125 C-16.2719327 -5.2354655 -7.96249265 -4.57305321 0 0 Z " fill="#FFFFFF" transform="translate(916,1670)"/>
</svg>
