<?xml version="1.0" standalone="no"?>
<!DOCTYPE svg PUBLIC "-//W3C//DTD SVG 20010904//EN"
 "http://www.w3.org/TR/2001/REC-SVG-20010904/DTD/svg10.dtd">
<svg version="1.0" xmlns="http://www.w3.org/2000/svg"
 width="922.000000pt" height="922.000000pt" viewBox="0 0 922.000000 922.000000"
 preserveAspectRatio="xMidYMid meet">

<g transform="translate(0.000000,922.000000) scale(0.100000,-0.100000)"
fill="#000000" stroke="none">
<path d="M6769 6490 c-59 -10 -93 -28 -152 -80 -64 -57 -86 -104 -98 -208 -11
-98 -6 -138 21 -152 10 -6 64 -10 119 -10 123 0 131 6 131 94 0 61 11 86 38
86 7 0 50 -38 95 -84 92 -94 106 -102 178 -116 79 -15 162 2 226 46 72 50 185
189 181 223 -3 29 -149 161 -179 161 -9 0 -50 -36 -90 -80 -40 -44 -77 -80
-82 -80 -5 0 -48 40 -95 88 -65 67 -97 91 -127 99 -63 18 -116 22 -166 13z"/>
<path d="M3642 6308 c-7 -7 -12 -42 -12 -88 0 -117 -24 -110 363 -110 283 0
328 2 341 16 20 19 23 163 4 182 -9 9 -100 12 -348 12 -248 0 -339 -3 -348
-12z"/>
<path d="M6822 5968 c-9 -9 -12 -297 -12 -1235 0 -1207 0 -1222 20 -1233 12
-7 91 -9 212 -8 l192 3 13 25 c10 20 12 272 10 1233 -2 1061 -4 1209 -17 1217
-23 15 -403 13 -418 -2z"/>
<path d="M4165 5765 c-155 -106 -185 -131 -185 -155 0 -9 39 -74 86 -145 96
-144 149 -248 159 -312 l7 -43 -216 0 -216 0 0 88 c0 134 14 127 -247 127
l-218 0 4 -715 c4 -773 4 -771 59 -874 36 -67 126 -155 199 -194 100 -53 160
-62 419 -62 199 0 242 3 310 20 146 38 256 129 323 270 l36 75 3 689 c2 664 2
693 -18 770 -27 109 -74 201 -192 377 -96 144 -127 179 -158 179 -8 0 -78 -43
-155 -95z"/>
<path d="M5448 5849 c-16 -9 -18 -30 -18 -217 0 -149 3 -211 12 -220 9 -9 71
-12 220 -12 195 0 208 1 218 19 6 12 10 99 10 215 0 164 -3 197 -16 210 -13
14 -46 16 -212 16 -115 0 -204 -5 -214 -11z"/>
<path d="M2500 5684 c-236 -47 -430 -280 -430 -516 l0 -58 -43 0 c-68 0 -155
-19 -216 -48 -74 -35 -187 -148 -224 -225 -57 -117 -57 -117 -57 -1047 0 -758
2 -858 16 -878 15 -22 19 -22 229 -22 181 0 216 2 229 16 14 13 16 55 16 300
l0 284 328 0 c180 0 356 5 392 11 177 28 332 167 387 344 17 56 18 108 18 735
l0 675 -23 67 c-41 118 -128 229 -229 292 -84 52 -141 67 -258 71 -60 2 -121
1 -135 -1z m165 -480 c16 -18 25 -39 25 -60 l0 -34 -80 0 -80 0 0 34 c0 45 38
86 80 86 21 0 39 -9 55 -26z"/>
<path d="M5986 5304 c-14 -14 -16 -63 -16 -415 l0 -399 -315 0 -315 0 0 293
c0 166 -4 298 -10 307 -14 23 -391 28 -426 5 l-24 -15 0 -873 c0 -815 1 -877
18 -938 37 -133 125 -239 249 -301 109 -54 163 -60 554 -56 325 4 347 5 403
26 151 56 263 171 312 322 17 51 19 119 21 1030 3 779 1 980 -10 1000 l-13 25
-206 3 c-178 2 -208 0 -222 -14z"/>
</g>
</svg>
