<?xml version="1.0" encoding="UTF-8"?>
<svg version="1.1" xmlns="http://www.w3.org/2000/svg" width="4500" height="4500">
<path d="M0 0 C1.50374379 -0.00322642 3.00748728 -0.00659143 4.51123047 -0.01008606 C7.67171957 -0.01606369 10.83218143 -0.0179282 13.99267578 -0.01733398 C17.16298275 -0.01725392 20.33314153 -0.02400141 23.50341797 -0.0378418 C40.10204704 -0.10914107 56.64456324 0.02093063 73.21484375 1.0703125 C75.10680481 1.1900518 75.10680481 1.1900518 77.0369873 1.31221008 C146.40504074 6.13304069 207.74777549 38.12572178 254.015625 89.9375 C254.95023989 91.01230712 255.88239255 92.08925865 256.8125 93.16796875 C257.60624023 94.08521729 257.60624023 94.08521729 258.41601562 95.02099609 C283.23080869 123.90718975 303.26425898 157.0283073 316.10918808 192.92615986 C317.78295587 197.53595487 319.61224945 201.99359746 321.66257095 206.44727612 C332.50994221 231.48819148 331.33895053 257.3459609 331.12027768 284.17312692 C331.06361544 291.41692138 331.07314011 298.66030863 331.08384667 305.90426361 C331.10182996 319.28417576 331.069027 332.66349581 331.00609589 346.04325294 C330.94381779 359.31636775 330.90461506 372.58923197 330.8950882 385.86249352 C330.89417168 387.10929526 330.89417168 387.10929526 330.89323665 388.38128493 C330.89024142 392.60547694 330.88763594 396.82966911 330.88517335 401.05386146 C330.86699696 430.92108202 330.79723518 460.78798006 330.69726562 490.6550293 C330.60094224 519.46166175 330.52979963 548.2681799 330.4921875 577.07495117 C330.49102378 577.95939264 330.48986005 578.8438341 330.48866106 579.75507682 C330.47814535 587.76146786 330.467898 595.76785923 330.45793603 603.77425097 C330.21459576 798.57721682 330.21459576 798.57721682 329.33691406 885.77612305 C329.32713317 886.51255233 329.31735228 887.2489816 329.307275 888.00772692 C328.14341577 975.09634167 328.14341577 975.09634167 319.8125 1000.16796875 C319.55903809 1000.94720703 319.30557617 1001.72644531 319.04443359 1002.52929688 C307.03381446 1038.91502001 287.70221257 1071.55856571 261.93359375 1099.828125 C260.00463665 1101.9560169 258.12213647 1104.11517734 256.25 1106.29296875 C242.68380028 1121.82845552 225.99423363 1134.86307187 208.8125 1146.16796875 C207.85859375 1146.79832031 206.9046875 1147.42867187 205.921875 1148.078125 C173.95092095 1168.45751587 137.13845003 1183.03263991 99.171875 1186.20703125 C97.68237335 1186.33343239 97.68237335 1186.33343239 96.16278076 1186.46238708 C86.14447129 1187.27742915 76.1204948 1187.74658178 66.07714844 1188.1184082 C63.13185759 1188.22789059 60.18705837 1188.3466031 57.2421875 1188.46679688 C50.43341136 1188.73641493 43.62327911 1188.95593028 36.8125 1189.16796875 C36.13225163 1189.18929194 35.45200326 1189.21061513 34.75114131 1189.23258448 C2.01079032 1190.24665217 -30.72431331 1190.30436832 -63.47697097 1190.27150697 C-70.976907 1190.26418738 -78.47684124 1190.26284171 -85.97678033 1190.26171082 C-99.34105013 1190.25954649 -112.70531366 1190.25295926 -126.06958008 1190.2434082 C-139.01684539 1190.23416505 -151.96410898 1190.22711845 -164.91137695 1190.22290039 C-166.11760598 1190.22250631 -166.11760598 1190.22250631 -167.34820326 1190.22210426 C-171.38421743 1190.22079879 -175.4202316 1190.21953519 -179.45624578 1190.21829236 C-212.70000174 1190.2080017 -245.94375002 1190.19045693 -279.1875 1190.16796875 C-279.18611731 1191.60403882 -279.18611731 1191.60403882 -279.18470669 1193.06912041 C-279.16213494 1216.77041196 -279.1459031 1240.47170208 -279.13568783 1264.17300224 C-279.13061186 1275.63649768 -279.12370979 1287.09998578 -279.11206055 1298.56347656 C-279.02489013 1386.44908393 -279.02489013 1386.44908393 -279.53902745 1428.60807276 C-279.56574663 1430.86994224 -279.58960963 1433.13182437 -279.61265373 1435.39373398 C-279.76356898 1449.75761336 -280.10038552 1464.09556012 -281.03881836 1478.43310547 C-281.10653977 1479.54444918 -281.17426119 1480.65579288 -281.24403477 1481.80081367 C-282.77939357 1502.74760984 -282.77939357 1502.74760984 -290.1875 1509.16796875 C-306.37428735 1517.26136243 -328.42365531 1515.31950882 -346.17163086 1515.31323242 C-347.89860607 1515.31623446 -349.62558062 1515.31963934 -351.35255432 1515.32341003 C-355.98897564 1515.33214477 -360.62537845 1515.33458355 -365.2618072 1515.33522582 C-368.17051235 1515.33594197 -371.07921294 1515.33808678 -373.98791695 1515.34072304 C-384.16894957 1515.3499393 -394.3499692 1515.35406233 -404.53100586 1515.35327148 C-413.96896489 1515.35267064 -423.40686679 1515.36323339 -432.84481138 1515.37901515 C-440.9956892 1515.39215128 -449.14654847 1515.3974529 -457.29743677 1515.39681607 C-462.14467646 1515.39656301 -466.99186518 1515.39930746 -471.83909416 1515.40999413 C-476.4004585 1515.41977906 -480.96172415 1515.41968426 -485.52309227 1515.41247749 C-487.18131914 1515.41144466 -488.83955251 1515.41371539 -490.4977684 1515.41983795 C-498.98374641 1515.44910199 -507.37311612 1515.20564091 -515.81959534 1514.34028625 C-516.5413523 1514.2711339 -517.26310926 1514.20198155 -518.00673765 1514.13073367 C-524.19089463 1513.42110994 -531.3378763 1512.10247272 -535.5 1507.10546875 C-540.61259707 1500.25229299 -541.65122502 1491.73974884 -542.3125 1483.41796875 C-542.39105225 1482.50297607 -542.46960449 1481.5879834 -542.55053711 1480.64526367 C-545.87888975 1440.1266398 -545.38536114 1399.16280956 -545.71197405 1358.53953668 C-545.74234415 1354.77404092 -545.77372845 1351.00855451 -545.80522132 1347.24306798 C-546.27010478 1291.04670391 -546.33657678 1234.85083559 -546.32280041 1178.65272626 C-546.32042595 1168.77010749 -546.32022672 1158.88749034 -546.32131577 1149.00487137 C-546.32139215 1148.28558573 -546.32146854 1147.56630009 -546.32154724 1146.82521791 C-546.3218589 1143.90075778 -546.32217733 1140.97629765 -546.322507 1138.05183752 C-546.32551866 1111.00762093 -546.32286874 1083.96340773 -546.3174101 1056.91919168 C-546.31266054 1033.20817025 -546.31310256 1009.4971542 -546.31787109 985.78613281 C-546.32329243 958.74306489 -546.32531351 931.69999991 -546.32225883 904.65693152 C-546.32193841 901.74541513 -546.32162555 898.83389874 -546.32131577 895.92238235 C-546.32123669 895.20621227 -546.32115761 894.49004218 -546.32107614 893.75216997 C-546.32003858 883.89812384 -546.32089763 874.04407968 -546.32330263 864.19003382 C-546.33631383 810.02272932 -546.28593809 755.85885326 -545.74169922 701.69384766 C-545.73188991 700.69284105 -545.72208061 699.69183444 -545.71197405 698.6604943 C-545.36199033 662.97831824 -545.01013526 627.25359527 -543.3125 591.60546875 C-543.25047394 590.27363052 -543.25047394 590.27363052 -543.18719482 588.91488647 C-539.89037108 519.13723568 -525.984049 459.30754418 -477.3828125 406.57421875 C-475.55607095 404.57195399 -473.78620026 402.53905173 -472.01953125 400.484375 C-467.80079278 395.65185851 -463.29525213 391.12905964 -458.75 386.60546875 C-457.94240234 385.79400391 -457.13480469 384.98253906 -456.30273438 384.14648438 C-451.42788983 379.27949615 -446.44675123 374.61644956 -441.1875 370.16796875 C-440.26432983 369.38474243 -440.26432983 369.38474243 -439.32250977 368.58569336 C-429.69443291 360.49192086 -419.79078941 352.94192575 -409.1875 346.16796875 C-408.57535645 345.77657715 -407.96321289 345.38518555 -407.33251953 344.98193359 C-380.65601299 328.2637064 -348.91206487 320.39089957 -318.1875 315.16796875 C-317.23601074 315.00280762 -316.28452148 314.83764648 -315.30419922 314.66748047 C-294.73444832 311.24685293 -273.96442205 311.86595609 -253.1875 312.16796875 C-253.19638245 311.57868591 -253.20526489 310.98940308 -253.2144165 310.38226318 C-254.01978694 254.35456472 -254.01978694 254.35456472 -249.1875 232.16796875 C-248.97319336 231.1507373 -248.75888672 230.13350586 -248.53808594 229.08544922 C-243.74058123 206.85421742 -236.113274 185.60669787 -226.1875 165.16796875 C-225.78724609 164.33620117 -225.38699219 163.50443359 -224.97460938 162.64746094 C-215.33912874 142.83782319 -203.1555071 124.20382434 -189.1875 107.16796875 C-188.54917236 106.38752197 -188.54917236 106.38752197 -187.89794922 105.59130859 C-176.08172068 91.20764578 -163.47851529 77.13412988 -149.1875 65.16796875 C-148.66365723 64.72501465 -148.13981445 64.28206055 -147.60009766 63.82568359 C-107.01119325 29.62608477 -54.31136949 0.02772488 0 0 Z M6.4921875 264.9609375 C-4.53834174 280.36704568 -3.1875 292.09947357 -3.1875 312.16796875 C24.8625 312.16796875 52.9125 312.16796875 81.8125 312.16796875 C83.05345158 289.03551442 83.05345158 289.03551442 74.3125 268.73046875 C73.70019531 267.9209375 73.08789062 267.11140625 72.45703125 266.27734375 C71.91433594 265.58125 71.37164063 264.88515625 70.8125 264.16796875 C70.214375 263.28109375 69.61625 262.39421875 69 261.48046875 C61.10426772 253.13355177 50.91390959 248.13026245 39.4375 247.60546875 C25.94708749 248.11695358 15.00142853 254.71833255 6.4921875 264.9609375 Z " fill="#FFFFFF" transform="translate(1146.1875,1716.83203125)"/>
<path d="M0 0 C1.34917199 -0.00065748 2.69834395 -0.00139136 4.04751587 -0.00219727 C56.98979962 -0.01373112 109.94312818 1.2339137 162.875 2.1875 C164.18895963 4.70329571 165.4902413 7.22442213 166.78515625 9.75 C167.33943298 10.80670898 167.33943298 10.80670898 167.90490723 11.88476562 C171.28828072 18.52528161 172.39417865 24.75963908 172.875 32.1875 C172.97039063 33.30125 173.06578125 34.415 173.1640625 35.5625 C175.00585153 59.9793603 175.07374192 84.59709838 175.39947405 109.0744407 C175.42991815 111.3558778 175.46127183 113.63730122 175.49272132 115.91872466 C175.92332447 147.45999334 176.0240753 178.99818122 176.01015949 210.5419883 C176.00786093 215.98822323 176.00796166 221.43445444 176.00938225 226.88068962 C176.00959061 227.6842048 176.00979898 228.48771997 176.01001366 229.31558409 C176.01044718 230.95641377 176.01088441 232.59724345 176.01132525 234.23807313 C176.01541737 250.57390598 176.01208096 266.9097319 176.00581557 283.24556369 C176.00513297 285.02815258 176.00445203 286.81074148 176.00377274 288.59333038 C176.0032661 289.92253461 176.0032661 289.92253461 176.00274923 291.27859144 C175.99942212 300.34249463 175.99802742 309.4063979 175.9967161 318.47030157 C175.98292449 411.33952904 175.87045113 504.20841506 175.46091722 647.16705519 C175.44283996 653.04671136 175.42513281 658.92636855 175.40763092 664.80602646 C175.19732251 735.36679831 174.91402146 805.92684608 174.44846878 876.48644159 C174.41814541 881.08786334 174.38852477 885.68928877 174.35961838 890.29071964 C174.16336538 921.51483558 173.89913735 952.73670224 173.42787822 983.95801643 C173.39755511 985.9748082 173.36790507 987.99161006 173.33827388 990.00841212 C171.78105054 1094.445404 171.78105054 1094.445404 163.875 1117.1875 C163.62685547 1117.94740234 163.37871094 1118.70730469 163.12304688 1119.49023438 C146.80571884 1169.36802431 114.53512607 1218.01911777 71.5390625 1248.98095703 C69.74432775 1250.28224505 67.9812642 1251.62027869 66.21875 1252.96484375 C10.88583303 1294.87566834 -47.62674711 1302.67129073 -114.72314453 1303.95239258 C-115.68441474 1303.97081837 -116.64568495 1303.98924416 -117.63608456 1304.0082283 C-119.71734655 1304.0478547 -121.79861345 1304.08722365 -123.87988472 1304.12635994 C-126.04216907 1304.16709877 -128.20444512 1304.20828051 -130.36671257 1304.24990654 C-180.42218456 1305.21061132 -230.47044629 1305.37569341 -280.53405404 1305.37261063 C-288.94977806 1305.37296347 -297.36546065 1305.38462306 -305.78117162 1305.3985464 C-314.08623502 1305.41177162 -322.3912803 1305.41698094 -330.69635409 1305.41634732 C-335.57702241 1305.41609809 -340.45763965 1305.41862126 -345.33829689 1305.42952538 C-409.70798318 1305.56343937 -472.08179522 1302.89059645 -530.125 1272.1875 C-530.84252441 1271.81012695 -531.56004883 1271.43275391 -532.29931641 1271.04394531 C-547.23270239 1263.13517746 -561.17876416 1254.07592366 -574.125 1243.1875 C-574.87716797 1242.5685083 -574.87716797 1242.5685083 -575.64453125 1241.93701172 C-589.35180377 1230.65468329 -602.37994654 1218.363747 -613.125 1204.1875 C-613.88562744 1203.20885986 -613.88562744 1203.20885986 -614.66162109 1202.21044922 C-624.01659901 1190.15334161 -632.01225693 1177.68640255 -639.125 1164.1875 C-639.83052002 1162.858396 -639.83052002 1162.858396 -640.55029297 1161.50244141 C-668.61427057 1107.90285975 -667.86541891 1050.45325161 -668.63393033 991.4076187 C-668.6643409 989.07614419 -668.69559931 986.744682 -668.72693111 984.4132197 C-669.215187 947.72281635 -669.34440752 911.03214836 -669.42535371 874.33894186 C-669.44051268 867.50189056 -669.45768422 860.6648464 -669.47592163 853.82780266 C-669.67757996 778.04564277 -669.79166295 702.26327009 -669.87661848 626.48089715 C-669.88888248 615.57995638 -669.9016265 604.67901618 -669.91455078 593.77807617 C-669.91596776 592.57400194 -669.91738474 591.3699277 -669.91884466 590.12936637 C-669.96532332 550.90152802 -670.05667173 511.67395084 -670.17139695 472.44625749 C-670.28955906 431.96934852 -670.36548781 391.49258249 -670.38698688 351.01550094 C-670.39003202 345.30808416 -670.39354762 339.60066775 -670.39734268 333.89325142 C-670.39807268 332.77030194 -670.39880268 331.64735245 -670.3995548 330.4903742 C-670.41251279 312.43005158 -670.469864 294.37013107 -670.54377765 276.30996647 C-670.61687517 258.21048866 -670.64278177 240.11143449 -670.6200311 222.01181882 C-670.60794743 211.26132392 -670.63225856 200.51233228 -670.70823127 189.76209137 C-670.75537123 182.58856267 -670.75555218 175.41603751 -670.71713774 168.24245902 C-670.69658671 164.15224746 -670.69679031 160.06489509 -670.75416015 155.97497093 C-670.80594827 152.25434597 -670.79790776 148.5388331 -670.74206101 144.81831062 C-670.72795974 142.85023161 -670.77772605 140.88201172 -670.8300373 138.91457751 C-670.73786772 135.24082204 -670.52883377 132.58914916 -669.125 129.1875 C-659.60519232 120.65103117 -647.90385333 117.95743794 -635.5625 116.5625 C-634.49531738 116.43697754 -633.42813477 116.31145508 -632.32861328 116.18212891 C-623.93008837 115.22131836 -615.57272758 114.52981272 -607.125 114.1875 C-606.1880127 114.14383301 -605.25102539 114.10016602 -604.28564453 114.05517578 C-552.95265005 111.69695469 -500.36642539 111.7196578 -449.25 117.625 C-448.27667725 117.73505371 -447.30335449 117.84510742 -446.30053711 117.95849609 C-430.49674668 119.93966888 -430.49674668 119.93966888 -424.125 124.1875 C-417.47139752 145.3341908 -420.08657909 172.58190899 -419.57250977 194.60668945 C-419.55134381 195.50413584 -419.53017786 196.40158223 -419.50837052 197.32622397 C-418.95888712 221.33279035 -418.9952449 245.34012044 -419.02371979 269.35163116 C-419.02954436 275.08358301 -419.02968976 280.81553051 -419.03039551 286.54748535 C-419.03558023 303.15665954 -419.04954102 319.76583006 -419.0625 336.375 C-419.083125 373.603125 -419.10375 410.83125 -419.125 449.1875 C-306.925 449.1875 -194.725 449.1875 -79.125 449.1875 C-79.16443753 345.90563696 -79.16443753 345.90563696 -79.21508789 242.6237793 C-79.21960449 222.42346191 -79.21960449 222.42346191 -79.22044373 212.89851379 C-79.22135697 206.39562089 -79.22496495 199.89273717 -79.23057556 193.3898468 C-79.25862534 159.60380011 -79.22208452 125.82030446 -78.77119629 92.03675331 C-78.74469239 89.98661439 -78.72084999 87.93646208 -78.69783032 85.88628137 C-78.53145885 71.84127344 -78.16759339 57.81433294 -77.39196939 43.78952494 C-77.31491001 42.38848947 -77.24106652 40.98727233 -77.17089831 39.58587483 C-75.92402163 15.22492132 -75.92402163 15.22492132 -70.875 8.5 C-54.6086737 -5.17850166 -19.71545829 -0.01104052 0 0 Z " fill="#FFFFFF" transform="translate(3130.125,1917.8125)"/>
<path d="M0 0 C10.58723866 6.04279407 18.05386234 14.39340122 25.51171875 23.87109375 C26.44707897 25.01997459 27.38467729 26.16703601 28.32421875 27.3125 C35.25203052 35.79225116 41.66897922 44.5450988 47.89697266 53.54833984 C49.51868856 55.88111957 51.15933718 58.19946693 52.8046875 60.515625 C62.26882941 73.90049558 71.30945502 87.55607956 80.32421875 101.24609375 C80.94360321 102.18667633 81.56298767 103.12725891 82.20114136 104.09634399 C103.46154545 136.40276842 103.46154545 136.40276842 111.82421875 149.93359375 C112.35635986 150.7944458 112.88850098 151.65529785 113.43676758 152.54223633 C119.99075121 163.20403203 126.28143193 174.0177759 132.51171875 184.87109375 C132.96111816 185.64984863 133.41051758 186.42860352 133.87353516 187.23095703 C165.1665044 241.62431559 185.73662413 299.6851065 188.5629425 362.56361389 C188.60724619 363.54752104 188.65154988 364.53142819 188.6971961 365.5451507 C189.57991364 385.5631341 189.79611028 405.54751828 189.75851615 425.58206898 C189.75172044 430.43890673 189.75688261 435.29573712 189.76031399 440.15257645 C189.76523801 449.64585052 189.75967917 459.13908918 189.75040002 468.63235883 C189.73987877 479.87535665 189.74075457 491.11834663 189.74178606 502.36134831 C189.74342298 525.21837008 189.73134611 548.07537105 189.71455336 570.93238574 C189.70186183 588.34388011 189.69356881 605.75537209 189.68795776 623.16687012 C189.65445659 724.11476493 189.61175955 825.06313455 189.08956194 959.13116312 C189.0742394 962.61639561 189.05933497 966.10162966 189.04455185 969.58686447 C188.98550298 983.4448677 188.91885303 997.30280813 188.8431077 1011.16073012 C188.82866233 1013.87934427 188.81542933 1016.59796146 188.80259323 1019.31658363 C188.75990505 1028.11512903 188.69971167 1036.91305082 188.59293222 1045.71107465 C188.5424799 1049.88031878 188.5024682 1054.04930934 188.47822189 1058.21879578 C188.45063066 1062.78209827 188.39819253 1067.34457247 188.33018482 1071.90744448 C188.30820671 1073.63693166 188.29413539 1075.36654162 188.2888633 1077.09616041 C188.23834829 1090.83926731 185.60146951 1100.65341169 178.05224609 1112.35058594 C175.28060605 1116.88535802 173.16862725 1121.73684644 170.94921875 1126.55859375 C158.29139947 1153.18658147 143.61450056 1177.83675267 123.56640625 1199.6328125 C121.63069272 1201.74148902 119.75351899 1203.88895703 117.88671875 1206.05859375 C112.23529656 1212.52849778 106.09130852 1218.35508267 99.51171875 1223.87109375 C99.00141113 1224.3005127 98.49110352 1224.72993164 97.96533203 1225.17236328 C83.60435889 1237.1817838 68.05073647 1247.13207065 51.51171875 1255.87109375 C50.79757812 1256.25587891 50.0834375 1256.64066406 49.34765625 1257.03710938 C-2.85934726 1284.82324104 -61.3009387 1288.02990559 -119.19849348 1288.03835082 C-121.97688076 1288.03906966 -124.75526335 1288.04121957 -127.53364944 1288.04384804 C-137.29685013 1288.05306426 -147.0600373 1288.05718831 -156.82324219 1288.05639648 C-165.8070056 1288.05579924 -174.79070828 1288.06629093 -183.77445638 1288.08214015 C-191.57751497 1288.09539679 -199.3805542 1288.10057283 -207.18362391 1288.09994107 C-211.803421 1288.09969098 -216.4231642 1288.10226006 -221.04294968 1288.11311913 C-239.70474355 1288.15383849 -258.31247902 1287.95158291 -276.95166016 1286.9699707 C-277.71792308 1286.9302862 -278.484186 1286.8906017 -279.273669 1286.84971464 C-359.16450419 1282.60514667 -423.8962827 1252.06464777 -478.48828125 1193.87109375 C-480.85369827 1191.15159424 -483.12526846 1188.3895491 -485.35546875 1185.55859375 C-487.61311391 1182.71379546 -489.98458705 1179.99016731 -492.36328125 1177.24609375 C-525.05260366 1137.80735808 -534.6224959 1091.85106668 -537.50390625 1042.0078125 C-537.54658064 1041.27735466 -537.58925503 1040.54689682 -537.63322258 1039.79430389 C-539.95052918 999.7861667 -540.50406574 959.64566774 -540.98636436 919.5790595 C-541.01642331 917.09491405 -541.04729666 914.61077975 -541.07833862 912.1266464 C-541.50686589 877.69143822 -541.75651936 843.25584765 -541.94723887 808.81860896 C-541.99419805 800.36017227 -542.04449237 791.90175601 -542.09480403 783.44333871 C-542.19139525 767.18863998 -542.28507117 750.93392563 -542.37730823 734.67920168 C-542.45689554 720.65578747 -542.53758564 706.63238011 -542.61932373 692.60897827 C-542.62749516 691.20676701 -542.62749516 691.20676701 -542.63583167 689.77622824 C-542.65785592 685.9973465 -542.67988709 682.2184648 -542.70192782 678.43958315 C-542.88518286 647.02049076 -543.06634451 615.60138686 -543.24567756 584.18227185 C-543.41994759 553.65038865 -543.59823228 523.1185336 -543.78122115 492.58670121 C-543.86129557 479.21604768 -543.93976775 465.84538475 -544.0177803 452.47471905 C-544.02861542 450.6185932 -544.03945294 448.76246737 -544.05029297 446.90634155 C-544.05555583 446.00513787 -544.06081869 445.10393418 -544.06624103 444.1754213 C-544.10180716 438.10120576 -544.13833078 432.02699649 -544.17529297 425.95278931 C-544.45475893 379.92511672 -544.53762334 333.8996022 -544.48828125 287.87109375 C-519.52975753 287.8241458 -494.57124054 287.78899413 -469.61268139 287.76746941 C-458.02115073 287.75720461 -446.42964769 287.74323731 -434.83813477 287.72021484 C-424.72212192 287.70013271 -414.6061291 287.68734257 -404.49009687 287.68291676 C-399.14543857 287.68033418 -393.80083749 287.67436713 -388.45619774 287.65963364 C-350.09226159 287.55839254 -350.09226159 287.55839254 -333.9699707 288.69580078 C-332.96411265 288.76513258 -331.9582546 288.83446438 -330.92191601 288.90589714 C-318.86012783 289.92830797 -305.4836507 291.73076269 -297.11328125 301.30859375 C-282.33076514 327.00201462 -291.48828125 399.31789136 -291.48828125 404.87109375 C-214.59828125 404.87109375 -137.70828125 404.87109375 -58.48828125 404.87109375 C-59.14828125 402.23109375 -59.80828125 399.59109375 -60.48828125 396.87109375 C-60.80192282 395.17276454 -61.09197349 393.46973499 -61.34765625 391.76171875 C-71.67254729 325.94272706 -113.05353381 267.60648074 -149.0078125 213.00390625 C-161.44723923 194.10514304 -173.81385862 175.16989072 -185.11328125 155.55859375 C-185.58628662 154.74132813 -186.05929199 153.9240625 -186.54663086 153.08203125 C-196.09824277 136.26651567 -196.09824277 136.26651567 -195.23828125 130.24609375 C-189.70897146 113.11130956 -168.22379317 100.89804406 -154.48828125 90.87109375 C-153.35447021 90.03940674 -153.35447021 90.03940674 -152.19775391 89.19091797 C-130.65436673 73.4020409 -108.53303117 58.48075565 -86.28044128 43.71846008 C-82.30644769 41.08149248 -78.33897128 38.43521319 -74.37890625 35.77734375 C-59.04681068 25.48769953 -43.54551597 15.58514234 -27.61328125 6.24609375 C-26.58420654 5.64152344 -25.55513184 5.03695313 -24.49487305 4.4140625 C-23.52590088 3.85074219 -22.55692871 3.28742188 -21.55859375 2.70703125 C-20.70023926 2.2073584 -19.84188477 1.70768555 -18.95751953 1.19287109 C-12.23644293 -2.40490513 -7.08965486 -3.21649962 0 0 Z " fill="#FFFFFF" transform="translate(2145.48828125,1619.12890625)"/>
<path d="M0 0 C1.07580322 0.07460449 2.15160645 0.14920898 3.26000977 0.22607422 C6.18139008 0.45458817 9.08797056 0.7366252 12 1.0625 C12.94359375 1.16191895 13.8871875 1.26133789 14.859375 1.36376953 C21.40843221 2.30898209 21.40843221 2.30898209 24.0546875 5.6796875 C25.12504539 9.50997647 25.76746678 13.23856076 26.125 17.1875 C26.20355225 17.98043457 26.28210449 18.77336914 26.36303711 19.59033203 C27.22543777 28.73483019 27.67591759 37.88500943 28 47.0625 C28.0397998 48.15868652 28.07959961 49.25487305 28.12060547 50.38427734 C28.85627002 71.46664863 29.1840109 92.55831329 29.49829102 113.65039062 C29.51449186 114.73125177 29.51449186 114.73125177 29.53102 115.83394849 C30.0157498 148.24176836 30.29470559 180.64962658 30.49864316 213.06028938 C30.52802058 217.72217973 30.55858941 222.38406194 30.58921623 227.04594421 C31.07822353 301.75438922 31.34089731 376.46344437 31.54001667 451.17315603 C31.55760511 457.76406531 31.57562382 464.35497331 31.59383392 470.94588089 C31.86800656 570.35579346 32.03228878 669.76572915 32.12211341 897.87070286 C32.12344653 911.22663792 32.12533112 924.58257235 32.12877274 937.93850708 C32.12910948 939.24629652 32.12944622 940.55408596 32.12979317 941.90150538 C32.13047391 944.53379254 32.13115501 947.1660797 32.13183648 949.79836685 C32.13804089 974.03931587 32.14001195 998.2802607 32.13566166 1022.52121025 C32.13523108 1024.96262205 32.13480458 1027.40403384 32.13438225 1029.84544563 C32.13417417 1031.04207275 32.13396609 1032.23869987 32.1337517 1033.47158841 C32.13257353 1041.57764749 32.13377393 1049.68370376 32.13614082 1057.7897625 C32.14877586 1105.05313333 32.02988425 1152.31232081 31.58563146 1199.57384904 C31.55491046 1202.85590021 31.52508464 1206.13795857 31.49537492 1209.42001903 C31.29944237 1230.75307261 31.03141691 1252.08236104 30.5239563 1273.4105072 C30.50498318 1274.2316434 30.48601006 1275.0527796 30.466462 1275.89879871 C29.26627793 1326.90939136 29.26627793 1326.90939136 23.1875 1339.5 C22.70667969 1340.52996094 22.22585937 1341.55992188 21.73046875 1342.62109375 C20 1345.0625 20 1345.0625 17.6784668 1345.70225525 C15.2300056 1346.03156502 12.8823811 1346.21818382 10.4140625 1346.26782227 C9.05229889 1346.29771744 9.05229889 1346.29771744 7.6630249 1346.32821655 C6.66047668 1346.34494415 5.65792847 1346.36167175 4.625 1346.37890625 C3.52980042 1346.3998233 2.43460083 1346.42074036 1.30621338 1346.44229126 C-2.46244116 1346.51030225 -6.23115192 1346.56876113 -10 1346.625 C-10.9857476 1346.64028936 -10.9857476 1346.64028936 -11.9914093 1346.6558876 C-43.26552431 1347.14025157 -74.54338751 1347.20420244 -105.82067871 1347.24372482 C-109.72226129 1347.2499557 -113.6238186 1347.25985844 -117.52539062 1347.27078247 C-123.80207257 1347.28768868 -130.07868126 1347.29356764 -136.35538483 1347.29175949 C-138.67724214 1347.29254674 -140.99910136 1347.29658229 -143.32094574 1347.30437088 C-155.93240387 1347.34344048 -168.47992738 1347.05256771 -181.06738281 1346.2355957 C-182.22676739 1346.16639766 -183.38615196 1346.09719961 -184.5806694 1346.02590466 C-190.94817392 1345.56530889 -197.21214754 1344.96117373 -203 1342.0625 C-215.44487935 1326.40603889 -210.1460639 1285.40533172 -210.52392578 1265.82519531 C-210.54451498 1264.77445469 -210.56510418 1263.72371408 -210.5863173 1262.64113283 C-211.29944662 1225.16443552 -211.36959929 1187.67719925 -211.53968364 1150.19507849 C-211.5548249 1146.89190011 -211.5703831 1143.58872396 -211.5860877 1140.28554821 C-211.99429096 1054.42505473 -212.11923222 968.56500352 -212.12946185 780.42863911 C-212.12513337 758.36362234 -212.12548436 736.29861033 -212.12991711 714.23359361 C-212.14482313 639.83788913 -212.14908686 565.44214663 -211.59406358 320.1909115 C-211.59143154 319.44968098 -211.5887995 318.70845046 -211.5860877 317.94475842 C-211.58346452 317.20607326 -211.58084133 316.4673881 -211.57813865 315.70631854 C-211.55998078 310.57895497 -211.54232401 305.45158985 -211.52496576 300.32422352 C-210.78963631 83.2367851 -210.78963631 83.2367851 -208.0625 27.625 C-208.02488556 26.81946686 -207.98727112 26.01393372 -207.94851685 25.18399048 C-207.84090604 22.93585714 -207.72148987 20.68869769 -207.59765625 18.44140625 C-207.53070557 17.1788501 -207.46375488 15.91629395 -207.39477539 14.61547852 C-206.9771951 10.85725586 -206.13870647 7.65709281 -205 4.0625 C-198.55418637 2.50165962 -192.29193211 1.5494309 -185.6875 1 C-184.71949463 0.91693604 -183.75148926 0.83387207 -182.75415039 0.74829102 C-173.17463184 -0.04758925 -163.60520255 -0.58214886 -154 -0.9375 C-152.88254395 -0.98261719 -151.76508789 -1.02773437 -150.61376953 -1.07421875 C-100.63728468 -3.0245206 -49.90235961 -3.46822248 0 0 Z " fill="#FFFFFF" transform="translate(3737,1552.9375)"/>
<path d="M0 0 C0.96454102 0.21430664 1.92908203 0.42861328 2.92285156 0.64941406 C39.87223479 9.11364423 62.47918223 34.30761274 88.3125 60.3125 C91.92134915 63.94516808 95.53195792 67.57605435 99.14681053 71.20274925 C100.57119489 72.63350659 101.99247125 74.06735597 103.41365051 75.501297 C107.903401 80.00793137 112.43576713 84.38761938 117.27488708 88.51890564 C120.75463084 91.50643695 124.07141561 94.6775556 127.41796875 97.8125 C131.45678533 101.73932046 131.45678533 101.73932046 136 105 C145.2094302 104.01506692 154.62732568 90.52810411 161.05102539 84.0793457 C162.69239796 82.43258596 164.33908819 80.79127905 165.98632812 79.15039062 C170.95606424 74.18388286 175.84298922 69.18885675 180.40991211 63.84399414 C183.31868124 60.4707509 186.38542196 57.2432016 189.4375 54 C190.09564697 53.30011963 190.75379395 52.60023926 191.43188477 51.87915039 C220.98730965 20.53293063 220.98730965 20.53293063 231.23828125 19.75390625 C241.90472315 20.45171086 251.94328497 29.60365916 260 36 C260.81855469 36.63679688 261.63710937 37.27359375 262.48046875 37.9296875 C325.59387028 87.5555595 325.59387028 87.5555595 328.5 108.625 C327.49015817 129.99325302 304.816674 153.77507524 291.51953125 169.078125 C289.06963657 171.91924317 286.71786655 174.82040522 284.375 177.75 C280.86133487 182.07306299 277.1092485 185.99833595 273.12109375 189.8828125 C271.12592462 191.87430728 269.27246099 193.92379263 267.4375 196.0625 C262.16758339 202.18240316 256.43950943 207.78651136 250.30078125 213.03125 C248.57194927 214.5105901 246.8644636 216.01493461 245.16796875 217.53125 C212.88920152 246.08671789 170.34492892 258.87913538 127.63623047 256.73095703 C78.02015382 253.40969692 48.69492798 230.10451591 14.86334229 195.94238281 C10.27313049 191.30849462 5.67575905 186.68173502 1.07516098 182.05816078 C-0.51137008 180.46156107 -2.09436364 178.86151943 -3.67697144 177.2610321 C-8.94320646 171.95090007 -14.30507378 166.84812384 -20 162 C-21.62797778 160.50323237 -23.25344612 159.00372471 -24.875 157.5 C-32.64998722 149.74728437 -32.64998722 149.74728437 -42.41796875 145.76953125 C-47.53664143 146.54976444 -50.74481782 148.85589982 -53.7890625 152.9765625 C-61.53973862 165.92769227 -60.324902 184.05496865 -60.45629883 198.72363281 C-60.73292792 224.83012334 -60.73292792 224.83012334 -68.29296875 233.45703125 C-82.79377081 246.56416355 -110.3337089 243.20639439 -128.5 243.1875 C-129.48267853 243.18722809 -130.46535706 243.18695618 -131.47781372 243.18667603 C-144.15078347 243.17061884 -156.78732063 242.97022193 -169.4375 242.1875 C-171.21640625 242.08248169 -171.21640625 242.08248169 -173.03125 241.9753418 C-196.23587554 240.30526147 -196.23587554 240.30526147 -203.453125 232.94921875 C-219.38790361 212.86978813 -211.57652361 176.06067304 -208.91798401 152.95832825 C-203.11753631 104.14265345 -187.26122368 65.47393479 -147.89453125 34.2734375 C-146.93933594 33.52320313 -145.98414062 32.77296875 -145 32 C-143.91927942 31.11877145 -142.8399073 30.23588721 -141.76171875 29.3515625 C-123.40383423 14.41736029 -104.08987638 4.34580833 -81 -1 C-80.32324219 -1.16516113 -79.64648438 -1.33032227 -78.94921875 -1.50048828 C-53.98459673 -7.35990321 -24.77342769 -5.61827477 0 0 Z " fill="#FFFFFF" transform="translate(3576,1256)"/>
<path d="M0 0 C6.27450221 0.00571802 12.5489618 0.00239066 18.82346249 -0.00357246 C23.73887949 -0.00722103 28.65428672 -0.00602034 33.56970406 -0.00344467 C35.88125171 -0.00278837 38.19280031 -0.00355712 40.50434685 -0.00592422 C102.77382425 -0.05577685 102.77382425 -0.05577685 112.95092773 9.31787109 C119.93729735 21.40966467 119.61431553 36.58300654 120.12231445 50.17456055 C120.16498884 51.30910581 120.20766323 52.44365107 120.25163078 53.61257648 C120.66494125 65.40459013 120.7214301 77.18781994 120.70874023 88.98583984 C120.70941768 91.27338165 120.71039132 93.56092339 120.7116394 95.84846497 C120.7130972 100.60039976 120.71102566 105.35231551 120.70629883 110.10424805 C120.70061825 116.09665023 120.70397692 122.08900786 120.70973682 128.0814085 C120.79332972 230.32165536 120.79332972 230.32165536 114.01342773 243.06787109 C98.99218226 255.77815573 66.16634496 250.29451026 47.54647422 250.29762816 C45.12608668 250.29834699 42.70570455 250.30049694 40.28531837 250.30312538 C31.77582067 250.31234542 23.26633847 250.31646541 14.75683594 250.31567383 C6.93472764 250.31507737 -0.88731074 250.32555239 -8.70940143 250.34141749 C-15.50770607 250.35469405 -22.30598849 250.35984934 -29.10430592 250.35921842 C-33.1271675 250.35896877 -37.14996714 250.36151078 -41.17281532 250.37239647 C-58.06950485 250.4146972 -74.91896976 250.16531727 -91.79589844 249.3034668 C-92.53714545 249.26885294 -93.27839246 249.23423909 -94.0421015 249.19857633 C-114.69943464 248.20610823 -114.69943464 248.20610823 -122.42407227 245.13037109 C-129.04051319 236.71400433 -127.98976958 223.35285773 -128.5324707 213.12060547 C-128.57439529 212.36236827 -128.61631988 211.60413107 -128.6595149 210.82291698 C-129.55527492 194.40948009 -129.72136042 178.01937497 -129.69272327 161.58522987 C-129.68749736 157.61553358 -129.69239819 153.64584433 -129.69549561 149.67614746 C-129.69908539 143.0309885 -129.69446674 136.38587469 -129.68481445 129.74072266 C-129.67390347 122.14299502 -129.67749508 114.5453746 -129.68846726 106.94764948 C-129.69764186 100.31981592 -129.69877759 93.69201396 -129.69358993 87.06417608 C-129.69052984 83.15086461 -129.68989101 79.23760297 -129.6966629 75.32429504 C-129.71838193 60.60159403 -129.61010204 45.90537258 -128.6574707 31.20654297 C-128.59678532 30.14055122 -128.53609993 29.07455948 -128.47357559 27.97626495 C-127.9550311 21.11442634 -126.9255252 14.16455336 -123.42407227 8.13037109 C-115.16162193 2.2344808 -103.35040859 2.72857079 -93.54907227 2.06787109 C-92.51911133 1.98988281 -91.48915039 1.91189453 -90.42797852 1.83154297 C-86.42868159 1.55117511 -82.42808338 1.32910408 -78.42407227 1.13037109 C-77.53215179 1.08553589 -76.64023132 1.04070068 -75.72128296 0.99450684 C-50.49743256 -0.20100277 -25.24526529 -0.02322509 0 0 Z " fill="#FFFFFF" transform="translate(2888.424072265625,1603.86962890625)"/>
<path d="M0 0 C6.53472558 0.00257458 13.06944992 0.00017214 19.60417557 -0.00138617 C31.26471688 -0.00350592 42.92525114 -0.00024737 54.58579123 0.00487317 C65.07784433 0.00933857 75.56988634 0.00856183 86.06193924 0.00395441 C98.35697851 -0.00144252 110.65201076 -0.00336527 122.94705105 -0.00043333 C129.41480334 0.00110655 135.88254807 0.0013875 142.35029984 -0.00196981 C251.43877317 -0.0507339 251.43877317 -0.0507339 260.23869705 7.907763 C261.59767012 10.81984816 262.26695632 13.60825672 262.90275955 16.7593255 C263.14252518 17.90659113 263.3822908 19.05385675 263.62932205 20.235888 C265.28117767 30.1669236 265.4805583 40.02352263 265.46525955 50.0718255 C265.4646553 50.802875 265.46405106 51.5339245 265.4634285 52.28712702 C265.36368282 96.76457589 265.36368282 96.76457589 254.27775955 108.1343255 C235.788946 120.01150766 197.10048424 114.28444706 176.25651932 114.27958918 C173.64332914 114.28259033 171.0301394 114.28599502 168.41695023 114.28976679 C162.11925229 114.2979733 155.82156372 114.30081695 149.52386088 114.30137917 C144.39497557 114.30185878 139.26609329 114.30393536 134.13720894 114.30707979 C119.5198494 114.31585606 104.90249711 114.32050349 90.28513492 114.31974932 C89.50177087 114.31970936 88.71840683 114.31966941 87.91130447 114.31962824 C86.73478611 114.31956692 86.73478611 114.31956692 85.5344997 114.31950436 C72.82354457 114.31909789 60.11261906 114.32867556 47.40167249 114.34276661 C34.27569584 114.3572004 21.14973358 114.36403309 8.02374882 114.36317283 C0.6842024 114.36284345 -6.6553129 114.36547572 -13.99485207 114.37635088 C-20.90045607 114.38651981 -27.80599383 114.38604982 -34.71160126 114.37883425 C-37.22477376 114.3777998 -39.73795052 114.3800822 -42.2511158 114.38619471 C-104.68462168 114.5280436 -104.68462168 114.5280436 -118.65974045 102.6343255 C-119.68067795 101.3968255 -119.68067795 101.3968255 -120.72224045 100.1343255 C-121.27911545 99.5155755 -121.83599045 98.8968255 -122.40974045 98.2593255 C-130.45717223 85.23015024 -126.81116957 64.03416465 -126.40485764 49.24540949 C-126.36640115 47.79465471 -126.3315787 46.34379911 -126.30036545 44.89287043 C-125.66183815 15.27119009 -125.66183815 15.27119009 -120.72224045 7.1343255 C-97.08697075 -10.91980717 -28.35841011 -0.01472043 0 0 Z " fill="#FFFFFF" transform="translate(1886.722240447998,1346.865674495697)"/>
</svg>
