<?xml version="1.0" encoding="UTF-8"?>
<svg version="1.1" xmlns="http://www.w3.org/2000/svg" width="2133" height="2133">
<path d="M0 0 C18.22423774 16.18944196 32.41377271 34.81682555 45.18359375 55.48046875 C45.63130127 56.20419678 46.07900879 56.9279248 46.5402832 57.67358398 C47.3952924 59.06251896 48.24447113 60.45506676 49.08666992 61.85180664 C49.6663855 62.79914673 49.6663855 62.79914673 50.2578125 63.765625 C50.59216309 64.31951904 50.92651367 64.87341309 51.27099609 65.4440918 C52.80226826 67.57031095 54.5991144 69.31562293 56.484375 71.12890625 C56.8153418 70.49090088 57.14630859 69.85289551 57.48730469 69.19555664 C71.10188512 43.1071908 87.53844017 18.03566903 110.484375 -0.87109375 C111.31710937 -1.60328125 112.14984375 -2.33546875 113.0078125 -3.08984375 C156.65087899 -40.87397803 213.01621406 -55.37359977 269.97900391 -51.35742188 C288.37503979 -49.88012283 307.93227559 -47.75372242 322.546875 -35.51953125 C328.27013479 -27.69620436 329.11796537 -19.04048504 328.921875 -9.62109375 C328.90721191 -8.4614209 328.89254883 -7.30174805 328.87744141 -6.10693359 C328.02076341 34.85537029 319.86723402 74.94585994 302.484375 112.12890625 C302.15469727 112.84191895 301.82501953 113.55493164 301.48535156 114.28955078 C294.82949123 128.55741787 286.71123807 142.11819539 277.27734375 154.72265625 C275.45073471 157.17405313 273.7012731 159.66208317 271.984375 162.19140625 C271.4996875 162.90425781 271.015 163.61710938 270.515625 164.3515625 C269.31708822 166.07474671 269.31708822 166.07474671 269.484375 168.12890625 C270.69351562 168.52980469 271.90265625 168.93070313 273.1484375 169.34375 C306.87617611 180.89766251 329.81908451 206.21202703 345.3234281 237.69896137 C351.08581117 250.39243344 351.19981362 262.40783952 351.09782124 276.13779354 C351.11501735 278.88998563 351.1501338 281.64188986 351.18426475 284.39391711 C351.24877399 290.35272941 351.26986274 296.31041554 351.26123343 302.26955276 C351.24848622 311.19133742 351.3048997 320.11181661 351.37371957 329.03329793 C351.48898761 344.2468374 351.54750795 359.46011788 351.57429504 374.67404938 C351.60153135 390.08149452 351.65441961 405.48853105 351.73804283 420.89577675 C351.74331068 421.87109149 351.74857853 422.84640622 351.75400601 423.85127595 C351.77551673 427.82412171 351.79715961 431.79696672 351.81898317 435.76981078 C352.08265245 483.86447225 352.21828472 531.9592251 352.33038467 580.05444112 C352.36695974 595.67025121 352.40860268 611.28604197 352.45360732 626.90182996 C352.45678394 628.00498578 352.45996057 629.1081416 352.46323345 630.24472638 C352.47609925 634.70877225 352.4889854 639.17281806 352.5018985 643.63686379 C352.72264138 720.03396818 352.91136467 796.43110912 353.00436079 872.82848429 C353.01168144 878.82634774 353.0191661 884.82421098 353.0266423 890.82207424 C353.02812324 892.01177392 353.02960417 893.20147361 353.03112998 894.4272248 C353.04614242 906.47908534 353.06130501 918.53094568 353.07668592 930.58280576 C353.07976159 932.99910368 353.0828203 935.41540162 353.08586206 937.83169958 C353.18336973 1015.26927216 353.45878446 1092.70457023 353.85871788 1170.14114235 C354.14608483 1225.80073911 354.41046781 1281.45987707 354.49806499 1337.12020206 C354.49988278 1338.26879456 354.50170057 1339.41738705 354.50357344 1340.60078537 C354.54298853 1365.83612205 354.5684725 1391.0714547 354.58100297 1416.30681847 C354.58624009 1426.4654267 354.59319939 1436.62403363 354.60062218 1446.78264046 C354.60138363 1447.89428445 354.60214508 1449.00592843 354.6029296 1450.1512586 C354.62806484 1485.74150538 354.80208199 1521.32902256 355.05536717 1556.91831733 C355.31026688 1592.86187133 355.40490109 1628.80230979 355.28977579 1664.74667953 C355.27375939 1669.75436859 355.25945308 1674.7620612 355.24617195 1679.76975822 C355.24350389 1680.75107915 355.24083583 1681.73240008 355.23808692 1682.74345801 C355.20311354 1697.13103454 355.30430064 1711.51298198 355.48694229 1725.89931107 C355.74752147 1747.01560639 355.81179444 1768.12281687 355.45759583 1789.23851013 C355.44400874 1790.05878582 355.43042166 1790.87906152 355.41642285 1791.72419405 C354.32056979 1854.11551576 339.54727466 1901.00567688 304.61628012 1953.62125118 C299.68540505 1961.15314587 295.57935952 1969.09104731 291.51128901 1977.11269949 C274.3549981 2010.7967561 255.42199617 2042.90969085 222.484375 2063.12890625 C221.55334961 2063.7005249 221.55334961 2063.7005249 220.60351562 2064.28369141 C167.256226 2096.36795437 72.76327392 2081.28283599 12.496851 2081.26057471 C3.0926258 2081.25730885 -6.31159573 2081.26001339 -15.71582076 2081.26277828 C-34.13262503 2081.26800276 -52.5494258 2081.26760431 -70.96623039 2081.26469937 C-87.08317858 2081.2621701 -103.20012548 2081.26153345 -119.31707382 2081.26272202 C-120.92925812 2081.26283659 -120.92925812 2081.26283659 -122.57401181 2081.26295349 C-126.93841209 2081.26326489 -131.30281238 2081.2635833 -135.66721266 2081.26391325 C-176.49197451 2081.26696269 -217.31673414 2081.26421395 -258.14149565 2081.25881635 C-294.30673396 2081.25407114 -330.47196875 2081.25449706 -366.63720703 2081.25927734 C-407.39687653 2081.26464708 -448.15654407 2081.26674698 -488.91621387 2081.26366508 C-493.27141182 2081.26334443 -497.62660976 2081.26303158 -501.98180771 2081.26272202 C-503.05393968 2081.26264294 -504.12607165 2081.26256386 -505.23069247 2081.26248239 C-521.32761474 2081.2613512 -537.42453559 2081.26266336 -553.52145767 2081.26520157 C-571.84695207 2081.26807702 -590.17244247 2081.26731178 -608.49793638 2081.26192082 C-617.82790604 2081.25926571 -627.15786917 2081.25812621 -636.48783875 2081.26156998 C-826.37361261 2081.32705389 -826.37361261 2081.32705389 -866.515625 2042.12890625 C-867.41667969 2041.30132813 -868.31773437 2040.47375 -869.24609375 2039.62109375 C-875.79835132 2033.43757795 -880.9662112 2026.70407081 -886.10131836 2019.32202148 C-888.6812085 2015.61400734 -891.14161733 2012.17770836 -894.515625 2009.12890625 C-895.98831881 2010.11070212 -897.46099372 2011.09252636 -898.93359375 2012.07446289 C-900.26141972 2012.95951455 -901.5895551 2013.84410214 -902.91796875 2014.72827148 C-906.61662351 2017.19106128 -910.30940855 2019.66195994 -913.9921875 2022.1484375 C-923.33243693 2028.44271151 -932.72544002 2034.55543105 -942.515625 2040.12890625 C-943.52786133 2040.71188477 -943.52786133 2040.71188477 -944.56054688 2041.30664062 C-966.41730518 2053.77041189 -990.43589954 2062.08260207 -1014.515625 2069.12890625 C-1015.78913818 2069.50354004 -1015.78913818 2069.50354004 -1017.08837891 2069.88574219 C-1059.14463587 2081.98814142 -1104.76440124 2081.28989183 -1148.15066195 2081.27428997 C-1151.80196265 2081.27408089 -1155.45325614 2081.2796516 -1159.10455322 2081.28434753 C-1166.2164031 2081.29254804 -1173.32824469 2081.29539749 -1180.44009891 2081.29595991 C-1186.23949369 2081.29644021 -1192.0388858 2081.29852008 -1197.83827972 2081.30166054 C-1214.39253629 2081.31043835 -1230.94678646 2081.31508447 -1247.50104538 2081.31433006 C-1248.38789767 2081.31429011 -1249.27474996 2081.31425015 -1250.18847656 2081.31420898 C-1251.07645041 2081.3141681 -1251.96442426 2081.31412722 -1252.87930641 2081.3140851 C-1267.23779723 2081.3136795 -1281.59626174 2081.32323495 -1295.95474496 2081.33734735 C-1310.80761587 2081.35182687 -1325.66047404 2081.35861124 -1340.51335216 2081.35775357 C-1348.80795717 2081.35742555 -1357.10253432 2081.36005206 -1365.39713287 2081.37093163 C-1484.42625894 2081.51955056 -1484.42625894 2081.51955056 -1536.515625 2064.12890625 C-1537.80315674 2063.70037354 -1537.80315674 2063.70037354 -1539.11669922 2063.26318359 C-1583.66598669 2048.21835033 -1624.11779375 2023.89379098 -1658.52734375 1991.89453125 C-1661.4236785 1989.20123268 -1664.37652177 1986.57402637 -1667.328125 1983.94140625 C-1671.03993313 1980.56847932 -1674.44277079 1977.12865901 -1677.6640625 1973.2890625 C-1679.90589047 1970.67359654 -1682.27568228 1968.1960646 -1684.640625 1965.69140625 C-1701.05958067 1947.96814102 -1714.85351779 1927.23490443 -1726.515625 1906.12890625 C-1726.9885498 1905.27345215 -1727.46147461 1904.41799805 -1727.94873047 1903.53662109 C-1754.43852593 1855.16882338 -1763.80350442 1807.70517303 -1766.515625 1753.12890625 C-1766.55906036 1752.26514374 -1766.60249573 1751.40138123 -1766.64724731 1750.51144409 C-1767.44481714 1734.17333094 -1767.70194626 1717.85580281 -1767.70092773 1701.49926758 C-1767.70312497 1697.56646048 -1767.72140799 1693.63393022 -1767.74023438 1689.70117188 C-1767.7675483 1677.67952021 -1767.60806736 1665.72568187 -1766.640625 1653.73828125 C-1766.56446457 1652.77937485 -1766.48830414 1651.82046844 -1766.40983582 1650.83250427 C-1764.70272768 1632.20725861 -1755.80936843 1614.13926974 -1741.765625 1601.69140625 C-1721.72274723 1585.91297056 -1697.2255637 1580.70439051 -1672.1171875 1580.93359375 C-1670.91621429 1580.93642365 -1669.71524109 1580.93925354 -1668.47787476 1580.94216919 C-1664.69868355 1580.95322946 -1660.91974274 1580.9783064 -1657.140625 1581.00390625 C-1654.55469096 1581.01395438 -1651.96875315 1581.02307699 -1649.3828125 1581.03125 C-1643.09366674 1581.05312216 -1636.80466377 1581.08645502 -1630.515625 1581.12890625 C-1630.53774803 1580.10620353 -1630.55987106 1579.0835008 -1630.58266449 1578.02980709 C-1631.12534842 1552.66454975 -1631.51435677 1527.3000746 -1631.75911713 1501.93015957 C-1631.88075581 1489.65888183 -1632.04583353 1477.39156307 -1632.32617188 1465.12280273 C-1633.69593058 1403.91947621 -1629.92210083 1349.94868395 -1610.32035387 1291.71042281 C-1605.49261511 1277.34157903 -1601.58582204 1262.73808676 -1597.70163155 1248.09155846 C-1595.90893939 1241.34612864 -1594.05203603 1234.61808183 -1592.20289457 1227.88795745 C-1591.56265957 1225.55725053 -1590.92451477 1223.22597437 -1590.28674316 1220.89459229 C-1585.24307972 1202.47364347 -1580.18204394 1184.05746313 -1575.12149429 1165.64114761 C-1574.32798542 1162.7533983 -1573.53451646 1159.86563802 -1572.74105835 1156.97787476 C-1567.94027446 1139.50571146 -1563.13865179 1122.0337787 -1558.33642578 1104.56201172 C-1555.1874704 1093.10524081 -1552.03884747 1081.64837858 -1548.890625 1070.19140625 C-1548.63143406 1069.24817757 -1548.37224312 1068.30494888 -1548.10519791 1067.33313751 C-1539.91928836 1037.54295464 -1531.75249626 1007.74757941 -1523.5980835 977.94876099 C-1515.56626179 948.59850607 -1507.50995202 919.25502555 -1499.44470215 889.91394043 C-1493.71421593 869.0662723 -1487.98865804 848.21728083 -1482.28125 827.36328125 C-1482.02634796 826.43196381 -1481.77144592 825.50064636 -1481.50881958 824.54110718 C-1479.10743486 815.76708431 -1476.70645797 806.99295031 -1474.30812073 798.21809387 C-1473.86700015 796.60464627 -1473.42541357 794.99132576 -1472.98281002 793.37828434 C-1471.8869333 789.38075746 -1470.79825616 785.38171129 -1469.73216248 781.37613106 C-1467.67397955 773.69389691 -1465.53952281 766.06698159 -1463.04283786 758.51426494 C-1452.73098244 727.26402644 -1450.67366016 698.28012652 -1451.02850628 665.53025007 C-1451.08103081 659.44183209 -1451.07012643 653.35378057 -1451.06098559 647.26519771 C-1451.04464147 635.13962261 -1451.08432897 623.01495754 -1451.16259766 610.88964844 C-1451.26870108 594.42029658 -1451.30477693 577.95135727 -1451.32191718 561.48169893 C-1451.32879647 555.14984575 -1451.33794382 548.81799532 -1451.3470459 542.48614502 C-1451.34849347 541.44785352 -1451.34849347 541.44785352 -1451.34997028 540.38858643 C-1451.36371181 530.6809342 -1451.38719441 520.97334897 -1451.41874093 511.26573876 C-1451.52527528 478.44586728 -1451.52105364 445.63072386 -1451.18502522 412.81201982 C-1451.1570331 409.99672885 -1451.13205318 407.18142711 -1451.10796356 404.36610031 C-1450.94050429 385.36151087 -1450.50436061 366.39465082 -1449.55761719 347.41162109 C-1449.51648819 346.57930442 -1449.4753592 345.74698775 -1449.43298388 344.88944936 C-1448.11314043 318.6840556 -1445.20020872 293.90775539 -1433.515625 270.12890625 C-1433.17515137 269.42491699 -1432.83467773 268.72092773 -1432.48388672 267.99560547 C-1427.4989266 257.7859139 -1421.80880229 248.82593457 -1414.515625 240.12890625 C-1414.04753418 239.56075195 -1413.57944336 238.99259766 -1413.09716797 238.40722656 C-1402.93368826 226.08600376 -1392.12454895 214.97256274 -1379.515625 205.12890625 C-1378.50886719 204.31679688 -1377.50210937 203.5046875 -1376.46484375 202.66796875 C-1339.84581368 173.38291508 -1292.03497634 162.44983833 -1245.85888672 166.4453125 C-1238.99098202 167.27864389 -1232.25086354 168.55900909 -1225.515625 170.12890625 C-1224.76152344 170.30019043 -1224.00742188 170.47147461 -1223.23046875 170.64794922 C-1198.93319076 176.38603143 -1175.950368 188.64793618 -1156.515625 204.12890625 C-1155.28972656 205.04929687 -1155.28972656 205.04929687 -1154.0390625 205.98828125 C-1139.12475478 217.53186308 -1125.39890017 231.72630494 -1114.515625 247.12890625 C-1113.75507812 248.19496094 -1112.99453125 249.26101563 -1112.2109375 250.359375 C-1075.61623096 303.47945578 -1083.09454678 376.20631262 -1084.03925463 437.61091066 C-1084.06326019 439.17136935 -1084.08724165 440.73182842 -1084.11119963 442.29228785 C-1084.13558022 443.87970532 -1084.16004052 445.46712157 -1084.18457852 447.05453662 C-1084.37885093 459.70866605 -1084.51739266 472.36262949 -1084.61825562 485.01783752 C-1084.62525241 485.89110209 -1084.6322492 486.76436666 -1084.63945802 487.66409378 C-1084.71092604 496.67088405 -1084.77616393 505.67771076 -1084.83701185 514.68457862 C-1084.86836389 519.27890672 -1084.90142742 523.87322096 -1084.93554688 528.4675293 C-1084.94230263 529.38085819 -1084.94905838 530.29418708 -1084.95601885 531.2351926 C-1085.05354594 543.99207141 -1085.23263361 556.7455169 -1085.47692167 569.50039346 C-1085.90175248 591.70841052 -1086.16690462 613.91255504 -1086.1171875 636.125 C-1086.11531005 636.99759991 -1086.11343261 637.87019981 -1086.11149827 638.76924214 C-1085.91909426 706.1515108 -1074.2462683 765.95869347 -1052.895706 829.73183393 C-1046.51750633 848.79281795 -1041.27942168 868.11622981 -1036.18421745 887.55255127 C-1034.11493331 895.4268633 -1031.95695015 903.27720282 -1029.80530453 911.12932312 C-1028.85551783 914.59696979 -1027.9088835 918.06547545 -1026.96196783 921.533907 C-1020.33685159 945.79875143 -1013.62568472 970.04008415 -1006.92773438 994.28489685 C-1006.68364838 995.16842772 -1006.43956238 996.05195858 -1006.18807983 996.96226311 C-1005.69586843 998.74392083 -1005.20364027 1000.52557393 -1004.71139526 1002.30722237 C-1000.91906209 1016.03420367 -997.13747937 1029.76411556 -993.36328125 1043.49609375 C-993.11241257 1044.4087928 -992.86154388 1045.32149185 -992.60307312 1046.26184845 C-990.20012461 1055.00446147 -987.79803128 1063.74730891 -985.39743519 1072.49056816 C-984.52564973 1075.66526698 -983.65338574 1078.83983421 -982.78103447 1082.01437759 C-982.38705995 1083.44854571 -981.99330023 1084.88277285 -981.59980965 1086.31707382 C-979.04967624 1095.61245556 -976.46445784 1104.89769388 -973.86354065 1114.1789856 C-973.54065205 1115.33165956 -973.21776345 1116.48433352 -972.88509035 1117.67193699 C-972.09540048 1120.49096373 -971.30557559 1123.30995256 -970.515625 1126.12890625 C-970.2560092 1076.23783038 -969.99831502 1026.34674471 -969.7417013 976.45565331 C-969.68568601 965.5661649 -969.62960745 954.67667682 -969.57338333 943.78718948 C-969.41114915 912.36464211 -969.24970321 880.9420908 -969.08984375 849.51953125 C-969.08396839 848.36471224 -969.07809303 847.20989323 -969.07203963 846.0200797 C-968.69961015 772.78894356 -968.35174843 699.55771769 -968.02256826 626.32637483 C-967.96746356 614.0726799 -967.91190917 601.81898702 -967.85632497 589.56529426 C-967.81242423 579.88473017 -967.76860877 570.20416569 -967.72480559 560.52360116 C-967.7139435 558.12306995 -967.7030794 555.72253875 -967.6922133 553.32200755 C-967.56436023 525.07256817 -967.43843112 496.82312205 -967.31694842 468.57365452 C-967.23542286 449.6221016 -967.15140258 430.67056102 -967.06503433 411.71902955 C-967.01835676 401.45718681 -966.97290592 391.19534213 -966.9308567 380.93347931 C-966.91881578 378.02762939 -966.9067351 375.12177963 -966.89462372 372.21593 C-966.88674732 370.31613981 -966.87896443 368.41634924 -966.87127707 366.51655827 C-966.83081113 356.58827408 -966.78100684 346.66024315 -966.69961643 336.73220253 C-966.67906262 334.17417476 -966.65859629 331.61614634 -966.63823644 329.05811702 C-966.62489482 327.38855273 -966.61131717 325.71899031 -966.59749701 324.04942991 C-966.51504777 313.76780155 -966.53110484 303.4935889 -966.66720122 293.21254367 C-966.73296715 288.13202277 -966.75545597 283.05159875 -966.76503693 277.97068672 C-966.77396933 274.67590451 -966.81209768 271.38847466 -966.89717281 268.09434116 C-967.59113961 240.84661248 -955.87345296 217.99036341 -937.265625 198.37890625 C-908.96279811 171.27029147 -877.83920624 166.4698898 -840.203125 165.60546875 C-839.34508207 165.58489473 -838.48703915 165.56432072 -837.60299492 165.54312325 C-819.16675278 165.10193103 -800.72898154 164.83527999 -782.28881836 164.6262207 C-777.94964297 164.57702509 -773.61053848 164.52323374 -769.27143288 164.46826744 C-751.59559318 164.24594915 -733.91936585 164.08093795 -716.24207878 164.04506111 C-714.5252226 164.04115505 -712.80836907 164.03565586 -711.09152412 164.02831841 C-702.13177085 163.99289369 -693.19845515 164.11218478 -684.24829102 164.55249023 C-683.47275092 164.58875299 -682.69721083 164.62501574 -681.89816952 164.66237736 C-671.32984324 165.24361641 -663.02612245 167.29042069 -654.953125 174.37890625 C-648.24395343 181.94822803 -644.97190584 189.60165157 -645.26953125 199.7734375 C-646.10826755 207.80134212 -648.9550221 214.26992954 -654.515625 220.12890625 C-664.87395178 228.50372364 -679.55034691 227.32806652 -692.19140625 227.6640625 C-693.31056144 227.69505382 -693.31056144 227.69505382 -694.45232582 227.72667122 C-710.7976419 228.16744612 -727.14577618 228.27404489 -743.49609375 228.375 C-744.16299178 228.37919087 -744.8298898 228.38338174 -745.51699686 228.3876996 C-758.7450813 228.47080352 -771.97320768 228.54538035 -785.20141602 228.60571289 C-791.46713654 228.63435552 -797.73278315 228.66986501 -803.9984253 228.71236664 C-807.27336696 228.73427445 -810.54823386 228.75184888 -813.82323265 228.76281548 C-826.59228535 228.80628661 -839.31007782 229.01857699 -852.0480957 229.96508789 C-853.0303094 230.03373015 -854.0125231 230.10237242 -855.02450085 230.17309475 C-864.33609677 230.95200519 -873.61344535 232.70571384 -881.953125 237.06640625 C-882.90058594 237.54980469 -883.84804688 238.03320312 -884.82421875 238.53125 C-891.90320021 242.73343203 -895.91891413 247.29056131 -898.10693359 255.29101562 C-915.78792561 329.36853342 -904.17448145 435.72306643 -904.515625 497.12890625 C-511.485625 497.12890625 -118.455625 497.12890625 286.484375 497.12890625 C299.39302553 370.4420911 299.39302553 370.4420911 271.171875 239.81640625 C248.6394623 225.66814711 209.88618711 230.18139852 184.03805542 229.58605957 C182.67455022 229.55423508 182.67455022 229.55423508 181.28349946 229.52176768 C158.3068159 228.99845939 135.33070283 228.9613713 112.34906363 228.94295669 C106.10469248 228.93687719 99.86033103 228.92524088 93.6159668 228.9143219 C82.82211672 228.89614153 72.02826713 228.88120464 61.23440933 228.86854553 C45.49313036 228.85002962 29.75186502 228.82532469 14.01059709 228.79917163 C6.60328639 228.78687441 -0.8040248 228.77487599 -8.21133614 228.76296234 C-8.95264586 228.76176982 -9.69395558 228.76057729 -10.45772924 228.75934863 C-28.03447918 228.73114555 -45.6112332 228.70591467 -63.18798828 228.68115234 C-63.9547356 228.68007115 -64.72148292 228.67898995 -65.51146501 228.67787599 C-73.2673537 228.66694102 -81.02324246 228.65604918 -88.77913126 228.64518694 C-104.90369855 228.62260356 -121.02826549 228.59977359 -137.15283203 228.57666016 C-137.90663124 228.57558069 -138.66043044 228.57450122 -139.43707204 228.57338905 C-156.82567562 228.54847327 -174.21427758 228.52274093 -191.60287666 228.49485016 C-192.3451956 228.49365991 -193.08751453 228.49246966 -193.85232798 228.49124334 C-201.2904899 228.47930155 -208.72865161 228.46723877 -216.16681304 228.45499313 C-231.14102043 228.43037003 -246.11522629 228.40729353 -261.08944321 228.38926697 C-318.73237696 228.31946824 -376.37355116 228.16223905 -434.01489511 227.72086187 C-438.7639815 227.68453808 -443.51307714 227.64983224 -448.26218009 227.61573887 C-454.62463306 227.56961907 -460.98703574 227.51900431 -467.34942588 227.46492159 C-469.65689146 227.44577803 -471.96436731 227.42782084 -474.27185288 227.41126096 C-486.6783786 227.32065742 -499.07196062 227.09371871 -511.47176933 226.66443634 C-513.19712452 226.60576077 -513.19712452 226.60576077 -514.95733536 226.54589984 C-521.60209609 226.29907173 -528.21006588 225.90138772 -534.828125 225.25390625 C-535.5162516 225.18846163 -536.20437821 225.12301702 -536.91335713 225.05558923 C-544.85803654 224.12039801 -550.07426574 221.42164083 -555.00390625 215.2734375 C-560.42617533 207.58138136 -560.8899211 198.27508372 -559.515625 189.12890625 C-557.07701156 181.22351102 -552.68140609 174.45974028 -545.515625 170.12890625 C-532.3796504 164.18609936 -517.10292237 164.95678744 -502.94659424 164.58705139 C-502.16190896 164.56585423 -501.37722369 164.54465706 -500.56876007 164.52281756 C-484.41715914 164.09135871 -468.27106103 163.95794534 -452.11441994 163.92829764 C-448.18862543 163.92005239 -444.26284827 163.90644397 -440.33706665 163.89358521 C-433.58346878 163.87215235 -426.82986885 163.85389257 -420.0762558 163.83798027 C-410.31245267 163.81497073 -400.54866899 163.78687673 -390.78488269 163.75766099 C-374.93211801 163.71035821 -359.07934522 163.66699679 -343.2265625 163.6262207 C-327.85481133 163.58667323 -312.48306727 163.54520314 -297.11132812 163.5012207 C-296.15897359 163.49849643 -295.20661906 163.49577216 -294.22540531 163.49296533 C-289.44627711 163.47928271 -284.66714903 163.46556306 -279.88802099 163.45182502 C-240.43057059 163.33844866 -200.97310479 163.23151351 -161.515625 163.12890625 C-162.20446274 162.16527664 -162.89330048 161.20164703 -163.60301208 160.20881653 C-164.51456501 158.93324352 -165.42610936 157.65766438 -166.33764648 156.38208008 C-166.79073936 155.74828682 -167.24383224 155.11449356 -167.71065521 154.46149445 C-192.89353095 119.21723109 -207.79315254 79.73121266 -215.515625 37.12890625 C-215.69351562 36.17306641 -215.87140625 35.21722656 -216.0546875 34.23242188 C-218.34537308 21.46094079 -218.8130205 8.75871963 -218.890625 -4.18359375 C-218.8986615 -4.93980011 -218.906698 -5.69600647 -218.91497803 -6.47512817 C-218.99928996 -16.90241344 -218.98391276 -27.7519521 -212.11328125 -36.28515625 C-161.26656934 -86.75890939 -42.90981943 -37.31536847 0 0 Z M-153.515625 14.12890625 C-155.48784106 22.57357683 -153.24005775 30.134337 -151.078125 38.31640625 C-150.80560913 39.37396118 -150.80560913 39.37396118 -150.52758789 40.45288086 C-145.76591021 58.9088179 -139.5457669 76.31807604 -130.515625 93.12890625 C-130.01417969 94.10859375 -129.51273438 95.08828125 -128.99609375 96.09765625 C-120.39169173 112.59535269 -108.4319231 126.33706803 -95.453125 139.50390625 C-94.7216626 140.25309326 -93.9902002 141.00228027 -93.23657227 141.77416992 C-76.05626902 158.93152786 -56.91117394 164.27053831 -33.1640625 164.296875 C-32.10579254 164.3002034 -31.04752258 164.3035318 -29.95718384 164.30696106 C-27.73350455 164.31199618 -25.50981779 164.31437045 -23.28613281 164.31420898 C-19.8937542 164.31640423 -16.50169662 164.33462032 -13.109375 164.35351562 C-10.94010527 164.35644856 -8.77083401 164.35843402 -6.6015625 164.359375 C-5.09038345 164.37015327 -5.09038345 164.37015327 -3.54867554 164.38114929 C2.5131896 164.36154728 8.10976267 164.19721704 13.421875 160.94140625 C15.69305072 157.06704768 14.59342792 152.56635291 13.55737305 148.41040039 C13.13155408 147.07464119 12.69384759 145.74262975 12.24609375 144.4140625 C12.00972702 143.6896698 11.77336029 142.9652771 11.52983093 142.21893311 C10.75736096 139.87167132 9.96671975 137.53117941 9.171875 135.19140625 C8.90215881 134.38955902 8.63244263 133.58771179 8.35455322 132.76156616 C-2.02691717 102.01685501 -16.02836858 74.76072362 -38.515625 51.12890625 C-39.17046875 50.40960938 -39.8253125 49.6903125 -40.5 48.94921875 C-65.70850877 22.12477993 -103.60991894 12.98679731 -139.00390625 10.92578125 C-146.83799125 10.61160376 -146.83799125 10.61160376 -153.515625 14.12890625 Z M143.859375 55.78125 C120.01339483 81.15486327 92.484375 128.42151759 92.484375 164.12890625 C101.14320715 164.17550456 109.8019953 164.21091384 118.46092606 164.23253059 C122.48278523 164.2429121 126.50455782 164.25696667 130.52636719 164.27978516 C134.41674383 164.30171664 138.30703786 164.31351709 142.19747162 164.31866074 C143.67242481 164.32232043 145.14737412 164.32946537 146.62229156 164.34036636 C174.18544576 164.53574808 190.25223467 153.4133759 209.484375 135.12890625 C210.16757813 134.51015625 210.85078125 133.89140625 211.5546875 133.25390625 C243.96744849 102.87541896 257.60801098 57.40842275 265.484375 15.12890625 C265.484375 14.46890625 265.484375 13.80890625 265.484375 13.12890625 C223.2206603 -0.13029836 172.57186255 26.76967404 143.859375 55.78125 Z M-1297.515625 233.12890625 C-1298.72347656 233.46921875 -1299.93132812 233.80953125 -1301.17578125 234.16015625 C-1324.95940968 241.44035688 -1345.9079421 255.73962617 -1361.515625 275.12890625 C-1362.30710937 276.0828125 -1363.09859375 277.03671875 -1363.9140625 278.01953125 C-1394.38265774 315.47099342 -1387.70237691 375.47680942 -1387.63169062 421.06833971 C-1387.62724814 424.68947019 -1387.62884199 428.31059972 -1387.6295929 431.93173218 C-1387.63010967 438.16155499 -1387.62705328 444.39136709 -1387.62135506 450.62118721 C-1387.61312254 459.62773955 -1387.61061301 468.63428686 -1387.60936707 477.64084255 C-1387.60719468 492.26406396 -1387.60058456 506.8872797 -1387.59106445 521.51049805 C-1387.58184287 535.69018527 -1387.57479696 549.86987093 -1387.57055664 564.04956055 C-1387.57028864 564.93691503 -1387.57002065 565.82426952 -1387.56974453 566.73851353 C-1387.56766431 573.6813111 -1387.56570767 580.62410871 -1387.56378996 587.56690633 C-1387.55440755 621.42091152 -1387.53427734 655.27490245 -1387.515625 689.12890625 C-1307.985625 689.12890625 -1228.455625 689.12890625 -1146.515625 689.12890625 C-1146.51279223 626.90236547 -1146.51279223 626.90236547 -1146.74360657 564.67712402 C-1146.7518818 563.17148647 -1146.76013905 561.66584882 -1146.76838046 560.16021109 C-1146.79429151 555.45185653 -1146.82089752 550.74350606 -1146.84765625 546.03515625 C-1146.85217244 545.2382312 -1146.85668864 544.44130616 -1146.86134169 543.62023187 C-1146.95190971 527.64879796 -1147.04470619 511.67737747 -1147.14249134 495.70598602 C-1147.16346736 492.27420572 -1147.18441286 488.84242524 -1147.20532227 485.41064453 C-1147.21311371 484.13233398 -1147.21311371 484.13233398 -1147.22106256 482.82819897 C-1147.30598582 468.84068735 -1147.37904008 454.85313721 -1147.44777743 440.8655377 C-1147.51929057 426.35721371 -1147.60191323 411.84898548 -1147.69529361 397.3407855 C-1147.74706945 389.25136434 -1147.79395119 381.16198076 -1147.82804298 373.07246399 C-1147.85684818 366.23928508 -1147.89557448 359.40625564 -1147.94746045 352.57321131 C-1147.97354979 349.09647547 -1147.99486298 345.6198843 -1148.00325775 342.14305687 C-1148.01485555 338.37650501 -1148.04459262 334.61051934 -1148.07893372 330.84411621 C-1148.07797709 329.74954306 -1148.07702046 328.65496991 -1148.07603484 327.52722788 C-1148.15196284 321.5909264 -1148.72760729 317.39140308 -1151.515625 312.12890625 C-1152.00498535 311.14188721 -1152.4943457 310.15486816 -1152.99853516 309.13793945 C-1162.41778422 290.76707091 -1162.41778422 290.76707091 -1174.515625 274.12890625 C-1175.27488281 273.24589844 -1176.03414062 272.36289062 -1176.81640625 271.453125 C-1179.00694925 268.96805521 -1181.24628964 266.54192392 -1183.515625 264.12890625 C-1184.32193359 263.22591797 -1184.32193359 263.22591797 -1185.14453125 262.3046875 C-1202.45246269 243.69540784 -1231.67824756 231.21866695 -1256.80322266 229.96484375 C-1270.55068336 229.52203197 -1284.22825584 229.17300283 -1297.515625 233.12890625 Z M-904.515625 561.12890625 C-904.515625 585.54890625 -904.515625 609.96890625 -904.515625 635.12890625 C-511.485625 635.12890625 -118.455625 635.12890625 286.484375 635.12890625 C286.484375 610.70890625 286.484375 586.28890625 286.484375 561.12890625 C-106.545625 561.12890625 -499.575625 561.12890625 -904.515625 561.12890625 Z M-904.515625 698.12890625 C-904.515625 989.18890625 -904.515625 1280.24890625 -904.515625 1580.12890625 C-883.065625 1581.11890625 -861.615625 1582.10890625 -839.515625 1583.12890625 C-814.41748082 1586.47532547 -797.4935425 1597.55543624 -782.35620117 1617.3203125 C-771.4279039 1632.25043324 -768.19453514 1647.32519518 -768.25 1665.625 C-768.24787705 1667.03723763 -768.24510266 1668.4494744 -768.24172974 1669.86170959 C-768.23614091 1673.64481954 -768.24488697 1677.42775945 -768.25807953 1681.21084595 C-768.26566548 1683.57904266 -768.26977102 1685.94722332 -768.27301025 1688.31542969 C-768.34001045 1729.93222008 -769.18774391 1771.63204811 -772.515625 1813.12890625 C-762.73851574 1816.38794267 -752.3489759 1816.31251703 -742.12979698 1816.65669346 C-740.92644883 1816.69804243 -739.72310067 1816.7393914 -738.48328742 1816.78199336 C-723.08109004 1817.27901222 -707.67405913 1817.47681749 -692.26539741 1817.65453735 C-689.63111699 1817.68497833 -686.99684959 1817.71641498 -684.36258169 1817.74791908 C-642.76264147 1818.23915217 -601.16375772 1818.26727383 -559.56144773 1818.24652654 C-548.15406285 1818.24106463 -536.74667978 1818.24183446 -525.33929391 1818.24258668 C-504.40821157 1818.24381234 -483.47713242 1818.24060503 -462.54605103 1818.23448181 C-434.24464811 1818.22621738 -405.94325061 1818.22437294 -377.6418457 1818.22351074 C-309.72477149 1818.21828729 -241.80769818 1818.20432602 -173.890625 1818.19140625 C-21.966875 1818.17078125 129.956875 1818.15015625 286.484375 1818.12890625 C286.484375 1448.52890625 286.484375 1078.92890625 286.484375 698.12890625 C-106.545625 698.12890625 -499.575625 698.12890625 -904.515625 698.12890625 Z M-1396.515625 758.12890625 C-1401.79684937 768.90218337 -1404.20525393 781.5332167 -1407.27734375 793.0859375 C-1407.82563395 795.12995772 -1408.37450149 797.17382314 -1408.92390442 799.21754456 C-1410.08646032 803.54572193 -1411.24575155 807.87475401 -1412.40234375 812.20452881 C-1415.13692984 822.44008836 -1417.88933896 832.67086011 -1420.64125443 842.90177155 C-1421.2533469 845.17757198 -1421.86524181 847.45342557 -1422.47694016 849.72933197 C-1427.57030259 868.67855613 -1432.74901185 887.60218176 -1438.015625 906.50390625 C-1444.05344688 928.19127211 -1450.00650534 949.8994556 -1455.890625 971.62890625 C-1457.48923216 977.53134515 -1459.08811513 983.43370928 -1460.6875 989.3359375 C-1460.88660603 990.07072767 -1461.08571205 990.80551785 -1461.29085159 991.56257439 C-1465.87810094 1008.4885555 -1470.50415405 1025.40385054 -1475.140625 1042.31640625 C-1475.34405392 1043.05849586 -1475.54748283 1043.80058548 -1475.75707626 1044.56516266 C-1479.00716277 1056.42050239 -1482.26082697 1068.27485929 -1485.515625 1080.12890625 C-1485.75113319 1080.98665398 -1485.98664139 1081.8444017 -1486.22928619 1082.72814178 C-1492.44228139 1105.35628827 -1498.65895583 1127.98342306 -1504.87742615 1150.61006546 C-1508.62937637 1164.26214132 -1512.37920853 1177.91479705 -1516.12724686 1191.56794739 C-1516.92514587 1194.47424817 -1517.72320995 1197.38050357 -1518.52133179 1200.28674316 C-1519.05133439 1202.21671445 -1519.58133317 1204.14668677 -1520.11132812 1206.07666016 C-1520.37286493 1207.02903942 -1520.63440174 1207.98141869 -1520.90386391 1208.96265793 C-1522.46781088 1214.65849204 -1524.03015415 1220.35476323 -1525.59130287 1226.0513649 C-1530.69458362 1244.6709353 -1535.82511191 1263.28191911 -1541.04800797 1281.86833382 C-1542.55487988 1287.23506587 -1544.05550422 1292.60354952 -1545.55642128 1297.97194958 C-1546.96641503 1303.01119641 -1548.38811355 1308.04694891 -1549.8187933 1313.08035946 C-1550.68590613 1316.14086878 -1551.54237469 1319.20427954 -1552.39586067 1322.26861382 C-1552.79207252 1323.6822388 -1553.19289586 1325.0945804 -1553.59860039 1326.50551033 C-1554.14825715 1328.41889606 -1554.68048128 1330.33726454 -1555.21166992 1332.25585938 C-1555.66481819 1333.85935242 -1555.66481819 1333.85935242 -1556.12712097 1335.49523926 C-1556.84943865 1338.3542218 -1556.84943865 1338.3542218 -1554.515625 1341.12890625 C-1544.00423716 1344.06050249 -1532.46151173 1343.39212441 -1521.6484375 1343.32421875 C-1519.87482871 1343.3204786 -1518.10121782 1343.31763638 -1516.3276062 1343.31564331 C-1511.70813067 1343.30808562 -1507.08878524 1343.28850683 -1502.46936035 1343.26623535 C-1497.73610187 1343.24560535 -1493.00282193 1343.23660528 -1488.26953125 1343.2265625 C-1479.01817268 1343.20525177 -1469.76690975 1343.17121352 -1460.515625 1343.12890625 C-1460.42746678 1342.49834887 -1460.33930857 1341.86779148 -1460.24847889 1341.2181263 C-1458.08460779 1325.74426946 -1455.91325281 1310.27148301 -1453.73396015 1294.79979134 C-1452.68016552 1287.3172172 -1451.62873916 1279.83432573 -1450.58325195 1272.35058594 C-1449.67005062 1265.81381322 -1448.75203521 1259.27773611 -1447.82866067 1252.74239242 C-1447.34169037 1249.29464304 -1446.85684483 1245.84663047 -1446.3778019 1242.39776993 C-1437.1944551 1176.43481408 -1437.1944551 1176.43481408 -1426.44140625 1167.3828125 C-1418.65004957 1161.86669071 -1410.98197789 1160.09967862 -1401.515625 1161.12890625 C-1392.97457295 1163.22730549 -1386.62239705 1166.41115112 -1381.88671875 1174.00390625 C-1374.62479283 1187.48202994 -1379.456766 1209.5928607 -1381.16015625 1224.34765625 C-1381.24529732 1225.10130274 -1381.33043839 1225.85494923 -1381.41815948 1226.63143349 C-1383.88393158 1248.39513423 -1387.07190383 1270.06477492 -1390.18603516 1291.74298096 C-1391.01141075 1297.49091093 -1391.83176917 1303.23951159 -1392.64519501 1308.98914528 C-1393.0213741 1311.63369706 -1393.40483272 1314.27712366 -1393.78863525 1316.920578 C-1394.01864823 1318.54164354 -1394.24830237 1320.16276005 -1394.47753906 1321.78393555 C-1394.58346375 1322.49918396 -1394.68938843 1323.21443237 -1394.79852295 1323.95135498 C-1395.50770678 1329.04705688 -1395.59953047 1333.98385501 -1395.515625 1339.12890625 C-1384.71680294 1344.52831728 -1372.48268197 1343.26458558 -1360.6953125 1343.2265625 C-1358.98324627 1343.2246941 -1357.27117951 1343.22327219 -1355.55911255 1343.22227478 C-1351.0842945 1343.21848285 -1346.60950965 1343.20868149 -1342.13470459 1343.1975708 C-1337.55595346 1343.18728468 -1332.97719689 1343.18276183 -1328.3984375 1343.17773438 C-1319.43748553 1343.16705578 -1310.47655804 1343.15001998 -1301.515625 1343.12890625 C-1301.49849164 1291.2371376 -1301.482573 1239.34536873 -1301.47328186 1187.45359802 C-1301.4731438 1186.68451328 -1301.47300575 1185.91542853 -1301.47286351 1185.12303818 C-1301.46986999 1168.40524395 -1301.46709989 1151.68744968 -1301.46455967 1134.96965537 C-1301.46331243 1126.7702162 -1301.46201586 1118.57077704 -1301.46069336 1110.37133789 C-1301.46049722 1109.14748066 -1301.46049722 1109.14748066 -1301.46029712 1107.89889904 C-1301.45604242 1081.49465083 -1301.44853609 1055.09040476 -1301.43932778 1028.68615784 C-1301.42987543 1001.53257137 -1301.42373499 974.37898608 -1301.42171001 947.22539799 C-1301.42142189 943.38245768 -1301.42109626 939.53951738 -1301.42074776 935.69657707 C-1301.42068033 934.94029618 -1301.42061291 934.1840153 -1301.42054344 933.4048168 C-1301.41936574 921.27357039 -1301.41473858 909.14232767 -1301.40879297 897.01108275 C-1301.40287757 884.78918612 -1301.40066402 872.56729311 -1301.40212362 860.3453951 C-1301.40281315 853.73384975 -1301.40181248 847.12231292 -1301.39641953 840.51076889 C-1301.39150477 834.44068461 -1301.39133856 828.3706182 -1301.39472611 822.30053305 C-1301.39514394 820.12109829 -1301.39391686 817.94166235 -1301.39074182 815.76222987 C-1301.37515164 804.38588517 -1301.52461219 793.03288292 -1301.96454716 781.66418362 C-1302.02348806 780.11846572 -1302.02348806 780.11846572 -1302.08361968 778.5415212 C-1302.1470536 765.2234283 -1302.1470536 765.2234283 -1306.515625 753.12890625 C-1310.86149328 752.73382732 -1312.83565997 752.67559623 -1316.515625 755.12890625 C-1317.30677511 758.13619549 -1317.30677511 758.13619549 -1317.68798828 761.78930664 C-1317.82382277 762.83360116 -1317.82382277 762.83360116 -1317.96240139 763.89899254 C-1318.26605883 766.25677342 -1318.5506156 768.6164979 -1318.8359375 770.9765625 C-1319.05243789 772.68075973 -1319.27032625 774.38478112 -1319.48948669 776.08863831 C-1319.96593979 779.80875891 -1320.43474799 783.52973603 -1320.89797974 787.25152588 C-1322.0473132 796.4724152 -1323.24321521 805.68732042 -1324.43758583 814.90246582 C-1324.72368792 817.11027707 -1325.00936519 819.31814341 -1325.29463768 821.52606201 C-1329.01410515 850.29754425 -1333.03107407 879.02694841 -1337.078125 907.75390625 C-1337.25985764 909.04493633 -1337.44159027 910.33596642 -1337.62882996 911.66611862 C-1342.15067194 943.78220497 -1346.72183334 975.89071524 -1351.54609299 1007.96294403 C-1351.88509852 1010.21715801 -1352.22310839 1012.47151978 -1352.56106567 1014.72589111 C-1359.97915042 1064.11962721 -1359.97915042 1064.11962721 -1370.47265625 1071.94921875 C-1378.40423772 1076.52921417 -1386.31722284 1078.6916762 -1395.2734375 1076.43359375 C-1403.84438933 1073.65445678 -1409.21764617 1070.06534262 -1413.390625 1062.00390625 C-1420.94468603 1045.94527319 -1415.69515417 1024.43809208 -1413.58732224 1007.58540344 C-1413.32242911 1005.45816508 -1413.06184225 1003.33043906 -1412.80252075 1001.20251465 C-1407.46868113 957.45683128 -1401.44766483 913.79647341 -1395.515625 870.12890625 C-1394.83135143 865.09114974 -1394.14711859 860.0533877 -1393.46289062 855.015625 C-1393.20180968 853.09351385 -1393.20180968 853.09351385 -1392.93545437 851.13257217 C-1391.53460871 840.81833676 -1390.13576701 830.5038303 -1388.73779392 820.18920517 C-1387.72249782 812.70043052 -1386.70360362 805.21215652 -1385.68186378 797.72425842 C-1385.04791865 793.07390554 -1384.41665266 788.42319169 -1383.78604889 783.77238464 C-1383.49117739 781.60210821 -1383.19514225 779.43198953 -1382.89788055 777.26203918 C-1382.49097058 774.29065681 -1382.08813271 771.3187495 -1381.6862793 768.34667969 C-1381.56641128 767.47888508 -1381.44654325 766.61109047 -1381.32304287 765.71699905 C-1380.52598923 759.94460549 -1380.52598923 759.94460549 -1380.515625 754.12890625 C-1382.15719236 752.48733889 -1384.00778301 752.84074633 -1386.265625 752.75390625 C-1387.55726563 752.68042969 -1387.55726563 752.68042969 -1388.875 752.60546875 C-1392.65661429 753.35507868 -1394.00339937 755.25904792 -1396.515625 758.12890625 Z M-1237.515625 753.12890625 C-1237.515625 947.82890625 -1237.515625 1142.52890625 -1237.515625 1343.12890625 C-1199.00895297 1345.41626207 -1199.00895297 1345.41626207 -1138.515625 1341.12890625 C-1140.90222601 1320.20430133 -1143.7477476 1299.34641844 -1146.60265446 1278.48185015 C-1147.29153526 1273.44388781 -1147.97803934 1268.40560151 -1148.6648407 1263.36735535 C-1149.85521371 1254.63726625 -1151.04701133 1245.90737261 -1152.23976517 1237.17760849 C-1153.98307103 1224.4181112 -1155.72378075 1211.65826068 -1157.46385877 1198.89832284 C-1160.31300537 1178.00591157 -1163.16370766 1157.11371291 -1166.015625 1136.22167969 C-1166.18591549 1134.97419445 -1166.35620598 1133.72670922 -1166.53165679 1132.4414214 C-1167.22014653 1127.39782719 -1167.90864346 1122.35423396 -1168.59714881 1117.31064188 C-1170.46173125 1103.65177726 -1172.32614903 1089.99289018 -1174.19042969 1076.33398438 C-1174.43939223 1074.5099419 -1174.43939223 1074.5099419 -1174.69338432 1072.64905009 C-1176.52318501 1059.24268618 -1178.35260473 1045.83627041 -1180.18116379 1032.42973709 C-1180.42596396 1030.63493104 -1180.42596396 1030.63493104 -1180.67570959 1028.80386628 C-1181.33202205 1023.99189721 -1181.98832389 1019.17992669 -1182.64456734 1014.3679482 C-1184.42603062 1001.30526845 -1186.20842903 988.24271779 -1187.99375153 975.18056488 C-1189.87953015 961.38332551 -1191.76383543 947.58588596 -1193.64550781 933.78808594 C-1193.79606741 932.68410633 -1193.946627 931.58012671 -1194.101749 930.44269317 C-1197.94606049 902.24742437 -1201.74007753 874.04632767 -1205.43038392 845.83047366 C-1206.05081852 841.08704504 -1206.67373935 836.34394523 -1207.29710197 831.60090065 C-1207.68933916 828.6148179 -1208.0814371 825.62871688 -1208.47348022 822.64260864 C-1208.56760015 821.92592186 -1208.66172008 821.20923508 -1208.75869213 820.47083052 C-1209.91771921 811.64116491 -1211.05941804 802.80951919 -1212.18344021 793.97533035 C-1212.79454051 789.19710287 -1213.41924291 784.42072954 -1214.04780626 779.6447711 C-1214.32778037 777.49260145 -1214.60151948 775.33960971 -1214.86842299 773.18578005 C-1215.22407413 770.31846881 -1215.60071759 767.45471277 -1215.98300171 764.59085083 C-1216.12841335 763.3500529 -1216.12841335 763.3500529 -1216.2767626 762.08418834 C-1216.58807841 759.55572528 -1216.58807841 759.55572528 -1217.515625 756.12890625 C-1222.815625 751.52890625 -1222.815625 751.52890625 -1237.515625 753.12890625 Z M-1153.515625 754.12890625 C-1153.99845758 762.44618306 -1153.29744533 770.57677965 -1152.11387634 778.79902649 C-1151.96270633 779.90012847 -1151.81153631 781.00123045 -1151.65578538 782.13569915 C-1151.15120867 785.79521306 -1150.63408698 789.45283825 -1150.11694336 793.1105957 C-1149.74911373 795.7593109 -1149.38199321 798.40811552 -1149.01575089 801.05704975 C-1148.22388441 806.77418256 -1147.42558275 812.49038676 -1146.62291527 818.20601273 C-1145.44474544 826.59586315 -1144.27687107 834.98712327 -1143.11132953 843.37873623 C-1141.18247807 857.26427654 -1139.24592588 871.14873163 -1137.30480957 885.03256226 C-1134.56934387 904.59868653 -1131.84484959 924.16632817 -1129.12346664 943.73441561 C-1128.17891276 950.52614236 -1127.23419869 957.31784683 -1126.28952266 964.10955659 C-1125.93680282 966.64546915 -1125.58410381 969.18138461 -1125.23140514 971.71730012 C-1123.70813932 982.66916533 -1122.18352478 993.62084219 -1120.65818851 1004.57241922 C-1113.80218048 1053.79858462 -1107.00836792 1103.03291846 -1100.29358512 1152.27856964 C-1098.31591721 1166.78244793 -1096.33414214 1181.28576591 -1094.35220122 1195.78906083 C-1094.05067182 1197.99565236 -1093.74919276 1200.20225077 -1093.44771767 1202.40884972 C-1089.7292341 1229.62317446 -1085.97567455 1256.83255924 -1082.17951965 1284.03616714 C-1081.77720649 1286.92086374 -1081.37572681 1289.80567513 -1080.9744873 1292.69052124 C-1080.37537295 1296.9964417 -1079.773684 1301.30199398 -1079.16969299 1305.60723305 C-1078.95937133 1307.10836689 -1078.74975511 1308.60959983 -1078.54100037 1310.11095238 C-1077.05111825 1320.81676223 -1075.33268034 1331.4741965 -1073.515625 1342.12890625 C-1070.53984292 1342.91450395 -1067.95555746 1343.25742924 -1064.87109375 1343.26171875 C-1063.9073584 1343.26373291 -1062.94362305 1343.26574707 -1061.95068359 1343.26782227 C-1060.87898926 1343.26322998 -1059.80729492 1343.2586377 -1058.703125 1343.25390625 C-1057.56182129 1343.25124756 -1056.42051758 1343.24858887 -1055.24462891 1343.24584961 C-1042.95822328 1343.18354212 -1030.67442828 1342.94046811 -1018.390625 1342.69140625 C-1016.88452164 1342.66207001 -1016.88452164 1342.66207001 -1015.34799194 1342.63214111 C-1003.04902572 1342.38800598 -990.78919803 1341.96681562 -978.515625 1341.12890625 C-979.95808625 1331.77209458 -982.41365475 1322.75109738 -984.94921875 1313.6484375 C-985.41070346 1311.97737491 -985.87171711 1310.30618218 -986.33230591 1308.63487244 C-987.33503536 1304.9995384 -988.34062536 1301.36501241 -989.34841919 1297.7310791 C-991.87065665 1288.63524011 -994.37759842 1279.53517689 -996.88673973 1270.43571854 C-997.80326107 1267.1125811 -998.72036868 1263.78960584 -999.63752747 1260.46664429 C-1004.48983057 1242.88061925 -1009.3097018 1225.28581555 -1014.1171875 1207.6875 C-1014.39107992 1206.68493117 -1014.39107992 1206.68493117 -1014.67050552 1205.66210842 C-1016.5326767 1198.84563119 -1018.39443438 1192.02904107 -1020.2559514 1185.21238518 C-1024.20180591 1170.7632527 -1028.15055819 1156.31491264 -1032.1015625 1141.8671875 C-1032.28425186 1141.1991425 -1032.46694122 1140.53109751 -1032.65516663 1139.84280872 C-1039.474122 1114.90895841 -1046.32246745 1089.98330065 -1053.203125 1065.06640625 C-1053.44142281 1064.20345947 -1053.67972061 1063.3405127 -1053.92523956 1062.45141602 C-1056.51448625 1053.07577691 -1059.10553673 1043.7006368 -1061.69726562 1034.32568359 C-1066.37098951 1017.41929869 -1071.03665216 1000.51068758 -1075.70182037 983.60194016 C-1076.44991258 980.89054937 -1077.19806775 978.17917596 -1077.94622803 975.46780396 C-1084.95788013 950.05607601 -1091.95281758 924.63978676 -1098.93416595 899.21971703 C-1100.51867965 893.45035623 -1102.10379898 887.68116237 -1103.68953705 881.91213799 C-1104.97814864 877.22404008 -1106.26648453 872.53586645 -1107.5546875 867.84765625 C-1107.80606476 866.93282597 -1108.05744202 866.01799568 -1108.31643677 865.07544327 C-1111.47021999 853.59625612 -1114.61399072 842.11439236 -1117.74598694 830.62924194 C-1119.28026991 825.0033845 -1120.8185583 819.37862487 -1122.35799313 813.75417519 C-1123.36707444 810.06627137 -1124.37392092 806.37779273 -1125.37490845 802.68768311 C-1131.11282904 777.1797625 -1131.11282904 777.1797625 -1142.515625 754.12890625 C-1145.33146276 752.72098737 -1151.17216598 751.78544723 -1153.515625 754.12890625 Z M-1566.515625 1407.12890625 C-1566.515625 1464.54890625 -1566.515625 1521.96890625 -1566.515625 1581.12890625 C-1552.16874794 1581.16514869 -1552.16874794 1581.16514869 -1537.83129883 1580.9453125 C-1536.62744789 1580.91605179 -1536.62744789 1580.91605179 -1535.39927673 1580.88619995 C-1532.84034278 1580.82347329 -1530.28150517 1580.75750229 -1527.72265625 1580.69140625 C-1525.91135661 1580.64636061 -1524.10005176 1580.60152435 -1522.28874207 1580.55688477 C-1517.59207883 1580.44058853 -1512.89549046 1580.32150816 -1508.19891357 1580.20178223 C-1503.37809496 1580.07940405 -1498.55720875 1579.95974963 -1493.73632812 1579.83984375 C-1484.32936025 1579.60548133 -1474.92246945 1579.36816804 -1465.515625 1579.12890625 C-1464.78587439 1551.54660979 -1464.32649057 1523.96462411 -1463.98652267 1496.37506485 C-1463.94451775 1492.999774 -1463.9007889 1489.62450668 -1463.8566761 1486.24924278 C-1463.52533805 1459.87148264 -1463.515625 1433.51220142 -1463.515625 1407.12890625 C-1497.505625 1407.12890625 -1531.495625 1407.12890625 -1566.515625 1407.12890625 Z M-1400.515625 1407.12890625 C-1400.515625 1464.54890625 -1400.515625 1521.96890625 -1400.515625 1581.12890625 C-1367.845625 1581.12890625 -1335.175625 1581.12890625 -1301.515625 1581.12890625 C-1301.515625 1523.70890625 -1301.515625 1466.28890625 -1301.515625 1407.12890625 C-1334.185625 1407.12890625 -1366.855625 1407.12890625 -1400.515625 1407.12890625 Z M-1236.515625 1412.12890625 C-1237.10896504 1414.5610993 -1237.10896504 1414.5610993 -1237.00337219 1417.35476685 C-1237.01031601 1418.4386972 -1237.01725983 1419.52262756 -1237.02441406 1420.6394043 C-1237.011604 1421.82977295 -1236.99879395 1423.0201416 -1236.9855957 1424.24658203 C-1236.9877861 1425.50099091 -1236.9899765 1426.75539978 -1236.99223328 1428.04782104 C-1236.9976686 1431.50037224 -1236.97817132 1434.95238947 -1236.95413232 1438.40484476 C-1236.93275529 1442.04892165 -1236.93342573 1445.69299806 -1236.93144226 1449.33712769 C-1236.92497976 1455.48932964 -1236.90372347 1461.64133401 -1236.87231445 1467.79345703 C-1236.83259083 1475.58222386 -1236.81470082 1483.37085986 -1236.80500507 1491.15971565 C-1236.79653961 1497.94878151 -1236.77933481 1504.73782196 -1236.75996757 1511.52686453 C-1236.75597168 1512.95897653 -1236.75222508 1514.39108926 -1236.7487452 1515.82320261 C-1236.69697138 1536.94068137 -1236.25427574 1558.02514129 -1235.515625 1579.12890625 C-1225.15236052 1579.3922826 -1214.78904491 1579.65344847 -1204.42563915 1579.91120911 C-1199.611445 1580.03102787 -1194.79727538 1580.15169167 -1189.9831543 1580.27441406 C-1185.3212261 1580.39322349 -1180.65924343 1580.50964697 -1175.99721718 1580.62454224 C-1174.23497782 1580.66836778 -1172.4727582 1580.7129962 -1170.71056175 1580.7585144 C-1168.20707559 1580.8230309 -1165.70352878 1580.88446073 -1163.19995117 1580.9453125 C-1162.50150085 1580.96401398 -1161.80305054 1580.98271545 -1161.08343506 1581.00198364 C-1152.22466699 1581.21017021 -1143.38384833 1581.12890625 -1134.515625 1581.12890625 C-1134.515625 1523.70890625 -1134.515625 1466.28890625 -1134.515625 1407.12890625 C-1188.91970752 1399.4166587 -1188.91970752 1399.4166587 -1236.515625 1412.12890625 Z M-1070.515625 1407.12890625 C-1070.57568319 1440.58201897 -1070.57568319 1440.58201897 -1070.578125 1474.03515625 C-1070.57700714 1475.06917068 -1070.57588928 1476.10318512 -1070.57473755 1477.16853333 C-1070.54883138 1497.11921595 -1070.39604055 1517.06663718 -1070.10990524 1537.01525116 C-1070.07825439 1539.2447921 -1070.04826365 1541.47435047 -1070.01858521 1543.70391846 C-1069.96294506 1547.82746989 -1069.89853963 1551.95082793 -1069.83203125 1556.07421875 C-1069.81531372 1557.26180786 -1069.79859619 1558.44939697 -1069.78137207 1559.67297363 C-1069.66369082 1566.20677905 -1069.29510241 1572.63954339 -1068.515625 1579.12890625 C-1058.15236623 1579.3924943 -1047.7890446 1579.65344848 -1037.42563915 1579.91120911 C-1032.611445 1580.03102787 -1027.79727538 1580.15169167 -1022.9831543 1580.27441406 C-1018.3212261 1580.39322349 -1013.65924343 1580.50964697 -1008.99721718 1580.62454224 C-1007.23497782 1580.66836778 -1005.4727582 1580.7129962 -1003.71056175 1580.7585144 C-1001.20707559 1580.8230309 -998.70352878 1580.88446073 -996.19995117 1580.9453125 C-995.50150085 1580.96401398 -994.80305054 1580.98271545 -994.08343506 1581.00198364 C-985.22466699 1581.21017021 -976.38384833 1581.12890625 -967.515625 1581.12890625 C-967.515625 1523.70890625 -967.515625 1466.28890625 -967.515625 1407.12890625 C-1001.505625 1407.12890625 -1035.495625 1407.12890625 -1070.515625 1407.12890625 Z M-1700.52070187 1651.64552362 C-1704.57878899 1661.7747314 -1703.81414803 1673.44353335 -1703.78125 1684.20703125 C-1703.78341321 1685.73255007 -1703.78623222 1687.25806808 -1703.78965759 1688.78358459 C-1703.79530308 1692.81860579 -1703.78677838 1696.85346337 -1703.77337265 1700.88846207 C-1703.76558508 1703.39173724 -1703.7610341 1705.89500075 -1703.75723267 1708.39828491 C-1704.75258903 1764.93373343 -1704.75258903 1764.93373343 -1694.515625 1820.12890625 C-1694.2892334 1820.84771973 -1694.0628418 1821.5665332 -1693.82958984 1822.30712891 C-1681.65371849 1860.32960242 -1662.48041018 1895.15087445 -1635.1484375 1924.3125 C-1632.64693254 1926.98844225 -1630.20068417 1929.7050601 -1627.765625 1932.44140625 C-1621.73424558 1939.14770024 -1615.41337966 1945.31858741 -1608.515625 1951.12890625 C-1607.97824707 1951.58539551 -1607.44086914 1952.04188477 -1606.88720703 1952.51220703 C-1575.06144491 1979.43110293 -1538.70285305 1996.32003683 -1499.63775635 2009.9744873 C-1498.99441345 2010.19938843 -1498.35107056 2010.42428955 -1497.68823242 2010.65600586 C-1497.05758377 2010.87071911 -1496.42693512 2011.08543236 -1495.7771759 2011.30665207 C-1494.25402071 2011.8604405 -1492.74978621 2012.46891314 -1491.2685051 2013.12655258 C-1483.05237305 2016.59065413 -1475.15972804 2016.73020263 -1466.39868164 2016.73168945 C-1464.75311006 2016.74635218 -1463.1075524 2016.7626493 -1461.46201134 2016.78040886 C-1456.90205358 2016.82417053 -1452.34229501 2016.84244708 -1447.78216052 2016.85613418 C-1443.80708303 2016.87118715 -1439.83216163 2016.90076145 -1435.85716802 2016.93012434 C-1422.03637018 2017.03149486 -1408.21554761 2017.07931817 -1394.3944521 2017.11785221 C-1390.43273196 2017.12914248 -1386.47101604 2017.14153198 -1382.50930023 2017.15422821 C-1346.50648468 2017.26864017 -1310.50378925 2017.31544932 -1274.50079918 2017.31448174 C-1273.72043284 2017.31446112 -1272.94006651 2017.31444051 -1272.13605271 2017.31441928 C-1271.35480586 2017.31439673 -1270.57355901 2017.31437419 -1269.76863801 2017.31435096 C-1268.98655683 2017.31432873 -1268.20447565 2017.3143065 -1267.39869504 2017.31428359 C-1265.81683705 2017.31423384 -1264.23497906 2017.31417189 -1262.65312107 2017.31409778 C-1249.83600097 2017.31367967 -1237.0189097 2017.32338425 -1224.20179795 2017.33734735 C-1210.78655854 2017.35183953 -1197.37133315 2017.35861173 -1183.95608574 2017.35775357 C-1176.5241975 2017.35742777 -1169.09234044 2017.35995899 -1161.66045952 2017.37093163 C-1122.30198736 2017.42986734 -1122.30198736 2017.42986734 -1082.96508789 2016.24731445 C-1082.10124194 2016.20896433 -1081.23739599 2016.17061421 -1080.34737289 2016.13110197 C-1066.09119286 2015.47430885 -1052.34997203 2013.8064482 -1038.515625 2010.12890625 C-1036.92790283 2009.70714111 -1036.92790283 2009.70714111 -1035.30810547 2009.27685547 C-979.03986521 1993.88247838 -924.86288685 1960.23618868 -889.515625 1913.12890625 C-889.10860352 1912.5982959 -888.70158203 1912.06768555 -888.28222656 1911.52099609 C-860.01251751 1874.6324733 -837.09305088 1829.65601265 -833.48046875 1782.765625 C-833.39640778 1781.68876938 -833.3123468 1780.61191376 -833.22573853 1779.50242615 C-832.26428288 1766.5794062 -831.80212973 1753.64172712 -831.390625 1740.69140625 C-831.34893188 1739.42095459 -831.30723877 1738.15050293 -831.26428223 1736.84155273 C-830.71594286 1719.93874048 -830.31245284 1703.04091714 -830.265625 1686.12890625 C-830.26044861 1685.27362335 -830.25527222 1684.41834045 -830.24993896 1683.53713989 C-829.53281949 1666.21011942 -829.53281949 1666.21011942 -836.515625 1651.12890625 C-841.12391394 1648.34886864 -845.42102439 1647.46570618 -850.703125 1647.00390625 C-851.48796917 1646.93293455 -852.27281335 1646.86196284 -853.08144068 1646.78884048 C-859.83438412 1646.21772469 -866.57839133 1645.85389799 -873.35056591 1645.60831165 C-874.50499459 1645.56636596 -875.65942328 1645.52442026 -876.84883465 1645.48120349 C-892.35422972 1644.95595077 -907.86598592 1644.78763442 -923.37854336 1644.61282072 C-926.01829922 1644.58286108 -928.65803954 1644.55175201 -931.29777912 1644.52039226 C-966.77293792 1644.10152445 -1002.24692951 1643.93411966 -1037.72429078 1643.87072377 C-1043.75454332 1643.85985867 -1049.78478893 1643.84690752 -1055.81503487 1643.83286476 C-1122.75730736 1643.67727158 -1189.69976177 1643.59324759 -1256.64218114 1643.53160016 C-1266.25388599 1643.52272378 -1275.86559052 1643.51350147 -1285.47729492 1643.50415039 C-1286.53885237 1643.50312569 -1287.60040982 1643.50210098 -1288.69413568 1643.50104523 C-1323.32327557 1643.46737292 -1357.95223653 1643.39856375 -1392.58127981 1643.31140097 C-1428.3511801 1643.22153163 -1464.12098285 1643.16407165 -1499.89099668 1643.14866434 C-1504.93274625 1643.14648362 -1509.97449559 1643.14394491 -1515.01624489 1643.1411953 C-1516.00814107 1643.14066757 -1517.00003725 1643.14013984 -1518.02199089 1643.13959612 C-1533.96962467 1643.13018316 -1549.91699173 1643.08674634 -1565.86452193 1643.03062471 C-1581.83456511 1642.97518035 -1597.80432218 1642.95602872 -1613.77445414 1642.97437928 C-1623.25879828 1642.98417996 -1632.74213621 1642.96596827 -1642.22631382 1642.90806761 C-1648.55305293 1642.8721753 -1654.87911645 1642.87234624 -1661.2058852 1642.90226395 C-1664.81366031 1642.91828388 -1668.41951796 1642.91827479 -1672.02710422 1642.87439565 C-1675.90741824 1642.82756374 -1679.78492335 1642.85762034 -1683.66538525 1642.89563465 C-1685.35414384 1642.85665822 -1685.35414384 1642.85665822 -1687.07701877 1642.81689438 C-1694.62116194 1642.98282588 -1697.14640011 1644.89434017 -1700.52070187 1651.64552362 Z M-796.515625 1882.12890625 C-796.9436002 1882.98979685 -796.9436002 1882.98979685 -797.38022137 1883.86807919 C-798.68726645 1886.49533002 -799.99632648 1889.12157199 -801.30541992 1891.74780273 C-801.75419243 1892.65061729 -802.20296494 1893.55343185 -802.66533661 1894.48360443 C-805.84501183 1900.85759016 -809.15553734 1907.08545511 -812.828125 1913.19140625 C-813.63588379 1914.54564697 -813.63588379 1914.54564697 -814.45996094 1915.92724609 C-822.15917827 1928.6856303 -830.60208694 1940.96622144 -839.80859375 1952.68359375 C-842.75616898 1956.9059784 -844.16032793 1960.51068867 -843.29296875 1965.71484375 C-837.3173778 1984.2722066 -818.8969803 2000.82793498 -802.17675781 2009.68408203 C-793.01389123 2014.35505473 -784.75452208 2015.2830713 -774.58193016 2015.65675545 C-773.49512932 2015.69810769 -772.40832847 2015.73945994 -771.28859427 2015.78206528 C-757.74664565 2016.26731216 -744.19916205 2016.47092549 -730.6504251 2016.65358279 C-728.40970557 2016.68392903 -726.16900237 2016.71531757 -723.9282995 2016.74686919 C-693.90698938 2017.16594293 -663.88850226 2017.27494313 -633.86431776 2017.26057483 C-626.45883228 2017.25724593 -619.05335117 2017.26004116 -611.64786588 2017.26277828 C-597.11032078 2017.26796341 -582.57278015 2017.26761795 -568.03523465 2017.26469937 C-555.21626503 2017.26214051 -542.39729701 2017.26154647 -529.57832718 2017.26272202 C-528.2814271 2017.26283659 -528.2814271 2017.26283659 -526.95832701 2017.26295349 C-523.44325331 2017.26326512 -519.92817962 2017.26358354 -516.41310592 2017.26391325 C-483.55270602 2017.26695775 -450.69230887 2017.26422946 -417.83190939 2017.25881635 C-390.11693501 2017.25428497 -362.40196488 2017.25424819 -334.68699052 2017.25883284 C-330.13919999 2017.2595732 -325.59140945 2017.26024998 -321.04361892 2017.26092458 C-320.14444968 2017.26105825 -319.24528044 2017.26119192 -318.31886366 2017.26132964 C-309.26523134 2017.26267057 -300.21159902 2017.26397053 -291.1579667 2017.26523954 C-288.44988202 2017.26562491 -285.74179735 2017.26602726 -283.03371269 2017.26643223 C-243.0606515 2017.27230863 -203.08764369 2017.26866656 -163.1146026 2017.22484047 C-160.50826789 2017.2219897 -157.90193313 2017.21918613 -155.29559836 2017.21639755 C-133.52762146 2017.19310705 -133.52762146 2017.19310705 -111.7596472 2017.16750939 C-73.61006709 2017.12064916 -35.46168085 2017.12091807 2.6876899 2017.2661339 C5.49718214 2017.27680554 8.30667452 2017.28743783 11.11616707 2017.29802895 C12.14837829 2017.3019364 12.14837829 2017.3019364 13.20144227 2017.3059228 C30.84670432 2017.37202932 48.49201157 2017.39197481 66.13739097 2017.40086591 C79.09594219 2017.40936254 92.05312751 2017.45566298 105.01129583 2017.55646828 C113.55958972 2017.61970317 122.10715342 2017.63684869 130.65565428 2017.61601838 C135.46818027 2017.60575012 140.27818247 2017.61560966 145.09027815 2017.68477011 C165.37263004 2017.96304258 181.0618759 2018.07033994 196.484375 2003.12890625 C197.54279562 2002.22189315 198.60929451 2001.32417209 199.68576622 2000.43865776 C202.08820219 1998.43812578 204.29436849 1996.35763586 206.484375 1994.12890625 C207.08894531 1993.52304688 207.69351562 1992.9171875 208.31640625 1992.29296875 C227.86576861 1971.37559232 239.61910516 1940.89348186 252.34347534 1915.64086914 C253.09472049 1914.15144047 253.84786686 1912.66296899 254.60305786 1911.17553711 C258.75920136 1902.98076202 262.64723661 1894.89697046 265.484375 1886.12890625 C256.1808991 1883.02774762 244.96928817 1883.89189469 235.23522758 1883.60111904 C234.57330036 1883.58068733 233.91137314 1883.56025562 233.22938752 1883.53920477 C217.31277163 1883.04967302 201.3931272 1882.78248864 185.47073364 1882.57350159 C184.69861267 1882.56311362 183.9264917 1882.55272566 183.13097312 1882.54202291 C141.95868876 1881.98881165 100.78660936 1881.99104752 59.61132534 1882.01129477 C48.21590226 1882.01668059 36.82048115 1882.01594961 25.42505712 1882.01515879 C4.41369917 1882.01386056 -16.59765558 1882.0171255 -37.6090126 1882.02317619 C-58.35261171 1882.02913419 -79.09620947 1882.03295031 -99.83980942 1882.03402901 C-101.7890078 1882.03413212 -101.7890078 1882.03413212 -103.77758392 1882.03423731 C-110.37940324 1882.03457574 -116.98122257 1882.03487708 -123.58304189 1882.03516418 C-136.992174 1882.03576643 -150.40130608 1882.0366946 -163.81043816 1882.03776646 C-164.48067672 1882.03781977 -165.15091528 1882.03787309 -165.8414641 1882.03792802 C-198.27321615 1882.0405359 -230.70496732 1882.04683772 -263.13671875 1882.0534668 C-274.36069742 1882.05575891 -285.5846761 1882.05803448 -296.80865479 1882.0602417 C-297.50497336 1882.06037865 -298.20129194 1882.0605156 -298.91871107 1882.0606567 C-331.42103226 1882.0670264 -363.92335361 1882.07073458 -396.42567526 1882.07377649 C-398.54139068 1882.07397455 -400.65710609 1882.07417375 -402.77282151 1882.07437317 C-416.79632897 1882.07569321 -430.81983644 1882.07696781 -444.84334391 1882.07821203 C-473.39986561 1882.08074609 -501.95638728 1882.08356813 -530.51290894 1882.08656311 C-531.82531456 1882.0867004 -533.13772018 1882.08683769 -534.48989566 1882.08697914 C-621.83180616 1882.0961487 -709.1737157 1882.11199009 -796.515625 1882.12890625 Z " fill="#FFFFFF" transform="translate(1775.515625,51.87109375)"/>
<path d="M0 0 C0.92554688 0.40089844 1.85109375 0.80179688 2.8046875 1.21484375 C10.69142594 5.06884483 16.93712166 10.72888267 23 17 C23.4942749 17.50523193 23.9885498 18.01046387 24.49780273 18.53100586 C28.95991954 23.37782503 31.66792358 28.74823318 34.4375 34.6875 C34.94845215 35.77071533 35.4594043 36.85393066 35.98583984 37.9699707 C56.08989586 81.19097681 72.57956874 126.28154984 89 171 C89.32266846 171.87843567 89.64533691 172.75687134 89.9777832 173.66192627 C103.37651404 210.18848106 103.37651404 210.18848106 108.875 228.5 C109.19073975 229.54260986 109.50647949 230.58521973 109.83178711 231.65942383 C114.61437673 248.21051643 112.3395578 263.5168225 104.03808594 278.76708984 C94.17231694 295.81340686 82.53553214 305.43931873 64.43359375 313.0703125 C63.11007171 313.63547629 61.78670587 314.20100598 60.46348572 314.76687622 C46.44216255 320.73922816 32.30200229 326.42013175 18.14001465 332.04888535 C16.01792664 332.8927244 13.8964536 333.73809274 11.77514648 334.58389282 C-29.87926126 351.1902588 -71.65430316 367.6301242 -114.1875 381.875 C-115.41025635 382.28596924 -116.6330127 382.69693848 -117.89282227 383.12036133 C-119.01487061 383.49056396 -120.13691895 383.8607666 -121.29296875 384.2421875 C-122.2574292 384.5604248 -123.22188965 384.87866211 -124.21557617 385.20654297 C-141.49122295 390.12945854 -160.44665019 385.81848615 -175.94140625 377.40234375 C-230.67912329 343.98112291 -255.57893159 218.86518114 -274 161 C-274.35578125 159.89736816 -274.7115625 158.79473633 -275.078125 157.65869141 C-281.67659661 137.03519457 -281.20870269 120.03372259 -271.20947266 100.60302734 C-263.72655873 86.79080103 -254.43203744 79.82290134 -240.5 73.1875 C-239.49841354 72.70620132 -239.49841354 72.70620132 -238.47659302 72.21517944 C-220.94134884 63.80470665 -202.99786296 56.3543888 -185 49 C-184.00960724 48.59454956 -184.00960724 48.59454956 -182.99920654 48.1809082 C-31.27632451 -13.89574863 -31.27632451 -13.89574863 0 0 Z M-43.25 62.875 C-44.21303543 63.19561401 -44.21303543 63.19561401 -45.19552612 63.52270508 C-97.88775585 81.16099269 -150.08655298 102.50281406 -200.8125 125.1875 C-201.57054932 125.52595947 -202.32859863 125.86441895 -203.10961914 126.21313477 C-207.56332502 128.24065702 -211.78416339 130.51458522 -216 133 C-213.30656063 143.76011981 -210.03108113 154.18050232 -206.3125 164.625 C-206.03643921 165.40534607 -205.76037842 166.18569214 -205.47595215 166.98968506 C-189.37666197 212.46477547 -171.96106052 257.63758071 -153 302 C-152.60458008 302.93086426 -152.20916016 303.86172852 -151.80175781 304.82080078 C-150.74380825 307.28677679 -149.66074634 309.73925425 -148.5625 312.1875 C-148.12151978 313.21351318 -148.12151978 313.21351318 -147.67163086 314.26025391 C-146.39156372 317.02210016 -145.47211229 318.73475496 -142.78076172 320.24682617 C-133.08279022 322.87353751 -119.28561495 316.0401629 -109.9375 312.875 C-109.17733582 312.61978577 -108.41717163 312.36457153 -107.63397217 312.10162354 C-87.52640199 305.33580876 -67.71678654 297.76918487 -47.92803955 290.13006592 C-44.99424193 288.9977777 -42.0594403 287.86812259 -39.12451172 286.73876953 C-18.47922142 278.78612382 2.09035052 270.66605551 22.5 262.125 C23.30581512 261.78975311 24.11163025 261.45450623 24.94186401 261.10910034 C27.2039309 260.16585357 29.46195613 259.21359581 31.71875 258.2578125 C32.69981468 257.84960518 32.69981468 257.84960518 33.70069885 257.43315125 C38.06947842 255.56347976 42.59402192 253.40597808 46 250 C46.37298872 244.34666114 45.38727652 239.67016942 43.8125 234.3125 C43.55186768 233.41861572 43.29123535 232.52473145 43.02270508 231.60375977 C18.3157706 139.0986084 18.3157706 139.0986084 -28 59 C-33.31265862 59 -38.24551699 61.20848445 -43.25 62.875 Z " fill="#FFFFFF" transform="translate(1321,1050)"/>
<path d="M0 0 C10.61867538 8.4888112 16.49041329 18.52926738 21.85205078 30.89160156 C22.3714624 32.07665283 22.89087402 33.2617041 23.42602539 34.48266602 C28.69767684 46.57360146 33.57926141 58.81982884 38.40869141 71.09277344 C40.48657696 76.36927336 42.58400295 81.63797133 44.68017578 86.90722656 C54.69908462 112.10827715 64.59381107 137.3530073 74.22705078 162.70410156 C74.5510083 163.55588989 74.87496582 164.40767822 75.20874023 165.28527832 C102.28084342 236.49181754 102.28084342 236.49181754 91.71923828 262.40332031 C76.94057484 293.64472744 48.16431626 305.31524266 17.91455078 317.45410156 C17.15014679 317.7623587 16.3857428 318.07061584 15.59817505 318.38821411 C-149.32532552 384.85298053 -149.32532552 384.85298053 -174.17382812 374.72558594 C-185.23644853 369.94821714 -195.74919604 364.81623107 -204.77294922 356.70410156 C-205.40692627 356.14529297 -206.04090332 355.58648438 -206.6940918 355.01074219 C-212.03853395 350.04335615 -214.9956611 345.12565857 -217.83544922 338.45410156 C-218.28823242 337.42816895 -218.74101563 336.40223633 -219.20751953 335.34521484 C-220.47742129 332.44312832 -221.72668988 329.5333371 -222.96246338 326.61657715 C-223.80144802 324.63685392 -224.64511794 322.65917067 -225.48925781 320.68164062 C-234.98178891 298.39980536 -243.97149435 275.91742471 -252.74633789 253.34454346 C-253.44704107 251.54233655 -254.14840449 249.74038625 -254.8503418 247.93865967 C-300.98616366 129.51677675 -300.98616366 129.51677675 -292.21044922 103.64160156 C-291.45132652 101.97047729 -290.63669641 100.32362754 -289.77294922 98.70410156 C-289.29857422 97.74761719 -288.82419922 96.79113281 -288.33544922 95.80566406 C-283.98895984 87.67689307 -278.36260514 81.09148697 -271.77294922 74.70410156 C-271.1098877 74.05489746 -270.44682617 73.40569336 -269.76367188 72.73681641 C-264.53055958 67.82754384 -259.46667298 64.65028796 -252.89794922 61.82910156 C-251.38962524 61.16044067 -251.38962524 61.16044067 -249.85083008 60.47827148 C-246.86424224 59.16676326 -243.86975349 57.87585004 -240.86895752 56.597229 C-238.61678671 55.63755935 -236.36652096 54.67349698 -234.11621094 53.70947266 C-207.8817648 42.49299331 -181.42721254 31.87939694 -154.77294922 21.70410156 C-153.93463562 21.38376953 -153.09632202 21.0634375 -152.23260498 20.73339844 C-33.60542776 -24.5631521 -33.60542776 -24.5631521 0 0 Z M-54.71826172 52.18457031 C-55.89108452 52.60414505 -55.89108452 52.60414505 -57.08760071 53.03219604 C-59.69656307 53.97081632 -62.29717781 54.9305384 -64.89794922 55.89160156 C-66.75328606 56.56658591 -68.60884147 57.24096972 -70.46459961 57.91479492 C-115.32222363 74.28083478 -160.08132 91.40756714 -203.77294922 110.70410156 C-205.11534668 111.29578125 -205.11534668 111.29578125 -206.48486328 111.89941406 C-218.52951165 116.89823778 -218.52951165 116.89823778 -228.77294922 124.70410156 C-230.0901888 128.65582032 -228.9140304 131.22440176 -227.65966797 135.02441406 C-227.41923767 135.7734903 -227.17880737 136.52256653 -226.93109131 137.29434204 C-226.11857767 139.80966866 -225.29070978 142.31958028 -224.46044922 144.82910156 C-224.17251495 145.70699341 -223.88458069 146.58488525 -223.58792114 147.48937988 C-207.95962338 195.05705512 -189.86000478 242.02366841 -170.83544922 288.32910156 C-170.55576294 289.01189178 -170.27607666 289.69468201 -169.98791504 290.39816284 C-166.87108171 297.9857929 -163.57955732 305.43281523 -159.77294922 312.70410156 C-150.68566789 311.29241832 -142.1348938 308.33655632 -133.46044922 305.39160156 C-131.86512554 304.85408798 -130.26974675 304.31673792 -128.67431641 303.77954102 C-123.7025917 302.10112252 -118.73677703 300.40571701 -113.77294922 298.70410156 C-112.9975177 298.43839355 -112.22208618 298.17268555 -111.42315674 297.89892578 C-78.66228494 286.65757812 -46.25486106 274.5030037 -14.02294922 261.82910156 C-12.7096463 261.3149469 -12.7096463 261.3149469 -11.36981201 260.79040527 C1.33455379 255.80901897 13.87240866 250.50452082 26.22705078 244.70410156 C27.31660065 244.25093063 27.31660065 244.25093063 28.42816162 243.78860474 C30.61563495 242.75588327 30.61563495 242.75588327 31.06298828 239.47363281 C32.03276211 217.19192465 16.41630619 189.56592875 8.53955078 169.07910156 C7.6327002 166.71273971 6.7258813 164.34636572 5.8190918 161.97998047 C-4.21799537 135.8254677 -14.42185592 109.73593247 -24.77294922 83.70410156 C-25.29976288 82.37759583 -25.29976288 82.37759583 -25.83721924 81.02429199 C-27.59373125 76.60526286 -29.36070208 72.1908676 -31.15353394 67.78643799 C-31.86655941 66.0313658 -32.57105265 64.27283454 -33.27514648 62.51416016 C-33.68949951 61.50949707 -34.10385254 60.50483398 -34.53076172 59.46972656 C-35.04340576 58.21337402 -35.04340576 58.21337402 -35.56640625 56.93164062 C-37.58538824 53.20416356 -39.45114111 51.13857068 -43.52636719 49.79907227 C-47.63710289 49.67882289 -50.92535118 50.76867514 -54.71826172 52.18457031 Z " fill="#FFFFFF" transform="translate(1830.77294921875,1338.2958984375)"/>
<path d="M0 0 C6.62672888 0.00569385 13.25341757 0.00231474 19.88014507 -0.0034399 C136.63606994 -0.08961911 136.63606994 -0.08961911 156.5246582 17.75537109 C163.76188098 25.60476497 169.31828072 35.14307098 175.0246582 44.13037109 C175.4339324 44.59604366 175.8432066 45.06171623 176.26488304 45.54150009 C181.72713947 52.46982336 180.69482603 60.8981128 180.6081543 69.25024414 C180.60838126 70.99432531 180.61080003 72.73840736 180.61523438 74.48248291 C180.62093431 79.21392669 180.5956426 83.9447523 180.56455946 88.67607856 C180.53685271 93.66755914 180.53700882 98.6590435 180.53384399 103.65058899 C180.5246367 112.06298341 180.49713671 120.47515081 180.45678711 128.88745117 C180.40056467 140.61704736 180.37768845 152.34652635 180.36150241 164.07623613 C180.34736343 173.30653608 180.32301111 182.53681381 180.2980957 191.76708984 C180.29443977 193.21354625 180.29443977 193.21354625 180.29070997 194.689224 C180.24019597 214.11738743 180.14604748 233.54494962 179.6879456 252.96846926 C179.65193607 254.5109525 179.61829442 256.05349347 179.58740878 257.59608781 C179.19245436 276.66661055 178.16975398 294.13385337 165.0246582 309.13037109 C164.33243164 309.95408203 163.64020508 310.77779297 162.92700195 311.62646484 C149.54999964 327.12680086 135.20218326 334.37733324 115.0246582 336.13037109 C100.86544428 337.05258103 86.68511004 337.41011276 72.5012207 337.68115234 C71.44468922 337.7019668 70.38815773 337.72278126 69.29961014 337.74422646 C43.87119998 338.23520225 18.4430189 338.31781523 -6.98950195 338.31567383 C-13.40012264 338.31557068 -19.81063637 338.32944499 -26.22123146 338.34644604 C-31.27819293 338.35765084 -36.33512868 338.35959078 -41.39210129 338.3590641 C-43.75585691 338.36022287 -46.11961369 338.36452179 -48.48335648 338.37239647 C-112.96266548 338.56793299 -112.96266548 338.56793299 -133.3737793 318.89208984 C-157.58896064 293.18618412 -156.30118808 259.95228293 -156.20581055 226.77880859 C-156.20438381 224.05536791 -156.20598316 221.33193053 -156.20730591 218.60848999 C-156.2085397 210.65057066 -156.19115529 202.69274604 -156.16901827 194.73486137 C-156.16283324 192.50228305 -156.15697737 190.26970408 -156.15121078 188.03712463 C-156.11832609 175.38663045 -156.08500795 162.73612858 -156.03602225 150.08568525 C-155.97683595 134.64238494 -155.9731618 119.20288015 -156.14341736 103.76004028 C-156.21212274 97.51149946 -156.24062285 91.26307078 -156.25293827 85.01418114 C-156.26301909 81.10204423 -156.29500824 77.19311921 -156.38412476 73.28192139 C-156.98118038 46.22172086 -156.98118038 46.22172086 -146.86262512 35.64471436 C-145.75168104 34.5772937 -144.62375055 33.52714291 -143.47612 32.49926758 C-141.5123467 30.70806195 -139.87588064 28.70878914 -138.2253418 26.63037109 C-121.80139358 8.40818037 -102.20484318 2.37281565 -78.29847717 0.97370911 C-52.22474867 -0.30410378 -26.09604308 -0.02264221 0 0 Z M-68.6003418 65.06787109 C-70.27290039 65.17977783 -70.27290039 65.17977783 -71.97924805 65.29394531 C-82.64282304 65.4264157 -82.64282304 65.4264157 -91.9753418 69.13037109 C-92.13731492 71.40569859 -92.22765043 73.68612396 -92.29174805 75.96630859 C-92.31261978 76.68891876 -92.33349152 77.41152893 -92.35499573 78.15603638 C-92.42266191 80.60569055 -92.48120707 83.05543788 -92.5378418 85.50537109 C-92.55868835 86.37299072 -92.57953491 87.24061035 -92.60101318 88.13452148 C-93.48430872 125.82747614 -92.97945583 163.53147413 -92.56917572 201.22769165 C-92.53824576 204.09294934 -92.50832382 206.95821614 -92.47857666 209.82348633 C-92.25659561 230.94024838 -91.94025269 252.03202858 -90.9753418 273.13037109 C-66.37247447 273.96403098 -41.77646873 274.39776759 -17.16149902 274.66259766 C-13.49706179 274.7029574 -9.8326727 274.74701319 -6.16827774 274.79101944 C36.49360093 275.37323518 36.49360093 275.37323518 79.1496582 274.75537109 C80.51033131 274.72394828 81.87100846 274.69270017 83.23168945 274.66162109 C89.93428269 274.48486219 96.60452401 274.09535112 103.2668457 273.34130859 C104.46937988 273.20772949 105.67191406 273.07415039 106.91088867 272.93652344 C110.51694979 272.00291721 111.84080477 271.12352542 114.0246582 268.13037109 C114.89816421 265.555644 114.89816421 265.555644 115.20825195 262.70068359 C115.42843994 261.10208496 115.42843994 261.10208496 115.65307617 259.47119141 C116.26294036 253.98802351 116.73112603 248.51079727 117.0871582 243.00537109 C117.16949707 241.74152588 117.25183594 240.47768066 117.33666992 239.17553711 C120.14695595 193.74072473 120.56091848 147.58318773 118.0246582 102.13037109 C117.96020508 100.97102051 117.89575195 99.81166992 117.8293457 98.6171875 C117.62464054 95.16136637 117.39459384 91.70855793 117.1496582 88.25537109 C117.08343262 87.25546143 117.01720703 86.25555176 116.94897461 85.2253418 C116.40245095 76.25675437 116.40245095 76.25675437 113.0246582 68.13037109 C110.12166423 66.57761604 107.27422307 66.37540222 104.0246582 66.13037109 C103.16517578 66.03095215 102.30569336 65.9315332 101.42016602 65.82910156 C98.49885618 65.51211281 95.58045396 65.27973033 92.6496582 65.06787109 C91.5157666 64.98553223 90.381875 64.90319336 89.21362305 64.81835938 C36.96057299 61.26540525 -16.34662394 61.5433661 -68.6003418 65.06787109 Z " fill="#FFFFFF" transform="translate(1630.975341796875,894.86962890625)"/>
</svg>
