<?xml version="1.0" encoding="UTF-8"?>
<!DOCTYPE svg PUBLIC "-//W3C//DTD SVG 1.1//EN" "http://www.w3.org/Graphics/SVG/1.1/DTD/svg11.dtd">
<svg xmlns="http://www.w3.org/2000/svg" version="1.1" width="321px" height="321px" style="shape-rendering:geometricPrecision; text-rendering:geometricPrecision; image-rendering:optimizeQuality; fill-rule:evenodd; clip-rule:evenodd" xmlns:xlink="http://www.w3.org/1999/xlink">
<g><path style="opacity:1" fill="#f9faf9" d="M 320.5,245.5 C 320.5,252.833 320.5,260.167 320.5,267.5C 313.221,284.602 300.387,294.935 282,298.5C 281.827,303.584 281.161,308.584 280,313.5C 278.363,315.81 276.196,317.31 273.5,318C 197.833,318.667 122.167,318.667 46.5,318C 43.804,317.31 41.6374,315.81 40,313.5C 38.8394,308.584 38.1728,303.584 38,298.5C 19.6127,294.935 6.77939,284.602 -0.5,267.5C -0.5,260.167 -0.5,252.833 -0.5,245.5C 1.14011,244.68 2.80678,243.847 4.5,243C 16.1667,242.667 27.8333,242.333 39.5,242C 47.0874,233.574 55.4207,226.074 64.5,219.5C 51.7135,199.75 46.2135,178.083 48,154.5C 48.7297,150.104 51.2297,147.27 55.5,146C 80.5,145.667 105.5,145.333 130.5,145C 120.624,143.456 114.124,137.956 111,128.5C 110.333,120.833 110.333,113.167 111,105.5C 112.426,100.242 115.259,95.9084 119.5,92.5C 109.68,78.5005 110.347,65.0005 121.5,52C 123.5,50.6667 125.5,49.3333 127.5,48C 119.37,35.7455 119.537,23.5789 128,11.5C 137.778,2.51117 149.278,-0.655493 162.5,2C 165.683,3.01828 167.016,5.18495 166.5,8.5C 167.016,11.815 165.683,13.9817 162.5,15C 156.833,15.3333 151.167,15.6667 145.5,16C 136.153,20.5349 133.319,27.7016 137,37.5C 141.413,43.2138 147.247,46.2138 154.5,46.5C 157.407,50.6423 157.074,54.4756 153.5,58C 148.167,58.3333 142.833,58.6667 137.5,59C 128.392,62.379 124.892,68.879 127,78.5C 130.652,85.4179 136.486,88.9179 144.5,89C 146.049,90.214 147.215,91.714 148,93.5C 148.11,91.1517 149.277,89.6517 151.5,89C 158.911,88.8917 166.245,88.225 173.5,87C 184.588,79.1363 185.255,70.4697 175.5,61C 171.106,59.4996 166.773,57.9996 162.5,56.5C 159.662,52.69 159.995,49.19 163.5,46C 174.549,45.8796 185.549,45.2129 196.5,44C 206.561,39.0401 209.061,31.5401 204,21.5C 202.062,18.8941 199.562,17.0608 196.5,16C 190.722,15.9059 185.056,15.2392 179.5,14C 175.211,4.59447 178.378,0.427805 189,1.5C 212.85,3.18975 222.85,15.8564 219,39.5C 214.132,51.3574 205.298,58.024 192.5,59.5C 200.217,78.8538 194.55,92.6871 175.5,101C 176.717,102.648 177.55,104.481 178,106.5C 178.863,114.564 178.53,122.564 177,130.5C 173.051,138.785 166.551,143.618 157.5,145C 169.167,145.333 180.833,145.667 192.5,146C 199.167,150.333 199.167,154.667 192.5,159C 148.835,159.5 105.168,159.667 61.5,159.5C 60.6264,179.018 65.793,196.685 77,212.5C 99.5549,199.326 122.055,199.326 144.5,212.5C 149.981,210.166 155.648,209 161.5,209C 167.036,213.838 166.703,218.171 160.5,222C 156.191,223.327 151.858,224.494 147.5,225.5C 146.268,231.3 143.934,236.633 140.5,241.5C 166.982,244.973 191.316,239.473 213.5,225C 232.33,207.373 241.33,185.54 240.5,159.5C 230.828,159.666 221.161,159.5 211.5,159C 205.297,155.171 204.964,150.838 210.5,146C 229.957,145.861 249.29,144.861 268.5,143C 295.968,151.102 305.801,168.935 298,196.5C 287.876,214.811 272.376,222.311 251.5,219C 247.736,218.134 244.069,216.967 240.5,215.5C 233.263,226.571 223.93,235.404 212.5,242C 228.5,242.333 244.5,242.667 260.5,243C 265.626,245.553 266.793,249.386 264,254.5C 263.25,255.126 262.416,255.626 261.5,256C 178.167,256.5 94.834,256.667 11.5,256.5C 14.0579,270.892 22.3912,280.059 36.5,284C 118.833,284.667 201.167,284.667 283.5,284C 297.609,280.059 305.942,270.892 308.5,256.5C 298.161,256.666 287.828,256.5 277.5,256C 272.732,252.294 272.399,248.294 276.5,244C 289.405,242.372 302.405,242.039 315.5,243C 317.193,243.847 318.86,244.68 320.5,245.5 Z M 147.5,97.5 C 148.364,98.6883 149.364,99.8549 150.5,101C 155.39,101.293 159.557,103.126 163,106.5C 164.581,112.723 164.915,119.056 164,125.5C 162.749,128.381 160.583,130.214 157.5,131C 147.758,131.92 138.092,131.587 128.5,130C 126.383,128.269 124.883,126.102 124,123.5C 122.873,117.245 123.54,111.245 126,105.5C 127.935,103.898 130.101,102.731 132.5,102C 136.5,101.667 140.5,101.333 144.5,101C 145.71,99.9609 146.71,98.7942 147.5,97.5 Z M 256.5,155.5 C 274.004,155.519 284.337,164.019 287.5,181C 284.795,196.369 275.629,204.869 260,206.5C 255.134,206.231 250.634,204.898 246.5,202.5C 246.833,202.167 247.167,201.833 247.5,201.5C 259.749,206.92 270.583,204.92 280,195.5C 286.872,183.752 285.705,172.918 276.5,163C 269.29,158.181 261.623,156.347 253.5,157.5C 254.602,156.824 255.602,156.158 256.5,155.5 Z M 255.5,171.5 C 263.813,169.818 269.147,172.985 271.5,181C 267.631,190.953 261.131,193.119 252,187.5C 251.65,181.739 252.816,176.405 255.5,171.5 Z M 103.5,216.5 C 110.574,216.161 117.574,216.661 124.5,218C 109.5,222.333 94.5,226.667 79.5,231C 76.3837,233.961 75.7171,237.461 77.5,241.5C 71.5276,242.664 65.5276,242.83 59.5,242C 71.9576,229.607 86.6242,221.107 103.5,216.5 Z M 129.5,230.5 C 128.476,235.736 125.142,239.57 119.5,242C 110.167,242.667 100.833,242.667 91.5,242C 104.31,238.227 116.976,234.393 129.5,230.5 Z M 52.5,298.5 C 124.167,298.5 195.833,298.5 267.5,298.5C 267.5,300.5 267.5,302.5 267.5,304.5C 195.833,304.5 124.167,304.5 52.5,304.5C 52.5,302.5 52.5,300.5 52.5,298.5 Z"/></g>
</svg>
