<?xml version="1.0" encoding="UTF-8"?>
<svg version="1.1" xmlns="http://www.w3.org/2000/svg" width="3333" height="3333">
<path d="M0 0 C0.95841797 0.44005371 1.91683594 0.88010742 2.90429688 1.33349609 C15.70988733 7.21891655 28.10993882 13.70697851 40.41894531 20.56689453 C42.82153241 21.90090761 45.23256814 23.21757888 47.6484375 24.52734375 C83.59661756 44.09057628 118.39698381 67.70534767 148.41015625 95.62109375 C149.79766903 96.89559644 151.19210631 98.16366962 152.6262207 99.38549805 C158.8355196 104.68001602 164.57189098 110.42032699 170.32739258 116.19702148 C172.058947 117.933936 173.79578359 119.66543889 175.53320312 121.39648438 C180.66796272 126.52811622 185.72804614 131.6643518 190.44116211 137.19165039 C193.85648443 141.15363824 197.50728261 144.9080139 201.1015625 148.70703125 C201.98714844 149.64869141 201.98714844 149.64869141 202.890625 150.609375 C203.41688477 151.16592773 203.94314453 151.72248047 204.48535156 152.29589844 C206 154 206 154 207.27392578 156.0793457 C209.75738206 158.84276162 212.14878204 159.20523251 215.7265625 160.12109375 C216.40927216 160.30171356 217.09198181 160.48233337 217.79537964 160.66842651 C219.28367593 161.06173685 220.77360195 161.44891913 222.26489258 161.83071899 C226.35620305 162.88259039 230.43164084 163.99270828 234.5078125 165.1015625 C235.79362213 165.45040245 235.79362213 165.45040245 237.10540771 165.80628967 C276.97445248 176.70900236 315.92789407 190.97521504 354 207 C354.6383075 207.268125 355.27661499 207.53625 355.93426514 207.8125 C373.58250102 215.23277466 390.91414717 223.18395332 408.11181641 231.59863281 C411.37393617 233.18143648 414.65580801 234.71640212 417.94677734 236.23803711 C427.8216631 240.80443791 437.42026663 245.8473768 447 251 C447.85722656 251.45890625 448.71445313 251.9178125 449.59765625 252.390625 C464.26676371 260.25447642 478.67704304 268.52394876 493 277 C494.31097656 277.7734375 494.31097656 277.7734375 495.6484375 278.5625 C550.69361449 311.08149687 603.45171491 348.50723682 652.16870117 389.91845703 C655.53850095 392.77867733 658.9403101 395.59259543 662.375 398.375 C672.40365334 406.5524339 682.11198437 415.08969589 691.58203125 423.90600586 C694.30800438 426.44347188 697.05168686 428.94634353 699.875 431.375 C708.83927836 439.14023476 717.53308406 447.31552428 725.77734375 455.83984375 C727.63733582 457.64753376 729.53069746 459.32357737 731.5 461.0078125 C736.72480813 465.5473602 741.59145895 470.44148065 746.47290039 475.3425293 C748.05959946 476.93458966 749.65157742 478.5212299 751.24414062 480.10742188 C756.15097341 485.01138309 760.94408117 489.96073031 765.45483398 495.23657227 C767.99428058 498.13472723 770.74552219 500.80823723 773.5 503.5 C777.51641706 507.47160111 781.40413865 511.46962325 785.0625 515.77734375 C787.80194898 518.91997776 790.65450369 521.95350437 793.5 525 C798.09105567 529.92602816 802.62172382 534.88277426 807 540 C807.88791299 541.03394678 808.77594505 542.06779133 809.6640625 543.1015625 C811.71586746 545.49150654 813.76499535 547.88371483 815.8125 550.27734375 C817.91232 552.73163705 820.01652637 555.1820438 822.125 557.62890625 C828.18860893 564.67039243 834.14700789 571.781628 840 579 C840.99555867 580.21398067 841.99168954 581.42749224 842.98828125 582.640625 C849.15020811 590.15772654 855.17664278 597.75873774 861.05151367 605.50244141 C864.42251158 609.94554706 867.83620981 614.35086482 871.28369141 618.73486328 C877.37785125 626.49517278 883.20621112 634.38759314 888.83569336 642.49047852 C891.35158545 646.09421017 893.92089558 649.65458103 896.51461792 653.20252991 C903.7640537 663.13334712 910.64177515 673.27652837 917.375 683.5625 C917.91492584 684.38527435 918.45485168 685.20804871 919.01113892 686.05575562 C932.63557468 706.83658732 945.20871953 728.10728789 957.24853516 749.84423828 C959.63749215 754.1486233 962.04533227 758.44230435 964.45458984 762.73535156 C965.63835095 764.84661219 966.81972276 766.95921449 967.99853516 769.07324219 C970.67364942 773.86994607 973.36804404 778.65112062 976.13671875 783.39453125 C976.61270508 784.22025635 977.08869141 785.04598145 977.57910156 785.89672852 C978.45597283 787.4158087 979.3439056 788.92858202 980.24511719 790.43334961 C983.02995997 795.29389904 983.02995997 795.29389904 982.89834595 798.39579773 C981.69633585 801.88028767 979.84556049 803.62731231 977.22412109 806.21411133 C976.72803345 806.70917679 976.2319458 807.20424225 975.7208252 807.71430969 C974.08084949 809.346412 972.42727214 810.96398428 970.7734375 812.58203125 C969.62483746 813.72061953 968.47719739 814.86017696 967.33047485 816.00065613 C964.30692507 819.00327333 961.2720222 821.99414075 958.23413086 824.98223877 C953.39068938 829.75046856 948.56551793 834.53719919 943.73866653 839.32221031 C942.06079113 840.98256762 940.37866448 842.63851125 938.69564819 844.2936554 C933.76169534 849.15864549 928.93792409 854.0559307 924.43737793 859.33183289 C922.44820784 861.64038936 920.32173092 863.79083274 918.16015625 865.9375 C917.32548828 866.76894531 916.49082031 867.60039063 915.63085938 868.45703125 C914.35952148 869.71580078 914.35952148 869.71580078 913.0625 871 C911.75055664 872.30517578 911.75055664 872.30517578 910.41210938 873.63671875 C908.27702551 875.76013549 906.13962795 877.88116378 904 880 C905.3784589 883.73437814 907.09023154 886.96196021 909.203125 890.33203125 C909.84652832 891.36529541 910.48993164 892.39855957 911.15283203 893.46313477 C911.84489746 894.56842529 912.53696289 895.67371582 913.25 896.8125 C914.71475192 899.16952298 916.17469037 901.52949574 917.6328125 903.890625 C918.00183685 904.48815079 918.37086121 905.08567657 918.75106812 905.7013092 C939.77693775 939.83154385 958.79650347 975.29962222 977 1011 C977.36047424 1011.70656738 977.72094849 1012.41313477 978.09234619 1013.14111328 C989.659919 1035.83524634 1000.73358468 1058.68756388 1011 1082 C1011.32677734 1082.74076782 1011.65355469 1083.48153564 1011.99023438 1084.24475098 C1021.4298225 1105.65547381 1030.57613166 1127.16638103 1039 1149 C1039.42348724 1150.09707275 1039.42348724 1150.09707275 1039.85552979 1151.21630859 C1072.02072029 1234.68196391 1096.89461096 1320.61210336 1126.203125 1560.77734375 C1126.20595238 1561.68689882 1126.20877975 1562.5964539 1126.21169281 1563.53357124 C1126.22655612 1568.36947016 1126.23586031 1573.20534035 1126.24023438 1578.04125977 C1126.24456785 1581.92742567 1126.25827684 1585.81336312 1126.28125 1589.69946289 C1126.81924973 1682.70403697 1119.80264676 1789.45076401 1043 1894 C1042.48099121 1894.55155762 1041.96198242 1895.10311523 1041.42724609 1895.67138672 C1013.42765515 1925.32736218 976.63909355 1943.60655979 937 1952 C936.1970752 1952.17934082 935.39415039 1952.35868164 934.56689453 1952.54345703 C908.01098 1958.2660776 876.55567028 1956.99264544 850 1952 C848.9171875 1951.80132324 847.834375 1951.60264648 846.71875 1951.39794922 C829.42555536 1948.14817236 812.67237671 1943.60019544 796 1938 C794.9574707 1937.65066406 793.91494141 1937.30132813 792.84082031 1936.94140625 C759.33771279 1925.58301028 726.99330973 1910.20647431 696.44238281 1892.41064453 C693.63239161 1890.7876808 690.79400514 1889.22258888 687.94824219 1887.66357422 C669.35776715 1877.42485324 651.71346252 1865.56715472 634.0625 1853.8125 C633.24337128 1853.26763947 632.42424255 1852.72277893 631.58029175 1852.16140747 C617.0317931 1842.47376921 602.65461142 1832.55345401 588.625 1822.125 C587.02484136 1820.93996672 585.42457783 1819.75507507 583.82421875 1818.5703125 C583.02806152 1817.98024414 582.2319043 1817.39017578 581.41162109 1816.78222656 C579.01546339 1815.01142769 576.61251756 1813.25028828 574.20703125 1811.4921875 C564.01715662 1804.03752812 553.98068279 1796.41293421 544.05322266 1788.61230469 C542.14663337 1787.11514468 540.23624703 1785.62301616 538.32421875 1784.1328125 C531.47117441 1778.78304137 524.70127147 1773.3385907 517.96704102 1767.84008789 C513.62225862 1764.29855141 509.23537841 1760.81831474 504.8125 1757.375 C499.7276314 1753.41246726 494.7844991 1749.31400468 489.8894043 1745.12011719 C486.04868249 1741.84514607 482.11582001 1738.71452309 478.125 1735.625 C471.12912796 1730.19600829 464.4749582 1724.41129801 457.81396484 1718.58007812 C454.98034529 1716.11181625 452.11914105 1713.67681157 449.25 1711.25 C448.71842285 1710.80027832 448.1868457 1710.35055664 447.63916016 1709.88720703 C444.22766358 1707.01109515 440.77863736 1704.1848561 437.3125 1701.375 C432.91917078 1697.80184368 428.7157897 1694.0637577 424.53125 1690.25 C421.9115519 1687.92137947 419.2248469 1685.70437053 416.5 1683.5 C412.03723787 1679.88967558 407.77280467 1676.11572071 403.53125 1672.25 C400.9115519 1669.92137947 398.2248469 1667.70437053 395.5 1665.5 C391.03579543 1661.88850866 386.76997886 1658.11339306 382.52734375 1654.24609375 C379.93037607 1651.93812402 377.26595987 1649.74444137 374.5625 1647.5625 C369.788597 1643.70174863 365.26611572 1639.62562925 360.75 1635.46875 C358.06262366 1633.05621896 355.31034556 1630.7674379 352.5 1628.5 C348.71539666 1625.44651321 345.07792463 1622.29331699 341.5 1619 C337.0301488 1614.88621091 332.40955107 1611.02912703 327.68359375 1607.21484375 C325.05291443 1605.04367173 322.52057576 1602.79758643 320 1600.5 C315.80270966 1596.67829137 311.46289769 1593.08525811 307.05078125 1589.515625 C303.47942771 1586.57074449 299.98802106 1583.54264851 296.5 1580.5 C291.40746506 1576.06333628 286.26959551 1571.70355184 281.01953125 1567.453125 C278.61068879 1565.49613526 276.21431863 1563.52658611 273.82421875 1561.546875 C273.08026855 1560.93126709 272.33631836 1560.31565918 271.56982422 1559.68139648 C270.10815668 1558.47124452 268.64747917 1557.25989535 267.18798828 1556.04711914 C262.56004389 1552.22135904 257.83575132 1548.55939157 253 1545 C250.15984693 1546.2917878 248.10301612 1547.64783083 245.90307617 1549.85400391 C245.32534958 1550.42865387 244.74762299 1551.00330383 244.15238953 1551.59536743 C243.53878067 1552.2161618 242.92517181 1552.83695618 242.29296875 1553.4765625 C241.64934891 1554.12064056 241.00572906 1554.76471863 240.34260559 1555.42831421 C238.98115702 1556.79278138 237.62213725 1558.15967568 236.26538086 1559.52880859 C234.21055985 1561.60173694 232.14800013 1563.66669979 230.08398438 1565.73046875 C228.75734275 1567.06203215 227.43115656 1568.39404949 226.10546875 1569.7265625 C225.49793259 1570.33521149 224.89039642 1570.94386047 224.26445007 1571.57095337 C221.28793624 1574.57980757 218.41882137 1577.63568031 215.65917969 1580.84521484 C211.44948335 1585.70847151 206.90763869 1590.21736215 202.34765625 1594.75 C201.44752304 1595.64871826 200.54738983 1596.54743652 199.61997986 1597.47338867 C197.25288737 1599.83586575 194.88365361 1602.19615112 192.51330566 1604.55535889 C190.08449258 1606.97385181 187.65858897 1609.39525946 185.23242188 1611.81640625 C180.49092631 1616.54692954 175.74658102 1621.27457973 171 1626 C166.3195976 1624.51818476 162.46953696 1622.60853709 158.375 1619.9375 C156.9517594 1619.0293061 155.52717049 1618.12322322 154.1015625 1617.21875 C153.30137695 1616.71085937 152.50119141 1616.20296875 151.67675781 1615.6796875 C146.40505716 1612.37165207 141.07380728 1609.16072344 135.75 1605.9375 C134.53821286 1605.20310276 133.32646191 1604.46864578 132.11474609 1603.73413086 C129.64120717 1602.2349275 127.16737085 1600.73621638 124.69335938 1599.23779297 C119.37234418 1596.01451931 114.05521274 1592.78485149 108.73791504 1589.55545044 C105.82544806 1587.78668471 102.91270985 1586.01836574 100 1584.25 C98.83333204 1583.54166879 97.66666538 1582.83333546 96.5 1582.125 C95.9225 1581.774375 95.345 1581.42375 94.75 1581.0625 C55.66666667 1557.33333333 16.58333333 1533.60416667 -22.5 1509.875 C-23.07745972 1509.52440018 -23.65491943 1509.17380035 -24.24987793 1508.81257629 C-25.41695408 1508.10399289 -26.58402764 1507.39540525 -27.75109863 1506.68681335 C-30.66147916 1504.91977124 -33.57190397 1503.15280216 -36.48242188 1501.38598633 C-42.41636288 1497.78370415 -48.34948117 1494.1800768 -54.28125 1490.57421875 C-64.9064447 1484.11593312 -75.53338618 1477.66050894 -86.1875 1471.25 C-86.95835937 1470.78489014 -87.72921875 1470.31978027 -88.5234375 1469.84057617 C-93.62868012 1466.77573638 -98.78785118 1463.89563823 -104 1461 C-106.97 1472.55 -109.94 1484.1 -113 1496 C-396.14 1496 -679.28 1496 -971 1496 C-974.37136605 1485.88590184 -974.37136605 1485.88590184 -975.5703125 1480.94140625 C-975.82683594 1479.89662109 -976.08335938 1478.85183594 -976.34765625 1477.77539062 C-976.60417969 1476.71513672 -976.86070313 1475.65488281 -977.125 1474.5625 C-977.64632136 1472.41745335 -978.16965515 1470.27289446 -978.6953125 1468.12890625 C-978.92234863 1467.19119385 -979.14938477 1466.25348145 -979.38330078 1465.28735352 C-979.92043739 1462.99332493 -979.92043739 1462.99332493 -981 1461 C-994.88420291 1469.07267226 -1008.60518543 1477.41097446 -1022.32275391 1485.76220703 C-1027.63266731 1488.99436634 -1032.94696812 1492.21929622 -1038.26107788 1495.44454956 C-1041.17424462 1497.21271565 -1044.08710637 1498.98138403 -1047 1500.75 C-1048.16666522 1501.45833572 -1049.33333188 1502.16666906 -1050.5 1502.875 C-1051.0775 1503.225625 -1051.655 1503.57625 -1052.25 1503.9375 C-1100.66666667 1533.33333333 -1149.08333333 1562.72916667 -1197.5 1592.125 C-1198.36606117 1592.6508242 -1198.36606117 1592.6508242 -1199.24961853 1593.18727112 C-1200.41755354 1593.8963727 -1201.58549178 1594.60546896 -1202.75343323 1595.31455994 C-1205.6507206 1597.07359574 -1208.54795377 1598.83272066 -1211.44506836 1600.59204102 C-1216.92615516 1603.92038885 -1222.4078248 1607.24776694 -1227.89126587 1610.57223511 C-1230.4893158 1612.14743576 -1233.08707657 1613.72311293 -1235.68481445 1615.29882812 C-1236.92653154 1616.05183404 -1238.16839119 1616.8046049 -1239.41040039 1617.55712891 C-1241.1294267 1618.59869375 -1242.84792863 1619.64112388 -1244.56640625 1620.68359375 C-1245.54552979 1621.27712646 -1246.52465332 1621.87065918 -1247.53344727 1622.48217773 C-1249.3789064 1623.61780274 -1251.19704788 1624.79803192 -1253 1626 C-1257.26279008 1625.86538558 -1259.49076275 1622.83906009 -1262.3125 1619.9375 C-1263.21613281 1619.01839844 -1264.11976563 1618.09929687 -1265.05078125 1617.15234375 C-1267.11446607 1614.98572209 -1269.0737339 1612.75376622 -1271.0144043 1610.47680664 C-1275.21051144 1605.6715402 -1279.70145827 1601.18441719 -1284.23036194 1596.69447327 C-1285.75593977 1595.18187668 -1287.27818086 1593.66598798 -1288.79968262 1592.14929199 C-1292.03028953 1588.93000888 -1295.26483223 1585.71469888 -1298.5 1582.5 C-1302.25451127 1578.7692435 -1306.00730613 1575.03679249 -1309.75587463 1571.30006409 C-1311.24203689 1569.82029444 -1312.73121996 1568.34361435 -1314.22058105 1566.86706543 C-1318.82653624 1562.27768643 -1323.30099776 1557.66950146 -1327.45495605 1552.66394043 C-1329.15019221 1550.83824998 -1330.97052709 1549.43764039 -1333 1548 C-1340.56328809 1553.86239872 -1348.03492068 1559.79921333 -1355.31323242 1566.01293945 C-1358.67619699 1568.88371295 -1362.06937547 1571.70982491 -1365.5 1574.5 C-1371.17903141 1579.12552993 -1376.76592822 1583.85467044 -1382.34716797 1588.59716797 C-1383.97028067 1589.97477588 -1385.5959304 1591.34931757 -1387.22265625 1592.72265625 C-1394.58920145 1598.94227393 -1401.91944038 1605.20311318 -1409.23388672 1611.48388672 C-1411.57255701 1613.49150941 -1413.91276628 1615.49733271 -1416.25317383 1617.50292969 C-1417.41595521 1618.49946014 -1418.57855346 1619.49620432 -1419.7409668 1620.49316406 C-1422.70426447 1623.03443768 -1425.67013235 1625.5726075 -1428.640625 1628.10546875 C-1433.87776795 1632.57540939 -1439.09432474 1637.0529519 -1444.1875 1641.6875 C-1448.42708043 1645.53851005 -1452.82932112 1649.14843955 -1457.28125 1652.75 C-1460.77908151 1655.64475711 -1464.11785404 1658.69589539 -1467.47265625 1661.75390625 C-1470.06962393 1664.06187598 -1472.73404013 1666.25555863 -1475.4375 1668.4375 C-1479.24087503 1671.51336588 -1482.90082652 1674.68753166 -1486.5 1678 C-1490.87170463 1682.01974536 -1495.37786886 1685.79988195 -1499.99609375 1689.53125 C-1503.48716179 1692.40037224 -1506.90378232 1695.34644461 -1510.3125 1698.3125 C-1510.94607422 1698.86365479 -1511.57964844 1699.41480957 -1512.23242188 1699.98266602 C-1513.51848455 1701.10178159 -1514.80445448 1702.22100376 -1516.09033203 1703.34033203 C-1524.04135222 1710.25046182 -1532.04463432 1717.0817662 -1540.22265625 1723.72265625 C-1543.34396567 1726.28204217 -1546.42443239 1728.88601545 -1549.5 1731.5 C-1555.27540351 1736.40556777 -1561.12175381 1741.21799062 -1567 1746 C-1568.72950867 1747.41624911 -1570.45866817 1748.83292473 -1572.1875 1750.25 C-1574.12456379 1751.83386697 -1576.06211036 1753.41714358 -1578 1755 C-1578.59973633 1755.49016602 -1579.19947266 1755.98033203 -1579.81738281 1756.48535156 C-1588.57484951 1763.63853146 -1597.38772583 1770.71086367 -1606.29980469 1777.67041016 C-1608.55104879 1779.43093218 -1610.79611174 1781.1992441 -1613.04125977 1782.9675293 C-1615.38613379 1784.81320882 -1617.73407354 1786.65496226 -1620.08251953 1788.49609375 C-1621.40963705 1789.53697024 -1622.73609089 1790.57869328 -1624.06201172 1791.62109375 C-1634.76889587 1800.03312521 -1645.62030898 1808.21598438 -1656.61328125 1816.25 C-1658.98826697 1817.99139706 -1661.35478036 1819.74368425 -1663.71875 1821.5 C-1693.12462315 1843.33477593 -1723.52066814 1864.25484686 -1755 1883 C-1755.91507324 1883.54736816 -1756.83014648 1884.09473633 -1757.77294922 1884.65869141 C-1823.44971891 1923.82676996 -1897.19048066 1959.1811346 -1975.25 1959.25 C-1976.29397446 1959.25101212 -1976.29397446 1959.25101212 -1977.35903931 1959.25204468 C-1997.76309798 1959.22091388 -2017.34897249 1956.49421844 -2037 1951 C-2038.13115234 1950.68554932 -2038.13115234 1950.68554932 -2039.28515625 1950.36474609 C-2070.09497071 1941.5415651 -2096.99313798 1923.96109556 -2120 1902 C-2120.85335937 1901.19949219 -2121.70671875 1900.39898438 -2122.5859375 1899.57421875 C-2129.47816889 1892.93202099 -2135.2676497 1885.63407788 -2141 1878 C-2141.62624268 1877.18088135 -2141.62624268 1877.18088135 -2142.26513672 1876.34521484 C-2196.94551566 1804.61653053 -2206.67949041 1701.88337691 -2207.38672256 1591.9450531 C-2207.37474827 1589.00059907 -2207.36781858 1586.05616637 -2207.36190796 1583.11169434 C-2207.29849877 1555.83784658 -2207.02063805 1528.67343482 -2204.25323486 1501.51654053 C-2203.98412643 1498.84225524 -2203.73075416 1496.16678714 -2203.47998047 1493.49072266 C-2194.70116744 1400.48955122 -2174.04935286 1309.06634364 -2117 1145 C-2116.55911041 1143.9006311 -2116.55911041 1143.9006311 -2116.10931396 1142.77905273 C-2092.07245115 1082.90718274 -2065.2016624 1023.4662728 -2033.1015625 967.45703125 C-2030.54625274 962.98961198 -2028.07840389 958.48123505 -2025.63989258 953.94921875 C-2014.3323253 932.93451648 -2001.83452475 912.59416839 -1989.37182617 892.25048828 C-1988.69277222 891.13649658 -1988.69277222 891.13649658 -1988 890 C-1987.40614502 889.1632373 -1986.81229004 888.32647461 -1986.20043945 887.46435547 C-1985.80429443 886.65111816 -1985.40814941 885.83788086 -1985 885 C-1986.26386227 881.38580462 -1988.65530555 879.10823505 -1991.33862305 876.45019531 C-1992.68593758 875.10794891 -1992.68593758 875.10794891 -1994.06047058 873.73858643 C-1995.04419476 872.76840705 -1996.02794481 871.79825391 -1997.01171875 870.828125 C-1998.02393296 869.82218927 -1999.03562838 868.81573125 -2000.04682922 867.80877686 C-2002.71139014 865.15750978 -2005.38145006 862.51185691 -2008.05316162 859.86779785 C-2012.31209007 855.65197243 -2016.56446494 851.42956721 -2020.81336403 847.20363617 C-2022.28808033 845.73901601 -2023.76623346 844.27793471 -2025.24479675 842.81719971 C-2029.80594751 838.28864134 -2034.21244448 833.71445382 -2038.39439392 828.83392334 C-2041.06343022 825.78534995 -2043.93178528 822.9447957 -2046.80859375 820.09375 C-2047.42017838 819.48358032 -2048.031763 818.87341064 -2048.66188049 818.24475098 C-2050.58471802 816.32743835 -2052.51103094 814.41366298 -2054.4375 812.5 C-2055.75479059 811.18773415 -2057.07184986 809.87523605 -2058.38867188 808.5625 C-2061.5897861 805.37231494 -2064.79401865 802.18529349 -2068 799 C-2066.81299933 795.18667871 -2065.48336429 791.78980878 -2063.48828125 788.33203125 C-2062.98554688 787.45289063 -2062.4828125 786.57375 -2061.96484375 785.66796875 C-2061.41957031 784.72566406 -2060.87429687 783.78335938 -2060.3125 782.8125 C-2059.13050405 780.74666923 -2057.94955711 778.68023799 -2056.76953125 776.61328125 C-2056.15158691 775.53256348 -2055.53364258 774.4518457 -2054.89697266 773.33837891 C-2051.72127866 767.74964793 -2048.61300698 762.12380854 -2045.5 756.5 C-2043.60502366 753.08725099 -2041.70886588 749.67516064 -2039.8125 746.26318359 C-2038.64438934 744.16014385 -2037.47761907 742.05635876 -2036.3125 739.95166016 C-2023.93260525 717.61353878 -2010.3341851 696.13075497 -1996 675 C-1995.5157959 674.28408691 -1995.0315918 673.56817383 -1994.53271484 672.83056641 C-1987.23937738 662.06275338 -1979.67100184 651.50129189 -1972 641 C-1971.41250977 640.195625 -1970.82501953 639.39125 -1970.21972656 638.5625 C-1962.93931268 628.60853229 -1955.58678988 618.72287635 -1948 609 C-1947.57686523 608.45601562 -1947.15373047 607.91203125 -1946.71777344 607.3515625 C-1939.75519029 598.40482353 -1932.64438554 589.58348802 -1925.47216797 580.80419922 C-1924.17728489 579.21726954 -1922.88709522 577.62651263 -1921.59765625 576.03515625 C-1916.03658284 569.18689044 -1910.31143192 562.48887992 -1904.55273438 555.80712891 C-1903.01354018 554.01575856 -1901.48212881 552.21804113 -1899.953125 550.41796875 C-1894.24553304 543.70657064 -1888.4275861 537.12774316 -1882.4453125 530.66015625 C-1880.44839207 528.48778754 -1878.49171266 526.29460837 -1876.5625 524.0625 C-1871.51231448 518.25002233 -1866.24286569 512.63784503 -1861 507 C-1860.43904633 506.39548004 -1859.87809265 505.79096008 -1859.30014038 505.16812134 C-1848.81300591 493.88139658 -1838.04959266 482.89282708 -1827.14257812 472.01220703 C-1824.47147392 469.3465319 -1821.8058499 466.67545838 -1819.140625 464.00390625 C-1817.4169877 462.28092878 -1815.69304075 460.55826102 -1813.96875 458.8359375 C-1813.18528198 458.05044525 -1812.40181396 457.264953 -1811.59460449 456.45565796 C-1807.44925584 452.32776469 -1803.22908385 448.35809008 -1798.77648926 444.56240845 C-1796.93702336 442.94461254 -1795.2146873 441.24880771 -1793.5 439.5 C-1790.57532885 436.52942594 -1787.51380439 433.79270881 -1784.35546875 431.07421875 C-1781.98361615 428.98557243 -1779.67094525 426.84451895 -1777.36132812 424.68774414 C-1771.95741137 419.64245955 -1766.44777668 414.84212794 -1760.6796875 410.2109375 C-1757.86746685 407.8906505 -1755.18202737 405.46928866 -1752.5 403 C-1747.68809567 398.58118081 -1742.71730367 394.42766238 -1737.6328125 390.328125 C-1735.78569216 388.82568262 -1733.95472155 387.30483137 -1732.125 385.78125 C-1723.66592736 378.74535584 -1715.08430849 371.922633 -1706.3125 365.28125 C-1702.61753776 362.48142434 -1698.9642431 359.63172659 -1695.31787109 356.76904297 C-1685.72930403 349.24806906 -1675.93925942 342.04919579 -1666 335 C-1665.12686157 334.37768494 -1665.12686157 334.37768494 -1664.23608398 333.74279785 C-1653.32534985 325.96765387 -1642.28478995 318.41264978 -1631.125 311 C-1630.33674835 310.47575439 -1629.5484967 309.95150879 -1628.73635864 309.41137695 C-1556.94863977 261.6866161 -1480.28537461 221.95608061 -1321.69921875 165.89453125 C-1320.79870285 165.65078766 -1319.89818695 165.40704407 -1318.97038269 165.15591431 C-1314.732715 164.01327186 -1310.49123102 162.90288898 -1306.23022461 161.85058594 C-1297.64607981 159.64648683 -1291.5261532 157.30135564 -1286 150 C-1284.96427026 148.80731831 -1283.92336946 147.61908672 -1282.875 146.4375 C-1282.03195312 145.45716797 -1282.03195312 145.45716797 -1281.171875 144.45703125 C-1277.61958458 140.43834299 -1273.92968892 136.54826926 -1270.25976562 132.63720703 C-1266.91662326 129.06935292 -1263.61628737 125.47373518 -1260.375 121.8125 C-1253.39815867 114.01714655 -1246.00853598 106.53600389 -1238.03515625 99.7578125 C-1235.59171962 97.6473586 -1233.24081179 95.44707121 -1230.875 93.25 C-1225.1192056 88.00741087 -1219.07137777 83.23109711 -1212.90429688 78.48486328 C-1211.00351887 77.00274382 -1209.13277545 75.48903833 -1207.265625 73.96484375 C-1186.38601435 57.08367469 -1163.3030282 42.29649557 -1140 29 C-1138.94377441 28.39236816 -1138.94377441 28.39236816 -1137.86621094 27.77246094 C-1065.39486869 -13.77777528 -986.54975468 -41.77624509 -906 -63 C-905.24777161 -63.19895874 -904.49554321 -63.39791748 -903.72052002 -63.60290527 C-877.01655503 -70.65761249 -850.06952112 -76.52997033 -823 -82 C-822.03491516 -82.19507141 -821.06983032 -82.39014282 -820.07550049 -82.59112549 C-718.63144784 -103.01116635 -610.97257969 -118.62561059 0 0 Z M-1073 230 C-1074.485 230.99 -1074.485 230.99 -1076 232 C-1075.41815581 238.30152819 -1074.36764691 244.20850904 -1072.78662109 250.3293457 C-1072.55858197 251.23247875 -1072.33054285 252.1356118 -1072.09559345 253.06611252 C-1071.32708907 256.10410476 -1070.55013321 259.13987377 -1069.7734375 262.17578125 C-1069.20845493 264.40361187 -1068.6440879 266.63159865 -1068.08027649 268.85972595 C-1066.84382895 273.7420527 -1065.60391958 278.62348249 -1064.36141968 283.50427246 C-1061.24329836 295.7533799 -1058.14530057 308.00758883 -1055.046278 320.26153946 C-1054.28713534 323.26328137 -1053.52771169 326.26495199 -1052.76806831 329.26656723 C-1045.83482497 356.66434962 -1038.96388265 384.07754082 -1032.11328125 411.49609375 C-1031.85779448 412.51857657 -1031.6023077 413.54105938 -1031.3390789 414.59452653 C-1026.44985287 434.16203411 -1021.56420855 453.73043569 -1016.68011475 473.29922485 C-1013.77096198 484.95497784 -1010.86073944 496.61046328 -1007.94921875 508.265625 C-1007.71250584 509.21327846 -1007.47579292 510.16093193 -1007.23190689 511.13730216 C-1000.92871484 536.36968846 -994.58436905 561.5910585 -988.17578125 586.796875 C-980.95397455 615.20144958 -973.82213221 643.62808764 -966.71875 672.0625 C-966.4506534 673.13559512 -966.18255681 674.20869024 -965.90633607 675.3143034 C-961.48994761 692.9918925 -957.07685757 710.67030476 -952.66410065 728.34880066 C-948.53799941 744.87874581 -944.4107944 761.40841466 -940.28125 777.9375 C-940.01228786 779.01413784 -939.74332573 780.09077568 -939.46621323 781.20003891 C-932.70312608 808.27080689 -925.90845448 835.33299658 -919.03125 862.375 C-911.78252378 890.87798594 -904.62821196 919.40414564 -897.5 947.9375 C-897.2262385 949.03325474 -896.952477 950.12900948 -896.67041969 951.2579689 C-892.15992929 969.31197202 -887.65273739 987.36679834 -883.14587402 1005.42170715 C-878.93209514 1022.30234935 -874.71719479 1039.18271083 -870.5 1056.0625 C-870.09075731 1057.7006685 -870.09075731 1057.7006685 -869.6732471 1059.37193131 C-862.06752587 1089.81559461 -854.41301679 1120.24624832 -846.68254024 1150.65846294 C-841.79615537 1169.88278729 -836.95227469 1189.11718295 -832.15234375 1208.36328125 C-831.84714436 1209.58676144 -831.54194496 1210.81024162 -831.2274971 1212.07079697 C-828.49851545 1223.01235206 -825.7731622 1233.95480966 -823.04956055 1244.89770508 C-821.52003011 1251.04245918 -819.98825803 1257.18665088 -818.45508003 1263.33049583 C-817.6084841 1266.72601863 -816.76453232 1270.12219153 -815.92063904 1273.51838684 C-815.41330907 1275.55176521 -814.90583581 1277.58510783 -814.39819336 1279.6184082 C-814.16824677 1280.54695618 -813.93830017 1281.47550415 -813.7013855 1282.43218994 C-813.38494835 1283.69598228 -813.38494835 1283.69598228 -813.06211853 1284.98530579 C-812.87993743 1285.71717259 -812.69775633 1286.4490394 -812.51005459 1287.20308399 C-812.03746086 1289.08006425 -812.03746086 1289.08006425 -811 1291 C-633.46 1291 -455.92 1291 -273 1291 C-258.15948855 1232.49142959 -258.15948855 1232.49142959 -243.46929359 1173.94563675 C-242.14563407 1168.6404834 -240.82022214 1163.33576782 -239.49499512 1158.03100586 C-236.16186639 1144.68770255 -232.83078859 1131.34388762 -229.5 1118 C-225.0952994 1100.35377952 -220.68966266 1082.70779354 -216.28125 1065.0625 C-216.01221422 1063.98556759 -215.74317844 1062.90863518 -215.46599007 1061.79906845 C-208.71338528 1034.77026478 -201.92929675 1007.75001936 -195.0625 980.75 C-187.72884694 951.91408552 -180.49283337 923.05417379 -173.28125 894.1875 C-173.00201124 893.06983624 -172.72277248 891.95217247 -172.43507195 890.80064011 C-168.1213039 873.53427869 -163.81037476 856.26720877 -159.5 839 C-154.90779297 820.60378112 -150.31465815 802.20779463 -145.71875 783.8125 C-145.43875971 782.69174953 -145.15876942 781.57099907 -144.87029457 780.41628647 C-137.79028319 752.07771395 -130.67612507 723.74844269 -123.47608566 695.44013214 C-116.3382544 667.37410842 -109.30029077 639.28344991 -102.28125 611.1875 C-102.00194452 610.06956936 -101.72263905 608.95163872 -101.43486977 607.79983139 C-97.12116885 590.53373961 -92.81030746 573.26693918 -88.5 556 C-83.90779298 537.60378117 -79.31486352 519.20774329 -74.71875 500.8125 C-74.43982753 499.69614048 -74.16090506 498.57978096 -73.87353039 497.42959237 C-66.80836559 469.15417482 -59.72008436 440.88493489 -52.546875 412.63671875 C-52.36921317 411.93706678 -52.19155134 411.23741481 -52.00850582 410.51656127 C-50.41886304 404.25695899 -48.82830852 397.99758853 -47.23714066 391.73837376 C-40.91090308 366.85209955 -34.6034231 341.96111508 -28.33886719 317.05923653 C-26.31420981 309.01248859 -24.28369493 300.96729216 -22.24121094 292.92504883 C-20.40522883 285.69583865 -18.57905029 278.46423761 -16.76494336 271.22950572 C-15.81893262 267.45814068 -14.86822714 263.6881145 -13.9054184 259.92099953 C-13.0164173 256.44211269 -12.14054325 252.9601923 -11.27495575 249.47540855 C-10.80472614 247.59701013 -10.32046115 245.72214277 -9.83581543 243.84741211 C-9.56166809 242.73288162 -9.28752075 241.61835114 -9.00506592 240.470047 C-8.76112469 239.50404477 -8.51718346 238.53804255 -8.26585007 237.54276752 C-7.95707511 234.58943769 -8.34131843 233.42824678 -10 231 C-11.95059016 229.37597924 -13.85401574 227.93159655 -15.9375 226.5 C-16.55012695 226.07203125 -17.16275391 225.6440625 -17.79394531 225.203125 C-31.69116923 215.60266063 -46.12129528 206.97873902 -61 199 C-61.85513184 198.53625977 -62.71026367 198.07251953 -63.59130859 197.59472656 C-154.68908156 148.30017889 -260.00710276 124.14607416 -1073 230 Z M171 361 C170.72798326 362.08898873 170.45596653 363.17797747 170.17570686 364.29996586 C163.62417567 390.52805254 157.07132012 416.75580807 150.51696879 442.98319015 C149.69896611 446.25645065 148.88097393 449.52971377 148.06298828 452.80297852 C147.81885902 453.77988902 147.81885902 453.77988902 147.56979786 454.77653509 C145.14049399 464.4977644 142.7118962 474.21916992 140.28369141 483.94067383 C115.51061385 583.11986744 115.51061385 583.11986744 105.31875658 623.1854527 C98.23289056 651.04282644 91.24823528 678.92517463 84.28125 706.8125 C84.00176939 707.93112702 83.72228877 709.04975404 83.43433905 710.20227885 C79.12080792 727.46766544 74.81013179 744.73376455 70.5 762 C65.90779297 780.39621888 61.31465749 798.79220521 56.71875 817.1875 C56.43890699 818.30766132 56.15906399 819.42782265 55.87074089 820.58192825 C48.76904885 849.00729247 41.63304766 877.42332644 34.41143799 905.81845856 C27.44407911 933.21573779 20.57033652 960.6360527 13.71875 988.0625 C13.45039904 989.13661259 13.18204807 990.21072517 12.90556526 991.31738663 C8.7682951 1007.87773808 4.63386724 1024.43879882 0.5 1041 C-3.90470061 1058.64622051 -8.31046497 1076.29217456 -12.71875 1093.9375 C-12.98471119 1095.00219851 -13.25067239 1096.06689703 -13.52469301 1097.16385913 C-21.42016267 1128.76996158 -29.3647958 1160.36309977 -37.40393066 1191.9329834 C-42.40782602 1211.58888928 -47.30118722 1231.26880651 -52 1251 C-44.78170184 1256.23924957 -37.32712931 1260.8848755 -29.625 1265.375 C-27.21850621 1266.78774311 -24.81420328 1268.20419186 -22.41015625 1269.62109375 C-21.79718185 1269.98201614 -21.18420746 1270.34293854 -20.55265808 1270.71479797 C-14.0215915 1274.56589234 -7.53862831 1278.49492503 -1.0625 1282.4375 C-0.48485901 1282.78899109 0.09278198 1283.14048218 0.68792725 1283.50262451 C3.62043482 1285.28719061 6.55234014 1287.0727425 9.48388672 1288.85888672 C14.73591792 1292.05814442 19.99367938 1295.24796375 25.25100708 1298.43850708 C28.16757223 1300.20861902 31.08376738 1301.9793403 34 1303.75 C35.16666489 1304.45833625 36.33333156 1305.16666959 37.5 1305.875 C72.5 1327.125 72.5 1327.125 74.2497406 1328.18734741 C75.41726613 1328.89619893 76.58479747 1329.60504088 77.75233459 1330.31387329 C80.65590817 1332.07670035 83.55938303 1333.83968958 86.46264648 1335.60302734 C91.86833492 1338.88601592 97.27494927 1342.16744753 102.68496704 1345.44329834 C105.20547325 1346.96963727 107.72543596 1348.49687228 110.24536133 1350.02416992 C111.43226647 1350.74320194 112.61942977 1351.46180805 113.80688477 1352.17993164 C115.46698986 1353.18393298 117.12608423 1354.18960495 118.78515625 1355.1953125 C119.82430176 1355.8234082 120.86344727 1356.45150391 121.93408203 1357.09863281 C124.0155252 1358.3894657 126.0735774 1359.71864094 128.10888672 1361.08105469 C129.08229004 1361.73235352 130.05569336 1362.38365234 131.05859375 1363.0546875 C132.34527954 1363.94003174 132.34527954 1363.94003174 133.65795898 1364.84326172 C135.89081918 1366.1984949 135.89081918 1366.1984949 138.16308594 1365.80932617 C140.96524753 1364.57472149 142.69093291 1362.6258881 144.8125 1360.4375 C146.02873047 1359.19806641 146.02873047 1359.19806641 147.26953125 1357.93359375 C149.24789459 1355.84727147 151.12207085 1353.69196398 152.98706055 1351.50415039 C157.24880467 1346.62577248 161.81832912 1342.067831 166.41555786 1337.50927734 C167.97473727 1335.9630726 169.53058621 1334.41358104 171.08569336 1332.86328125 C174.94565803 1329.01655775 178.81109902 1325.17535284 182.6763916 1321.33398438 C185.95449442 1318.07574304 189.23044992 1314.8153701 192.50369263 1311.55224609 C194.02309466 1310.03923948 195.54551703 1308.5293203 197.06811523 1307.01953125 C201.60931456 1302.50209184 205.99534676 1297.92449827 210.1640625 1293.06079102 C213.68396362 1289.10979562 217.47374802 1285.41877104 221.23036194 1281.69447327 C222.75593977 1280.18187668 224.27818086 1278.66598798 225.79968262 1277.14929199 C229.57616982 1273.38604199 233.35813511 1269.62831332 237.13995361 1265.87042236 C240.34759868 1262.68264332 243.55309295 1259.49272958 246.75587463 1256.30006409 C248.24203689 1254.82029444 249.73121996 1253.34361435 251.22058105 1251.86706543 C255.09312915 1248.00845409 258.92756087 1244.16574249 262.48632812 1240.01367188 C266.55183149 1235.27293127 270.98395296 1230.9036005 275.41555786 1226.50927734 C276.97473727 1224.9630726 278.53058621 1223.41358104 280.08569336 1221.86328125 C283.94565803 1218.01655775 287.81109902 1214.17535284 291.6763916 1210.33398438 C294.95449442 1207.07574304 298.23044992 1203.8153701 301.50369263 1200.55224609 C303.02309466 1199.03923948 304.54551703 1197.5293203 306.06811523 1196.01953125 C310.60931456 1191.50209184 314.99534676 1186.92449827 319.1640625 1182.06079102 C322.68396362 1178.10979562 326.47374802 1174.41877104 330.23036194 1170.69447327 C331.75593977 1169.18187668 333.27818086 1167.66598798 334.79968262 1166.14929199 C338.57616982 1162.38604199 342.35813511 1158.62831332 346.13995361 1154.87042236 C349.34759868 1151.68264332 352.55309295 1148.49272958 355.75587463 1145.30006409 C357.24203689 1143.82029444 358.73121996 1142.34361435 360.22058105 1140.86706543 C364.09312915 1137.00845409 367.92756087 1133.16574249 371.48632812 1129.01367188 C375.55183149 1124.27293127 379.98395296 1119.9036005 384.41555786 1115.50927734 C385.97473727 1113.9630726 387.53058621 1112.41358104 389.08569336 1110.86328125 C392.94565803 1107.01655775 396.81109902 1103.17535284 400.6763916 1099.33398438 C403.95449442 1096.07574304 407.23044992 1092.8153701 410.50369263 1089.55224609 C412.02309466 1088.03923948 413.54551703 1086.5293203 415.06811523 1085.01953125 C418.99641414 1081.11178629 422.8921134 1077.20928997 426.5 1073 C430.5600987 1068.2631181 434.9885454 1063.8990467 439.41555786 1059.50927734 C440.97473727 1057.9630726 442.53058621 1056.41358104 444.08569336 1054.86328125 C447.94565803 1051.01655775 451.81109902 1047.17535284 455.6763916 1043.33398438 C458.95449442 1040.07574304 462.23044992 1036.8153701 465.50369263 1033.55224609 C467.02309466 1032.03923948 468.54551703 1030.5293203 470.06811523 1029.01953125 C474.60931456 1024.50209184 478.99534676 1019.92449827 483.1640625 1015.06079102 C486.68396362 1011.10979562 490.47374802 1007.41877104 494.23036194 1003.69447327 C495.75593977 1002.18187668 497.27818086 1000.66598798 498.79968262 999.14929199 C502.57616982 995.38604199 506.35813511 991.62831332 510.13995361 987.87042236 C513.34759868 984.68264332 516.55309295 981.49272958 519.75587463 978.30006409 C521.24203689 976.82029444 522.73121996 975.34361435 524.22058105 973.86706543 C528.09312915 970.00845409 531.92756087 966.16574249 535.48632812 962.01367188 C539.55183149 957.27293127 543.98395296 952.9036005 548.41555786 948.50927734 C549.97473727 946.9630726 551.53058621 945.41358104 553.08569336 943.86328125 C556.94565803 940.01655775 560.81109902 936.17535284 564.6763916 932.33398438 C567.95449442 929.07574304 571.23044992 925.8153701 574.50369263 922.55224609 C576.02309466 921.03923948 577.54551703 919.5293203 579.06811523 918.01953125 C583.60931456 913.50209184 587.99534676 908.92449827 592.1640625 904.06079102 C595.68396362 900.10979562 599.47374802 896.41877104 603.23036194 892.69447327 C604.75593977 891.18187668 606.27818086 889.66598798 607.79968262 888.14929199 C611.57616982 884.38604199 615.35813511 880.62831332 619.13995361 876.87042236 C622.34759868 873.68264332 625.55309295 870.49272958 628.75587463 867.30006409 C630.24203689 865.82029444 631.73121996 864.34361435 633.22058105 862.86706543 C637.09312915 859.00845409 640.92756087 855.16574249 644.48632812 851.01367188 C648.55183149 846.27293127 652.98395296 841.9036005 657.41555786 837.50927734 C658.97473727 835.9630726 660.53058621 834.41358104 662.08569336 832.86328125 C665.94565803 829.01655775 669.81109902 825.17535284 673.6763916 821.33398438 C676.95449442 818.07574304 680.23044992 814.8153701 683.50369263 811.55224609 C685.02309466 810.03923948 686.54551703 808.5293203 688.06811523 807.01953125 C692.71337128 802.39858572 697.22040137 797.72016899 701.48416138 792.74291992 C703.71405377 790.17897689 706.08589489 787.80218733 708.49609375 785.40625 C708.97450211 784.92925659 709.45291046 784.45226318 709.94581604 783.96081543 C711.44066514 782.47146305 712.93899059 780.98566851 714.4375 779.5 C715.4657298 778.47679861 716.49372626 777.45336267 717.52148438 776.4296875 C720.01164338 773.95042001 722.50492833 771.47432462 725 769 C723.24361706 765.36761336 721.10149138 762.14404416 718.75 758.875 C718.10115845 757.97007812 718.10115845 757.97007812 717.43920898 757.046875 C712.04929637 749.59769344 706.3686284 742.3732777 700.68554688 735.14697266 C699.13289899 733.16928067 697.58816916 731.18576398 696.046875 729.19921875 C690.72413522 722.35328436 685.24462375 715.67214168 679.61328125 709.078125 C677.22117731 706.2729268 674.88544149 703.42536843 672.5625 700.5625 C664.7205399 690.94209537 656.60483205 681.57517238 648.21484375 672.4296875 C646.35993183 670.39484585 644.54571202 668.33678753 642.75 666.25 C637.61145901 660.34307905 632.20198688 654.68071046 626.84423828 648.97363281 C625.14522395 647.15541308 623.45891149 645.32653087 621.77734375 643.4921875 C613.10639563 634.07532362 604.10418245 624.99620851 595.0625 615.9375 C594.11127762 614.98239532 594.11127762 614.98239532 593.14083862 614.00799561 C584.08001262 604.90673078 584.08001262 604.90673078 574.53686523 596.31860352 C572.58511473 594.64403569 570.78562161 592.84939381 569 591 C565.87154036 587.82910002 562.63144648 584.8743004 559.25390625 581.97265625 C557.04015714 580.0351462 554.87757752 578.0485561 552.72119141 576.04760742 C547.51116531 571.21493915 542.17626231 566.62879735 536.63671875 562.171875 C534.07579972 560.06243651 531.62876545 557.87112352 529.1875 555.625 C524.73262438 551.56548577 520.0739691 547.84982101 515.31542969 544.15893555 C511.45410593 541.15945842 507.67635472 538.08860873 503.9375 534.9375 C497.76852794 529.7627348 491.42073946 524.85427128 485 520 C484.39172363 519.53867676 483.78344727 519.07735352 483.15673828 518.60205078 C478.45761981 515.04123557 473.73700997 511.51023741 469 508 C468.31341309 507.49098145 467.62682617 506.98196289 466.91943359 506.45751953 C454.84159762 497.53776605 442.43076605 489.15449904 429.88964844 480.90185547 C427.25881231 479.17034031 424.63299383 477.43147505 422.0078125 475.69140625 C390.82845766 455.12317739 358.36357148 436.77359227 325 420 C324.37782593 419.68720093 323.75565186 419.37440186 323.11462402 419.05212402 C249.90316476 379.53223741 249.90316476 379.53223741 171 361 Z M-1266.1171875 363.38671875 C-1266.9484314 363.63963181 -1267.77967529 363.89254486 -1268.6361084 364.15312195 C-1314.48039993 378.15824702 -1358.86238685 395.05566776 -1402 416 C-1402.65804626 416.31924438 -1403.31609253 416.63848877 -1403.99407959 416.96740723 C-1421.09599744 425.27746162 -1437.92443857 433.91987967 -1454.36914062 443.47949219 C-1456.97993376 444.9884027 -1459.60403137 446.47078553 -1462.234375 447.9453125 C-1490.20092262 463.65732735 -1516.85856952 481.43857298 -1543 500 C-1543.76940918 500.5451123 -1544.53881836 501.09022461 -1545.33154297 501.65185547 C-1556.0854323 509.28668114 -1566.57508888 517.21555108 -1576.93505859 525.37597656 C-1578.83338875 526.86896453 -1580.73741368 528.35420127 -1582.64453125 529.8359375 C-1599.5045697 542.95804722 -1615.95878724 556.63772251 -1631.78125 570.99609375 C-1633.79308393 572.81311982 -1635.82660434 574.59944392 -1637.875 576.375 C-1642.75033321 580.62753616 -1647.50708972 585.0080489 -1652.26036072 589.39579773 C-1653.37364355 590.4224076 -1654.48801312 591.44784101 -1655.60377502 592.47175598 C-1666.13776119 602.1438113 -1676.31072419 612.15540796 -1686.40966797 622.27929688 C-1689.02066355 624.8957064 -1691.6370356 627.50665546 -1694.25390625 630.1171875 C-1695.94042528 631.80436657 -1697.62663449 633.49185542 -1699.3125 635.1796875 C-1700.46733887 636.33149002 -1700.46733887 636.33149002 -1701.64550781 637.50656128 C-1705.75641796 641.63517721 -1709.69783983 645.85176522 -1713.5012207 650.26541138 C-1715.26075972 652.30178616 -1717.08290379 654.26878615 -1718.9375 656.21875 C-1719.60523438 656.92386719 -1720.27296875 657.62898438 -1720.9609375 658.35546875 C-1723 660.5 -1723 660.5 -1725.0390625 662.64453125 C-1729.47825676 667.33225183 -1733.78672836 672.10842687 -1738 677 C-1738.49306641 677.57089355 -1738.98613281 678.14178711 -1739.49414062 678.72998047 C-1742.49412392 682.21115124 -1745.47818523 685.70599612 -1748.46240234 689.20068359 C-1749.45379386 690.3608226 -1750.44622904 691.52007095 -1751.43994141 692.67822266 C-1757.02996688 699.19371008 -1762.47238273 705.79514763 -1767.7434082 712.57177734 C-1770.65746922 716.31279471 -1773.62620487 720.00124108 -1776.63818359 723.66381836 C-1783.51761507 732.0343838 -1790.06545422 740.62327853 -1796.515625 749.328125 C-1798.63287003 752.18421235 -1800.77631337 755.01043979 -1802.984375 757.796875 C-1803.4165332 758.34827148 -1803.84869141 758.89966797 -1804.29394531 759.46777344 C-1805.40632562 760.88099181 -1806.53075241 762.2847059 -1807.65625 763.6875 C-1809.19492323 765.85882992 -1809.19492323 765.85882992 -1808.9140625 768.109375 C-1807.84709793 770.31625899 -1806.67487769 771.58733272 -1804.875 773.25 C-1802.42593692 775.529773 -1800.21229157 777.90304863 -1798.04736328 780.44824219 C-1793.77636737 785.34531983 -1789.19591093 789.91804874 -1784.58444214 794.49072266 C-1783.02526273 796.0369274 -1781.46941379 797.58641896 -1779.91430664 799.13671875 C-1776.61236864 802.42732983 -1773.30649584 805.71396962 -1770 809 C-1766.16288524 812.81336505 -1762.32748325 816.62842149 -1758.49630737 820.44775391 C-1756.97690534 821.96076052 -1755.45448297 823.4706797 -1753.93188477 824.98046875 C-1749.39068544 829.49790816 -1745.00465324 834.07550173 -1740.8359375 838.93920898 C-1737.31603638 842.89020438 -1733.52625198 846.58122896 -1729.76963806 850.30552673 C-1728.24406023 851.81812332 -1726.72181914 853.33401202 -1725.20031738 854.85070801 C-1721.96971047 858.06999112 -1718.73516777 861.28530112 -1715.5 864.5 C-1711.74548873 868.2307565 -1707.99269387 871.96320751 -1704.24412537 875.69993591 C-1702.75796311 877.17970556 -1701.26878004 878.65638565 -1699.77941895 880.13293457 C-1695.90687085 883.99154591 -1692.07243913 887.83425751 -1688.51367188 891.98632812 C-1684.44816851 896.72706873 -1680.01604704 901.0963995 -1675.58444214 905.49072266 C-1674.02526273 907.0369274 -1672.46941379 908.58641896 -1670.91430664 910.13671875 C-1667.61236864 913.42732983 -1664.30649584 916.71396962 -1661 920 C-1657.16288524 923.81336505 -1653.32748325 927.62842149 -1649.49630737 931.44775391 C-1647.97690534 932.96076052 -1646.45448297 934.4706797 -1644.93188477 935.98046875 C-1640.39068544 940.49790816 -1636.00465324 945.07550173 -1631.8359375 949.93920898 C-1628.31603638 953.89020438 -1624.52625198 957.58122896 -1620.76963806 961.30552673 C-1619.24406023 962.81812332 -1617.72181914 964.33401202 -1616.20031738 965.85070801 C-1612.96971047 969.06999112 -1609.73516777 972.28530112 -1606.5 975.5 C-1602.74548873 979.2307565 -1598.99269387 982.96320751 -1595.24412537 986.69993591 C-1593.75796311 988.17970556 -1592.26878004 989.65638565 -1590.77941895 991.13293457 C-1586.90687085 994.99154591 -1583.07243913 998.83425751 -1579.51367188 1002.98632812 C-1575.44816851 1007.72706873 -1571.01604704 1012.0963995 -1566.58444214 1016.49072266 C-1565.02526273 1018.0369274 -1563.46941379 1019.58641896 -1561.91430664 1021.13671875 C-1558.61236864 1024.42732983 -1555.30649584 1027.71396962 -1552 1031 C-1548.16288524 1034.81336505 -1544.32748325 1038.62842149 -1540.49630737 1042.44775391 C-1538.97690534 1043.96076052 -1537.45448297 1045.4706797 -1535.93188477 1046.98046875 C-1531.39507036 1051.49354529 -1527.01406783 1056.06685889 -1522.84936523 1060.92578125 C-1519.26607623 1064.94474143 -1515.40657828 1068.70074098 -1511.58444214 1072.49072266 C-1510.02526273 1074.0369274 -1508.46941379 1075.58641896 -1506.91430664 1077.13671875 C-1503.61236864 1080.42732983 -1500.30649584 1083.71396962 -1497 1087 C-1493.16288524 1090.81336505 -1489.32748325 1094.62842149 -1485.49630737 1098.44775391 C-1483.97690534 1099.96076052 -1482.45448297 1101.4706797 -1480.93188477 1102.98046875 C-1476.39068544 1107.49790816 -1472.00465324 1112.07550173 -1467.8359375 1116.93920898 C-1464.31603638 1120.89020438 -1460.52625198 1124.58122896 -1456.76963806 1128.30552673 C-1455.24406023 1129.81812332 -1453.72181914 1131.33401202 -1452.20031738 1132.85070801 C-1448.96971047 1136.06999112 -1445.73516777 1139.28530112 -1442.5 1142.5 C-1438.74548873 1146.2307565 -1434.99269387 1149.96320751 -1431.24412537 1153.69993591 C-1429.75796311 1155.17970556 -1428.26878004 1156.65638565 -1426.77941895 1158.13293457 C-1422.90687085 1161.99154591 -1419.07243913 1165.83425751 -1415.51367188 1169.98632812 C-1411.44816851 1174.72706873 -1407.01604704 1179.0963995 -1402.58444214 1183.49072266 C-1401.02526273 1185.0369274 -1399.46941379 1186.58641896 -1397.91430664 1188.13671875 C-1394.61236864 1191.42732983 -1391.30649584 1194.71396962 -1388 1198 C-1384.16288524 1201.81336505 -1380.32748325 1205.62842149 -1376.49630737 1209.44775391 C-1374.97690534 1210.96076052 -1373.45448297 1212.4706797 -1371.93188477 1213.98046875 C-1367.39507036 1218.49354529 -1363.01406783 1223.06685889 -1358.84936523 1227.92578125 C-1355.26607623 1231.94474143 -1351.40657828 1235.70074098 -1347.58444214 1239.49072266 C-1346.02526273 1241.0369274 -1344.46941379 1242.58641896 -1342.91430664 1244.13671875 C-1339.61236864 1247.42732983 -1336.30649584 1250.71396962 -1333 1254 C-1329.16288524 1257.81336505 -1325.32748325 1261.62842149 -1321.49630737 1265.44775391 C-1319.97690534 1266.96076052 -1318.45448297 1268.4706797 -1316.93188477 1269.98046875 C-1312.39068544 1274.49790816 -1308.00465324 1279.07550173 -1303.8359375 1283.93920898 C-1300.31603638 1287.89020438 -1296.52625198 1291.58122896 -1292.76963806 1295.30552673 C-1291.24406023 1296.81812332 -1289.72181914 1298.33401202 -1288.20031738 1299.85070801 C-1284.96971047 1303.06999112 -1281.73516777 1306.28530112 -1278.5 1309.5 C-1274.74548873 1313.2307565 -1270.99269387 1316.96320751 -1267.24412537 1320.69993591 C-1265.75796311 1322.17970556 -1264.26878004 1323.65638565 -1262.77941895 1325.13293457 C-1258.20102384 1329.69485268 -1253.76995784 1334.30197547 -1249.56381226 1339.20910645 C-1247.11467887 1342.01387867 -1244.49288318 1344.6315057 -1241.84765625 1347.25 C-1241.30265976 1347.79358154 -1240.75766327 1348.33716309 -1240.19615173 1348.8972168 C-1238.48730783 1350.60054815 -1236.77498803 1352.30033326 -1235.0625 1354 C-1233.88973991 1355.16773374 -1232.71721202 1356.33570074 -1231.54492188 1357.50390625 C-1228.69928311 1360.33863234 -1225.85052547 1363.17018824 -1223 1366 C-1219.29948371 1364.8546021 -1216.07390541 1363.63653978 -1212.8046875 1361.55859375 C-1212.02150146 1361.06649414 -1211.23831543 1360.57439453 -1210.43139648 1360.06738281 C-1209.58778564 1359.52952148 -1208.7441748 1358.99166016 -1207.875 1358.4375 C-1205.98906495 1357.25265791 -1204.10230278 1356.06913164 -1202.21484375 1354.88671875 C-1201.20921387 1354.25556152 -1200.20358398 1353.6244043 -1199.16748047 1352.97412109 C-1193.62068013 1349.51709724 -1188.02824514 1346.13525825 -1182.4375 1342.75 C-1181.24523992 1342.0273284 -1180.05302017 1341.30459026 -1178.86083984 1340.58178711 C-1176.44505788 1339.1172898 -1174.02901007 1337.65323239 -1171.61279297 1336.18945312 C-1166.32057382 1332.9828683 -1161.03186544 1329.7705022 -1155.74295044 1326.55847168 C-1152.82878314 1324.78873487 -1149.9143794 1323.01938749 -1147 1321.25 C-1145.83333221 1320.54166852 -1144.66666554 1319.83333519 -1143.5 1319.125 C-1131.83333333 1312.04166667 -1120.16666667 1304.95833333 -1108.5 1297.875 C-1107.63378777 1297.34908516 -1107.63378777 1297.34908516 -1106.75007629 1296.81254578 C-1105.58315596 1296.10405879 -1104.41623498 1295.39557287 -1103.24931335 1294.68708801 C-1100.33652253 1292.91861422 -1097.42374284 1291.1501221 -1094.51098633 1289.3815918 C-1089.21488445 1286.16599719 -1083.91869486 1282.95054746 -1078.62210083 1279.73576355 C-1063.40802475 1270.50151431 -1048.19953058 1261.25817921 -1033 1252 C-1033.68968309 1244.68779382 -1035.4281915 1237.74401001 -1037.22436523 1230.63256836 C-1037.56023545 1229.28857764 -1037.89569331 1227.94448382 -1038.23077393 1226.60029602 C-1039.14292328 1222.94628192 -1040.06091874 1219.29375926 -1040.98000216 1215.64148402 C-1041.96116252 1211.73842315 -1042.9370419 1207.83404184 -1043.91358948 1203.92982483 C-1045.57086887 1197.30716886 -1047.23161536 1190.68539046 -1048.89477539 1184.06420898 C-1051.17075065 1175.00332751 -1053.44048865 1165.94089341 -1055.70887542 1156.87810969 C-1062.20803374 1130.91566381 -1068.71754889 1104.95577788 -1075.30712891 1079.01611328 C-1075.48168503 1078.3289733 -1075.65624116 1077.64183332 -1075.83608687 1076.93387091 C-1076.72154018 1073.44861115 -1077.60720725 1069.96340573 -1078.49292183 1066.47821236 C-1086.30625346 1035.73241612 -1094.02960056 1004.96458443 -1101.71875 974.1875 C-1101.99759261 973.07144166 -1102.27643523 971.95538332 -1102.56372762 970.80550504 C-1107.16894116 952.37271597 -1111.77078911 933.93908688 -1116.3723526 915.50538635 C-1120.67380901 898.27404709 -1124.97636042 881.04298191 -1129.28125 863.8125 C-1129.70123544 862.1313743 -1129.70123544 862.1313743 -1130.12970543 860.41628647 C-1137.03798229 832.76510143 -1143.97460451 805.1216651 -1151 777.5 C-1158.31302418 748.74746853 -1165.52798278 719.97083982 -1172.71875 691.1875 C-1173.13770822 689.51060404 -1173.13770822 689.51060404 -1173.56513023 687.79983139 C-1178.16984428 669.36892555 -1182.77126094 650.93719675 -1187.3723526 632.50538635 C-1191.67380901 615.27404708 -1195.97638385 598.04298777 -1200.28125 580.8125 C-1200.55926114 579.69965692 -1200.83727229 578.58681385 -1201.12370801 577.44024825 C-1208.85122417 546.50945804 -1216.62578869 515.59120741 -1224.47977084 484.69229275 C-1225.3530474 481.25665374 -1226.22617772 477.82097759 -1227.09912109 474.38525391 C-1227.26608573 473.72813475 -1227.43305036 473.07101558 -1227.60507452 472.39398372 C-1231.09619486 458.65035959 -1234.54254084 444.89568272 -1237.97265625 431.13671875 C-1238.23395199 430.08885319 -1238.49524773 429.04098763 -1238.76446152 427.96136856 C-1241.06584346 418.7304597 -1243.36342598 409.49860677 -1245.65942383 400.26635742 C-1246.95553753 395.05527901 -1248.25389101 389.84476287 -1249.55364799 384.63459206 C-1250.26729555 381.77088962 -1250.97829745 378.90653889 -1251.68922424 376.04216003 C-1252.11566264 374.33234948 -1252.54224386 372.62257454 -1252.96899414 370.9128418 C-1253.2578096 369.74443756 -1253.2578096 369.74443756 -1253.55245972 368.5524292 C-1254.49727168 364.67827384 -1254.49727168 364.67827384 -1256 361 C-1259.49447082 361 -1262.79635607 362.37023956 -1266.1171875 363.38671875 Z M753 1033 C747.64176252 1038.33493597 742.28632537 1043.6726696 736.93432522 1049.01386261 C734.44835902 1051.4946386 731.9614835 1053.97448773 729.47241211 1056.45214844 C726.60247167 1059.30901623 723.73670258 1062.17003731 720.87109375 1065.03125 C719.54723915 1066.34736267 719.54723915 1066.34736267 718.19664001 1067.69006348 C714.5375851 1071.34878951 710.93468987 1075.00557532 707.56665039 1078.93554688 C703.47954004 1083.68977765 699.03338412 1088.07920827 694.58444214 1092.49072266 C693.02526273 1094.0369274 691.46941379 1095.58641896 689.91430664 1097.13671875 C686.05434197 1100.98344225 682.18890098 1104.82464716 678.3236084 1108.66601562 C675.04550558 1111.92425696 671.76955008 1115.1846299 668.49630737 1118.44775391 C666.97690534 1119.96076052 665.45448297 1121.4706797 663.93188477 1122.98046875 C659.39068544 1127.49790816 655.00465324 1132.07550173 650.8359375 1136.93920898 C647.31603638 1140.89020438 643.52625198 1144.58122896 639.76963806 1148.30552673 C638.24406023 1149.81812332 636.72181914 1151.33401202 635.20031738 1152.85070801 C631.42383018 1156.61395801 627.64186489 1160.37168668 623.86004639 1164.12957764 C620.65240132 1167.31735668 617.44690705 1170.50727042 614.24412537 1173.69993591 C612.75796311 1175.17970556 611.26878004 1176.65638565 609.77941895 1178.13293457 C605.90687085 1181.99154591 602.07243913 1185.83425751 598.51367188 1189.98632812 C594.44816851 1194.72706873 590.01604704 1199.0963995 585.58444214 1203.49072266 C584.02526273 1205.0369274 582.46941379 1206.58641896 580.91430664 1208.13671875 C577.05434197 1211.98344225 573.18890098 1215.82464716 569.3236084 1219.66601562 C566.04550558 1222.92425696 562.76955008 1226.1846299 559.49630737 1229.44775391 C557.97690534 1230.96076052 556.45448297 1232.4706797 554.93188477 1233.98046875 C551.00358586 1237.88821371 547.1078866 1241.79071003 543.5 1246 C539.4399013 1250.7368819 535.0114546 1255.1009533 530.58444214 1259.49072266 C529.02526273 1261.0369274 527.46941379 1262.58641896 525.91430664 1264.13671875 C522.05434197 1267.98344225 518.18890098 1271.82464716 514.3236084 1275.66601562 C511.04550558 1278.92425696 507.76955008 1282.1846299 504.49630737 1285.44775391 C502.97690534 1286.96076052 501.45448297 1288.4706797 499.93188477 1289.98046875 C495.39068544 1294.49790816 491.00465324 1299.07550173 486.8359375 1303.93920898 C483.31603638 1307.89020438 479.52625198 1311.58122896 475.76963806 1315.30552673 C474.24406023 1316.81812332 472.72181914 1318.33401202 471.20031738 1319.85070801 C467.42383018 1323.61395801 463.64186489 1327.37168668 459.86004639 1331.12957764 C456.65240132 1334.31735668 453.44690705 1337.50727042 450.24412537 1340.69993591 C448.75796311 1342.17970556 447.26878004 1343.65638565 445.77941895 1345.13293457 C441.24023608 1349.65578156 436.85484419 1354.22400651 432.68466187 1359.08825684 C429.57380624 1362.61843526 426.21692239 1365.9050823 422.87890625 1369.21875 C422.13414536 1369.96209595 421.38938446 1370.70544189 420.62205505 1371.47131348 C418.27123255 1373.81659301 415.91693569 1376.15834836 413.5625 1378.5 C411.95614801 1380.10132961 410.35002603 1381.70288998 408.74414062 1383.3046875 C404.83208015 1387.20579473 400.91717048 1391.1040242 397 1395 C398.63069071 1398.50442359 400.21211396 1400.21310763 403.3125 1402.5625 C407.4413584 1405.76325767 411.46539484 1409.04670723 415.4375 1412.4375 C419.38133403 1415.79587184 423.34908657 1419.11478778 427.375 1422.375 C432.4944768 1426.53923915 437.46950278 1430.85626937 442.44165039 1435.19384766 C446.17998611 1438.44718689 449.95917399 1441.6324576 453.8125 1444.75 C458.17082296 1448.27785965 462.32957987 1451.97735796 466.47265625 1455.75390625 C469.06962393 1458.06187598 471.73404013 1460.25555863 474.4375 1462.4375 C479.211403 1466.29825137 483.73388428 1470.37437075 488.25 1474.53125 C490.93737634 1476.94378104 493.68965444 1479.2325621 496.5 1481.5 C501.25595419 1485.33719031 505.75504801 1489.39385101 510.25 1493.53125 C512.93737634 1495.94378104 515.68965444 1498.2325621 518.5 1500.5 C522.28460334 1503.55348679 525.92207537 1506.70668301 529.5 1510 C533.9698512 1514.11378909 538.59044893 1517.97087297 543.31640625 1521.78515625 C545.94708557 1523.95632827 548.47942424 1526.20241357 551 1528.5 C555.19729034 1532.32170863 559.53710231 1535.91474189 563.94921875 1539.484375 C567.52056748 1542.42925155 571.01208792 1545.45723198 574.5 1548.5 C579.68268182 1553.01803552 584.92474614 1557.43927014 590.26953125 1561.765625 C593.31966691 1564.26158723 596.31581699 1566.8154359 599.3125 1569.375 C603.77063547 1573.17610525 608.30910055 1576.84602205 612.9375 1580.4375 C617.74158013 1584.1659404 622.40764357 1588.01384231 627 1592 C633.26413333 1597.43118802 639.71482064 1602.57718824 646.26757812 1607.65429688 C648.53508291 1609.41563937 650.79040225 1611.19218616 653.04541016 1612.96948242 C656.02628981 1615.3180672 659.01322941 1617.65891463 662 1620 C663.01271973 1620.79446533 663.01271973 1620.79446533 664.04589844 1621.60498047 C680.32134408 1634.36090754 696.81638244 1646.80593552 713.625 1658.8515625 C716.43397899 1660.86557077 719.22510438 1662.90024976 722 1664.9609375 C768.51266649 1699.34156411 822.16313834 1735.54193254 879 1749 C879.84433594 1749.20367188 880.68867188 1749.40734375 881.55859375 1749.6171875 C884.66845265 1750.10481337 887.66646717 1750.09427811 890.8125 1750.0625 C892.55466797 1750.04896484 892.55466797 1750.04896484 894.33203125 1750.03515625 C895.21246094 1750.02355469 896.09289063 1750.01195313 897 1750 C910.61562936 1725.66911203 914.00417978 1697.87826953 917.1875 1670.5625 C917.26631409 1669.89701141 917.34512817 1669.23152283 917.42633057 1668.54586792 C918.03042429 1663.370745 918.53790024 1658.18964388 919 1653 C919.13240585 1651.518414 919.13240585 1651.518414 919.26748657 1650.00689697 C921.02691597 1629.58163854 921.36330951 1609.249771 921.31785583 1588.76190567 C921.31241808 1586.21157941 921.310049 1583.66126242 921.3079834 1581.1109314 C921.277158 1556.68225119 920.86369667 1532.40398129 918.22460938 1508.09533691 C917.99864281 1505.987339 917.78644124 1503.87836497 917.578125 1501.76855469 C909.12006324 1416.70180618 887.7259055 1333.27568769 810 1137 C809.45263184 1135.84209961 808.90526367 1134.68419922 808.34130859 1133.49121094 C795.6418979 1106.6990489 782.27553459 1080.26442058 767.46240234 1054.57373047 C765.96765479 1051.9430746 764.51862142 1049.29172353 763.08203125 1046.62890625 C762.62368896 1045.78320068 762.16534668 1044.93749512 761.69311523 1044.06616211 C760.84009334 1042.48635735 759.99406724 1040.90274661 759.15649414 1039.31469727 C757.04273375 1035.10287398 757.04273375 1035.10287398 753 1033 Z M-1835 1036 C-1839.75983241 1042.79099564 -1843.75154612 1049.86161983 -1847.625 1057.1875 C-1848.74132936 1059.28561306 -1849.8585549 1061.38324948 -1850.9765625 1063.48046875 C-1851.59152588 1064.63635498 -1852.20648926 1065.79224121 -1852.84008789 1066.9831543 C-1854.44564052 1069.98349885 -1856.07829407 1072.9680299 -1857.72045898 1075.94848633 C-1865.04957758 1089.25983968 -1872.03749507 1102.71122353 -1878.8125 1116.3125 C-1879.33224396 1117.35414307 -1879.85198792 1118.39578613 -1880.38748169 1119.46899414 C-1889.35538143 1137.4640827 -1897.97577869 1155.56535647 -1906 1174 C-1906.33368591 1174.76447449 -1906.66737183 1175.52894897 -1907.01116943 1176.31658936 C-1921.87160433 1210.38212684 -1935.20261989 1244.88315085 -1947.31439209 1280.01538086 C-1947.97268115 1281.92092053 -1948.63589306 1283.82475739 -1949.29931641 1285.72851562 C-1973.46977438 1355.25041036 -1989.91335712 1428.03023864 -1997.875 1501.1875 C-1998.0213942 1502.52059204 -1998.0213942 1502.52059204 -1998.17074585 1503.88061523 C-1998.85939232 1510.24731036 -1999.4585164 1516.61915728 -2000 1523 C-2000.0921579 1524.08372894 -2000.1843158 1525.16745789 -2000.27926636 1526.2840271 C-2001.94401932 1546.54936783 -2002.36503426 1566.71334829 -2002.31785583 1587.03568268 C-2002.31241052 1589.4776271 -2002.31004689 1591.91956182 -2002.3079834 1594.36151123 C-2002.27732049 1617.65529703 -2001.8934907 1640.80131012 -1999.2310791 1663.9675293 C-1998.99272668 1666.06397297 -1998.76785288 1668.16152604 -1998.54589844 1670.25976562 C-1995.59916617 1714.83818734 -1995.59916617 1714.83818734 -1977 1754 C-1970.17064992 1754.59124108 -1963.79538588 1753.64306596 -1957.1875 1752 C-1956.28225586 1751.77707275 -1955.37701172 1751.55414551 -1954.44433594 1751.32446289 C-1935.28954676 1746.39331386 -1917.61136286 1737.84125132 -1900 1729 C-1898.59886963 1728.29738037 -1898.59886963 1728.29738037 -1897.16943359 1727.58056641 C-1884.08330693 1720.97290633 -1871.44766802 1713.73869841 -1859 1706 C-1857.68346436 1705.18208984 -1857.68346436 1705.18208984 -1856.34033203 1704.34765625 C-1842.31011457 1695.59550907 -1828.58394382 1686.42789761 -1815 1677 C-1814.23848633 1676.47164551 -1813.47697266 1675.94329102 -1812.69238281 1675.39892578 C-1794.07897393 1662.44775415 -1775.99402632 1648.79326399 -1758 1635 C-1756.75914211 1634.05074526 -1755.51825983 1633.10152242 -1754.27734375 1632.15234375 C-1743.03964073 1623.54491831 -1731.92946601 1614.79277238 -1720.96606445 1605.83886719 C-1716.64443179 1602.31556439 -1712.27768617 1598.85871142 -1707.875 1595.4375 C-1702.46208204 1591.22241584 -1697.22804176 1586.83071204 -1692.04077148 1582.34179688 C-1687.68360883 1578.57224764 -1683.25007518 1574.90938557 -1678.77734375 1571.27734375 C-1675.09161247 1568.25514777 -1671.46255178 1565.16852793 -1667.83129883 1562.08129883 C-1664.46129684 1559.22140505 -1661.05964744 1556.40737018 -1657.625 1553.625 C-1651.91984597 1548.97972945 -1646.37621385 1544.15843204 -1640.828125 1539.328125 C-1637.21265713 1536.18058421 -1633.57919443 1533.0546347 -1629.9375 1529.9375 C-1629.36410889 1529.44660889 -1628.79071777 1528.95571777 -1628.19995117 1528.44995117 C-1627.04469482 1527.46114797 -1625.88934024 1526.47245951 -1624.73388672 1525.48388672 C-1621.82105954 1522.99104476 -1618.91065939 1520.49537234 -1616 1518 C-1614.83334482 1516.9999866 -1613.66667816 1515.99998659 -1612.5 1515 C-1611.9225 1514.505 -1611.345 1514.01 -1610.75 1513.5 C-1605.5 1509 -1605.5 1509 -1603.75024414 1507.50024414 C-1602.58271772 1506.49948394 -1601.4152373 1505.49867008 -1600.24780273 1504.49780273 C-1597.34466371 1502.00899324 -1594.44075051 1499.52109909 -1591.53515625 1497.03515625 C-1582.99326649 1489.72470322 -1574.49018297 1482.37040614 -1566 1475 C-1556.93789954 1467.13310702 -1547.85693682 1459.28956898 -1538.73828125 1451.48828125 C-1536.98047082 1449.98327951 -1535.22435554 1448.47632297 -1533.46875 1446.96875 C-1526.21094106 1440.7374599 -1518.9269875 1434.53845157 -1511.61767578 1428.36767578 C-1509.97091021 1426.97540583 -1508.32689933 1425.57994527 -1506.68359375 1424.18359375 C-1487.92756744 1408.25366675 -1487.92756744 1408.25366675 -1478 1401 C-1479.42074324 1397.754387 -1481.13762681 1395.6373841 -1483.66796875 1393.171875 C-1484.39693359 1392.45386719 -1485.12589844 1391.73585938 -1485.87695312 1390.99609375 C-1486.63943359 1390.25488281 -1487.40191406 1389.51367188 -1488.1875 1388.75 C-1489.68350378 1387.2890284 -1491.17701569 1385.82550062 -1492.66796875 1384.359375 C-1493.33078857 1383.71452148 -1493.9936084 1383.06966797 -1494.67651367 1382.40527344 C-1496.5660294 1380.44924643 -1498.33292448 1378.46431091 -1500.10083008 1376.40136719 C-1504.26084742 1371.61403821 -1508.72799106 1367.15811264 -1513.23036194 1362.69447327 C-1514.75593977 1361.18187668 -1516.27818086 1359.66598798 -1517.79968262 1358.14929199 C-1521.03028953 1354.93000888 -1524.26483223 1351.71469888 -1527.5 1348.5 C-1531.25451127 1344.7692435 -1535.00730613 1341.03679249 -1538.75587463 1337.30006409 C-1540.24203689 1335.82029444 -1541.73121996 1334.34361435 -1543.22058105 1332.86706543 C-1547.09312915 1329.00845409 -1550.92756087 1325.16574249 -1554.48632812 1321.01367188 C-1558.55183149 1316.27293127 -1562.98395296 1311.9036005 -1567.41555786 1307.50927734 C-1568.97473727 1305.9630726 -1570.53058621 1304.41358104 -1572.08569336 1302.86328125 C-1575.38763136 1299.57267017 -1578.69350416 1296.28603038 -1582 1293 C-1585.83711476 1289.18663495 -1589.67251675 1285.37157851 -1593.50369263 1281.55224609 C-1595.02309466 1280.03923948 -1596.54551703 1278.5293203 -1598.06811523 1277.01953125 C-1602.60931456 1272.50209184 -1606.99534676 1267.92449827 -1611.1640625 1263.06079102 C-1614.68396362 1259.10979562 -1618.47374802 1255.41877104 -1622.23036194 1251.69447327 C-1623.75593977 1250.18187668 -1625.27818086 1248.66598798 -1626.79968262 1247.14929199 C-1630.03028953 1243.93000888 -1633.26483223 1240.71469888 -1636.5 1237.5 C-1640.25451127 1233.7692435 -1644.00730613 1230.03679249 -1647.75587463 1226.30006409 C-1649.24203689 1224.82029444 -1650.73121996 1223.34361435 -1652.22058105 1221.86706543 C-1656.09312915 1218.00845409 -1659.92756087 1214.16574249 -1663.48632812 1210.01367188 C-1667.55183149 1205.27293127 -1671.98395296 1200.9036005 -1676.41555786 1196.50927734 C-1677.97473727 1194.9630726 -1679.53058621 1193.41358104 -1681.08569336 1191.86328125 C-1684.38763136 1188.57267017 -1687.69350416 1185.28603038 -1691 1182 C-1694.83711476 1178.18663495 -1698.67251675 1174.37157851 -1702.50369263 1170.55224609 C-1704.02309466 1169.03923948 -1705.54551703 1167.5293203 -1707.06811523 1166.01953125 C-1711.60492964 1161.50645471 -1715.98593217 1156.93314111 -1720.15063477 1152.07421875 C-1723.73392377 1148.05525857 -1727.59342172 1144.29925902 -1731.41555786 1140.50927734 C-1732.97473727 1138.9630726 -1734.53058621 1137.41358104 -1736.08569336 1135.86328125 C-1739.38763136 1132.57267017 -1742.69350416 1129.28603038 -1746 1126 C-1749.83711476 1122.18663495 -1753.67251675 1118.37157851 -1757.50369263 1114.55224609 C-1759.02309466 1113.03923948 -1760.54551703 1111.5293203 -1762.06811523 1110.01953125 C-1766.60931456 1105.50209184 -1770.99534676 1100.92449827 -1775.1640625 1096.06079102 C-1778.68396362 1092.10979562 -1782.47374802 1088.41877104 -1786.23036194 1084.69447327 C-1787.75593977 1083.18187668 -1789.27818086 1081.66598798 -1790.79968262 1080.14929199 C-1794.03028953 1076.93000888 -1797.26483223 1073.71469888 -1800.5 1070.5 C-1804.25451127 1066.7692435 -1808.00730613 1063.03679249 -1811.75587463 1059.30006409 C-1813.24203689 1057.82029444 -1814.73121996 1056.34361435 -1816.22058105 1054.86706543 C-1820.82653624 1050.27768643 -1825.30099776 1045.66950146 -1829.45495605 1040.66394043 C-1831.15019221 1038.83824998 -1832.97052709 1037.43764039 -1835 1036 Z " fill="#FFFFFF" transform="translate(2207,744)"/>
</svg>
