<?xml version="1.0" encoding="UTF-8"?>
<svg version="1.1" xmlns="http://www.w3.org/2000/svg" width="3333" height="3333">
<path d="M0 0 C1.10319376 -0.00277531 2.20638751 -0.00555063 3.34301138 -0.00841005 C4.54778242 -0.00637371 5.75255346 -0.00433737 6.99383271 -0.00223933 C8.28641159 -0.00401434 9.57899048 -0.00578935 10.91073842 -0.00761814 C14.51410095 -0.01242124 18.11743845 -0.01098216 21.72080238 -0.00856045 C25.64974459 -0.00702029 29.57868122 -0.01127336 33.50762156 -0.01478721 C40.42535583 -0.02016642 47.34308329 -0.02180356 54.26081949 -0.02103646 C64.61707823 -0.01990235 74.97332903 -0.02447796 85.32958599 -0.0301673 C102.97786008 -0.03968585 120.62613259 -0.04438757 138.274409 -0.04647664 C156.16645109 -0.04860388 174.05849074 -0.05286071 191.95053167 -0.05971937 C193.07941699 -0.06014998 194.20830231 -0.06058059 195.37139628 -0.06102426 C199.96897276 -0.06278257 204.56654924 -0.06455221 209.16412572 -0.06633728 C264.92614813 -0.08794541 320.68817102 -0.09881712 376.45019666 -0.10781351 C394.52993871 -0.11074675 412.60968064 -0.11411654 430.68942255 -0.11778073 C432.60218025 -0.11816816 432.60218025 -0.11816816 434.55357953 -0.11856343 C439.71230221 -0.11960963 444.8710249 -0.12065805 450.02974759 -0.12170925 C536.19430208 -0.13925166 622.35885679 -0.15466345 714.74939709 -0.16246828 C720.98741409 -0.16299274 727.22543109 -0.16353005 733.46344809 -0.16406674 C735.54667955 -0.16424595 737.62991101 -0.16442492 739.71314247 -0.16460384 C752.94739464 -0.16574091 766.18164682 -0.16688698 779.41589899 -0.16805203 C782.90754041 -0.16835934 786.39918182 -0.16866528 789.89082324 -0.16896794 C855.83514022 -0.17468766 921.77945334 -0.18393032 987.72376699 -0.20638494 C988.76504431 -0.20673928 988.76504431 -0.20673928 989.82735753 -0.20710078 C1012.21470415 -0.21472867 1034.60205061 -0.22277749 1056.98939706 -0.23088605 C1078.5461704 -0.23869364 1100.10294376 -0.24641707 1121.65971727 -0.25377588 C1122.687573 -0.25412701 1122.687573 -0.25412701 1123.73619349 -0.25448524 C1166.65198329 -0.26912233 1209.56777204 -0.27892377 1252.48356408 -0.28365068 C1253.14640606 -0.28372427 1253.80924804 -0.28379787 1254.49217613 -0.28387369 C1284.25591944 -0.28717207 1314.01966276 -0.28930903 1343.78340624 -0.29032374 C1355.48947928 -0.29073849 1367.19555231 -0.29129339 1378.90162534 -0.29188566 C1380.18279849 -0.29194632 1381.46397165 -0.29200699 1382.78396823 -0.2920695 C1424.07437633 -0.29408651 1465.364769 -0.30833244 1506.65517171 -0.32883066 C1548.23802303 -0.34940088 1589.8208565 -0.35731128 1631.40371239 -0.34775289 C1637.14770217 -0.3464344 1642.89169198 -0.34525637 1648.63568181 -0.34416227 C1649.76167997 -0.34394242 1650.88767813 -0.34372257 1652.04779744 -0.34349606 C1669.88920116 -0.34037969 1687.7305708 -0.35071619 1705.57196661 -0.36663782 C1723.10849501 -0.38200913 1740.6449762 -0.38315388 1758.18150622 -0.36908958 C1768.46695808 -0.36126966 1778.75226584 -0.36442005 1789.03770335 -0.38372674 C1795.86780874 -0.3954561 1802.69780878 -0.39268725 1809.52790845 -0.3781121 C1813.40030768 -0.37025504 1817.27242487 -0.36855444 1821.14480466 -0.38473114 C1845.89929761 -0.48128168 1866.40588054 1.22413313 1885.38441152 19.12656184 C1898.69320602 32.99190593 1904.53038323 50.87908208 1904.49793691 69.82773371 C1904.49815595 70.91213237 1904.49815595 70.91213237 1904.49837941 72.01843806 C1904.4976899 74.3774279 1904.48994315 76.73633601 1904.48206777 79.09531184 C1904.48020016 80.74297579 1904.47877788 82.3906403 1904.47778005 84.038305 C1904.47398182 88.3520416 1904.46417484 92.66574395 1904.45307607 96.97946711 C1904.44280372 101.39047314 1904.43827 105.80148477 1904.43323964 110.21249934 C1904.42254989 118.8505358 1904.40550622 127.48854455 1904.38441152 136.12656184 C1905.51280446 136.25203898 1906.64119741 136.37751612 1907.80378408 136.5067956 C1922.65379183 138.18601585 1922.65379183 138.18601585 1929.90003652 139.75546809 C1930.94428289 139.98052783 1930.94428289 139.98052783 1932.00962514 140.21013423 C1934.2205501 140.69191581 1936.42769035 141.18840044 1938.63441152 141.68906184 C1939.40621755 141.86229975 1940.17802358 142.03553767 1940.97321767 142.21402522 C2015.84159589 159.11496388 2084.06967782 196.28249642 2140.38441152 248.12656184 C2141.00283925 248.694555 2141.62126699 249.26254817 2142.25843496 249.84775325 C2144.36799422 251.78944972 2146.47075388 253.73827904 2148.57191152 255.68906184 C2149.2374706 256.30233332 2149.90302968 256.91560481 2150.58875722 257.54746028 C2154.54734503 261.24273285 2158.18836347 265.08439271 2161.7118041 269.19565364 C2163.76178808 271.56221667 2165.90526681 273.82636715 2168.06239003 276.09482356 C2174.47967844 282.85794192 2180.37894814 289.88417825 2186.00745839 297.312597 C2187.40886942 299.15878209 2188.82553427 300.99251204 2190.24378652 302.82578059 C2252.38421649 383.72734287 2283.56908025 485.39800802 2275.3629424 626.11539241 C2269.45140803 670.20994862 2256.64164605 713.01886833 2237.38441152 753.12656184 C2236.7100707 754.53881037 2236.7100707 754.53881037 2236.02210683 755.97958918 C2220.85204944 787.55734236 2201.91358976 817.74151164 2178.88441152 844.22421809 C2176.53585558 846.95074474 2174.30151584 849.7401696 2172.07191152 852.56406184 C2166.82150571 859.02975145 2160.88638492 864.7903979 2154.93861074 870.60507746 C2151.65795949 873.81667322 2148.4295811 877.0782473 2145.22034902 880.36093684 C2139.11415699 886.58155945 2132.98763055 892.52629231 2126.13441152 897.93515559 C2123.66962138 899.89928523 2121.28401368 901.93257342 2118.90784902 904.00229426 C2061.32619173 953.89871496 1978.99146055 991.99579671 1902.38441152 997.12656184 C1902.34573964 998.92093684 1902.34573964 998.92093684 1902.30628652 1000.75156184 C1899.85522298 1085.19438965 1881.18407976 1170.57474317 1766.25892324 1444.02011653 C1764.51346077 1446.9127011 1762.79101217 1449.81752279 1761.07581777 1452.72812434 C1746.87310588 1476.66672141 1731.00012142 1499.79991983 1714.38441152 1522.12656184 C1713.90036855 1522.78108332 1713.41632558 1523.43560481 1712.91761464 1524.10996028 C1702.31351965 1538.4415131 1691.5215804 1552.64501771 1679.90394277 1566.17343684 C1677.47625016 1569.01891841 1675.11124092 1571.90575467 1672.75941152 1574.81406184 C1669.13606657 1579.26559992 1665.36477279 1583.55038639 1661.50159902 1587.79453059 C1659.60389983 1589.88480073 1657.73707737 1591.99642299 1655.88441152 1594.12656184 C1651.77126078 1598.84209621 1647.58668382 1603.4904196 1643.38441152 1608.12656184 C1642.59220204 1609.0056219 1641.79999257 1609.88468196 1640.98377675 1610.7903802 C1632.35161445 1620.26528313 1623.32922559 1629.33426116 1614.25599355 1638.3853509 C1611.62185169 1641.01409593 1608.99314648 1643.64819362 1606.36488027 1646.28281184 C1604.66858649 1647.97844533 1602.97198281 1649.67376887 1601.27503652 1651.36874934 C1600.11382283 1652.53299937 1600.11382283 1652.53299937 1598.92915029 1653.7207696 C1594.79008068 1657.84224313 1590.57175176 1661.80727443 1586.13808889 1665.61099787 C1583.37710315 1667.9970984 1580.73288163 1670.50530044 1578.07191152 1673.00156184 C1573.19855602 1677.54004708 1568.18137174 1681.82004981 1562.98597402 1685.98984309 C1560.43454423 1688.08538677 1558.00114379 1690.26619338 1555.57191152 1692.50156184 C1551.19932716 1696.4816465 1546.64271861 1700.14003681 1541.97449941 1703.76108332 C1538.1088337 1706.76184965 1534.29534015 1709.81617337 1530.51234121 1712.92050715 C1510.27167681 1729.529497 1488.88066142 1744.65858694 1467.07191152 1759.12656184 C1466.22034475 1759.69272212 1465.36877797 1760.2588824 1464.49140615 1760.84219905 C1448.36785243 1771.55687721 1432.12911075 1781.90154051 1415.29847402 1791.47812434 C1414.33916982 1792.02508967 1413.37986562 1792.572055 1412.3914916 1793.13559504 C1410.05633043 1794.46685514 1407.72063156 1795.79716114 1405.38441152 1797.12656184 C1407.21993537 1797.12745747 1407.21993537 1797.12745747 1409.09254051 1797.1283712 C1463.03553793 1797.15495425 1516.97853056 1797.18648885 1570.92150563 1797.24320002 C1571.73849229 1797.24405753 1572.55547895 1797.24491504 1573.39722277 1797.24579854 C1591.15359307 1797.26446523 1608.9099623 1797.28401786 1626.66633061 1797.30448279 C1635.37435935 1797.31451376 1644.0823883 1797.324349 1652.79041738 1797.33408137 C1653.6569596 1797.33505318 1654.52350181 1797.33602498 1655.41630289 1797.33702624 C1683.49100583 1797.36841965 1711.56569917 1797.38689522 1739.64041663 1797.3986543 C1768.49675369 1797.41080913 1797.35305065 1797.43603134 1826.20936099 1797.47763798 C1830.28740945 1797.48351186 1834.3654581 1797.48923673 1838.4435069 1797.49487086 C1839.24610598 1797.49598432 1840.04870507 1797.49709778 1840.87562534 1797.49824498 C1853.782473 1797.51576799 1866.68928974 1797.51956247 1879.5961477 1797.51819105 C1892.57964796 1797.51710562 1905.56306925 1797.53055963 1918.54653956 1797.55872612 C1926.25525717 1797.57501115 1933.96379594 1797.58027688 1941.67252427 1797.56953359 C1947.43760965 1797.56273008 1953.20249603 1797.57684244 1958.96753627 1797.59889846 C1961.29348776 1797.60457684 1963.61946761 1797.60357483 1965.9454105 1797.59507428 C1987.52606092 1797.52298521 2005.8559035 1800.22299347 2022.17347402 1815.88046809 C2022.90308339 1816.62167903 2023.63269277 1817.36288996 2024.38441152 1818.12656184 C2025.03152089 1818.77496028 2025.67863027 1819.42335871 2026.34534902 1820.09140559 C2039.81682188 1834.47470303 2042.99298149 1852.00601709 2042.72034902 1870.94687434 C2042.11891584 1887.25515756 2034.32124304 1902.97442243 2022.38441152 1914.12656184 C2007.42815926 1926.59010539 1992.52572395 1931.60474903 1973.25718785 1931.50491067 C1971.73759313 1931.50814109 1970.21800075 1931.51268495 1968.69841339 1931.51841192 C1964.52325669 1931.53034745 1960.348307 1931.52366461 1956.17315229 1931.51393023 C1951.61376186 1931.50662927 1947.0544041 1931.51679444 1942.49501929 1931.52470072 C1934.47354064 1931.53619916 1926.45212125 1931.53652275 1918.43063824 1931.52960529 C1906.42210231 1931.51930232 1894.41361865 1931.52626129 1882.40508495 1931.53658535 C1861.93962608 1931.55366622 1841.47418735 1931.55644459 1821.00872296 1931.55146952 C1800.26454932 1931.5464722 1779.52039136 1931.54795129 1758.77621907 1931.55735179 C1756.81201289 1931.5582345 1756.81201289 1931.5582345 1754.80812576 1931.55913506 C1749.47498137 1931.56155156 1744.141837 1931.56400698 1738.80869266 1931.56652771 C1723.77506181 1931.57362271 1708.74143062 1931.57963748 1693.70779902 1931.58491202 C1692.67442489 1931.58527502 1692.67442489 1931.58527502 1691.6201745 1931.58564536 C1657.65491218 1931.59746952 1623.68965086 1931.59772242 1589.72438687 1931.59657832 C1588.98814253 1931.59655356 1588.25189819 1931.59652879 1587.49334341 1931.59650328 C1583.7661562 1931.59637685 1580.03896899 1931.59624723 1576.31178178 1931.59611657 C1568.82464241 1931.59585539 1561.33750305 1931.59561777 1553.85036368 1931.59540148 C1553.10699182 1931.59537921 1552.36361996 1931.59535694 1551.59772168 1931.595334 C1517.90708177 1931.59434788 1484.21644357 1931.59905615 1450.52580428 1931.6050834 C1446.01917449 1931.60588922 1441.5125447 1931.60667722 1437.00591491 1931.60746013 C1436.26094802 1931.60758957 1435.51598113 1931.60771901 1434.74843949 1931.60785238 C1433.24239362 1931.60811392 1431.73634775 1931.60837536 1430.23030188 1931.6086367 C1427.21413926 1931.60916017 1424.19797663 1931.60968462 1421.18181401 1931.61020909 C1419.6716845 1931.61047163 1418.16155498 1931.61073404 1416.65142547 1931.61099632 C1412.87047451 1931.61165303 1409.08952355 1931.61231136 1405.3085726 1931.61297304 C1370.02213153 1931.61914314 1334.73569036 1931.62423775 1299.44924897 1931.62824794 C1298.68040137 1931.62833554 1297.91155376 1931.62842315 1297.11940774 1931.62851342 C1248.12432171 1931.63407152 1199.12923686 1931.63484549 1150.13415062 1931.63214916 C1147.72484555 1931.63201682 1145.31554049 1931.63188647 1142.90623543 1931.63175666 C1125.97982916 1931.63084261 1109.05342289 1931.62985596 1092.12701663 1931.62884287 C1089.70117714 1931.62869774 1087.27533765 1931.62855299 1084.84949816 1931.62840837 C1084.04863272 1931.62836061 1083.24776727 1931.62831284 1082.42263317 1931.62826363 C1080.8042466 1931.62816712 1079.18586004 1931.62807065 1077.56747348 1931.62797422 C1073.51928697 1931.62773273 1069.47110046 1931.6274895 1065.42291395 1931.62724288 C988.96081716 1931.62259273 912.49872759 1931.62293372 836.0366332 1931.64475032 C834.82910533 1931.64509478 834.82910533 1931.64509478 833.59718295 1931.6454462 C809.25401327 1931.65240931 784.91084379 1931.66001598 760.56767435 1931.66777951 C733.94944931 1931.67626841 707.33122425 1931.68468771 680.71299905 1931.69265528 C679.91833436 1931.69289358 679.12366966 1931.69313188 678.30492422 1931.6933774 C628.53779611 1931.70828092 578.77067006 1931.71710675 529.00353974 1931.71922084 C527.8505995 1931.71927078 527.8505995 1931.71927078 526.67436753 1931.71932174 C492.91836779 1931.72077239 459.16236817 1931.72080739 425.40636844 1931.71931214 C412.57784748 1931.71874497 399.74932652 1931.7182942 386.92080556 1931.71790354 C383.91770283 1931.71781198 380.91460011 1931.71771228 377.91149739 1931.71760609 C343.47102452 1931.71641403 309.03055744 1931.71883983 274.59008688 1931.73232623 C273.84738134 1931.73261654 273.10467579 1931.73290686 272.33946402 1931.73320597 C260.39218616 1931.73789327 248.44490841 1931.74285639 236.49763067 1931.7478368 C202.58096536 1931.76196051 168.66430824 1931.77335272 134.74763972 1931.76679679 C134.05939643 1931.76666467 133.37115313 1931.76653256 132.66205398 1931.76639644 C117.646557 1931.76345952 102.63106077 1931.75910825 87.61556461 1931.75336921 C81.62691288 1931.75110068 75.63826108 1931.74901407 69.64960927 1931.74698039 C67.69148078 1931.74630482 67.69148078 1931.74630482 65.69379414 1931.7456156 C45.00563826 1931.73893157 24.31752591 1931.74903651 3.62937741 1931.76609177 C-16.70279112 1931.7825022 -37.03489351 1931.78112311 -57.36705913 1931.76069341 C-69.29365552 1931.74924337 -81.22006011 1931.75150285 -93.14664203 1931.77390857 C-101.06474992 1931.78742026 -108.98271323 1931.7828406 -116.90080866 1931.76347615 C-121.39120001 1931.75300234 -125.88121266 1931.75025638 -130.37158229 1931.76979405 C-134.45282404 1931.7874047 -138.53336745 1931.78165342 -142.61457232 1931.75795197 C-144.07143976 1931.75344878 -145.52836441 1931.75712159 -146.98517753 1931.77048322 C-165.21620949 1931.92623592 -182.03547429 1926.07389335 -195.45933848 1913.40390559 C-208.94743366 1899.1583268 -215.41400036 1882.62013286 -215.61558848 1863.12656184 C-214.51637332 1843.6053147 -207.13967952 1827.24195871 -192.92808848 1813.92734309 C-180.43215661 1802.91492945 -165.01988523 1797.96998034 -148.60058337 1797.98789664 C-147.59076634 1797.98505442 -146.5809493 1797.9822122 -145.54053175 1797.97928386 C-142.14152106 1797.97093209 -138.74254444 1797.96966826 -135.34352427 1797.96834346 C-132.8882137 1797.96377844 -130.43290391 1797.9587785 -127.97759503 1797.95337989 C-122.63151661 1797.94262494 -117.28544689 1797.93495295 -111.93936091 1797.92998095 C-103.98992275 1797.92257113 -96.04050103 1797.90948709 -88.09107255 1797.8952352 C-74.71899625 1797.87142245 -61.34691703 1797.85221919 -47.97482997 1797.83563586 C-34.73328689 1797.81919938 -21.49174928 1797.80071853 -8.25021296 1797.77950259 C-7.42713541 1797.77818498 -6.60405786 1797.77686737 -5.75603857 1797.77550984 C-1.5761056 1797.76880783 2.60382732 1797.76206924 6.78376021 1797.75531658 C36.39624415 1797.70754354 66.00873319 1797.66436138 95.62122792 1797.62387629 C124.39076294 1797.58453317 153.16029374 1797.54311228 181.92982167 1797.49887629 C183.25984176 1797.4968325 183.25984176 1797.4968325 184.61673093 1797.49474741 C193.52107283 1797.48106213 202.42541466 1797.46733459 211.32975644 1797.45357607 C229.46920042 1797.42554894 247.60864482 1797.39780391 265.7480895 1797.37022944 C266.58212618 1797.36896124 267.41616286 1797.36769304 268.27547338 1797.36638641 C323.97844591 1797.2817193 379.68142805 1797.2036491 435.38441152 1797.12656184 C431.57311331 1794.81177755 427.7617177 1792.49715374 423.95023793 1790.18266841 C422.65793517 1789.39790041 421.36565746 1788.61309117 420.07340688 1787.82823725 C413.30830669 1783.71946219 406.54240034 1779.61213856 399.76353139 1775.52609797 C390.10583388 1769.68539028 380.71870657 1763.46855342 371.38441152 1757.12656184 C370.70668691 1756.66781672 370.0289623 1756.2090716 369.33070058 1755.73642512 C352.61295099 1744.40768168 336.33348836 1732.51229765 320.38441152 1720.12656184 C319.7498705 1719.6338177 319.11532949 1719.14107356 318.46155996 1718.63339778 C306.77883999 1709.5427622 295.34888704 1700.16611982 284.0802123 1690.56796809 C282.38206306 1689.12456568 280.67850959 1687.68774761 278.97425527 1686.25156184 C272.04131096 1680.38605375 265.30440099 1674.35350061 258.70911855 1668.10971614 C255.796684 1665.3557511 252.85845326 1662.6622261 249.80994863 1660.05917903 C244.65257577 1655.5562769 239.83962149 1650.72520822 235.00550527 1645.88046809 C234.0249427 1644.90058131 233.04423192 1643.92084283 232.06338185 1642.94124385 C230.02040939 1640.89973544 227.97922983 1638.85645618 225.93934316 1636.81186457 C223.34521285 1634.2120378 220.74661718 1631.61672811 218.14664811 1629.02274199 C216.12433327 1627.00406788 214.10443962 1624.98298451 212.08523435 1622.96120043 C210.66924906 1621.5442386 209.25127637 1620.12926367 207.8332488 1618.71434565 C203.34560502 1614.21052758 198.97955492 1609.66169525 194.84765309 1604.82791682 C192.4842352 1602.07989977 189.9886239 1599.45716496 187.50941152 1596.81406184 C183.06975859 1592.04245289 178.8678201 1587.14488194 174.78675527 1582.06015559 C171.93479577 1578.57751887 168.97599026 1575.19894891 166.00941152 1571.81406184 C160.39785231 1565.38428541 155.06680914 1558.78472422 149.85609121 1552.02792903 C148.27332161 1549.98303693 146.67761627 1547.94871864 145.07972402 1545.91562434 C132.62620995 1530.04421918 120.64639396 1513.8661073 109.38441152 1497.12656184 C108.77839101 1496.22776301 108.1723705 1495.32896418 107.54798574 1494.40292903 C58.29059348 1421.25175364 18.48393962 1342.94264996 -30.61558848 1192.12656184 C-30.81392283 1191.36549128 -31.01225718 1190.60442073 -31.21660167 1189.82028743 C-47.90676541 1125.58396664 -58.54355948 1059.45742474 -61.61558848 993.12656184 C-61.65532789 992.28935386 -61.6950673 991.45214587 -61.73601094 990.58956795 C-62.64814225 970.80827534 -62.76437092 951.06074339 -62.75645876 931.26347338 C-62.75571618 926.62108616 -62.76077691 921.97870424 -62.76503378 917.33631941 C-62.77254858 908.16598332 -62.77480347 898.99565307 -62.77536283 889.82531422 C-62.77628288 878.82704512 -62.78296882 867.8287813 -62.78970966 856.8305145 C-62.80569937 830.27441716 -62.8116631 803.71832044 -62.81645841 777.16221915 C-62.81879954 764.59389822 -62.82240254 752.02557774 -62.82615378 739.45725716 C-62.83877707 697.0791905 -62.84959521 654.70112381 -62.85299424 612.32305532 C-62.85315648 610.30181497 -62.85332204 608.28057462 -62.85348863 606.25933428 C-62.8538224 602.2061063 -62.85415289 598.15287832 -62.85448318 594.09965034 C-62.85487007 589.35489939 -62.85525968 584.61014843 -62.85565425 579.86539747 C-62.85576667 578.507445 -62.85587809 577.14949253 -62.8559885 575.79154006 C-62.85954152 532.13452435 -62.87464124 488.47752506 -62.89792625 444.82051562 C-62.92291964 397.94155923 -62.9373111 351.06261189 -62.9385243 304.18364759 C-62.93869575 299.11419125 -62.93891118 294.04473491 -62.93915873 288.97527857 C-62.9392145 287.72711109 -62.93927027 286.47894361 -62.93932773 285.19295288 C-62.94047818 265.11020646 -62.95149867 245.02747708 -62.96604579 224.94473642 C-62.98040456 204.77395001 -62.98365107 184.60318545 -62.97560581 164.43239533 C-62.97114823 152.4510764 -62.97501565 140.46982799 -62.99084432 128.48851831 C-63.00059127 120.4839202 -62.99941879 112.47937153 -62.98940809 104.47477388 C-62.98401448 99.91565165 -62.98331122 95.35666491 -62.99591681 90.79755389 C-63.00730673 86.64343209 -63.00467582 82.48955525 -62.99124974 78.33544168 C-62.9888307 76.84857627 -62.99134634 75.36169166 -62.99964621 73.87484745 C-63.06551253 61.23632936 -62.12263327 48.20103915 -55.99058848 36.87656184 C-55.64431407 36.21527278 -55.29803965 35.55398371 -54.94127208 34.87265559 C-45.85119443 18.11600239 -31.74953949 7.49342834 -13.74840098 1.66953059 C-9.16571091 0.50287506 -4.72188074 0.00151513 0 0 Z M71.38441152 134.12656184 C71.38441152 181.31656184 71.38441152 228.50656184 71.38441152 277.12656184 C91.66797109 277.14638118 111.95153066 277.16620051 132.84974355 277.18662043 C146.39394338 277.20014595 159.93814311 277.21370491 173.48234243 277.22772761 C174.34278467 277.22861747 175.20322692 277.22950734 176.08974318 277.23042417 C205.05677392 277.26041717 234.02380091 277.29313112 262.99082631 277.3278863 C264.40894256 277.32958674 264.40894256 277.32958674 265.85570761 277.33132152 C286.40246647 277.35597347 306.94922477 277.38106637 327.49598254 277.40661345 C337.57223611 277.41913921 347.6484898 277.43156753 357.72474355 277.44394465 C358.72744721 277.44517798 359.73015087 277.4464113 360.7632395 277.447682 C393.25859413 277.48760559 425.75395151 277.52109663 458.24931656 277.55124875 C491.64497478 277.58227023 525.04061957 277.61978753 558.43626112 277.66546796 C563.1541145 277.67191828 567.87196798 277.6782944 572.58982152 277.68462535 C573.51835472 277.68587365 574.44688792 277.68712196 575.40355849 277.68840809 C590.34506908 277.70830447 605.28657818 277.72136152 620.22809801 277.73185511 C635.25257585 277.74255314 650.27703139 277.76047041 665.30149193 277.78572888 C674.22568741 277.80051321 683.14984876 277.80979013 692.07405659 277.81112867 C698.04055768 277.81256975 704.00702038 277.82124562 709.973504 277.83571776 C713.36984436 277.84375128 716.76604638 277.84761729 720.16240462 277.84484065 C746.05825227 277.82714689 768.1888851 279.11062646 788.06409902 297.70859309 C801.26770939 311.46791097 806.8422786 329.12615606 806.65784902 347.91953059 C805.83793457 365.23920848 798.48567796 380.75509168 786.38441152 393.12656184 C772.32899549 405.16524174 757.30038367 410.28261949 739.0419299 410.26522704 C737.88860111 410.26806926 736.73527231 410.27091147 735.54699415 410.27383982 C732.34035179 410.28073663 729.13374132 410.28318132 725.92709271 410.28376724 C722.44061076 410.28549707 718.95414043 410.29298288 715.46766526 410.29974379 C709.35553606 410.31080118 703.24341099 410.31817272 697.13127393 410.32314273 C688.04273017 410.3305496 678.95420081 410.34363295 669.86566554 410.35788848 C654.57778087 410.38170656 639.28989365 410.40090757 624.00199956 410.41748782 C608.86251795 410.43392215 593.72304111 410.4524021 578.58356542 410.47362109 C577.64264839 410.4749387 576.70173137 410.4762563 575.7323017 410.47761384 C570.95396492 410.48431581 566.17562818 410.49105441 561.39729147 410.4978071 C527.54209133 410.54558498 493.68688673 410.58876575 459.83167714 410.62924739 C426.93942124 410.6685881 394.04716903 410.7100084 361.15491933 410.75424739 C360.14124452 410.75560992 359.12756972 410.75697245 358.08317749 410.75837626 C347.90354661 410.7720615 337.72391578 410.78578905 327.544285 410.7995476 C306.8067392 410.82757503 286.06919303 410.85532001 265.33164662 410.88289424 C264.37814339 410.88416244 263.42464015 410.88543063 262.44224287 410.88673726 C198.75630509 410.97140983 135.0703589 411.04949817 71.38441152 411.12656184 C71.35012422 463.9117761 71.31828971 516.69699132 71.29972524 569.48221369 C71.29944912 570.26528693 71.29917301 571.04836016 71.29888853 571.85516288 C71.29290066 588.87947481 71.28736059 605.90378685 71.28228086 622.92809907 C71.27978651 631.2785958 71.27719335 639.6290925 71.27454824 647.97958918 C71.27428672 648.81049892 71.2740252 649.64140866 71.27375576 650.49749748 C71.26525544 677.35838142 71.25024968 704.21925685 71.23181708 731.08013565 C71.21288664 758.71712398 71.20062558 786.35410761 71.19658154 813.99110231 C71.19600535 817.90781464 71.19535408 821.82452696 71.19465703 825.74123927 C71.19452219 826.51199316 71.19438734 827.28274705 71.19424841 828.07685712 C71.19189848 840.41049952 71.18265924 852.74412728 71.17074745 865.07776374 C71.1588797 877.52165396 71.1544986 889.96552989 71.15740876 902.40942555 C71.15878227 909.13373771 71.1568456 915.85800238 71.14600057 922.58230944 C71.09307889 957.10493395 71.5184821 991.44669928 75.13441152 1025.81406184 C75.21711293 1026.61843684 75.29981435 1027.42281184 75.38502187 1028.25156184 C81.32426098 1085.61349114 92.87767107 1142.16657906 110.38441152 1197.12656184 C110.79135351 1198.41702496 111.19808817 1199.70755348 111.60462636 1200.99814387 C124.35199002 1241.32241525 140.79238634 1280.16784378 159.38441152 1318.12656184 C159.87554433 1319.13605891 160.36667714 1320.14555598 160.87269277 1321.18564387 C168.16844716 1336.15974663 176.00414025 1350.73287311 184.38441152 1365.12656184 C184.91776113 1366.05355891 185.45111074 1366.98055598 186.00062246 1367.93564387 C194.3048101 1382.33705037 203.29745025 1396.2317085 212.50941152 1410.06406184 C213.05036458 1410.87778254 213.59131765 1411.69150325 214.14866323 1412.52988215 C224.99492422 1428.81747379 236.32568374 1444.7128621 248.38441152 1460.12656184 C249.27660567 1461.27739651 250.16852515 1462.42844416 251.06019277 1463.57968684 C256.03935307 1469.98664258 261.12909157 1476.27523037 266.40198964 1482.44296809 C269.2664026 1485.7936366 272.06113544 1489.18927127 274.82191152 1492.62656184 C279.19255971 1498.00159597 283.86559539 1503.05479885 288.59144277 1508.11484309 C290.84671602 1510.5330936 293.03951417 1512.99510245 295.19691152 1515.50156184 C297.85013896 1518.57236745 300.65876423 1521.42473265 303.55530996 1524.26498957 C305.26432086 1526.0043393 306.8433471 1527.79453746 308.41956777 1529.65390559 C312.68921718 1534.56270379 317.26436556 1539.15715599 321.87244863 1543.74497004 C323.31965537 1545.18681405 324.76143178 1546.633933 326.20277089 1548.08163996 C330.83576853 1552.71796373 335.52727625 1557.22686139 340.50526113 1561.49252864 C343.83543011 1564.38830894 347.00062533 1567.45984562 350.19691152 1570.50156184 C355.59872637 1575.60752422 361.07313129 1580.46390032 366.88831777 1585.09531184 C369.41164483 1587.14872353 371.80373425 1589.29844241 374.19691152 1591.50156184 C379.75648136 1596.56050691 385.65067663 1601.13657387 391.59193105 1605.73251887 C393.31189429 1607.07016394 395.02013993 1608.42115106 396.72425527 1609.77890559 C419.00341981 1627.51003405 442.35511697 1643.86363967 466.38441152 1659.12656184 C467.60668447 1659.90483332 467.60668447 1659.90483332 468.8536498 1660.69882746 C494.56740005 1677.01179721 521.1732414 1691.49668682 548.38441152 1705.12656184 C549.42903554 1705.65088801 550.47365956 1706.17521418 551.54993886 1706.71542903 C578.02153466 1719.91304458 605.57902679 1731.08337547 633.38441152 1741.12656184 C634.04231679 1741.36483699 634.70022206 1741.60311213 635.37806386 1741.84860774 C710.32533712 1768.93879351 789.0781406 1784.82376132 1278.94691152 1712.00156184 C1283.77158144 1709.73516141 1288.58065908 1707.4369908 1293.38441152 1705.12656184 C1294.39858144 1704.63945735 1295.41275136 1704.15235285 1296.45765371 1703.65048762 C1309.88812072 1697.16235027 1322.88829296 1690.02802553 1335.81605214 1682.59433528 C1338.73132794 1680.92830504 1341.66676349 1679.30173866 1344.60682363 1677.68002864 C1378.26495621 1659.04345195 1409.98274226 1636.62411808 1440.38441152 1613.12656184 C1441.07228749 1612.59611262 1441.76016347 1612.0656634 1442.46888417 1611.51913996 C1449.90819177 1605.77223192 1457.16212482 1599.84534421 1464.30628652 1593.73593684 C1467.10107341 1591.35184092 1469.95492196 1589.04850669 1472.82191152 1586.75156184 C1478.50725477 1582.13014247 1483.82037177 1577.14702586 1489.15784902 1572.13437434 C1491.62325051 1569.82279339 1494.12981385 1567.5754702 1496.69691152 1565.37656184 C1500.38484142 1562.19975228 1503.76812071 1558.75801449 1507.18519277 1555.29453059 C1509.09065545 1553.41614376 1511.03113472 1551.66654241 1513.07191152 1549.93906184 C1521.55387369 1542.64934335 1529.52465219 1534.51504326 1536.74769277 1525.98203059 C1538.70341239 1523.764926 1540.77997042 1521.70280272 1542.88441152 1519.62656184 C1546.2770955 1516.27399405 1549.47541836 1512.83180502 1552.57972402 1509.21249934 C1554.60092428 1506.87630683 1556.67819991 1504.59691333 1558.75941152 1502.31406184 C1562.65804548 1497.99395393 1566.35945009 1493.54584803 1570.01722402 1489.02109309 C1572.06807487 1486.51336952 1574.15808715 1484.04616751 1576.27064199 1481.59042903 C1582.70128265 1474.09837578 1588.7077617 1466.31769219 1594.64564199 1458.43173762 C1596.41698948 1456.08337157 1598.1988804 1453.74329014 1599.98206777 1451.40390559 C1657.0648574 1376.25560305 1699.84692503 1291.81838657 1768.13441152 1007.06406184 C1768.19357747 1006.32110865 1768.25274343 1005.57815547 1768.31370229 1004.81268855 C1790.94063277 715.46652577 1770.38441152 424.35609152 1770.38441152 134.12656184 C1209.71441152 134.12656184 649.04441152 134.12656184 71.38441152 134.12656184 Z M1904.38441152 272.12656184 C1904.38441152 466.49656184 1904.38441152 660.86656184 1904.38441152 861.12656184 C1967.53872061 853.2322732 2031.86316236 811.39565979 2072.38441152 763.12656184 C2072.81673085 762.6239886 2073.24905019 762.12141535 2073.69447011 761.60361262 C2087.96090803 744.97623038 2100.25154007 726.55002575 2110.38441152 707.12656184 C2110.71843984 706.49411555 2111.05246816 705.86166926 2111.39661855 705.21005793 C2148.01561884 635.52034235 2155.11645496 553.52186783 2132.37318105 478.25107356 C2119.43448422 437.36479157 2098.53349923 398.97526207 2069.41956777 367.34531184 C2067.58896732 365.34957085 2065.82604669 363.31425573 2064.07191152 361.25156184 C2056.8294441 352.94798873 2048.85028008 345.17198266 2040.38441152 338.12656184 C2039.88618886 337.69859309 2039.38796621 337.27062434 2038.87464589 336.82968684 C2021.66890908 322.0649023 2002.57191602 309.43756373 1982.38441152 299.12656184 C1981.52589589 298.68505793 1980.66738027 298.24355403 1979.78284902 297.78867121 C1956.35516854 285.85790801 1930.62585606 275.40674241 1904.38441152 272.12656184 Z " fill="#FFFFFF" transform="translate(634.6155884824693,1401.8734381608665)"/>
<path d="M0 0 C1.05977554 -0.00101212 1.05977554 -0.00101212 2.14096069 -0.00204468 C49.88014228 0.06971734 97.38010376 11.68235741 140.375 32.25 C141.17969727 32.62850098 141.98439453 33.00700195 142.81347656 33.39697266 C164.09497865 43.44255585 183.81240046 55.80269376 202.375 70.25 C203.21708008 70.90524658 203.21708008 70.90524658 204.07617188 71.57373047 C210.24219265 76.41425315 216.05953738 81.6098958 221.82421875 86.91796875 C223.97575151 88.88499028 226.15791973 90.79553129 228.375 92.6875 C236.31048178 99.59642049 243.58267633 107.22531381 250.375 115.25 C251.17164063 116.1575 251.96828125 117.065 252.7890625 118 C305.39780862 178.32598498 333.98307461 258.03811057 333.6875 337.75 C333.68534485 338.80137146 333.6831897 339.85274292 333.68096924 340.93597412 C333.3741979 434.47995416 294.48660245 518.43529927 228.8293457 583.97851562 C222.92746974 589.82102973 216.96226554 595.19105745 210.375 600.25 C209.28721179 601.14592528 208.20280533 602.0459661 207.12109375 602.94921875 C187.72115067 619.04062371 165.98232971 632.43782949 143.27636719 643.33398438 C141.4716892 644.20341835 139.6769236 645.09333996 137.8828125 645.984375 C102.4510151 663.18734122 63.47168866 672.64118751 24.375 676.25 C23.67294434 676.31525879 22.97088867 676.38051758 22.24755859 676.44775391 C15.30972309 677.05470261 8.38143744 677.25657309 1.421875 677.38671875 C-23.01212747 677.89166767 -46.31210436 680.50998183 -69.625 688.25 C-70.34864746 688.48976563 -71.07229492 688.72953125 -71.81787109 688.9765625 C-82.20695301 692.49353606 -91.96191909 697.0832098 -101.625 702.25 C-102.23085937 702.57226562 -102.83671875 702.89453125 -103.4609375 703.2265625 C-130.63239611 717.8208394 -153.86502101 739.1268762 -171.625 764.25 C-172.03943359 764.83571777 -172.45386719 765.42143555 -172.88085938 766.02490234 C-195.80436449 798.94144298 -206.94799544 837.1126696 -208.65405273 876.88427734 C-209.19731679 889.18038904 -210.3819399 901.21229458 -216.125 912.3125 C-216.46684326 912.98023438 -216.80868652 913.64796875 -217.16088867 914.3359375 C-224.96960989 928.82770488 -238.27727496 939.54324027 -253.625 945.25 C-254.90503906 945.72953125 -254.90503906 945.72953125 -256.2109375 946.21875 C-273.36181564 951.52618507 -291.80838464 948.90027447 -307.8125 941.5625 C-323.94141694 932.99334173 -334.72416173 919.30625043 -340.69140625 902.19140625 C-357.39925685 843.99642903 -328.15528569 765.8590216 -300.16601562 714.97509766 C-288.3708328 694.11675946 -274.18981277 674.24750937 -257.875 656.68359375 C-255.98553949 654.63995851 -254.17158082 652.56195682 -252.375 650.4375 C-244.53762618 641.42731252 -235.84195978 632.84136585 -226.625 625.25 C-226.09777344 624.80897949 -225.57054687 624.36795898 -225.02734375 623.91357422 C-201.69077851 604.41393345 -176.839834 588.79430732 -149.625 575.25 C-148.82223633 574.8468457 -148.01947266 574.44369141 -147.19238281 574.02832031 C-105.06947067 553.13606833 -57.10196995 543.95989991 -10.40402222 542.86376953 C26.37107098 541.98845739 60.86839538 535.04587969 93.375 517.25 C94.07077148 516.87117676 94.76654297 516.49235352 95.48339844 516.10205078 C109.02006284 508.64986363 120.79053221 499.75791077 132.14453125 489.29296875 C134.20074126 487.40961002 136.30578226 485.60917369 138.4375 483.8125 C151.77797111 472.09631779 162.69045685 456.64748165 171.375 441.25 C171.99906738 440.15921143 171.99906738 440.15921143 172.63574219 439.04638672 C186.66540591 414.28488879 196.04111506 386.72737451 198.375 358.25 C198.47554687 357.02821045 198.47554687 357.02821045 198.578125 355.78173828 C202.69214743 301.41928322 185.91968934 247.88141419 150.625 206.25 C115.99243632 166.36602813 67.37291829 139.97048689 14.375 135.25 C10.64740713 135.05054792 6.91831501 134.93408693 3.1875 134.8125 C-19.75293479 133.89278247 -38.91959424 129.19099607 -55.3046875 112.015625 C-61.99775248 104.0380324 -66.6895893 95.21494686 -69.625 85.25 C-69.96144531 84.23486328 -69.96144531 84.23486328 -70.3046875 83.19921875 C-74.96392156 66.76424928 -71.28079659 47.72331549 -63.31640625 32.9921875 C-53.43312063 16.96893923 -38.87720703 6.00477662 -20.625 1.25 C-13.77061863 -0.07215878 -6.95680631 0.00596838 0 0 Z " fill="#FFFFFF" transform="translate(1733.625,308.75)"/>
<path d="M0 0 C1.24435822 -0.01845978 1.24435822 -0.01845978 2.51385498 -0.03729248 C23.77843261 -0.30158962 40.14933945 5.71349345 55.87109375 20.421875 C64.53240856 29.40397924 70.38208722 41.23050135 72.75 53.4375 C73.0903125 55.108125 73.0903125 55.108125 73.4375 56.8125 C75.17577452 76.97648446 70.83348959 94.44468713 58.375 110.4375 C46.82915937 123.57654863 31.58692896 132.08694945 14.08056641 133.7956543 C10.75801479 133.99418732 7.43906082 134.15889058 4.11340332 134.28869629 C-52.61976221 136.60547259 -103.49090806 158.56784653 -143.2421875 199.48828125 C-144.9762389 201.42560661 -146.61831797 203.41307175 -148.25 205.4375 C-149.05566406 206.40558594 -149.86132812 207.37367188 -150.69140625 208.37109375 C-184.93895882 250.12989132 -201.5756291 304.08791743 -196.47851562 357.83081055 C-191.04355792 408.47575828 -167.43619719 459.82062077 -127.25 492.4375 C-126.19767136 493.32523012 -125.14561339 494.21328115 -124.09375 495.1015625 C-86.56535544 526.38982445 -41.20744622 540.70492791 7.08032227 542.77319336 C26.8838198 543.65180369 42.97082469 550.34111171 56.92578125 564.671875 C68.661505 578.25341161 74.59249234 595.21149135 74.0234375 613.13671875 C72.46107816 631.99662797 64.89328358 647.96798349 51.125 661.0625 C35.89742869 673.64309114 19.72889712 677.16666023 0.5 676.875 C-0.3314856 676.86818207 -1.16297119 676.86136414 -2.01965332 676.8543396 C-16.57582666 676.73125661 -30.86888578 675.78885461 -45.25 673.4375 C-46.31041504 673.26589355 -47.37083008 673.09428711 -48.46337891 672.91748047 C-127.41051584 659.74589165 -205.96095491 617.61692583 -255.25 553.4375 C-256.14592528 552.34971179 -257.0459661 551.26530533 -257.94921875 550.18359375 C-315.70938684 480.56264746 -338.37595613 389.3924301 -330.25 300.4375 C-323.03561767 235.06617812 -296.48820425 174.36937898 -255.25 123.4375 C-254.83153809 122.91317383 -254.41307617 122.38884766 -253.98193359 121.84863281 C-246.9437874 113.07772413 -239.11011858 105.08940534 -231.1875 97.125 C-230.68070709 96.61294006 -230.17391418 96.10088013 -229.65176392 95.57330322 C-222.85536555 88.72237103 -215.82111501 82.44061924 -208.25 76.4375 C-207.04130638 75.4371649 -205.83515949 74.43373577 -204.6328125 73.42578125 C-147.74193612 26.39828526 -73.49524344 0.61380035 0 0 Z " fill="#FFFFFF" transform="translate(1473.25,-0.43750000000000006)"/>
<path d="M0 0 C1.50683601 -0.00503792 1.50683601 -0.00503792 3.04411316 -0.01017761 C6.34159608 -0.01962089 9.63902786 -0.02162741 12.93652344 -0.02270508 C15.24664327 -0.02592236 17.55676291 -0.02928678 19.86688232 -0.03279114 C24.70178703 -0.03876593 29.5366739 -0.04063275 34.37158203 -0.04003906 C40.53896894 -0.03993756 46.70624041 -0.05358502 52.87360001 -0.07081127 C57.643682 -0.08198012 62.41373653 -0.08395677 67.18383026 -0.08342934 C69.4561986 -0.08460228 71.72856782 -0.08898512 74.00092316 -0.0967617 C98.89133828 -0.17396794 120.26564291 2.27176777 138.88574219 20.42260742 C151.29424766 33.122649 157.82304672 49.94475963 158.04589844 67.64526367 C157.77652151 85.79919662 151.002432 102.59703653 138.30371094 115.64526367 C124.10011879 128.52104126 107.98945975 134.46512597 88.99023438 134.41992188 C87.86863419 134.42503281 86.747034 134.43014374 85.59144592 134.43540955 C81.90433328 134.44924522 78.21740887 134.448353 74.53027344 134.44604492 C71.95111014 134.44993568 69.37194748 134.45427114 66.79278564 134.45903015 C61.39292041 134.46647984 55.99312729 134.46635009 50.59326172 134.4609375 C44.38289293 134.45490738 38.17275125 134.46719197 31.96242118 134.48850757 C25.95297109 134.50836296 19.94363842 134.51128352 13.9341507 134.50777245 C11.39383664 134.50828329 8.85351878 134.51347612 6.31322479 134.52358437 C-17.46572612 134.606585 -36.45947021 132.44458469 -54.45410156 115.14526367 C-67.58615654 101.69702759 -74.02544287 84.3751772 -73.87402344 65.66015625 C-73.26847715 48.338039 -66.63536932 32.124975 -54.33691406 19.83276367 C-38.51011562 5.07824155 -21.12434878 -0.01030439 0 0 Z " fill="#FFFFFF" transform="translate(1624.4541015625,1678.854736328125)"/>
</svg>
