<?xml version="1.0" encoding="UTF-8"?>
<svg version="1.1" xmlns="http://www.w3.org/2000/svg" width="321" height="321">
<path d="M0 0 C2.0625 2.1875 2.0625 2.1875 3 5 C2.5 8.125 2.5 8.125 1 11 C-2.17281467 13.11204668 -5.5243894 14.82629518 -8.9296875 16.53125 C-9.87803467 17.00643066 -10.82638184 17.48161133 -11.8034668 17.97119141 C-12.81707275 18.47569824 -13.83067871 18.98020508 -14.875 19.5 C-15.93565674 20.02899902 -16.99631348 20.55799805 -18.08911133 21.10302734 C-25.26123648 24.66811569 -32.46048731 28.17264488 -39.6875 31.625 C-40.62303711 32.07246582 -41.55857422 32.51993164 -42.52246094 32.98095703 C-47.31165391 35.26463892 -52.1129271 37.51786719 -56.93359375 39.734375 C-57.88983643 40.1782959 -58.8460791 40.6222168 -59.83129883 41.07958984 C-61.63804257 41.91735811 -63.44885745 42.74642551 -65.2644043 43.56494141 C-72.37848636 46.87614629 -76.90624966 50.57499919 -80 58 C-80.35745039 59.66166125 -80.69495907 61.32792377 -81 63 C-80.43152344 63.3403125 -79.86304688 63.680625 -79.27734375 64.03125 C-70.24406298 69.70155646 -63.51244486 76.36651128 -61 87 C-60.35404447 97.86067645 -61.34842576 108.63186188 -62.51293945 119.42114258 C-62.67624037 120.99177078 -62.83883674 122.56247237 -63.00079346 124.13323975 C-63.4374343 128.34654796 -63.88443795 132.5586929 -64.33399987 136.77063966 C-64.71010103 140.30416796 -65.08082407 143.83825227 -65.45154923 147.37234801 C-66.32641558 155.71216144 -67.20957654 164.05106638 -68.09838867 172.3894043 C-69.01209449 180.96238176 -69.91312982 189.53662245 -70.80774719 198.11161119 C-71.57986853 205.50893513 -72.35911668 212.90548388 -73.14417428 220.30144614 C-73.61143882 224.70373047 -74.07625003 229.10623514 -74.53447914 233.50946999 C-74.96538093 237.64651013 -75.40526752 241.78250158 -75.85185242 245.9178772 C-76.01339029 247.42712729 -76.17189935 248.93670544 -76.32700157 250.44663048 C-77.75826104 264.34619623 -79.23589824 277.92594118 -90.6875 287.3125 C-99.45409356 293.15096943 -108.16998017 294.60262437 -118.53515625 294.49609375 C-120.27411415 294.4982766 -120.27411415 294.4982766 -122.04820251 294.50050354 C-124.48276297 294.49885392 -126.91733488 294.48739886 -129.35180664 294.46655273 C-133.05595634 294.43755123 -136.75867554 294.44597507 -140.46289062 294.45898438 C-142.84115271 294.45274695 -145.21941033 294.44435598 -147.59765625 294.43359375 C-148.69271988 294.43652939 -149.78778351 294.43946503 -150.91603088 294.44248962 C-162.6767735 294.29971911 -171.28688936 291.6217758 -179.72265625 283.30078125 C-185.75675297 276.70330449 -187.45864574 269.91432842 -188.44824219 261.2409668 C-188.56895458 260.25212588 -188.68966698 259.26328497 -188.81403732 258.24447918 C-189.22423002 254.83121951 -189.61433925 251.41611659 -190 248 C-190.21451561 246.11233099 -190.21451561 246.11233099 -190.43336487 244.18652725 C-191.60396948 233.84340809 -192.71887622 223.49437889 -193.828125 213.14453125 C-194.00488153 211.49821857 -194.18166762 209.85190907 -194.35848236 208.20560265 C-195.18728704 200.48524202 -196.01349435 192.76460895 -196.83644223 185.04362184 C-197.77962275 176.19551648 -198.73214843 167.3484799 -199.69234776 158.50220567 C-200.44002371 151.60818406 -201.17900698 144.71326394 -201.91157222 137.81762046 C-202.34696658 133.72124135 -202.78597375 129.62533069 -203.23429108 125.53034401 C-203.65463722 121.68896002 -204.06410214 117.84656429 -204.46556473 114.00316238 C-204.61363113 112.60322401 -204.76546453 111.20367747 -204.92157364 109.80461311 C-206.4289174 96.25702287 -206.79242452 84.68018512 -199 73 C-193.80842372 67.05912405 -186.81421978 62.50691426 -179 61 C-176.26938734 60.91052588 -173.56514031 60.87374475 -170.83496094 60.88647461 C-170.0150769 60.88632858 -169.19519287 60.88618256 -168.35046387 60.8860321 C-165.64507384 60.88672782 -162.93975298 60.89450428 -160.234375 60.90234375 C-158.35679156 60.90420914 -156.47920763 60.90563247 -154.60162354 60.90663147 C-149.66311293 60.91044711 -144.72463179 60.92026929 -139.78613281 60.93133545 C-134.74544676 60.94157004 -129.70475595 60.94613348 -124.6640625 60.95117188 C-114.77602873 60.96189239 -104.88801682 60.9789574 -95 61 C-94.94739014 60.39816895 -94.89478027 59.79633789 -94.84057617 59.17626953 C-94.76299072 58.37817871 -94.68540527 57.58008789 -94.60546875 56.7578125 C-94.53223389 55.97035645 -94.45899902 55.18290039 -94.38354492 54.37158203 C-93.27861866 47.53946637 -88.9657755 41.64028878 -84 37 C-76.61202854 31.89424637 -68.40051041 28.15297963 -60.3125 24.3125 C-59.0308795 23.69957157 -57.74946974 23.0862023 -56.46826172 22.47241211 C-53.88293816 21.23479733 -51.29632817 19.99993881 -48.70849609 18.76757812 C-44.30575368 16.67053225 -39.91016404 14.55865747 -35.5144043 12.44702148 C-32.70288545 11.09982052 -29.8870136 9.76210599 -27.0703125 8.42578125 C-23.85698622 6.89875744 -20.66627814 5.337361 -17.4921875 3.73046875 C-16.80946777 3.39200928 -16.12674805 3.0535498 -15.42333984 2.70483398 C-13.66187887 1.83036408 -11.90861418 0.93943433 -10.15625 0.046875 C-6.32234309 -1.22476739 -3.8920984 -0.97656287 0 0 Z M-187.05859375 81.04296875 C-193.98259658 91.81146041 -191.78810121 98.58924091 -190 112 C-162.28 112 -134.56 112 -106 112 C-101.1976918 93.63660387 -101.1976918 93.63660387 -99 75 C-109.03169132 74.90712567 -119.06327956 74.83614671 -129.09531403 74.79275131 C-133.75412738 74.77191863 -138.41264556 74.74368039 -143.07128906 74.69824219 C-147.57115054 74.6546297 -152.07072893 74.63083043 -156.57078552 74.62049103 C-158.28352817 74.61312721 -159.99625615 74.59874745 -161.70887756 74.57707977 C-175.52288427 74.14432397 -175.52288427 74.14432397 -187.05859375 81.04296875 Z M-85 78 C-86.00103953 82.35900989 -86.99783887 86.71896103 -87.99072266 91.07983398 C-88.32907642 92.563173 -88.66858682 94.04624868 -89.00927734 95.52905273 C-89.49881544 97.66061292 -89.98418429 99.79308595 -90.46875 101.92578125 C-90.76201172 103.20880127 -91.05527344 104.49182129 -91.35742188 105.8137207 C-92.09884515 108.94839426 -92.09884515 108.94839426 -92 112 C-86.72 112 -81.44 112 -76 112 C-73.59304759 96.60978604 -73.59304759 96.60978604 -78.61328125 82.5859375 C-80.02463048 80.97183106 -81.3929425 79.4217935 -83 78 C-83.66 78 -84.32 78 -85 78 Z M-188 126 C-187.20499306 140.79096147 -187.20499306 140.79096147 -185.89257812 155.51098633 C-185.73383461 157.02443886 -185.73383461 157.02443886 -185.57188416 158.56846619 C-185.22934353 161.82346379 -184.88048405 165.07774561 -184.53125 168.33203125 C-184.28812767 170.62599815 -184.04533597 172.9200001 -183.80285645 175.21403503 C-183.29794388 179.98193882 -182.79005593 184.74951245 -182.27978516 189.5168457 C-181.62612568 195.62480622 -180.97855431 201.73339332 -180.33298492 207.84221363 C-179.83384718 212.56153544 -179.33230108 217.28059871 -178.8299408 221.99957848 C-178.59015832 224.25337398 -178.35094648 226.50723027 -178.11231995 228.76114845 C-177.77969041 231.89806793 -177.4440031 235.03464497 -177.10742188 238.17114258 C-177.00973007 239.0973642 -176.91203827 240.02358582 -176.81138611 240.97787476 C-176.71890091 241.83380722 -176.62641571 242.68973969 -176.53112793 243.5716095 C-176.45223076 244.31055356 -176.37333359 245.04949762 -176.29204559 245.81083393 C-175.97008586 248.22423559 -175.47750013 250.61249937 -175 253 C-147.28 253 -119.56 253 -91 253 C-88.57396124 230.38273315 -88.57396124 230.38273315 -86.15309334 207.76491451 C-85.28829707 199.67685488 -84.42271213 191.58888217 -83.55419922 183.5012207 C-82.86663155 177.09851216 -82.18091865 170.69560815 -81.49742842 164.292463 C-81.13549208 160.90234557 -80.77263034 157.51233297 -80.407547 154.12255287 C-80.00037181 150.337574 -79.59647571 146.5522587 -79.19335938 142.7668457 C-79.07179977 141.64403198 -78.95024017 140.52121826 -78.82499695 139.36437988 C-78.71561295 138.33097977 -78.60622894 137.29757965 -78.49353027 136.23286438 C-78.34973057 134.8902729 -78.34973057 134.8902729 -78.20302582 133.52055836 C-78.00168249 131.02088804 -78 128.5077661 -78 126 C-114.3 126 -150.6 126 -188 126 Z M-173 267 C-169.89292078 273.07544475 -169.89292078 273.07544475 -165.4375 276.875 C-164.85871094 277.26429688 -164.27992188 277.65359375 -163.68359375 278.0546875 C-160.4530446 279.86859213 -157.72816764 280.13624661 -154.10473633 280.17700195 C-152.61222099 280.19625481 -152.61222099 280.19625481 -151.08955383 280.21589661 C-150.01457138 280.22328354 -148.93958893 280.23067047 -147.83203125 280.23828125 C-146.16886116 280.25038887 -146.16886116 280.25038887 -144.47209167 280.26274109 C-142.122605 280.27657951 -139.77309825 280.28730274 -137.42358398 280.29516602 C-133.84384625 280.31234953 -130.26503906 280.35623591 -126.68554688 280.40039062 C-124.40104845 280.41052035 -122.11654218 280.41903558 -119.83203125 280.42578125 C-118.76716995 280.44328934 -117.70230865 280.46079742 -116.60517883 280.47883606 C-109.07522859 280.45704143 -103.71378403 279.28420454 -97.90625 274.1484375 C-97.4421875 273.56320312 -96.978125 272.97796875 -96.5 272.375 C-96.0153125 271.78460938 -95.530625 271.19421875 -95.03125 270.5859375 C-93.81828883 269.03583999 -93.81828883 269.03583999 -94 267 C-120.07 267 -146.14 267 -173 267 Z " fill="#FFFFFF" transform="translate(288,14)"/>
<path d="M0 0 C4.90930306 4.45262371 8.66928056 8.28176854 9.2734375 15.07421875 C9.4896041 22.7647612 9.356728 28.2085637 4 34 C-0.94174804 39.03230363 -5.75825789 41.28254597 -12.8125 41.375 C-19.40370721 41.2375147 -23.96229057 39.92243921 -28.75 35.31640625 C-34.52814123 28.85766666 -35.46711657 24.18335402 -35.3046875 15.484375 C-34.80652204 9.78740585 -33.29342184 6.26297819 -29.234375 2.2578125 C-20.55673554 -4.88244989 -9.69859072 -6.17183046 0 0 Z M-20 13 C-21.66359081 16.32254111 -21.66359081 16.32254111 -22 20 C-20.67765243 22.97528203 -19.29087851 24.70912149 -17 27 C-12.9235111 27.46148931 -10.69472872 27.40777555 -7.125 25.3125 C-4.72722354 22.70315502 -4 21.53330522 -4 18 C-5.64150645 14.3714068 -7.53807069 11.99323203 -11 10 C-15.36107919 10 -16.68184793 10.29308647 -20 13 Z " fill="#FFFFFF" transform="translate(189,153)"/>
<path d="M0 0 C4.93895259 3.55121896 7.23448138 8.11721186 8.23828125 14.046875 C8.60670257 20.3317092 6.73692552 25.9891859 2.92578125 30.984375 C-1.86554286 35.66427297 -5.51124347 36.81864976 -12.13671875 37.109375 C-19.79999713 36.92587575 -23.89989029 34.54651474 -29.13671875 29.171875 C-32.43693979 23.96768029 -33.63201907 18.73495031 -32.76171875 12.609375 C-31.04412544 6.20644805 -28.14551189 2.48860455 -22.76171875 -1.296875 C-15.28727415 -5.38446189 -7.1669818 -3.96803347 0 0 Z M-18.76171875 14.609375 C-19.00848881 17.71230793 -19.00848881 17.71230793 -17.76171875 20.609375 C-15.69008246 22.85238135 -15.69008246 22.85238135 -12.76171875 23.609375 C-9.42838542 22.77604167 -9.42838542 22.77604167 -6.76171875 20.609375 C-5.42838542 18.27604167 -5.42838542 18.27604167 -5.76171875 15.609375 C-7.25774377 12.69767243 -7.25774377 12.69767243 -9.76171875 10.609375 C-14.12220069 9.62826656 -16.28594619 10.99093819 -18.76171875 14.609375 Z " fill="#FFFFFF" transform="translate(151.76171875,188.390625)"/>
<path d="M0 0 C3.99405627 4.64174107 5.24490608 8.97939215 5 15 C3.83821461 21.23342546 1.10345933 24.41672004 -4 28 C-8.59251812 30.29625906 -15.37030813 29.77261744 -20.20703125 28.3515625 C-23.88752711 26.47523127 -26.50201446 23.82062024 -28.33984375 20.12109375 C-30.08350369 14.51868342 -30.07537191 8.33843671 -27.375 3.0625 C-24.31445032 -0.88399827 -21.3623541 -3.19182623 -16.625 -4.8125 C-9.85621908 -5.29598435 -5.24822891 -4.41328341 0 0 Z M-13 9 C-13.99 9.495 -13.99 9.495 -15 10 C-14.67 11.65 -14.34 13.3 -14 15 C-12.68 15 -11.36 15 -10 15 C-9.67 13.68 -9.34 12.36 -9 11 C-10.88316159 9.89163577 -10.88316159 9.89163577 -13 9 Z " fill="#FFFFFF" transform="translate(186,224)"/>
</svg>
