<?xml version="1.0" encoding="UTF-8"?>
<svg version="1.1" xmlns="http://www.w3.org/2000/svg" width="3333" height="3333">
<path d="M0 0 C1.20076709 -0.00761181 1.20076709 -0.00761181 2.4257921 -0.0153774 C3.29950916 -0.01587516 4.17322623 -0.01637292 5.07341957 -0.01688576 C6.4725548 -0.02345914 6.4725548 -0.02345914 7.89995539 -0.03016531 C11.03335053 -0.04354635 14.16671753 -0.04973073 17.30013466 -0.0558567 C19.54399174 -0.06375844 21.78784756 -0.07202744 24.03170204 -0.08063698 C31.40974146 -0.10685667 38.78778653 -0.1221682 46.16585732 -0.13642311 C48.70762193 -0.1417835 51.24938651 -0.14716101 53.79115105 -0.15255547 C64.36839688 -0.17418733 74.94564138 -0.19307288 85.52290344 -0.20417786 C88.26668108 -0.20710729 91.01045868 -0.21006899 93.75423622 -0.21308327 C94.43614327 -0.21382932 95.11805031 -0.21457537 95.82062121 -0.21534403 C106.84934882 -0.22797814 117.8779145 -0.26117578 128.90656655 -0.3028851 C140.24531265 -0.34541321 151.58394615 -0.3684787 162.92278254 -0.37409842 C169.28260457 -0.37774497 175.64215229 -0.38969214 182.00189781 -0.42220116 C187.99214279 -0.45238138 193.98194891 -0.45855789 199.9722538 -0.4468174 C202.16269635 -0.44659747 204.35315986 -0.45483469 206.54353142 -0.47247124 C225.22519432 -0.61461977 239.0189137 2.01058087 253.20101357 15.23076439 C264.71352298 27.24381769 267.27657696 40.45588632 267.15023232 56.48076439 C267.14821815 57.69151634 267.14620399 58.9022683 267.1441288 60.1497097 C267.13371402 64.64551681 267.10579164 69.14126966 267.07991982 73.63701439 C267.03866982 83.70201439 266.99741982 93.76701439 266.95491982 104.13701439 C301.27491982 104.13701439 335.59491982 104.13701439 370.95491982 104.13701439 C370.83647656 84.18303301 370.83647656 84.18303301 370.68465614 64.22929955 C370.67588712 61.71156256 370.66824417 59.19382128 370.66195107 56.67607689 C370.64660316 55.38854515 370.63125526 54.10101341 370.61544228 52.77446556 C370.61330467 45.35981212 371.29323529 39.0762159 373.95491982 32.13701439 C374.29652138 31.22049095 374.63812294 30.30396751 374.99007607 29.35967064 C381.15129017 16.40472235 391.72587428 7.15186285 405.03064346 2.0732336 C413.27463035 -0.62028758 421.40808119 -0.42187331 429.96990395 -0.37764931 C431.78107601 -0.38298161 433.59224364 -0.39005121 435.40340292 -0.39869636 C440.35464906 -0.41726001 445.30559481 -0.41104037 450.2568531 -0.40054333 C455.60667941 -0.39353345 460.95644512 -0.40956285 466.30625343 -0.42254066 C476.77694642 -0.44415622 487.24753062 -0.44405997 497.71823858 -0.43591512 C506.23090586 -0.42960899 514.74354147 -0.43075779 523.25620842 -0.43718719 C525.0752818 -0.43853968 525.0752818 -0.43853968 526.93110413 -0.43991948 C529.39492849 -0.44177073 531.85875285 -0.44363329 534.32257719 -0.44550704 C557.41471217 -0.46207712 580.50678602 -0.45337316 603.59891732 -0.43652146 C624.71165873 -0.42182661 645.82425781 -0.43645136 666.93698089 -0.46529163 C688.63142199 -0.49470515 710.32579743 -0.5056521 732.02025759 -0.49610943 C734.47550494 -0.49508691 736.93075231 -0.49409229 739.38599968 -0.49312592 C741.19790156 -0.49241133 741.19790156 -0.49241133 743.04640751 -0.49168231 C751.5444544 -0.4895207 760.04243896 -0.49930888 768.54047203 -0.51389694 C778.90324326 -0.53143836 789.26583308 -0.53127685 799.62859724 -0.50854529 C804.9124214 -0.49741947 810.19592615 -0.49420314 815.47973633 -0.51284599 C820.32337522 -0.52971543 825.16641771 -0.52321239 830.01001842 -0.4986292 C831.75552054 -0.49376669 833.50107136 -0.49720448 835.24653248 -0.51011664 C852.31534891 -0.6272013 865.3729833 3.27280922 878.20101357 15.23076439 C889.71352298 27.24381769 892.27657696 40.45588632 892.15023232 56.48076439 C892.14821815 57.69151634 892.14620399 58.9022683 892.1441288 60.1497097 C892.13371402 64.64551681 892.10579164 69.14126966 892.07991982 73.63701439 C892.03866982 83.70201439 891.99741982 93.76701439 891.95491982 104.13701439 C926.27491982 104.13701439 960.59491982 104.13701439 995.95491982 104.13701439 C995.79717572 84.31806495 995.79717572 84.31806495 995.59456825 64.49956322 C995.58287064 61.98939766 995.57268137 59.47922444 995.56429482 56.96904564 C995.54383095 55.6968618 995.52336708 54.42467796 995.5022831 53.1139431 C995.49652527 38.1392869 999.9475685 25.45609854 1010.20491982 14.38701439 C1024.97775606 0.66703062 1040.11754965 -0.45822621 1059.24007607 -0.38056374 C1061.48836151 -0.38599089 1063.73664339 -0.39311687 1065.98491859 -0.40180397 C1072.06342172 -0.41996942 1078.14165191 -0.41299771 1084.22015953 -0.40028763 C1090.59667863 -0.39012483 1096.97317514 -0.3995624 1103.34969521 -0.40583229 C1114.74048237 -0.41356394 1126.13111904 -0.40117281 1137.52188075 -0.38079494 C1147.82872317 -0.36292637 1158.13538533 -0.36603124 1168.4422245 -0.38446999 C1180.44029366 -0.40592457 1192.43822688 -0.41381839 1204.43632221 -0.40202093 C1210.77688547 -0.39580108 1217.11732484 -0.39490887 1223.45788002 -0.40816689 C1229.42031712 -0.41976454 1235.3824155 -0.41162794 1241.34481621 -0.38858986 C1243.52640789 -0.38332369 1245.70802833 -0.38478045 1247.88960838 -0.39364052 C1265.86742736 -0.45989429 1279.90056851 2.0181606 1293.95491982 14.13701439 C1303.38900981 24.7180571 1309.08612651 36.64986887 1309.07517433 50.96436119 C1309.07602876 51.6383359 1309.07688318 52.31231061 1309.0777635 53.0067088 C1309.07940628 55.25760947 1309.07391667 57.50843507 1309.06844521 59.75932884 C1309.06816305 61.37580933 1309.06832163 62.99228995 1309.06888771 64.60877037 C1309.06917457 68.99264324 1309.06329577 73.37648873 1309.05631375 77.76035523 C1309.05006174 82.34344166 1309.04947495 86.92652872 1309.04828835 91.50961876 C1309.04518049 100.18637028 1309.03697443 108.86310921 1309.02693886 117.53985518 C1309.0157608 127.41886247 1309.010263 137.29787035 1309.00524342 147.17688239 C1308.99479138 167.49693342 1308.97720247 187.81697311 1308.95491982 208.13701439 C1309.79330234 208.13332722 1310.63168486 208.12964005 1311.49547291 208.12584114 C1331.93739156 208.0373313 1352.37927699 207.97122768 1372.82134724 207.9297657 C1382.70716885 207.90917975 1392.59286219 207.88113534 1402.47860146 207.83525658 C1411.09951248 207.79526698 1419.72033057 207.76955277 1428.34133178 207.76066041 C1432.9020389 207.75546611 1437.46248024 207.74334118 1442.02310181 207.71409416 C1446.32492642 207.68673303 1450.62637841 207.67861072 1454.92828178 207.68458366 C1456.49831042 207.6834926 1458.06835287 207.67566278 1459.63830566 207.66019249 C1475.25780939 207.51396351 1489.47049521 210.88723585 1501.45882607 221.55107689 C1511.10143949 231.77275065 1517.08590436 243.89233468 1517.07517433 258.00232506 C1517.07602876 258.68038332 1517.07688318 259.35844159 1517.0777635 260.05704707 C1517.07940638 262.3217671 1517.07391649 264.58641254 1517.06844521 266.85112572 C1517.06816305 268.4774583 1517.06832162 270.10379101 1517.06888771 271.73012352 C1517.06917458 276.14085496 1517.06329564 280.5515592 1517.05631375 284.96228433 C1517.05006189 289.57339798 1517.04947496 294.18451226 1517.04828835 298.7956295 C1517.04518044 307.52550494 1517.03697433 316.25536785 1517.02693886 324.98523778 C1517.01576094 334.92470341 1517.01026303 344.86416965 1517.00524342 354.80364001 C1516.99479128 375.24810513 1516.97720229 395.69255897 1516.95491982 416.13701439 C1517.78391666 416.13424901 1518.61291351 416.13148363 1519.46703148 416.12863445 C1539.67495073 416.06226803 1559.8828511 416.01268203 1580.09085655 415.98157787 C1589.86345531 415.96613482 1599.63598115 415.94509446 1609.4085331 415.91069603 C1617.93018465 415.88071504 1626.45178336 415.86142078 1634.97348619 415.8547489 C1639.48213194 415.85085134 1643.99062657 415.84174536 1648.49922371 415.81982422 C1652.75093569 415.79932137 1657.00243563 415.7932082 1661.25419235 415.79769135 C1662.80689398 415.79687227 1664.35960339 415.79098932 1665.91226196 415.77939796 C1682.96521032 415.65843363 1698.2883784 419.01920401 1710.95491982 431.13701439 C1722.0248929 443.96539476 1726.28648789 457.54804148 1726.21663284 474.28312016 C1726.22062891 475.24636683 1726.22462497 476.2096135 1726.22874212 477.20204946 C1726.23966449 480.41257646 1726.23652243 483.6229296 1726.23339272 486.8334713 C1726.23839851 489.16522948 1726.24427514 491.49698593 1726.25094545 493.82873994 C1726.26507298 499.55353198 1726.27002174 505.27828018 1726.27107155 511.00308834 C1726.27285646 517.86384665 1726.28622572 524.72457016 1726.29999392 531.58531315 C1726.32507881 544.24532011 1726.34096684 556.90532288 1726.35157585 569.56534958 C1726.36210716 582.09662016 1726.37674913 594.62787489 1726.39685631 607.15913391 C1726.39810518 607.93889101 1726.39935404 608.71864811 1726.40064075 609.52203422 C1726.40700469 613.48218105 1726.41344183 617.44232777 1726.41990714 621.40247444 C1726.46554473 649.43710775 1726.50200312 677.4717462 1726.53304482 705.50639915 C1726.56321857 732.73817766 1726.59756166 759.9699457 1726.637537 787.20171165 C1726.63876801 788.04141835 1726.63999901 788.88112504 1726.64126732 789.74627738 C1726.65363439 798.17911584 1726.66608609 806.61195416 1726.6785998 815.0447924 C1726.70408872 832.22277458 1726.72901285 849.40075757 1726.75359535 866.57874107 C1726.75472626 867.36852115 1726.75585717 868.15830122 1726.75702235 868.97201403 C1726.83245129 921.6936687 1726.89467414 974.41534045 1726.95491982 1027.13701439 C1732.85476432 1024.59805891 1738.75354894 1022.0566523 1744.6516819 1019.51372337 C1746.64842058 1018.65316368 1748.64538084 1017.7931179 1750.64258766 1016.93364525 C1766.37906776 1010.16102682 1782.0378579 1003.23170538 1797.62834263 996.1296196 C1807.41957209 991.71491527 1816.56298058 988.56408136 1827.39241982 988.76201439 C1828.62218544 988.77724144 1828.62218544 988.77724144 1829.87679482 988.79277611 C1844.79341774 989.17156437 1856.81651008 994.37549754 1867.66585732 1004.65654564 C1878.15714342 1016.02508945 1882.23543698 1029.46699035 1882.10142899 1044.66898537 C1881.86969451 1050.15438864 1881.03880475 1055.48089956 1880.12362099 1060.88847923 C1879.92542983 1062.11062346 1879.72723867 1063.3327677 1879.52304173 1064.5919466 C1878.97402951 1067.96458717 1878.41584834 1071.33547031 1877.85371637 1074.70593286 C1877.24155641 1078.39102511 1876.64170911 1082.07812443 1876.04033852 1085.76498985 C1874.98295736 1092.23751122 1873.91815122 1098.70877599 1872.84850502 1105.17928123 C1871.25189797 1114.83841686 1869.66765468 1124.4995516 1868.08654058 1134.16123402 C1867.32831803 1138.79443278 1866.56967051 1143.42756192 1865.81092262 1148.06067467 C1865.58088141 1149.46537987 1865.58088141 1149.46537987 1865.3461929 1150.89846295 C1864.2301876 1157.71160508 1863.11200396 1164.52438776 1861.99283791 1171.33701134 C1857.19208518 1200.56185227 1852.42044397 1229.79134732 1847.66585732 1259.02373314 C1847.31206344 1261.19878465 1846.9582687 1263.37383602 1846.60447311 1265.54888725 C1845.17030203 1274.36610472 1843.73628908 1283.1833479 1842.30252361 1292.00063133 C1838.59019938 1314.830016 1834.87311219 1337.65862458 1831.15569687 1360.48718071 C1829.45130006 1370.95387946 1827.74711576 1381.42061282 1826.04292619 1391.88734531 C1825.47511824 1395.37468522 1824.90730515 1398.86202429 1824.33949184 1402.34936333 C1820.28242519 1427.26678174 1816.22604474 1452.18431185 1812.16976357 1477.10185814 C1811.80621783 1479.33509827 1811.4426721 1481.56833839 1811.07912636 1483.80157852 C1809.26376721 1494.9532345 1807.44842086 1506.10489256 1805.63308144 1517.25655174 C1802.17402114 1538.50561326 1798.71490913 1559.75466635 1795.25577736 1581.00371623 C1794.70894741 1584.36283147 1794.1621185 1587.72194689 1793.61528969 1591.08106232 C1788.68295343 1621.37989005 1783.75031701 1651.67866891 1778.8174578 1681.97741151 C1775.34236046 1703.32226535 1771.86735722 1724.66713451 1768.39241982 1746.01201439 C1768.21151676 1747.12321396 1768.03061371 1748.23441353 1767.84422874 1749.37928581 C1756.54293756 1818.79773921 1745.24695639 1888.21705501 1733.95491982 1957.63701439 C1722.4803028 2028.179422 1711.00145913 2098.72114006 1699.51741982 2169.26201439 C1699.33652683 2170.37315353 1699.15563385 2171.48429268 1698.96925926 2172.62910271 C1695.49394841 2193.97625581 1692.01855517 2215.3233955 1688.5430851 2236.67052269 C1683.42877634 2268.08378604 1678.31477382 2299.49709924 1673.20101357 2330.91045189 C1673.02060249 2332.01869961 1672.84019141 2333.12694734 1672.65431333 2334.26877832 C1671.01439319 2344.34264977 1669.37447651 2354.41652178 1667.73456478 2364.49039459 C1665.1831157 2380.16378248 1662.63164729 2395.83716723 1660.08016396 2411.51054955 C1659.89968793 2412.61918696 1659.7192119 2413.72782438 1659.5332669 2414.87005687 C1658.62175579 2420.46933353 1657.71024435 2426.06861015 1656.79873276 2431.66788673 C1655.15808359 2441.74614518 1653.51743735 2451.82440411 1651.87679088 2461.90266299 C1650.96533398 2467.50161348 1650.05387689 2473.10056393 1649.14241982 2478.69951439 C1648.77783648 2480.93909772 1648.41325315 2483.17868106 1648.04866982 2485.41826439 C1635.65283648 2561.56409772 1623.25700315 2637.70993106 1610.86116982 2713.85576439 C1610.59046699 2715.51865321 1610.59046699 2715.51865321 1610.31429541 2717.21513575 C1609.9497101 2719.45473121 1609.58512478 2721.69432666 1609.22053945 2723.93392211 C1608.30911126 2729.53269497 1607.39768326 2735.13146787 1606.48625565 2740.73024082 C1604.84527089 2750.8105806 1603.20428481 2760.89092017 1601.56329167 2770.97125858 C1600.65135298 2776.57314122 1599.7394154 2782.17502405 1598.82747841 2787.77690697 C1598.64693373 2788.88596386 1598.46638906 2789.99502074 1598.28037333 2791.13768542 C1595.735482 2806.77055726 1593.19065264 2822.40343919 1590.64586234 2838.03632748 C1589.01191634 2848.07379831 1587.37795202 2858.11126616 1585.74398232 2868.14873314 C1585.56414063 2869.25350179 1585.38429894 2870.35827045 1585.19900751 2871.49651694 C1580.5593015 2899.99821784 1575.91906898 2928.49983294 1571.27786732 2957.00129032 C1569.37805739 2968.66797177 1567.47834111 2980.33466844 1565.57889748 2992.00140953 C1564.82411697 2996.63735101 1564.0693294 3001.27329133 1563.31453896 3005.90923119 C1563.12828882 3007.05319693 1562.94203868 3008.19716268 1562.7501446 3009.37579405 C1560.52702378 3023.03017166 1558.30297935 3036.68439822 1556.0774911 3050.33839017 C1554.10495933 3062.44042416 1552.13310525 3074.54256844 1550.16195107 3086.64482689 C1549.98779915 3087.71401635 1549.81364723 3088.78320581 1549.63421798 3089.88479495 C1544.96517596 3118.55203519 1540.32226282 3147.22334008 1535.71448946 3175.90049273 C1534.66351002 3182.44102458 1533.61095764 3188.98130153 1532.55727577 3195.52139854 C1532.41270927 3196.41878563 1532.26814277 3197.31617272 1532.11919546 3198.24075335 C1531.5461309 3201.79790652 1530.97304086 3205.35505557 1530.39975548 3208.91217315 C1528.77510608 3218.99338021 1527.15648506 3229.07550535 1525.54917616 3239.15949225 C1524.57412878 3245.27393343 1523.59213271 3251.38723167 1522.6045447 3257.49965978 C1522.04541588 3260.96197466 1521.48956583 3264.42472847 1520.94293213 3267.88903999 C1520.35402635 3271.61086502 1519.75278098 3275.33049746 1519.14852333 3279.04985619 C1518.90178525 3280.63934059 1518.90178525 3280.63934059 1518.65006256 3282.26093578 C1515.94767077 3298.63761167 1509.77813293 3313.57991152 1496.45491982 3324.11357689 C1486.0061995 3331.25151082 1475.04502437 3333.74935846 1462.53820467 3333.63841105 C1460.75845615 3333.64682495 1460.75845615 3333.64682495 1458.94275312 3333.65540883 C1455.66988819 3333.66687256 1452.39763084 3333.66061324 1449.12479426 3333.64664903 C1445.54326664 3333.63585104 1441.96180452 3333.6484702 1438.38028377 3333.65799642 C1432.08596827 3333.67153971 1425.7917914 3333.67026461 1419.49747294 3333.65926224 C1410.07466784 3333.6428658 1400.65197482 3333.64960455 1391.22916713 3333.66079281 C1375.16872468 3333.67918455 1359.1083329 3333.67859681 1343.04788589 3333.6676693 C1326.7729464 3333.65666329 1310.49804026 3333.6543437 1294.22309875 3333.66261864 C1292.68104333 3333.66339367 1292.68104333 3333.66339367 1291.10783527 3333.66418437 C1286.92078431 3333.66631745 1282.73373339 3333.66851229 1278.54668251 3333.67078547 C1239.54853384 3333.69194297 1200.55040754 3333.69337755 1161.55225563 3333.68219566 C1160.39666995 3333.68186448 1159.24108427 3333.6815333 1158.05048084 3333.68119208 C1156.89304829 3333.68086036 1155.73561573 3333.68052865 1154.54310946 3333.68018688 C1119.29429391 3333.67009786 1084.0454876 3333.66748685 1048.79667091 3333.67227745 C1046.43708831 3333.67258737 1044.0775057 3333.67289599 1041.71792309 3333.67320333 C1032.2359562 3333.67444518 1022.75398931 3333.67571984 1013.27202242 3333.67704239 C986.76530286 3333.68071058 960.25858327 3333.68299286 933.75186348 3333.68418694 C931.94121984 3333.68426881 931.94121984 3333.68426881 930.09399755 3333.68435234 C891.62543383 3333.68598967 853.15687333 3333.68148075 814.68831062 3333.67278862 C813.44045004 3333.67250762 812.19258946 3333.67222663 810.90691491 3333.67193712 C790.6419254 3333.66735722 770.37693595 3333.66247942 750.11194651 3333.65757642 C669.73651593 3333.63815078 589.361112 3333.63905241 508.98568153 3333.65849876 C488.73096405 3333.66338345 468.47624656 3333.66822762 448.22152901 3333.67278862 C446.35084385 3333.67321131 446.35084385 3333.67321131 444.44236707 3333.67364254 C406.01423634 3333.68226608 367.58610782 3333.6859246 329.15797615 3333.68418694 C327.95176459 3333.6841326 326.74555303 3333.68407826 325.5027896 3333.68402228 C299.02561621 3333.68277241 272.54844305 3333.68023796 246.07126989 3333.67654492 C236.59773335 3333.67522833 227.1241968 3333.67397601 217.65066024 3333.67274208 C215.29384857 3333.67243253 212.9370369 3333.6721176 210.58022524 3333.67179729 C175.33993252 3333.66702108 140.09965021 3333.67109227 104.85935879 3333.68119208 C103.12598027 3333.68168885 103.12598027 3333.68168885 101.357584 3333.68219566 C100.20412609 3333.68252639 99.05066818 3333.68285712 97.862257 3333.68319787 C58.9776039 3333.69422529 20.09297763 3333.69018346 -18.79167163 3333.66907269 C-22.9655341 3333.66686323 -27.1393966 3333.66471642 -31.31325912 3333.66261864 C-32.33760953 3333.66209781 -33.36195993 3333.66157698 -34.41735126 3333.66104037 C-50.64983822 3333.65314486 -66.88229187 3333.65865009 -83.11477583 3333.66969466 C-99.06855915 3333.68026506 -115.02228615 3333.67658117 -130.97606231 3333.65763831 C-140.33376728 3333.64695167 -149.69131797 3333.64720759 -159.04901563 3333.6635647 C-165.2621589 3333.67333297 -171.47518193 3333.66862311 -177.68831064 3333.65209728 C-181.2114336 3333.64313157 -184.73424915 3333.6403313 -188.25735844 3333.65536335 C-192.04798431 3333.66816845 -195.83777757 3333.65633135 -199.62836504 3333.63841105 C-200.70637416 3333.64797401 -201.78438329 3333.65753698 -202.89505935 3333.66738974 C-216.46166376 3333.5368692 -228.36800809 3329.01439147 -238.48258018 3319.95342064 C-252.69051761 3305.33748501 -254.95388318 3286.54950353 -258.04312706 3267.33672142 C-258.33203495 3265.56046428 -258.62132575 3263.78426938 -258.91096306 3262.00813103 C-259.70040336 3257.16027107 -260.48450548 3252.31156098 -261.26771355 3247.46269083 C-262.11365837 3242.23157498 -262.9646753 3237.00128412 -263.81509972 3231.770895 C-265.2879724 3222.7080749 -266.75777216 3213.64476084 -268.22550011 3204.58110619 C-270.37586456 3191.30227487 -272.53124889 3178.02426206 -274.68801403 3164.74646902 C-275.6970205 3158.53465166 -276.70585088 3152.32280571 -277.71463585 3146.11095238 C-278.01700511 3144.24903956 -278.01700511 3144.24903956 -278.32548285 3142.34951234 C-279.77162261 3133.44390114 -281.21686383 3124.53814439 -282.66165733 3115.63231468 C-288.07149345 3082.28595482 -293.49044099 3048.94109304 -298.92008018 3015.59795189 C-299.09870346 3014.5010077 -299.27732674 3013.4040635 -299.46136284 3012.27387857 C-301.07915378 3002.33891016 -302.69707631 2992.40396319 -304.31519127 2982.46904755 C-306.84824098 2966.91658774 -309.3805311 2951.36400441 -311.91226768 2935.8113308 C-312.09296932 2934.70126694 -312.27367096 2933.59120309 -312.4598484 2932.44750094 C-313.37301453 2926.83782856 -314.28616809 2921.22815412 -315.19931602 2915.61847878 C-316.8405832 2905.53583918 -318.48196151 2895.45321767 -320.12333107 2885.37059474 C-321.03475196 2879.77190202 -321.94616571 2874.17320815 -322.85758018 2868.57451439 C-323.22216348 2866.33493105 -323.58674682 2864.09534772 -323.95133018 2861.85576439 C-341.99820518 2750.99638939 -360.04508018 2640.13701439 -396.68570513 2415.05888975 C-397.05028865 2412.81930522 -397.41487219 2410.5797207 -397.77945572 2408.34013617 C-398.6909111 2402.74119609 -399.60236642 2397.142256 -400.5138216 2391.54331589 C-402.15448182 2381.46497292 -403.79514248 2371.38663002 -405.4358055 2361.3082875 C-406.34731209 2355.70904157 -407.2588183 2350.10979557 -408.17032433 2344.51054955 C-408.44103884 2342.84759059 -408.44103884 2342.84759059 -408.71722233 2341.1510365 C-411.26859915 2325.47830392 -413.81995522 2309.80556796 -416.37129843 2294.1328299 C-418.01125229 2284.05870314 -419.65121221 2273.98457737 -421.29117393 2263.91045189 C-421.47157998 2262.80223438 -421.65198602 2261.69401687 -421.83785892 2260.55221701 C-426.95247256 2229.13363804 -432.0673799 2197.71510691 -437.1825422 2166.29661727 C-440.65763954 2144.95176343 -444.13264278 2123.60689427 -447.60758018 2102.26201439 C-447.78848324 2101.15081482 -447.96938629 2100.03961525 -448.15577126 2098.89474297 C-459.63353148 2028.39232424 -471.10569266 1957.88899613 -482.57405376 1887.38504791 C-493.87235292 1817.92663023 -505.17501019 1748.46892343 -516.48258018 1679.01201439 C-516.66347317 1677.90087524 -516.84436615 1676.7897361 -517.03074074 1675.64492607 C-520.50605159 1654.29777297 -523.98144483 1632.95063327 -527.4569149 1611.60350609 C-532.38889211 1581.31016514 -537.32059247 1551.01677914 -542.25204873 1520.72335339 C-542.9817207 1516.24106096 -543.7113973 1511.75876928 -544.44107372 1507.27647758 C-547.89213866 1486.07709519 -551.34314456 1464.8777032 -554.79394627 1443.67827797 C-556.60158218 1432.57337212 -558.40926034 1421.46847315 -560.21695518 1410.36357689 C-560.48578337 1408.71212402 -560.48578337 1408.71212402 -560.76004243 1407.02730846 C-566.07635162 1374.36849316 -571.39455944 1341.70998748 -576.71407127 1309.05169368 C-578.09869768 1300.55091765 -579.48318891 1292.05011961 -580.86758995 1283.54930687 C-581.06203194 1282.35535057 -581.25647392 1281.16139428 -581.45680809 1279.93125749 C-582.43102203 1273.94913705 -583.40521771 1267.96701363 -584.37940025 1261.98488808 C-586.23899661 1250.5658866 -588.09885224 1239.14692749 -589.95938683 1227.72807884 C-590.48663717 1224.49199065 -591.01387909 1221.25590109 -591.5411129 1218.0198102 C-591.8883409 1215.88858502 -592.23558005 1213.75736165 -592.58283043 1211.62614012 C-594.43496127 1200.2583342 -596.28538946 1188.89025603 -598.13077354 1177.52135277 C-598.62099693 1174.50157349 -599.11122313 1171.48179468 -599.60145378 1168.46201658 C-599.92653291 1166.45945253 -600.25157071 1164.45688177 -600.5765667 1162.45430422 C-602.62149025 1149.85610958 -604.67936008 1137.26012294 -606.75231242 1124.66650903 C-608.1843875 1115.9653046 -609.60975357 1107.26301835 -611.03045964 1098.55995047 C-611.87008537 1093.41897538 -612.71333561 1088.27865683 -613.56576347 1083.13978767 C-614.35384044 1078.38883119 -615.1322812 1073.63639462 -615.90351963 1068.8826766 C-616.18587258 1067.15322307 -616.47173586 1065.42433805 -616.76153088 1063.69611597 C-619.93186848 1044.76512874 -620.54144112 1028.11034203 -610.04508018 1011.13701439 C-601.31035659 999.23531499 -588.68832064 991.43105059 -574.04508018 989.13701439 C-555.91724772 987.95180776 -542.06185092 992.33467388 -525.86263084 1000.13754845 C-513.25264672 1006.17526754 -500.4018301 1011.6315973 -487.54117393 1017.10967064 C-485.25358302 1018.08665488 -482.9661066 1019.06390723 -480.67874718 1020.04143333 C-475.13550554 1022.40971483 -469.59086763 1024.77470101 -464.04508018 1027.13701439 C-464.04361497 1025.35805214 -464.04361497 1025.35805214 -464.04212016 1023.54315126 C-463.99886529 971.26401516 -463.95190532 918.98488358 -463.88609886 866.70577049 C-463.8851033 865.91402106 -463.88410773 865.12227162 -463.88308199 864.30652977 C-463.86142237 847.09878924 -463.8390996 829.89104962 -463.8160939 812.68331083 C-463.8048156 804.24437624 -463.7936838 795.80544146 -463.78262901 787.36650658 C-463.78152645 786.52674077 -463.78042388 785.68697496 -463.77928791 784.8217617 C-463.74363311 757.61310448 -463.71764862 730.4044485 -463.6966905 703.19577633 C-463.67509827 675.23029984 -463.64372699 647.26485091 -463.60008905 619.29939973 C-463.59392701 615.34752185 -463.5878765 611.3956438 -463.58189392 607.44376564 C-463.58071304 606.66599584 -463.57953216 605.88822604 -463.57831549 605.08688746 C-463.55960971 592.57781743 -463.55118201 580.06876067 -463.54661894 567.55967836 C-463.54180901 554.97724011 -463.52612081 542.39485237 -463.49941453 529.81244121 C-463.48524956 522.99768608 -463.47622706 516.18301966 -463.48007202 509.36824799 C-463.4834875 503.12535029 -463.47308677 496.88263143 -463.45184467 490.63977034 C-463.44658558 488.38516815 -463.44633258 486.13054735 -463.45168456 483.87594537 C-463.49251246 464.72054406 -461.78264962 450.11854612 -450.85758018 433.88701439 C-439.2944856 422.58087746 -426.43922269 416.00419918 -410.13544273 416.01675987 C-409.46469715 416.01590545 -408.79395157 416.01505102 -408.10288036 416.01417071 C-405.86890495 416.01253152 -403.63500564 416.01801156 -401.40103722 416.023489 C-399.79426131 416.02377123 -398.18748528 416.02361243 -396.58070946 416.02304649 C-392.22788645 416.02275994 -387.87509108 416.02863381 -383.52227449 416.03562045 C-378.96989044 416.04187753 -374.41750572 416.04245965 -369.86511803 416.04364586 C-361.2486069 416.04675223 -352.63210848 416.05495627 -344.01560295 416.06499535 C-334.20428583 416.07617803 -324.39296811 416.08167237 -314.5816462 416.08669078 C-294.40278378 416.09713945 -274.22393278 416.11472546 -254.04508018 416.13701439 C-254.04876736 415.29863187 -254.05245453 414.46024935 -254.05625343 413.5964613 C-254.14476328 393.15454264 -254.2108669 372.71265722 -254.25232887 352.27058697 C-254.27291483 342.38476536 -254.30095923 332.49907201 -254.346838 322.61333275 C-254.38682759 313.99242172 -254.4125418 305.37160363 -254.42143416 296.75060242 C-254.42662846 292.1898953 -254.43875339 287.62945396 -254.46800041 283.0688324 C-254.49536154 278.76700778 -254.50348385 274.46555579 -254.49751091 270.16365242 C-254.49860197 268.59362379 -254.50643179 267.02358133 -254.52190208 265.45362854 C-254.67669589 248.9192694 -250.70609414 234.35331473 -239.04508018 222.13701439 C-225.88875746 210.4288115 -211.96205779 207.82736178 -194.99039268 207.90996361 C-193.36361765 207.91052836 -191.73684211 207.9102099 -190.11006737 207.9090786 C-185.71187594 207.9085066 -181.31379441 207.92023606 -176.91562843 207.93422651 C-172.3125445 207.94675945 -167.70945784 207.94790639 -163.10635948 207.95027733 C-154.39781535 207.95648457 -145.68932164 207.97288515 -136.98079967 207.99297631 C-127.06303485 208.01535884 -117.14526756 208.02633466 -107.22748375 208.03636718 C-86.83332112 208.05725206 -66.43920383 208.09241332 -46.04508018 208.13701439 C-46.05061094 206.8885539 -46.05061094 206.8885539 -46.05625343 205.61487198 C-46.14479051 185.31447127 -46.21088005 165.01410407 -46.25232887 144.71355057 C-46.27290866 134.89613831 -46.30094111 125.07885535 -46.346838 115.26152611 C-46.38684665 106.69956913 -46.41254627 98.13770584 -46.42143416 89.57565796 C-46.42662527 85.04677608 -46.43872947 80.51816211 -46.46800041 75.98936653 C-46.49539185 71.71626532 -46.5034779 67.44353934 -46.49751091 63.17035866 C-46.49860064 61.61203781 -46.50641212 60.05370284 -46.52190208 58.4954586 C-46.68571228 41.14823416 -42.5184928 27.51552723 -31.04508018 14.13701439 C-22.61420239 6.81546262 -11.50923 0.03889904 0 0 Z M58.95491982 105.13701439 C58.95491982 463.51701439 58.95491982 821.89701439 58.95491982 1191.13701439 C96.21876209 1198.5859781 96.21876209 1198.5859781 133.60824013 1205.30937767 C136.5065772 1205.7913939 139.4025935 1206.28613935 142.29866982 1206.78154564 C144.19178323 1207.10124222 146.0850071 1207.42028571 147.97835732 1207.73857689 C148.82062874 1207.88219658 149.66290016 1208.02581627 150.53069496 1208.17378807 C151.69467308 1208.36562172 151.69467308 1208.36562172 152.88216591 1208.5613308 C153.55218636 1208.67328789 154.2222068 1208.78524498 154.9125309 1208.90059471 C157.24573636 1209.17067828 159.60613441 1209.13701439 161.95491982 1209.13701439 C161.95491982 844.81701439 161.95491982 480.49701439 161.95491982 105.13701439 C127.96491982 105.13701439 93.97491982 105.13701439 58.95491982 105.13701439 Z M475.95491982 105.13701439 C475.95491982 481.00701439 475.95491982 856.87701439 475.95491982 1244.13701439 C478.92618283 1245.12743539 481.16471079 1245.35419566 484.27620888 1245.51006126 C485.37136818 1245.5668203 486.46652748 1245.62357933 487.59487343 1245.68205833 C488.79134499 1245.73938133 489.98781654 1245.79670433 491.22054482 1245.85576439 C492.47776344 1245.9185659 493.73498207 1245.98136742 495.03029823 1246.04607201 C497.7204252 1246.17924374 500.41057304 1246.31065856 503.10091591 1246.43926048 C507.06436575 1246.62901195 511.02719371 1246.83028016 514.99007607 1247.03154564 C536.32005959 1248.07331592 557.59041648 1248.58920661 578.95491982 1249.13701439 C578.95491982 871.61701439 578.95491982 494.09701439 578.95491982 105.13701439 C544.96491982 105.13701439 510.97491982 105.13701439 475.95491982 105.13701439 Z M683.95491982 105.13701439 C683.95491982 482.65701439 683.95491982 860.17701439 683.95491982 1249.13701439 C735.33429986 1248.84570413 735.33429986 1248.84570413 786.95491982 1244.13701439 C786.95491982 868.26701439 786.95491982 492.39701439 786.95491982 105.13701439 C752.96491982 105.13701439 718.97491982 105.13701439 683.95491982 105.13701439 Z M1100.95491982 105.13701439 C1100.95491982 469.45701439 1100.95491982 833.77701439 1100.95491982 1209.13701439 C1109.4378769 1208.41809432 1109.4378769 1208.41809432 1117.77303505 1207.21660423 C1118.77716942 1207.03906609 1119.78130379 1206.86152794 1120.81586647 1206.67860985 C1121.87109001 1206.48699272 1122.92631355 1206.2953756 1124.01351357 1206.09795189 C1125.15554741 1205.8940081 1126.29758125 1205.69006432 1127.47422218 1205.47994041 C1129.89421416 1205.046738 1132.31379999 1204.61126115 1134.73299599 1204.17363548 C1138.29494384 1203.52963797 1141.85817249 1202.89320506 1145.42171669 1202.25810814 C1164.97609276 1198.74547384 1184.44752135 1194.93011965 1203.95491982 1191.13701439 C1203.95491982 832.75701439 1203.95491982 474.37701439 1203.95491982 105.13701439 C1169.96491982 105.13701439 1135.97491982 105.13701439 1100.95491982 105.13701439 Z M266.95491982 209.13701439 C266.95491982 544.41701439 266.95491982 879.69701439 266.95491982 1225.13701439 C317.85623003 1232.46622198 317.85623003 1232.46622198 370.95491982 1236.13701439 C370.95491982 897.22701439 370.95491982 558.31701439 370.95491982 209.13701439 C336.63491982 209.13701439 302.31491982 209.13701439 266.95491982 209.13701439 Z M891.95491982 209.13701439 C891.95491982 548.04701439 891.95491982 886.95701439 891.95491982 1236.13701439 C902.56906023 1235.51265319 913.01350763 1234.81530891 923.55257607 1233.61357689 C924.88322134 1233.46490972 926.21390586 1233.31659349 927.54462624 1233.16860008 C930.30857336 1232.8603131 933.07217944 1232.54919124 935.83553505 1232.2356472 C939.29725198 1231.84289917 942.75951773 1231.45529158 946.2220335 1231.06965637 C948.9656319 1230.76383576 951.70902382 1230.45619437 954.45235443 1230.14798164 C956.32369253 1229.93774761 958.19509799 1229.72811348 960.06650734 1229.51851463 C972.0439285 1228.1594137 983.9908353 1226.63252495 995.95491982 1225.13701439 C995.95491982 889.85701439 995.95491982 554.57701439 995.95491982 209.13701439 C961.63491982 209.13701439 927.31491982 209.13701439 891.95491982 209.13701439 Z M-149.04508018 313.13701439 C-149.04508018 585.71701439 -149.04508018 858.29701439 -149.04508018 1139.13701439 C-114.79460247 1148.76996125 -80.50949379 1158.29998526 -46.04508018 1167.13701439 C-46.04508018 885.31701439 -46.04508018 603.49701439 -46.04508018 313.13701439 C-80.03508018 313.13701439 -114.02508018 313.13701439 -149.04508018 313.13701439 Z M1308.95491982 313.13701439 C1308.95491982 594.95701439 1308.95491982 876.77701439 1308.95491982 1167.13701439 C1343.39560315 1158.20794834 1377.74453974 1148.9114087 1411.95491982 1139.13701439 C1411.95491982 866.55701439 1411.95491982 593.97701439 1411.95491982 313.13701439 C1377.96491982 313.13701439 1343.97491982 313.13701439 1308.95491982 313.13701439 Z M-357.04508018 521.13701439 C-357.04508018 702.30701439 -357.04508018 883.47701439 -357.04508018 1070.13701439 C-349.174874 1073.41626697 -341.38865552 1076.54185124 -333.36148643 1079.35967064 C-332.2676313 1079.74586067 -331.17377617 1080.1320507 -330.04677391 1080.52994347 C-327.73212288 1081.34593292 -325.41685036 1082.16016143 -323.10098839 1082.97270775 C-319.70069978 1084.16681287 -316.30344527 1085.36924238 -312.90640831 1086.57256126 C-293.37938842 1093.44122249 -273.75399409 1099.7449342 -254.04508018 1106.13701439 C-254.04508018 913.08701439 -254.04508018 720.03701439 -254.04508018 521.13701439 C-288.03508018 521.13701439 -322.02508018 521.13701439 -357.04508018 521.13701439 Z M1516.95491982 521.13701439 C1516.95491982 714.18701439 1516.95491982 907.23701439 1516.95491982 1106.13701439 C1545.54282499 1096.93147015 1545.54282499 1096.93147015 1573.96419716 1087.26250267 C1576.5178073 1086.36490946 1579.07409637 1085.47525724 1581.63070107 1084.58623314 C1601.12242446 1078.1576527 1601.12242446 1078.1576527 1619.95491982 1070.13701439 C1619.95491982 888.96701439 1619.95491982 707.79701439 1619.95491982 521.13701439 C1585.96491982 521.13701439 1551.97491982 521.13701439 1516.95491982 521.13701439 Z M-499.04508018 1127.13701439 C-497.12578378 1141.73683131 -494.96263597 1156.27856521 -492.57217979 1170.80815697 C-492.23187553 1172.89027717 -491.89183131 1174.97243989 -491.55202103 1177.05464077 C-490.63069465 1182.69565788 -489.7058281 1188.33608938 -488.78034997 1193.9764266 C-487.78385837 1200.05377782 -486.79084055 1206.1316967 -485.7974453 1212.20955467 C-484.08773142 1222.6674219 -482.3760797 1233.1249701 -480.66306114 1243.58229637 C-477.96350974 1260.06234011 -475.26823549 1276.54308192 -472.57388878 1293.02397728 C-472.3459733 1294.41807037 -472.11805721 1295.81216337 -471.89014053 1297.20625627 C-470.97359343 1302.81249852 -470.05705389 1308.418742 -469.14056253 1314.02499336 C-467.75105583 1322.52464555 -466.36124306 1331.02424763 -464.97121096 1339.5238139 C-456.21880377 1393.04194284 -447.49832752 1446.56524402 -438.79371911 1500.09116918 C-437.5458584 1507.76434883 -436.29763717 1515.43746976 -435.04920006 1523.11055565 C-433.5310457 1532.44141134 -432.01326335 1541.77232745 -430.49593979 1551.10331827 C-429.70253053 1555.98246604 -428.90898275 1560.86159117 -428.11505127 1565.74065399 C-425.15619033 1583.92491254 -422.20251746 1602.10988451 -419.29558492 1620.30252683 C-418.92984205 1622.5908499 -418.56362488 1624.87909652 -418.19723129 1627.16731548 C-417.96323031 1628.6289397 -417.72923478 1630.09056478 -417.49524498 1631.55219078 C-417.38242003 1632.25688383 -417.26959508 1632.96157689 -417.15335119 1633.68762428 C-416.60856672 1637.09258883 -416.06555439 1640.49781863 -415.52646828 1643.90369034 C-414.95383118 1647.51919973 -414.37662465 1651.13395174 -413.79849815 1654.74858665 C-413.55028627 1656.33116233 -413.55028627 1656.33116233 -413.29706001 1657.94570923 C-413.06910933 1659.36299096 -413.06910933 1659.36299096 -412.83655357 1660.80890465 C-412.64184125 1662.0366654 -412.64184125 1662.0366654 -412.44319534 1663.28922939 C-412.21819668 1665.14466865 -412.21819668 1665.14466865 -411.04508018 1666.13701439 C-409.32170313 1666.23572867 -407.59423764 1666.26343437 -405.86803591 1666.26417291 C-404.1702933 1666.26854096 -404.1702933 1666.26854096 -402.43825287 1666.27299726 C-401.1765913 1666.27111705 -399.91492974 1666.26923684 -398.61503601 1666.26729965 C-397.26991071 1666.26883524 -395.92478586 1666.27081046 -394.57966179 1666.27318883 C-390.84945274 1666.27849835 -387.11926671 1666.27752162 -383.38905533 1666.27561571 C-379.34354847 1666.27464697 -375.2980481 1666.27946658 -371.25254381 1666.28359473 C-364.15080818 1666.29004763 -357.04907845 1666.2928124 -349.94734001 1666.29322052 C-339.386607 1666.2938636 -328.82588308 1666.300245 -318.26515315 1666.30796732 C-301.59147731 1666.32006253 -284.91780189 1666.32871435 -268.24412293 1666.33500546 C-241.7723698 1666.34502633 -215.30062962 1666.36427363 -188.82888426 1666.38654785 C-178.65083463 1666.39507951 -168.47278477 1666.40334536 -158.29473495 1666.41165161 C-157.16381975 1666.41257662 -156.03290454 1666.41350163 -154.86771917 1666.41445467 C-127.92830567 1666.43646037 -100.98889073 1666.45624372 -74.04947472 1666.47490501 C-72.28066798 1666.47613453 -72.28066798 1666.47613453 -70.47612777 1666.47738889 C-42.9694501 1666.49646993 -15.46277251 1666.51343133 12.04390907 1666.5257473 C13.8177759 1666.5265418 13.8177759 1666.5265418 15.62747842 1666.52735235 C25.15913516 1666.53160381 34.69079193 1666.5357802 44.2224487 1666.53993715 C83.50979881 1666.5571301 122.79713128 1666.58433643 162.08446624 1666.62309753 C167.63178514 1666.62855955 173.17910416 1666.63389251 178.72642326 1666.63913918 C180.36412435 1666.64069075 180.36412435 1666.64069075 182.03491031 1666.64227366 C199.61861875 1666.6586088 217.20231486 1666.664128 234.78603017 1666.66543684 C252.4573872 1666.66694041 270.12871069 1666.67908373 287.80005293 1666.70219325 C298.30236658 1666.71558658 308.80460705 1666.72058411 319.30692736 1666.71364689 C326.32149181 1666.70982936 333.33599135 1666.71684201 340.35053886 1666.73266267 C344.34793252 1666.74136518 348.34517604 1666.74534111 352.3425719 1666.7360888 C355.98265293 1666.72775411 359.62244449 1666.73330225 363.26249573 1666.74969639 C365.18124199 1666.75481931 367.10001051 1666.74532932 369.01873666 1666.73516035 C398.59079433 1666.93758979 415.35954965 1688.38524046 434.72505867 1707.79108763 C437.36446397 1710.43486418 440.00681332 1713.07569568 442.64878273 1715.71690941 C447.21140012 1720.27900575 451.772202 1724.84291038 456.33172989 1729.40809441 C462.92381745 1736.00835413 469.51870743 1742.60580799 476.11425623 1749.20260873 C486.81839443 1759.90892853 497.52030363 1770.61747349 508.22078896 1781.32744408 C518.60730349 1791.72315591 528.99488142 1802.1178033 539.38387489 1812.51103783 C540.02565053 1813.15307619 540.66742617 1813.79511455 541.32864956 1814.45660862 C544.54867344 1817.67793766 547.76871806 1820.89924596 550.98877299 1824.12054396 C577.64737149 1850.78948725 604.30234327 1877.4620529 630.95491982 1904.13701439 C636.61062754 1899.43296364 641.82135386 1894.40196161 647.00553322 1889.18646812 C647.89467295 1888.29606612 648.78381268 1887.40566412 649.69989604 1886.48828024 C652.1525669 1884.03204336 654.60211348 1881.57271167 657.05116045 1879.11286223 C659.69899933 1876.45449232 662.34980991 1873.79908872 665.00031471 1871.1433773 C669.58901759 1866.54498396 674.1760435 1861.94492343 678.76208878 1857.3438797 C686.01609474 1850.06644468 693.27533531 1842.79424352 700.53540993 1835.52286339 C703.02232967 1833.03194266 705.5092155 1830.54098809 707.99609089 1828.05002308 C708.92821411 1827.11637102 708.92821411 1827.11637102 709.8791681 1826.1638573 C716.94476449 1819.08652975 724.00928452 1812.00812822 731.07332802 1804.92925072 C731.71870042 1804.28252588 732.36407283 1803.63580104 733.02900197 1802.96947848 C743.48753338 1792.48876565 753.94221088 1782.00421497 764.39591936 1771.51869196 C775.14162618 1760.74056334 785.89311687 1749.96822699 796.64954299 1739.20079607 C803.27692016 1732.56620816 809.89953373 1725.92693642 816.5160357 1719.2815026 C821.05277564 1714.72572208 825.59499818 1710.17545585 830.14151291 1705.62943036 C832.76127508 1703.00960537 835.37855808 1700.38742625 837.98923302 1697.75854301 C840.82578955 1694.90231984 843.67398915 1692.05798853 846.52335548 1689.2145443 C847.33767896 1688.39080018 848.15200244 1687.56705606 848.99100238 1686.71834999 C855.9798007 1679.77785669 863.40877393 1673.60850922 872.76741982 1670.26201439 C873.82574013 1669.87271751 874.88406044 1669.48342064 875.97445107 1669.08232689 C880.60671015 1667.61311758 884.78279987 1667.0117895 889.64141542 1667.00640386 C890.78505147 1667.00272315 891.92868753 1666.99904244 893.10697922 1666.9952502 C894.98842597 1666.9967842 894.98842597 1666.9967842 896.90788174 1666.99834919 C898.26099816 1666.99590137 899.61411385 1666.99301739 900.9672285 1666.98973641 C904.70089775 1666.98195521 908.43454806 1666.98039405 912.16822442 1666.97980899 C916.2242783 1666.97808222 920.28032213 1666.97059813 924.33637017 1666.96383244 C931.4500866 1666.95276491 938.56379946 1666.94539956 945.67752266 1666.9404335 C956.255424 1666.93303247 966.83331294 1666.91995048 977.41120698 1666.90568775 C995.20358426 1666.88185909 1012.99596375 1666.86266253 1030.78834915 1666.84608841 C1048.40993298 1666.82965832 1066.0315127 1666.81118017 1083.65309143 1666.78995514 C1084.74796169 1666.78863753 1085.84283195 1666.78731992 1086.97088009 1666.78596239 C1092.53097081 1666.77926048 1098.09106149 1666.77252187 1103.65115216 1666.76576913 C1143.05294116 1666.71798163 1182.45473401 1666.67480364 1221.85653114 1666.63432884 C1260.13941159 1666.59499291 1298.42228885 1666.55357377 1336.70516396 1666.50932884 C1338.47463377 1666.50728505 1338.47463377 1666.50728505 1340.27985044 1666.50519996 C1352.12613832 1666.49151482 1363.97242616 1666.47778726 1375.81871396 1666.46402862 C1399.95185875 1666.43600063 1424.08500387 1666.40825574 1448.21814919 1666.38068199 C1449.88262388 1666.37877969 1449.88262388 1666.37877969 1451.58072434 1666.37683896 C1525.70545099 1666.29215559 1599.83018489 1666.21407208 1673.95491982 1666.13701439 C1675.25777289 1661.66108259 1676.35982523 1657.30265673 1677.10314369 1652.69949913 C1677.41167274 1650.8085568 1677.41167274 1650.8085568 1677.72643471 1648.8794136 C1677.94866426 1647.49060126 1678.17081933 1646.10177699 1678.3929081 1644.71294212 C1678.63422304 1643.22389041 1678.87591349 1641.73489951 1679.11794472 1640.24596405 C1679.64448056 1637.00151964 1680.16829629 1633.75665145 1680.69006157 1630.51143646 C1681.54674717 1625.18315337 1682.4093599 1619.85583879 1683.27251625 1614.52860069 C1684.54084013 1606.69672983 1685.80621271 1598.86438676 1687.06966591 1591.03172874 C1689.10392091 1578.42110475 1691.14409632 1565.81144233 1693.18538857 1553.2019558 C1693.71837316 1549.90939497 1694.25134986 1546.61683286 1694.78432488 1543.32427049 C1695.14595699 1541.09022527 1695.50759718 1538.85618136 1695.86924529 1536.62213874 C1696.985771 1529.724645 1698.10180554 1522.82707198 1699.21747851 1515.92944026 C1705.14383271 1479.29011918 1711.0921719 1442.65440064 1717.05212611 1406.02053359 C1717.49564745 1403.29432334 1717.9391433 1400.56810894 1718.38264022 1397.84189471 C1721.99829068 1375.6162547 1725.6149317 1353.39077588 1729.23187447 1331.16534615 C1730.48224609 1323.4820056 1731.73253386 1315.79865142 1732.98275185 1308.11528587 C1733.1860762 1306.86575398 1733.38940055 1305.61622209 1733.59888625 1304.32882559 C1735.79062016 1290.8589656 1737.9811865 1277.38891725 1740.16851234 1263.91834068 C1740.45443078 1262.15753222 1740.45443078 1262.15753222 1740.74612534 1260.36115187 C1741.50696086 1255.67537113 1742.26775536 1250.98958374 1743.02834916 1246.30376375 C1745.28616644 1232.39424367 1747.54954673 1218.48565341 1749.82191086 1204.57850206 C1751.27812138 1195.66516996 1752.73007978 1186.7511524 1754.17871857 1177.83658659 C1755.01870473 1172.6688068 1755.86092262 1167.50141425 1756.70876503 1162.33491707 C1757.48357824 1157.61336356 1758.25257699 1152.89090242 1759.0168438 1148.16763067 C1759.29586835 1146.45006646 1759.57712425 1144.73286308 1759.86073875 1143.01605082 C1760.24407112 1140.69376986 1760.61956476 1138.37035749 1760.99300575 1136.04646873 C1761.31008492 1134.10370646 1761.31008492 1134.10370646 1761.63356972 1132.12169647 C1762.21856493 1129.21397938 1762.21856493 1129.21397938 1760.95491982 1127.13701439 C1760.07908241 1127.50761986 1759.20324501 1127.87822533 1758.30086708 1128.26006126 C1667.73080765 1166.52599832 1574.7935288 1199.17138195 849.95491982 1345.13701439 C848.72064247 1345.23756126 847.48636513 1345.33810814 846.21468544 1345.44170189 C794.1830997 1349.66733148 742.02434955 1352.56266398 689.82991982 1353.69951439 C688.87367714 1353.72036095 687.91743446 1353.7412075 686.93221474 1353.76268578 C604.98535578 1355.48109742 523.0384644 1353.19899925 411.95491982 1345.13701439 C411.22335167 1345.08053734 410.49178352 1345.02406029 409.73804665 1344.96587181 C337.43546902 1339.37657146 265.34211496 1331.51857981 65.95491982 1299.13701439 C64.85458412 1298.92816612 63.75424843 1298.71931786 62.62056923 1298.50414085 C-30.52117551 1280.76723838 -122.53340589 1256.82311318 -213.15592003 1229.02257347 C-215.96716705 1228.16089561 -218.77940066 1227.30251913 -221.59195518 1226.44511986 C-272.48066517 1210.91718546 -323.02319967 1194.26684876 -373.04508018 1176.13701439 C-374.41397392 1175.64128929 -374.41397392 1175.64128929 -375.81052208 1175.13554955 C-399.04320416 1166.71117472 -422.09893857 1157.84077455 -445.10758018 1148.82451439 C-446.84278419 1148.14576256 -446.84278419 1148.14576256 -448.61304283 1147.45329857 C-462.52494353 1142.00438294 -476.35075641 1136.39004414 -490.08366966 1130.50436974 C-491.11435066 1130.06321327 -492.14503166 1129.62205681 -493.20694542 1129.16753197 C-494.11951607 1128.77471535 -495.03208672 1128.38189873 -495.97231102 1127.97717857 C-497.8267788 1127.07440632 -497.8267788 1127.07440632 -499.04508018 1127.13701439 Z M-394.04508018 1771.13701439 C-389.36038809 1801.77122756 -389.36038809 1801.77122756 -384.45938683 1832.37138939 C-384.14340302 1834.30804948 -383.82757997 1836.2447358 -383.51189804 1838.18144512 C-382.84285462 1842.28394851 -382.17273698 1846.38627422 -381.50168228 1850.4884491 C-380.41579412 1857.12655859 -379.33250271 1863.76509056 -378.24944115 1870.40366173 C-376.68594019 1879.9855492 -375.12130776 1889.56725127 -373.55588341 1899.14882469 C-369.78587276 1922.22478462 -366.02194513 1945.30173736 -362.25763512 1968.37862778 C-361.40297413 1973.61806192 -360.54823429 1978.85748318 -359.69342613 1984.09689331 C-351.81448637 2032.39017183 -343.96340154 2080.68792986 -336.13001108 2128.98861551 C-335.36031719 2133.73448941 -334.5905614 2138.48035327 -333.8208065 2143.22621727 C-333.66753897 2144.17117976 -333.51427143 2145.11614226 -333.35635942 2146.08973998 C-331.7824121 2155.79379453 -330.20840807 2165.49783988 -328.63434958 2175.2018764 C-328.15422972 2178.16184189 -327.67412951 2181.12181057 -327.19403076 2184.08177948 C-321.74493553 2217.67656142 -316.28697606 2251.26989945 -310.82594109 2284.86274242 C-310.18602454 2288.7991124 -309.54612263 2292.73548475 -308.9062252 2296.67185783 C-306.97878557 2308.52861813 -305.05130648 2320.38537202 -303.12380886 2332.24212289 C-302.26853344 2337.50323891 -301.41326358 2342.76435584 -300.55799294 2348.02547264 C-299.92241835 2351.93513143 -299.28683467 2355.84478874 -298.65125084 2359.75444603 C-281.58014318 2464.76472279 -281.58014318 2464.76472279 -273.93570518 2512.09795189 C-273.80526707 2512.9055737 -273.67482896 2513.71319551 -273.54043818 2514.54529071 C-271.10035598 2529.65392456 -268.66266393 2544.7629423 -266.22951317 2559.87269402 C-265.45238413 2564.69816196 -264.67466789 2569.52353518 -263.89690971 2574.34890175 C-263.38541997 2577.5243972 -262.87501706 2580.7000659 -262.3647213 2583.8757534 C-262.06567725 2585.73197257 -261.76658792 2587.58818445 -261.46744347 2589.44438744 C-261.33584265 2590.26557973 -261.20424183 2591.08677202 -261.06865311 2591.93284893 C-260.46253747 2595.68714595 -259.79118245 2599.40650308 -259.04508018 2603.13701439 C328.68491982 2603.13701439 916.41491982 2603.13701439 1521.95491982 2603.13701439 C1538.68788473 2501.09388962 1538.68788473 2501.09388962 1555.30553627 2399.03212547 C1557.13475458 2387.75577438 1558.96526311 2376.4796329 1560.79598105 2365.20352519 C1563.09132006 2351.06561469 1565.38649454 2336.9276775 1567.68110085 2322.78964806 C1567.85560038 2321.71448364 1568.03009992 2320.63931923 1568.20988733 2319.53157407 C1568.38417581 2318.45770859 1568.55846429 2317.38384311 1568.73803425 2316.27743626 C1573.07537602 2289.55324011 1577.41480865 2262.82938402 1581.75570107 2236.10576439 C1581.915167 2235.12405093 1582.07463294 2234.14233747 1582.23893118 2233.13087511 C1583.85484729 2223.18292004 1585.47081849 2213.23497393 1587.08683169 2203.28703463 C1589.03291071 2191.30725816 1590.97884531 2179.32745823 1592.92472768 2167.34764981 C1600.46618388 2120.91891894 1608.00961817 2074.49050966 1615.55461383 2028.06235385 C1616.21596198 2023.99274428 1616.87730473 2019.92313383 1617.5386467 2015.85352325 C1621.43002939 1991.90766151 1625.32141841 1967.9618008 1629.21325111 1944.01601219 C1629.82682229 1940.2407967 1630.44039289 1936.46558112 1631.05396283 1932.69036543 C1631.45707455 1930.21007437 1631.86018782 1927.72978356 1632.26330268 1925.249493 C1634.38831159 1912.17463031 1636.51307725 1899.09972819 1638.63703346 1886.02469444 C1638.8198311 1884.89940419 1639.00262875 1883.77411394 1639.19096571 1882.61472398 C1639.91336629 1878.16764253 1640.63576331 1873.7205605 1641.35811722 1869.27347147 C1643.36329343 1856.92900575 1645.36972587 1844.58474625 1647.37909675 1832.24096256 C1648.55265809 1825.03157996 1649.72529964 1817.82204825 1650.89713693 1810.61238521 C1651.68038248 1805.79393529 1652.46491698 1800.9756978 1653.2505064 1796.15762949 C1653.71770159 1793.29025499 1654.18360704 1790.42267214 1654.64910412 1787.55502152 C1654.96202464 1785.62976947 1655.2765284 1783.70477495 1655.59108162 1781.77978897 C1655.7732045 1780.65611986 1655.95532738 1779.53245075 1656.14296913 1778.37473106 C1656.38016859 1776.91762608 1656.38016859 1776.91762608 1656.62215996 1775.43108463 C1657.00276977 1773.19347976 1657.00276977 1773.19347976 1656.95491982 1771.13701439 C1589.65952069 1766.84366538 1522.34740021 1762.90741681 1454.950037 1760.63591576 C1453.43024174 1760.58455853 1453.43024174 1760.58455853 1451.87974355 1760.53216378 C1429.80739938 1759.78820024 1407.73361651 1759.10145405 1385.6576947 1758.47281268 C1374.81618598 1758.16374127 1363.97506459 1757.84215939 1353.13411903 1757.51396751 C1352.05587916 1757.48153927 1350.97763928 1757.44911102 1349.86672547 1757.4157001 C1317.61420335 1756.44026942 1285.45581376 1754.8000257 1253.26208942 1752.63906318 C1203.45479144 1749.30682891 1153.70210629 1747.09081958 1103.77597958 1746.92834592 C1101.72796854 1746.9216228 1099.67996133 1746.91361416 1097.63196033 1746.90432239 C989.67566887 1746.42514414 907.43494311 1761.23740644 803.64796495 1856.33593851 C764.67603514 1895.12629005 728.5476727 1937.28346488 695.13503456 1980.93211937 C694.64408557 1981.57334163 694.15313658 1982.2145639 693.64731035 1982.87521714 C689.04767661 1988.8912484 684.47413413 1994.9245626 679.99038954 2001.02759558 C678.78468531 2002.66608829 677.57192447 2004.29909679 676.35676408 2005.93058491 C674.90887113 2007.8800512 673.47556959 2009.84049803 672.0617063 2011.81478357 C663.9892472 2022.64473915 652.79577623 2028.62132189 639.50570107 2030.66826439 C624.73226169 2032.09847634 611.03086501 2029.10318611 599.10680581 2020.02885271 C595.17392383 2016.57124536 592.27486239 2012.37092013 589.22292423 2008.14229298 C588.08220438 2006.59952979 586.94141698 2005.05681497 585.79847987 2003.5156937 C584.5653685 2001.85165891 583.33632629 2000.18466471 582.1072237 1998.51766748 C526.93089683 1923.87043561 464.03734163 1848.90430945 283.17451859 1753.60621643 C243.34453445 1747.90354504 203.25892756 1746.83343596 163.08382607 1747.01592064 C161.03386475 1747.02265964 158.98390332 1747.02936459 156.93394178 1747.03603548 C106.90141267 1747.23265671 57.04154014 1749.59352761 7.1293606 1752.9246289 C-25.15186829 1755.07894925 -57.40344972 1756.60168867 -89.74210167 1757.56889915 C-90.8211923 1757.60138612 -91.90028294 1757.63387308 -93.01207329 1757.6673445 C-103.85825667 1757.9932882 -114.70473326 1758.30837352 -125.55146368 1758.61554274 C-147.60695138 1759.24037939 -169.65996542 1759.93721417 -191.71184349 1760.6782589 C-193.2295032 1760.72912483 -193.2295032 1760.72912483 -194.7778227 1760.78101835 C-261.25977979 1763.01742769 -327.66242263 1766.92608637 -394.04508018 1771.13701439 Z M-241.04508018 2709.13701439 C-240.23320271 2719.06764228 -240.23320271 2719.06764228 -238.90321922 2728.85915184 C-238.7917987 2729.54897813 -238.68037817 2730.23880442 -238.56558126 2730.94953454 C-238.19651501 2733.22744688 -237.82089418 2735.50422516 -237.44522667 2737.78105736 C-237.17376765 2739.44788273 -236.90272186 2741.11477544 -236.63204956 2742.78172874 C-235.8893979 2747.34803812 -235.14098673 2751.91338734 -234.39164472 2756.47860289 C-233.57811921 2761.44149725 -232.77010772 2766.40528962 -231.96144676 2771.3689785 C-230.55098978 2780.02211783 -229.13723885 2788.67471372 -227.72128868 2797.3269558 C-225.46011645 2811.14438939 -223.20546932 2824.96288359 -220.95181847 2838.78154564 C-220.17012011 2843.57421573 -219.38837336 2848.36687792 -218.60660362 2853.15953636 C-218.41028666 2854.36308399 -218.21396969 2855.56663163 -218.01170373 2856.8066504 C-216.58933654 2865.52608648 -215.16602585 2874.24536826 -213.74234581 2882.96459007 C-207.6498064 2920.27966657 -201.57414368 2957.59746487 -195.50800803 2994.9168418 C-195.1666104 2997.01714174 -194.82520472 2999.11744036 -194.48379683 3001.21773863 C-192.12135265 3015.75124572 -189.75920506 3030.28480101 -187.39726033 3044.81838928 C-183.65011996 3067.87539111 -179.90187552 3090.93221338 -176.15294164 3113.98892367 C-175.18969839 3119.9130979 -174.22651964 3125.83728259 -173.26353836 3131.7614994 C-172.90287251 3133.98026855 -172.54220624 3136.19903762 -172.18153954 3138.41780663 C-171.91781893 3140.04022201 -171.91781893 3140.04022201 -171.64877063 3141.69541347 C-170.79193776 3146.96613379 -169.93468166 3152.23678464 -169.07647991 3157.50728226 C-168.7428313 3159.55638553 -168.40918357 3161.60548895 -168.07553673 3163.65459251 C-167.91122333 3164.6636484 -167.74690994 3165.67270428 -167.57761735 3166.71233761 C-166.4997435 3173.33467049 -165.42615396 3179.95768704 -164.35476387 3186.58107185 C-163.61205649 3191.1702134 -162.86739307 3195.75903633 -162.12239766 3200.34780693 C-161.76793997 3202.53405852 -161.41436183 3204.72045291 -161.06170535 3206.90699577 C-160.5766225 3209.91405317 -160.08850286 3212.92060274 -159.59967613 3215.92705345 C-159.45634354 3216.82048203 -159.31301095 3217.7139106 -159.16533494 3218.63441277 C-159.03180423 3219.45191254 -158.89827351 3220.26941231 -158.76069641 3221.1116848 C-158.64594078 3221.8209222 -158.53118514 3222.53015961 -158.41295207 3223.26088905 C-158.04443117 3225.35192167 -158.04443117 3225.35192167 -157.04508018 3228.13701439 C363.36491982 3228.13701439 883.77491982 3228.13701439 1419.95491982 3228.13701439 C1422.30750859 3216.50653608 1422.30750859 3216.50653608 1424.37093544 3204.84551048 C1424.48759902 3204.1312089 1424.6042626 3203.41690732 1424.72446144 3202.68096024 C1425.10594118 3200.34120152 1425.48357753 3198.00084082 1425.86116982 3195.66045189 C1426.14029792 3193.94342057 1426.41966955 3192.22642882 1426.69926071 3190.50947285 C1427.46039461 3185.83110316 1428.21815418 3181.15219247 1428.97534609 3176.47318339 C1429.79550877 3171.40901877 1430.61891864 3166.34538204 1431.44194984 3161.28168297 C1432.86773198 3152.50694217 1434.29159067 3143.73189107 1435.71413612 3134.95662498 C1437.97540348 3121.0077629 1440.2404914 3107.05952264 1442.50618935 3093.11137962 C1443.28443914 3088.32004698 1444.0626631 3083.52871014 1444.84087563 3078.73737144 C1445.03536738 3077.53993008 1445.22985913 3076.34248872 1445.43024457 3075.10876125 C1446.82905259 3066.4962964 1448.22731454 3057.88374299 1449.62536049 3049.2711544 C1455.26519241 3014.52834579 1460.9150658 2979.78718108 1466.57210732 2945.04717064 C1466.96692598 2942.62251219 1467.3617446 2940.19785373 1467.75656319 2937.77319527 C1469.88469036 2924.70414406 1472.01307277 2911.63513442 1474.14156365 2898.56614244 C1475.97622613 2887.30125426 1477.81080343 2876.03635221 1479.6452117 2864.77142262 C1479.99921114 2862.59756242 1480.35321913 2860.42370361 1480.70723581 2858.24984622 C1482.57365914 2846.78889219 1484.439396 2835.32782731 1486.30300331 2823.86641502 C1486.78671024 2820.89179481 1487.27043 2817.91717669 1487.75416422 2814.94256091 C1488.07097961 2812.99437244 1488.38777859 2811.04618129 1488.70456076 2809.09798741 C1490.70416776 2796.80193411 1492.71166524 2784.50720343 1494.7276001 2772.21381664 C1495.73848898 2766.04869174 1496.74630061 2759.88306517 1497.75316012 2753.71728104 C1498.54340092 2748.87957377 1499.33762056 2744.04254365 1500.13505936 2739.20601797 C1500.61476526 2736.29045808 1501.09054623 2733.37426821 1501.56517172 2730.4578774 C1501.88582329 2728.49506566 1502.21125877 2726.53303729 1502.53686333 2724.57104111 C1502.72575001 2723.40550013 1502.91463669 2722.23995914 1503.10924721 2721.03909874 C1503.35606082 2719.53537035 1503.35606082 2719.53537035 1503.60786057 2718.00126362 C1504.07520935 2714.62514205 1504.07520935 2714.62514205 1503.95491982 2709.13701439 C928.10491982 2709.13701439 352.25491982 2709.13701439 -241.04508018 2709.13701439 Z " fill="#FFFFFF" transform="translate(1035.0450801849365,-0.13701438903808594)"/>
</svg>
