<?xml version="1.0" encoding="UTF-8" standalone="no" ?>
<!DOCTYPE svg PUBLIC "-//W3C//DTD SVG 1.1//EN" "http://www.w3.org/Graphics/SVG/1.1/DTD/svg11.dtd">
<svg xmlns="http://www.w3.org/2000/svg" xmlns:xlink="http://www.w3.org/1999/xlink" version="1.1" width="1080" height="1080" viewBox="0 0 1080 1080" xml:space="preserve">
<desc>Created with Fabric.js 5.2.4</desc>
<defs>
</defs>
<rect x="0" y="0" width="100%" height="100%" fill="transparent"></rect>
<g transform="matrix(1 0 0 1 540 540)" id="e020d47c-72e9-47fb-8b17-801291ea5990"  >
<rect style="stroke: none; stroke-width: 1; stroke-dasharray: none; stroke-linecap: butt; stroke-dashoffset: 0; stroke-linejoin: miter; stroke-miterlimit: 4; fill: rgb(255,255,255); fill-rule: nonzero; opacity: 1; visibility: hidden;" vector-effect="non-scaling-stroke"  x="-540" y="-540" rx="0" ry="0" width="1080" height="1080" />
</g>
<g transform="matrix(1 0 0 1 540 540)" id="b0772af7-5241-4be7-a064-4a991533082c"  >
</g>
<g transform="matrix(1 0 0 1 540 540)"  >
<g style="" vector-effect="non-scaling-stroke"   >
		<g transform="matrix(0.13 0 0 -0.13 332.24 -208.31)"  >
<path style="stroke: none; stroke-width: 1; stroke-dasharray: none; stroke-linecap: butt; stroke-dashoffset: 0; stroke-linejoin: miter; stroke-miterlimit: 4; fill: rgb(0,0,0); fill-opacity: 0.66; fill-rule: nonzero; opacity: 1;" vector-effect="non-scaling-stroke"  transform=" translate(-7010.83, -6254.65)" d="M 6769 6490 C 6710 6480 6676 6462 6617 6410 C 6553 6353 6531 6306 6519 6202 C 6508 6104 6513 6064 6540 6050 C 6550 6044 6604 6040 6659 6040 C 6782 6040 6790 6046 6790 6134 C 6790 6195 6801 6220 6828 6220 C 6835 6220 6878 6182 6923 6136 C 7015 6042 7029 6034 7101 6020 C 7180 6005 7263 6022 7327 6066 C 7399 6116 7512 6255 7508 6289 C 7505 6318 7359 6450 7329 6450 C 7320 6450 7279 6414 7239 6370 C 7199 6326 7162 6290 7157 6290 C 7152 6290 7109 6330 7062 6378 C 6997 6445 6965 6469 6935 6477 C 6872 6495 6819 6499 6769 6490 z" stroke-linecap="round" />
</g>
		<g transform="matrix(0.13 0 0 -0.13 -70.51 -203.02)"  >
<path style="stroke: none; stroke-width: 1; stroke-dasharray: none; stroke-linecap: butt; stroke-dashoffset: 0; stroke-linejoin: miter; stroke-miterlimit: 4; fill: rgb(0,0,0); fill-opacity: 0.66; fill-rule: nonzero; opacity: 1;" vector-effect="non-scaling-stroke"  transform=" translate(-3990.23, -6214.96)" d="M 3642 6308 C 3635 6301 3630 6266 3630 6220 C 3630 6103 3606 6110 3993 6110 C 4276 6110 4321 6112 4334 6126 C 4354 6145 4357 6289 4338 6308 C 4329 6317 4238 6320 3990 6320 C 3742 6320 3651 6317 3642 6308 z" stroke-linecap="round" />
</g>
		<g transform="matrix(0.13 0 0 -0.13 335.31 -5.83)"  >
<path style="stroke: none; stroke-width: 1; stroke-dasharray: none; stroke-linecap: butt; stroke-dashoffset: 0; stroke-linejoin: miter; stroke-miterlimit: 4; fill: rgb(0,0,0); fill-opacity: 0.66; fill-rule: nonzero; opacity: 1;" vector-effect="non-scaling-stroke"  transform=" translate(-7033.85, -4736.03)" d="M 6822 5968 C 6813 5959 6810 5671 6810 4733 C 6810 3526 6810 3511 6830 3500 C 6842 3493 6921 3491 7042 3492 L 7234 3495 L 7247 3520 C 7257 3540 7259 3792 7257 4753 C 7255 5814 7253 5962 7240 5970 C 7217 5985 6837 5983 6822 5968 z" stroke-linecap="round" />
</g>
		<g transform="matrix(0.13 0 0 -0.13 -67.62 2.98)"  >
<path style="stroke: none; stroke-width: 1; stroke-dasharray: none; stroke-linecap: butt; stroke-dashoffset: 0; stroke-linejoin: miter; stroke-miterlimit: 4; fill: rgb(0,0,0); fill-opacity: 0.66; fill-rule: nonzero; opacity: 1;" vector-effect="non-scaling-stroke"  transform=" translate(-4011.92, -4670)" d="M 4165 5765 C 4010 5659 3980 5634 3980 5610 C 3980 5601 4019 5536 4066 5465 C 4162 5321 4215 5217 4225 5153 L 4232 5110 L 4016 5110 L 3800 5110 L 3800 5198 C 3800 5332 3814 5325 3553 5325 L 3335 5325 L 3339 4610 C 3343 3837 3343 3839 3398 3736 C 3434 3669 3524 3581 3597 3542 C 3697 3489 3757 3480 4016 3480 C 4215 3480 4258 3483 4326 3500 C 4472 3538 4582 3629 4649 3770 L 4685 3845 L 4688 4534 C 4690 5198 4690 5227 4670 5304 C 4643 5413 4596 5505 4478 5681 C 4382 5825 4351 5860 4320 5860 C 4312 5860 4242 5817 4165 5765 z" stroke-linecap="round" />
</g>
		<g transform="matrix(0.13 0 0 -0.13 152.13 -125.02)"  >
<path style="stroke: none; stroke-width: 1; stroke-dasharray: none; stroke-linecap: butt; stroke-dashoffset: 0; stroke-linejoin: miter; stroke-miterlimit: 4; fill: rgb(0,0,0); fill-opacity: 0.66; fill-rule: nonzero; opacity: 1;" vector-effect="non-scaling-stroke"  transform=" translate(-5660, -5630)" d="M 5448 5849 C 5432 5840 5430 5819 5430 5632 C 5430 5483 5433 5421 5442 5412 C 5451 5403 5513 5400 5662 5400 C 5857 5400 5870 5401 5880 5419 C 5886 5431 5890 5518 5890 5634 C 5890 5798 5887 5831 5874 5844 C 5861 5858 5828 5860 5662 5860 C 5547 5860 5458 5855 5448 5849 z" stroke-linecap="round" />
</g>
		<g transform="matrix(0.13 0 0 -0.13 -290.87 53.9)"  >
<path style="stroke: none; stroke-width: 1; stroke-dasharray: none; stroke-linecap: butt; stroke-dashoffset: 0; stroke-linejoin: miter; stroke-miterlimit: 4; fill: rgb(0,0,0); fill-opacity: 0.66; fill-rule: nonzero; opacity: 1;" vector-effect="non-scaling-stroke"  transform=" translate(-2337.5, -4288.05)" d="M 2500 5684 C 2264 5637 2070 5404 2070 5168 L 2070 5110 L 2027 5110 C 1959 5110 1872 5091 1811 5062 C 1737 5027 1624 4914 1587 4837 C 1530 4720 1530 4720 1530 3790 C 1530 3032 1532 2932 1546 2912 C 1561 2890 1565 2890 1775 2890 C 1956 2890 1991 2892 2004 2906 C 2018 2919 2020 2961 2020 3206 L 2020 3490 L 2348 3490 C 2528 3490 2704 3495 2740 3501 C 2917 3529 3072 3668 3127 3845 C 3144 3901 3145 3953 3145 4580 L 3145 5255 L 3122 5322 C 3081 5440 2994 5551 2893 5614 C 2809 5666 2752 5681 2635 5685 C 2575 5687 2514 5686 2500 5684 z M 2665 5204 C 2681 5186 2690 5165 2690 5144 L 2690 5110 L 2610 5110 L 2530 5110 L 2530 5144 C 2530 5189 2568 5230 2610 5230 C 2631 5230 2649 5221 2665 5204 z" stroke-linecap="round" />
</g>
		<g transform="matrix(0.13 0 0 -0.13 152.01 77)"  >
<path style="stroke: none; stroke-width: 1; stroke-dasharray: none; stroke-linecap: butt; stroke-dashoffset: 0; stroke-linejoin: miter; stroke-miterlimit: 4; fill: rgb(0,0,0); fill-opacity: 0.66; fill-rule: nonzero; opacity: 1;" vector-effect="non-scaling-stroke"  transform=" translate(-5659.13, -4114.83)" d="M 5986 5304 C 5972 5290 5970 5241 5970 4889 L 5970 4490 L 5655 4490 L 5340 4490 L 5340 4783 C 5340 4949 5336 5081 5330 5090 C 5316 5113 4939 5118 4904 5095 L 4880 5080 L 4880 4207 C 4880 3392 4881 3330 4898 3269 C 4935 3136 5023 3030 5147 2968 C 5256 2914 5310 2908 5701 2912 C 6026 2916 6048 2917 6104 2938 C 6255 2994 6367 3109 6416 3260 C 6433 3311 6435 3379 6437 4290 C 6440 5069 6438 5270 6427 5290 L 6414 5315 L 6208 5318 C 6030 5320 6000 5318 5986 5304 z" stroke-linecap="round" />
</g>
</g>
</g>
</svg>