<?xml version="1.0" standalone="no"?>
<!DOCTYPE svg PUBLIC "-//W3C//DTD SVG 20010904//EN"
 "http://www.w3.org/TR/2001/REC-SVG-20010904/DTD/svg10.dtd">
<svg version="1.0" xmlns="http://www.w3.org/2000/svg"
 width="512.000000pt" height="512.000000pt" viewBox="0 0 512.000000 512.000000"
 preserveAspectRatio="xMidYMid meet">

<g transform="translate(0.000000,512.000000) scale(0.100000,-0.100000)"
fill="#000000" stroke="none">
<path d="M3820 5109 c-70 -14 -86 -36 -82 -119 5 -125 53 -270 119 -357 l24
-33 -454 0 c-444 0 -455 0 -481 -21 -33 -26 -36 -79 -6 -109 20 -20 33 -20
965 -20 1018 0 992 1 1029 -51 14 -20 16 -61 16 -311 l0 -288 -1430 0 -1430 0
0 280 c0 312 2 325 64 354 28 13 73 16 275 16 228 0 242 1 261 20 30 30 27 83
-7 110 -27 21 -34 21 -288 18 -246 -3 -262 -4 -301 -25 -64 -34 -100 -69 -126
-121 l-23 -47 -5 -1067 -5 -1066 -138 501 -137 502 0 465 c0 507 -2 531 -57
633 -15 27 -53 73 -85 102 -140 130 -325 157 -495 73 -70 -34 -158 -120 -192
-186 -49 -95 -51 -125 -51 -621 l0 -464 -215 -784 -215 -783 0 -255 0 -255
-87 0 c-133 -1 -205 -44 -234 -139 -17 -57 -7 -380 15 -456 83 -298 324 -525
620 -586 81 -17 141 -19 552 -19 473 0 524 3 644 42 80 26 129 49 201 98 l56
38 32 -44 c17 -24 52 -58 78 -75 99 -62 37 -59 1293 -59 1246 0 1200 -2 1289
55 64 40 99 91 196 286 l95 189 0 1932 0 1933 -24 51 c-26 55 -91 118 -141
134 l-33 11 44 65 c56 83 95 203 101 314 5 73 3 88 -13 108 -40 48 -233 54
-350 11 -112 -41 -216 -133 -268 -236 -9 -18 -18 -33 -20 -33 -2 0 -19 26 -39
58 -113 184 -321 273 -537 231z m263 -174 c90 -42 154 -124 198 -254 29 -84
31 -81 -73 -81 -106 0 -128 9 -197 82 -47 49 -85 120 -106 199 -25 93 -25 93
54 86 44 -4 90 -15 124 -32z m817 28 c0 -5 -7 -36 -15 -71 -27 -112 -84 -202
-169 -264 -36 -26 -45 -28 -137 -28 l-98 0 15 53 c48 165 140 270 264 303 50
14 140 18 140 7z m-3560 -544 c58 -26 105 -71 138 -134 l27 -50 3 -447 3 -448
-291 0 -290 0 0 429 c0 484 1 496 73 577 86 98 217 126 337 73z m3610 -859 l0
-90 -1430 0 -1430 0 0 90 0 90 1430 0 1430 0 0 -90z m0 -1585 l0 -1345 -1276
0 c-1212 0 -1276 1 -1268 17 4 10 9 104 11 208 4 185 4 191 -19 235 -14 25
-44 59 -67 75 -39 28 -51 30 -142 33 l-99 4 0 1059 0 1059 1430 0 1430 0 0
-1345z m-4000 1211 c0 -2 -20 -152 -45 -332 -25 -181 -45 -346 -45 -366 0 -92
115 -109 140 -20 9 32 100 680 100 711 0 6 9 11 20 11 20 0 20 -7 20 -710 l0
-710 -115 0 c-85 0 -115 3 -115 13 0 6 11 90 25 185 17 118 21 180 15 197 -18
48 -82 60 -118 22 -17 -18 -26 -55 -48 -220 l-28 -197 -117 0 c-91 0 -117 3
-114 13 4 11 346 1258 374 1365 9 31 17 42 31 42 11 0 20 -2 20 -4z m390 -7
c0 -6 43 -323 95 -704 52 -381 95 -695 95 -699 0 -3 -54 -6 -120 -6 l-120 0 0
710 0 710 25 0 c14 0 25 -5 25 -11z m214 -86 c15 -54 102 -372 195 -708 l167
-610 -114 -3 c-63 -1 -116 -1 -117 0 -2 2 -44 305 -94 673 -51 369 -95 687
-98 708 -5 32 -3 37 15 37 16 0 24 -15 46 -97z m-806 -1680 l-3 -208 -122 -3
-123 -3 0 211 0 210 125 0 125 0 -2 -207z m392 -3 l0 -210 -120 0 -120 0 0
210 0 210 120 0 120 0 0 -210z m400 0 l0 -211 -122 3 -123 3 -3 195 c-1 107 0
200 2 207 4 10 37 13 126 13 l120 0 0 -210z m400 0 l0 -211 -122 3 -123 3 -3
208 -2 207 125 0 125 0 0 -210z m315 -377 c15 -15 17 -37 12 -187 -4 -151 -7
-179 -30 -244 -83 -233 -279 -401 -517 -442 -44 -7 -219 -10 -540 -8 l-475 3
-76 27 c-110 39 -195 92 -269 168 -76 77 -121 150 -158 252 -23 65 -26 91 -30
239 -3 112 0 174 7 188 l12 21 1024 0 c945 0 1025 -1 1040 -17z m2645 -565 c0
-7 -29 -67 -63 -133 -51 -97 -70 -125 -105 -150 l-44 -30 -1145 -3 c-737 -1
-1158 1 -1182 8 -40 11 -94 58 -117 102 -14 26 -12 30 22 74 19 26 46 69 60
96 l24 48 1275 0 c1014 0 1275 -3 1275 -12z"/>
<path d="M3644 2951 c-23 -10 -54 -36 -70 -57 l-29 -37 -3 -266 c-4 -284 1
-319 44 -370 48 -57 81 -63 375 -59 255 3 265 4 301 26 20 13 47 40 60 60 23
36 23 42 23 318 l0 280 -28 43 c-50 76 -72 81 -372 81 -233 0 -264 -2 -301
-19z m544 -143 c19 -19 17 -471 -2 -487 -9 -8 -85 -11 -252 -9 l-239 3 -3 240
c-1 132 0 245 2 252 7 18 476 19 494 1z"/>
<path d="M2817 2515 c-131 -51 -249 -103 -262 -115 -33 -31 -55 -81 -55 -125
0 -45 171 -496 206 -542 30 -40 101 -68 151 -59 46 7 465 170 510 197 37 23
73 91 73 137 0 41 -174 496 -206 538 -12 17 -38 39 -57 48 -64 30 -107 20
-360 -79z m388 -281 c73 -189 85 -228 74 -239 -8 -7 -110 -49 -228 -94 -174
-66 -217 -79 -227 -69 -17 18 -177 435 -172 449 4 11 421 177 449 178 12 1 39
-59 104 -225z"/>
<path d="M4016 1850 c-127 -49 -241 -98 -255 -108 -15 -10 -36 -34 -48 -52
-41 -60 -33 -104 67 -363 49 -127 98 -243 108 -257 23 -31 97 -70 135 -70 15
0 137 41 270 92 199 76 248 98 279 128 40 40 63 103 52 147 -13 51 -176 467
-196 501 -26 42 -85 72 -140 71 -29 0 -116 -29 -272 -89z m289 -71 c4 -6 45
-108 91 -227 71 -184 82 -219 70 -228 -31 -22 -448 -176 -455 -168 -16 18
-172 434 -169 450 2 11 72 43 218 100 118 46 220 83 227 84 6 0 15 -5 18 -11z"/>
</g>
</svg>
