<!DOCTYPE svg PUBLIC "-//W3C//DTD SVG 1.1//EN" "http://www.w3.org/Graphics/SVG/1.1/DTD/svg11.dtd">
<!-- Uploaded to: SVG Repo, www.svgrepo.com, Transformed by: SVG Repo Mixer Tools -->
<svg fill="#000000" height="77px" width="77px" version="1.1" id="Layer_1" xmlns="http://www.w3.org/2000/svg" xmlns:xlink="http://www.w3.org/1999/xlink" viewBox="0 0 512 512" xml:space="preserve" stroke="#000000" stroke-width="4.608">
<g id="SVGRepo_bgCarrier" stroke-width="0"/>
<g id="SVGRepo_tracerCarrier" stroke-linecap="round" stroke-linejoin="round"/>
<g id="SVGRepo_iconCarrier"> <g> <g> <path d="M349.177,48.883c0-11.3-4.401-21.936-12.397-29.951c-7.989-7.998-18.615-12.403-29.922-12.403h-12.894 c-4.329,0-7.837,3.509-7.837,7.837c0,4.328,3.508,7.837,7.837,7.837h12.894c7.117,0,13.805,2.772,18.83,7.801 c5.04,5.053,7.815,11.757,7.815,18.878c0,14.711-11.953,26.68-26.645,26.68h-38.661c-4.329,0-7.837,3.509-7.837,7.837 c0,4.328,3.508,7.837,7.837,7.837c7.117,0,13.805,2.772,18.829,7.801c5.041,5.053,7.816,11.758,7.816,18.878 c0,14.711-11.953,26.68-26.645,26.68h-20.803c-4.329,0-7.837,3.509-7.837,7.837c0,4.328,3.508,7.837,7.837,7.837 c10.785,0,19.561,8.788,19.561,19.589v14.183c0,10.801-8.774,19.589-19.561,19.589h-32.893c-10.779,0-19.55-8.788-19.55-19.589 v-14.183c0-10.801,8.771-19.589,19.55-19.589h11.024c4.329,0,7.837-3.509,7.837-7.837c0-4.328-3.508-7.837-7.837-7.837 c-7.116,0-13.804-2.772-18.829-7.801c-5.041-5.053-7.816-11.758-7.816-18.878c0-14.711,11.953-26.679,26.645-26.679h14.461 c4.329,0,7.837-3.509,7.837-7.837s-3.508-7.837-7.837-7.837c-7.115,0-13.808-2.774-18.839-7.801 c-5.033-5.047-7.806-11.752-7.806-18.878c0-14.711,11.953-26.679,26.645-26.679h16.193c4.329,0,7.837-3.509,7.837-7.837 c0-4.328-3.508-7.837-7.837-7.837h-16.193c-23.335,0-42.318,18.999-42.318,42.353c0,11.189,4.306,21.72,12.144,29.706 c-15.577,6.256-26.605,21.526-26.605,39.327c0,11.298,4.401,21.935,12.397,29.952c0.47,0.471,0.949,0.929,1.437,1.374 c-10.603,6.084-17.762,17.529-17.762,30.617v14.183c0,19.443,15.801,35.262,35.224,35.262h32.893 c19.428,0,35.234-15.819,35.234-35.262v-14.186c0-7.569-2.396-14.589-6.467-20.34c19.541-3.74,34.355-20.971,34.355-41.602 c0-9.823-3.327-19.145-9.449-26.679h5.792C330.193,91.237,349.177,72.237,349.177,48.883z"/> </g> </g> <g> <g> <path d="M499.982,391.144h-51.72c-4.329,0-7.837,3.509-7.837,7.837s3.508,7.837,7.837,7.837h47.947 c-1.871,28.583-25.722,51.267-54.77,51.267H70.562c-29.039,0-52.883-22.667-54.768-51.267h397.594 c4.329,0,7.837-3.509,7.837-7.837s-3.508-7.837-7.837-7.837h-88.947c4.955-2.202,9.701-4.626,14.212-7.295 c18.463-10.929,33.204-25.75,43.921-44.126c9.806,5.645,21.151,8.699,32.763,8.699c34.569,0,62.694-26.428,62.694-58.911 c0-32.484-28.124-58.911-62.694-58.911c-9.114,0-18.171,1.902-26.379,5.481c-0.387-0.03-0.775-0.047-1.165-0.047h-46.456 c-4.329,0-7.837,3.509-7.837,7.837c0,4.328,3.508,7.837,7.837,7.837h45.53c0.313,6.093,0.254,12.629-0.176,18.983 c-0.652,9.892-2.185,19.582-4.553,28.796c-2.334,9.041-5.482,17.578-9.356,25.383c-0.001,0.002-0.002,0.005-0.003,0.007 c-0.007,0.015-0.015,0.03-0.022,0.045c-21.685,43.737-65.689,65.914-130.79,65.914c-8.386,0-16.473-0.39-24.212-1.138 c7.497-8.579,12.876-19.096,16.081-31.445l21.943-6.312c4.159-1.196,6.561-5.538,5.366-9.698 c-1.197-4.159-5.541-6.559-9.698-5.365l-21.287,6.123c-4.511-3.438-14.588-10.022-29.423-13.566 c-17.271-4.127-44.572-4.804-78.513,14c-25.78-33.024-27.302-74.073-26.554-91.727h208.573c4.329,0,7.837-3.509,7.837-7.837 c0-4.328-3.508-7.837-7.837-7.837H94.73c-7.845,0-14.289,6.115-14.671,13.918c-0.92,18.639,0.273,64.212,28.733,101.745 c-14.789,9.992-29.756,23.026-44.596,38.869c-0.172,0.184-0.326,0.381-0.479,0.58H12.018C5.392,391.144,0,396.536,0,403.197 c0,37.233,28.993,67.802,65.585,70.368v18.616c0,7.328,5.962,13.29,13.29,13.29h354.251c7.328,0,13.29-5.962,13.29-13.29v-18.616 C483.007,470.998,512,440.428,512,403.162C512,396.536,506.608,391.144,499.982,391.144z M402.075,275.035 c3.709-2.787,8.401-4.365,13.262-4.365c11.476,0,20.814,8.451,20.814,18.839s-9.338,18.84-20.814,18.84 c-7.018,0-13.378-3.109-17.213-8.264C400.031,291.974,401.354,283.574,402.075,275.035z M393.149,316.914 c6.238,4.53,13.967,7.107,22.187,7.107c20.12,0,36.488-15.482,36.488-34.513c0-19.031-16.368-34.513-36.488-34.513 c-4.391,0-8.65,0.722-12.632,2.108c-0.036-2.451-0.104-4.889-0.245-7.289c-0.037-0.616-0.119-1.219-0.228-1.814 c4.241-1.129,8.659-1.729,13.105-1.729c25.927,0.001,47.019,19.397,47.019,43.239s-21.093,43.238-47.02,43.238 c-9.158,0-18.077-2.464-25.677-7.023C390.909,322.859,392.07,319.918,393.149,316.914z M124.396,360.287 c0.009-0.005,0.018-0.01,0.026-0.017c0.018-0.01,0.036-0.022,0.052-0.032c40.308-24.501,69.7-18.454,85.202-11.347l-78.842,22.678 c-4.159,1.196-6.561,5.538-5.366,9.698c0.988,3.436,4.122,5.673,7.527,5.673c0.718,0,1.447-0.099,2.17-0.307l80.49-23.153 c-4.349,10.68-11.035,18.983-20.255,25.159c-1.309,0.877-2.713,1.706-4.15,2.506H85.558 C98.616,378.4,111.64,368.049,124.396,360.287z M430.742,489.796h-0.001H81.259v-16.037h349.484V489.796z"/> </g> </g> </g>
</svg>